%TF.GenerationSoftware,KiCad,Pcbnew,(6.0.11-0)*%
%TF.CreationDate,2023-05-05T09:17:23+02:00*%
%TF.ProjectId,Q17-PCB-Coil,5131372d-5043-4422-9d43-6f696c2e6b69,1.0*%
%TF.SameCoordinates,Original*%
%TF.FileFunction,Legend,Top*%
%TF.FilePolarity,Positive*%
%FSLAX46Y46*%
G04 Gerber Fmt 4.6, Leading zero omitted, Abs format (unit mm)*
G04 Created by KiCad (PCBNEW (6.0.11-0)) date 2023-05-05 09:17:23*
%MOMM*%
%LPD*%
G01*
G04 APERTURE LIST*
%ADD10C,0.150000*%
%ADD11C,0.120000*%
G04 APERTURE END LIST*
D10*
X129320962Y-85288380D02*
X128749533Y-85288380D01*
X129035247Y-85288380D02*
X129035247Y-84288380D01*
X128940009Y-84431238D01*
X128844771Y-84526476D01*
X128749533Y-84574095D01*
X129749533Y-85193142D02*
X129797152Y-85240761D01*
X129749533Y-85288380D01*
X129701914Y-85240761D01*
X129749533Y-85193142D01*
X129749533Y-85288380D01*
X130178104Y-84383619D02*
X130225724Y-84336000D01*
X130320962Y-84288380D01*
X130559057Y-84288380D01*
X130654295Y-84336000D01*
X130701914Y-84383619D01*
X130749533Y-84478857D01*
X130749533Y-84574095D01*
X130701914Y-84716952D01*
X130130485Y-85288380D01*
X130749533Y-85288380D01*
X131606676Y-84621714D02*
X131606676Y-85288380D01*
X131178104Y-84621714D02*
X131178104Y-85145523D01*
X131225724Y-85240761D01*
X131320962Y-85288380D01*
X131463819Y-85288380D01*
X131559057Y-85240761D01*
X131606676Y-85193142D01*
X132082866Y-85288380D02*
X132082866Y-84288380D01*
X132082866Y-84764571D02*
X132654295Y-84764571D01*
X132654295Y-85288380D02*
X132654295Y-84288380D01*
X110625238Y-111466380D02*
X110815714Y-111466380D01*
X110910952Y-111514000D01*
X111006190Y-111609238D01*
X111053809Y-111799714D01*
X111053809Y-112133047D01*
X111006190Y-112323523D01*
X110910952Y-112418761D01*
X110815714Y-112466380D01*
X110625238Y-112466380D01*
X110530000Y-112418761D01*
X110434761Y-112323523D01*
X110387142Y-112133047D01*
X110387142Y-111799714D01*
X110434761Y-111609238D01*
X110530000Y-111514000D01*
X110625238Y-111466380D01*
X111482380Y-111466380D02*
X111482380Y-112275904D01*
X111530000Y-112371142D01*
X111577619Y-112418761D01*
X111672857Y-112466380D01*
X111863333Y-112466380D01*
X111958571Y-112418761D01*
X112006190Y-112371142D01*
X112053809Y-112275904D01*
X112053809Y-111466380D01*
X112387142Y-111466380D02*
X112958571Y-111466380D01*
X112672857Y-112466380D02*
X112672857Y-111466380D01*
X113291904Y-112466380D02*
X113291904Y-111466380D01*
X113672857Y-111466380D01*
X113768095Y-111514000D01*
X113815714Y-111561619D01*
X113863333Y-111656857D01*
X113863333Y-111799714D01*
X113815714Y-111894952D01*
X113768095Y-111942571D01*
X113672857Y-111990190D01*
X113291904Y-111990190D01*
X114291904Y-111466380D02*
X114291904Y-112275904D01*
X114339523Y-112371142D01*
X114387142Y-112418761D01*
X114482380Y-112466380D01*
X114672857Y-112466380D01*
X114768095Y-112418761D01*
X114815714Y-112371142D01*
X114863333Y-112275904D01*
X114863333Y-111466380D01*
X115196666Y-111466380D02*
X115768095Y-111466380D01*
X115482380Y-112466380D02*
X115482380Y-111466380D01*
X118459428Y-97067714D02*
X118697523Y-97734380D01*
X118935619Y-97067714D01*
X119840380Y-97734380D02*
X119268952Y-97734380D01*
X119554666Y-97734380D02*
X119554666Y-96734380D01*
X119459428Y-96877238D01*
X119364190Y-96972476D01*
X119268952Y-97020095D01*
X120268952Y-97639142D02*
X120316571Y-97686761D01*
X120268952Y-97734380D01*
X120221333Y-97686761D01*
X120268952Y-97639142D01*
X120268952Y-97734380D01*
X120935619Y-96734380D02*
X121030857Y-96734380D01*
X121126095Y-96782000D01*
X121173714Y-96829619D01*
X121221333Y-96924857D01*
X121268952Y-97115333D01*
X121268952Y-97353428D01*
X121221333Y-97543904D01*
X121173714Y-97639142D01*
X121126095Y-97686761D01*
X121030857Y-97734380D01*
X120935619Y-97734380D01*
X120840380Y-97686761D01*
X120792761Y-97639142D01*
X120745142Y-97543904D01*
X120697523Y-97353428D01*
X120697523Y-97115333D01*
X120745142Y-96924857D01*
X120792761Y-96829619D01*
X120840380Y-96782000D01*
X120935619Y-96734380D01*
X107862952Y-84637619D02*
X107910571Y-84590000D01*
X108005809Y-84542380D01*
X108243904Y-84542380D01*
X108339142Y-84590000D01*
X108386761Y-84637619D01*
X108434380Y-84732857D01*
X108434380Y-84828095D01*
X108386761Y-84970952D01*
X107815333Y-85542380D01*
X108434380Y-85542380D01*
X109005809Y-84970952D02*
X108910571Y-84923333D01*
X108862952Y-84875714D01*
X108815333Y-84780476D01*
X108815333Y-84732857D01*
X108862952Y-84637619D01*
X108910571Y-84590000D01*
X109005809Y-84542380D01*
X109196285Y-84542380D01*
X109291523Y-84590000D01*
X109339142Y-84637619D01*
X109386761Y-84732857D01*
X109386761Y-84780476D01*
X109339142Y-84875714D01*
X109291523Y-84923333D01*
X109196285Y-84970952D01*
X109005809Y-84970952D01*
X108910571Y-85018571D01*
X108862952Y-85066190D01*
X108815333Y-85161428D01*
X108815333Y-85351904D01*
X108862952Y-85447142D01*
X108910571Y-85494761D01*
X109005809Y-85542380D01*
X109196285Y-85542380D01*
X109291523Y-85494761D01*
X109339142Y-85447142D01*
X109386761Y-85351904D01*
X109386761Y-85161428D01*
X109339142Y-85066190D01*
X109291523Y-85018571D01*
X109196285Y-84970952D01*
X109720095Y-85542380D02*
X110243904Y-84875714D01*
X109720095Y-84875714D02*
X110243904Y-85542380D01*
X110529619Y-84542380D02*
X111148666Y-84542380D01*
X110815333Y-84923333D01*
X110958190Y-84923333D01*
X111053428Y-84970952D01*
X111101047Y-85018571D01*
X111148666Y-85113809D01*
X111148666Y-85351904D01*
X111101047Y-85447142D01*
X111053428Y-85494761D01*
X110958190Y-85542380D01*
X110672476Y-85542380D01*
X110577238Y-85494761D01*
X110529619Y-85447142D01*
X112005809Y-84875714D02*
X112005809Y-85542380D01*
X111767714Y-84494761D02*
X111529619Y-85209047D01*
X112148666Y-85209047D01*
X125071428Y-112212380D02*
X125071428Y-111212380D01*
X125547619Y-112212380D02*
X125547619Y-111212380D01*
X126119047Y-112212380D01*
X126119047Y-111212380D01*
X126595238Y-112212380D02*
X126595238Y-111212380D01*
X126976190Y-111212380D01*
X127071428Y-111260000D01*
X127119047Y-111307619D01*
X127166666Y-111402857D01*
X127166666Y-111545714D01*
X127119047Y-111640952D01*
X127071428Y-111688571D01*
X126976190Y-111736190D01*
X126595238Y-111736190D01*
X127595238Y-111212380D02*
X127595238Y-112021904D01*
X127642857Y-112117142D01*
X127690476Y-112164761D01*
X127785714Y-112212380D01*
X127976190Y-112212380D01*
X128071428Y-112164761D01*
X128119047Y-112117142D01*
X128166666Y-112021904D01*
X128166666Y-111212380D01*
X128500000Y-111212380D02*
X129071428Y-111212380D01*
X128785714Y-112212380D02*
X128785714Y-111212380D01*
%TO.C,J1-2*%
X107791427Y-113906679D02*
X107791427Y-114620965D01*
X107743808Y-114763822D01*
X107648570Y-114859060D01*
X107505713Y-114906679D01*
X107410475Y-114906679D01*
X108791427Y-114906679D02*
X108219999Y-114906679D01*
X108505713Y-114906679D02*
X108505713Y-113906679D01*
X108410475Y-114049537D01*
X108315237Y-114144775D01*
X108219999Y-114192394D01*
X109219999Y-114525727D02*
X109981903Y-114525727D01*
X110410475Y-114001918D02*
X110458094Y-113954299D01*
X110553332Y-113906679D01*
X110791427Y-113906679D01*
X110886665Y-113954299D01*
X110934284Y-114001918D01*
X110981903Y-114097156D01*
X110981903Y-114192394D01*
X110934284Y-114335251D01*
X110362856Y-114906679D01*
X110981903Y-114906679D01*
%TO.C,J1-1*%
X129422845Y-113915361D02*
X129422845Y-114629647D01*
X129375226Y-114772504D01*
X129279988Y-114867742D01*
X129137131Y-114915361D01*
X129041893Y-114915361D01*
X130422845Y-114915361D02*
X129851417Y-114915361D01*
X130137131Y-114915361D02*
X130137131Y-113915361D01*
X130041893Y-114058219D01*
X129946655Y-114153457D01*
X129851417Y-114201076D01*
X130851417Y-114534409D02*
X131613321Y-114534409D01*
X132613321Y-114915361D02*
X132041893Y-114915361D01*
X132327607Y-114915361D02*
X132327607Y-113915361D01*
X132232369Y-114058219D01*
X132137131Y-114153457D01*
X132041893Y-114201076D01*
D11*
%TO.C,J1-2*%
X111530000Y-115908853D02*
X114530000Y-115908853D01*
X111530000Y-113058853D02*
X111530000Y-115908853D01*
X114530000Y-113058853D02*
X114530000Y-115908853D01*
X111530000Y-113058853D02*
X114530000Y-113058853D01*
%TO.C,J1-1*%
X125500000Y-115908853D02*
X128500000Y-115908853D01*
X128500000Y-113058853D02*
X128500000Y-115908853D01*
X125500000Y-113058853D02*
X128500000Y-113058853D01*
X125500000Y-113058853D02*
X125500000Y-115908853D01*
%TD*%
M02*
