999
dxfrw 0.5.10
0
SECTION
  2
HEADER
9
$ACADVER
  1
AC1021
  9
$MEASUREMENT
  70
  1
  9
$INSUNITS
  70
  4
9
$HANDSEED
  5
20000
0
ENDSEC
 0
SECTION
2
CLASSES
0
ENDSEC
 0
SECTION
 2
TABLES
0
TABLE
2
VPORT
5
8
330
0
100
AcDbSymbolTable
70
1
0
VPORT
5
31
330
2
100
AcDbSymbolTableRecord
100
AcDbViewportTableRecord
2
*ACTIVE
70
0
10
0
20
0
11
1
21
1
12
209.475294253
22
86.0026335861
13
0
23
0
14
10
24
10
15
10
25
10
16
0
26
0
36
1
17
0
27
0
37
0
40
319.744231092
41
2.12946428571
42
50
43
0
44
0
50
0
51
0
71
0
72
100
73
1
74
3
75
0
76
0
77
0
78
0
281
0
65
1
110
0
120
0
130
0
111
1
121
0
131
0
112
0
122
1
132
0
79
0
146
0
348
10020
60
7
61
5
292
1
282
1
141
0
142
0
63
250
421
3358443
0
ENDTAB
0
TABLE
2
LTYPE
5
5
330
0
100
AcDbSymbolTable
70
4
0
LTYPE
5
14
330
5
100
AcDbSymbolTableRecord
100
AcDbLinetypeTableRecord
2
ByBlock
70
0
3

72
65
73
0
40
0
0
LTYPE
5
15
330
5
100
AcDbSymbolTableRecord
100
AcDbLinetypeTableRecord
2
ByLayer
70
0
3
 
72
65
73
0
40
0
0
LTYPE
5
16
330
5
100
AcDbSymbolTableRecord
100
AcDbLinetypeTableRecord
2
Continuous
70
0
3
Solid line
72
65
73
0
40
0.0
0
LTYPE
5
 0000009d
100
AcDbSymbolTableRecord
100
AcDbLinetypeTableRecord
2
DOT
70
0
3
Dot . . . . . . . . . . . . . . . . . . . . . .
72
65
73
2
40
 3.0
49
 1.0
74
 0
49
 0.0
74
 0
0
LTYPE
5
 0000009e
100
AcDbSymbolTableRecord
100
AcDbLinetypeTableRecord
2
DASHED
70
0
3
Dashed __ __ __ __ __ __ __ __ __ __ __ __ __ _
72
65
73
2
40
1.0
49
 0.55
74
0
49
-0.45
74
0
0
ENDTAB
0
TABLE
2
LAYER
5
10
330
0
100
AcDbSymbolTable
70
1
0
LAYER
5
 0000009f
330
 2
100
AcDbSymbolTableRecord
100
AcDbLayerTableRecord
2
0
70
0
62
7
6
CONTINUOUS
370
 -3.0
390
F
0
LAYER
5
 000000a0
330
 2
100
AcDbSymbolTableRecord
100
AcDbLayerTableRecord
2
contour007
70
0
62
7
6
CONTINUOUS
370
 0.1
390
F
0
LAYER
5
 000000a1
330
 2
100
AcDbSymbolTableRecord
100
AcDbLayerTableRecord
2
reference_cross001
70
0
62
1
6
CONTINUOUS
370
 0.1
390
F
0
ENDTAB
0
TABLE
2
STYLE
5
3
330
0
100
AcDbSymbolTable
70
3
0
STYLE
5
45
330
2
100
AcDbSymbolTableRecord
100
AcDbTextStyleTableRecord
2
Standard
70
0
40
0
41
1
50
0
71
0
42
1
3
txt
4
 
0
ENDTAB
0
TABLE
2
VIEW
5
6
330
0
100
AcDbSymbolTable
70
0
0
ENDTAB
0
TABLE
2
UCS
5
7
330
0
100
AcDbSymbolTable
70
0
0
ENDTAB
0
TABLE
2
APPID
5
9
330
0
100
AcDbSymbolTable
70
1
0
APPID
5
12
330
9
100
AcDbSymbolTableRecord
100
AcDbRegAppTableRecord
2
ACAD
70
0
0
ENDTAB
0
TABLE
2
DIMSTYLE
5
A
330
0
100
AcDbSymbolTable
70
1
100
AcDbDimStyleTable
71
1
0
DIMSTYLE
105
46
330
A
100
AcDbSymbolTableRecord
100
AcDbDimStyleTableRecord
2
Standard
70
0
40
1
41
0.18
42
0.0625
43
0.38
44
0.18
45
0
46
0
47
0
48
0
140
0.18
141
0.09
142
0
143
25.4
144
1
145
0
146
1
147
0.09
148
0
71
0
72
0
73
0
74
1
75
0
76
0
77
0
78
0
79
0
170
0
171
2
172
0
173
0
174
0
175
0
176
0
177
0
178
0
179
0
271
4
272
4
273
2
274
2
275
0
276
0
277
2
278
46
279
0
280
0
281
0
282
0
283
1
284
0
285
0
286
0
288
0
289
3
340
Standard
341
 
371
-2
372
-2
0
ENDTAB
0
TABLE
2
BLOCK_RECORD
5
1
330
0
100
AcDbSymbolTable
70
2
0
BLOCK_RECORD
5
1F
330
1
100
AcDbSymbolTableRecord
100
AcDbBlockTableRecord
2
*Model_Space
70
0
280
1
281
0
0
BLOCK_RECORD
5
1E
330
1
100
AcDbSymbolTableRecord
100
AcDbBlockTableRecord
2
*Paper_Space
70
0
280
1
281
0
0
ENDTAB
0
ENDSEC
0
SECTION
2
BLOCKS
0
BLOCK
5
20
330
1F
100
AcDbEntity
8
0
100
AcDbBlockBegin
2
*Model_Space
70
0
10
0
20
0
30
0
3
*Model_Space
1
 
0
ENDBLK
5
21
330
1F
100
AcDbEntity
8
0
100
AcDbBlockEnd
0
BLOCK
5
1C
330
1B
100
AcDbEntity
8
0
100
AcDbBlockBegin
2
*Paper_Space
70
0
10
0
20
0
30
0
3
*Paper_Space
1
 
0
ENDBLK
5
1D
330
1E
100
AcDbEntity
8
0
100
AcDbBlockEnd
0
ENDSEC
0
SECTION
  2
ENTITIES
0
ARC
  5
000000a2
 39
 0.100 
 100
AcDbEntity
8
contour007
 6
CONTINUOUS
100
AcDbCircle
 10
215.000000000000
 20
79.000000000000
 30
 0
 40
1.000000000000
100
AcDbArc
 50
360.000000000000
 51
90.000000000000
0
LINE
  5
000000a3
 39
 0.100 
 100
AcDbEntity
8
contour007
 6
CONTINUOUS
 100
AcDbLine
 10
216.000000000000
 20
1.000000000000
 30
 0.0
 11
216.000000000000
 21
79.000000000000
 31
0.0
0
ARC
  5
000000a4
 39
 0.100 
 100
AcDbEntity
8
contour007
 6
CONTINUOUS
100
AcDbCircle
 10
215.000000000000
 20
1.000000000000
 30
 0
 40
1.000000000000
100
AcDbArc
 50
270.000000000000
 51
0.000000000000
0
LINE
  5
000000a5
 39
 0.100 
 100
AcDbEntity
8
contour007
 6
CONTINUOUS
 100
AcDbLine
 10
1.000000000000
 20
0.000000000000
 30
 0.0
 11
215.000000000000
 21
0.000000000000
 31
0.0
0
ARC
  5
000000a6
 39
 0.100 
 100
AcDbEntity
8
contour007
 6
CONTINUOUS
100
AcDbCircle
 10
1.000000000000
 20
1.000000000000
 30
 0
 40
1.000000000000
100
AcDbArc
 50
540.000000000000
 51
270.000000000000
0
LINE
  5
000000a7
 39
 0.100 
 100
AcDbEntity
8
contour007
 6
CONTINUOUS
 100
AcDbLine
 10
0.000000000000
 20
79.000000000000
 30
 0.0
 11
0.000000000000
 21
1.000000000000
 31
0.0
0
ARC
  5
000000a8
 39
 0.100 
 100
AcDbEntity
8
contour007
 6
CONTINUOUS
100
AcDbCircle
 10
1.000000000000
 20
79.000000000000
 30
 0
 40
1.000000000000
100
AcDbArc
 50
450.000000000000
 51
180.000000000000
0
LINE
  5
000000a9
 39
 0.100 
 100
AcDbEntity
8
contour007
 6
CONTINUOUS
 100
AcDbLine
 10
215.000000000000
 20
80.000000000000
 30
 0.0
 11
1.000000000000
 21
80.000000000000
 31
0.0
0
CIRCLE
  5
000000aa
 39
 0.100 
 100
AcDbEntity
8
contour007
 6
CONTINUOUS
100
AcDbCircle
 10
6.243000000000
 20
74.038000000000
 30
 0
 40
2.250000000000
0
CIRCLE
  5
000000ab
 39
 0.100 
 100
AcDbEntity
8
contour007
 6
CONTINUOUS
100
AcDbCircle
 10
6.243000000000
 20
6.038000000000
 30
 0
 40
2.250000000000
0
CIRCLE
  5
000000ac
 39
 0.100 
 100
AcDbEntity
8
contour007
 6
CONTINUOUS
100
AcDbCircle
 10
210.243000000000
 20
6.038000000000
 30
 0
 40
2.250000000000
0
CIRCLE
  5
000000ad
 39
 0.100 
 100
AcDbEntity
8
contour007
 6
CONTINUOUS
100
AcDbCircle
 10
210.243000000000
 20
74.038000000000
 30
 0
 40
2.250000000000
0
CIRCLE
  5
000000ae
 39
 0.100 
 100
AcDbEntity
8
contour007
 6
CONTINUOUS
100
AcDbCircle
 10
84.133000000000
 20
72.038000000000
 30
 0
 40
1.229000000000
0
ARC
  5
000000af
 39
 0.100 
 100
AcDbEntity
8
contour007
 6
CONTINUOUS
100
AcDbCircle
 10
84.133000000000
 20
72.038000000000
 30
 0
 40
1.500000000000
100
AcDbArc
 50
0.000000000000
 51
270.000000000000
0
CIRCLE
  5
000000b0
 39
 0.100 
 100
AcDbEntity
8
contour007
 6
CONTINUOUS
100
AcDbCircle
 10
129.848000000000
 20
74.038000000000
 30
 0
 40
1.229000000000
0
ARC
  5
000000b1
 39
 0.100 
 100
AcDbEntity
8
contour007
 6
CONTINUOUS
100
AcDbCircle
 10
129.848000000000
 20
74.038000000000
 30
 0
 40
1.500000000000
100
AcDbArc
 50
0.000000000000
 51
270.000000000000
0
CIRCLE
  5
000000b2
 39
 0.100 
 100
AcDbEntity
8
contour007
 6
CONTINUOUS
100
AcDbCircle
 10
173.790000000000
 20
74.038000000000
 30
 0
 40
1.229000000000
0
ARC
  5
000000b3
 39
 0.100 
 100
AcDbEntity
8
contour007
 6
CONTINUOUS
100
AcDbCircle
 10
173.790000000000
 20
74.038000000000
 30
 0
 40
1.500000000000
100
AcDbArc
 50
0.000000000000
 51
270.000000000000
0
CIRCLE
  5
000000b4
 39
 0.100 
 100
AcDbEntity
8
contour007
 6
CONTINUOUS
100
AcDbCircle
 10
16.743000000000
 20
74.038000000000
 30
 0
 40
1.229000000000
0
ARC
  5
000000b5
 39
 0.100 
 100
AcDbEntity
8
contour007
 6
CONTINUOUS
100
AcDbCircle
 10
16.743000000000
 20
74.038000000000
 30
 0
 40
1.500000000000
100
AcDbArc
 50
0.000000000000
 51
270.000000000000
0
CIRCLE
  5
000000b6
 39
 0.100 
 100
AcDbEntity
8
contour007
 6
CONTINUOUS
100
AcDbCircle
 10
199.743000000000
 20
74.038000000000
 30
 0
 40
1.229000000000
0
ARC
  5
000000b7
 39
 0.100 
 100
AcDbEntity
8
contour007
 6
CONTINUOUS
100
AcDbCircle
 10
199.743000000000
 20
74.038000000000
 30
 0
 40
1.500000000000
100
AcDbArc
 50
0.000000000000
 51
270.000000000000
0
CIRCLE
  5
000000b8
 39
 0.100 
 100
AcDbEntity
8
contour007
 6
CONTINUOUS
100
AcDbCircle
 10
16.743000000000
 20
6.038000000000
 30
 0
 40
1.229000000000
0
ARC
  5
000000b9
 39
 0.100 
 100
AcDbEntity
8
contour007
 6
CONTINUOUS
100
AcDbCircle
 10
16.743000000000
 20
6.038000000000
 30
 0
 40
1.500000000000
100
AcDbArc
 50
0.000000000000
 51
270.000000000000
0
CIRCLE
  5
000000ba
 39
 0.100 
 100
AcDbEntity
8
contour007
 6
CONTINUOUS
100
AcDbCircle
 10
199.743000000000
 20
6.038000000000
 30
 0
 40
1.229000000000
0
ARC
  5
000000bb
 39
 0.100 
 100
AcDbEntity
8
contour007
 6
CONTINUOUS
100
AcDbCircle
 10
199.743000000000
 20
6.038000000000
 30
 0
 40
1.500000000000
100
AcDbArc
 50
0.000000000000
 51
270.000000000000
0
CIRCLE
  5
000000bc
 39
 0.100 
 100
AcDbEntity
8
contour007
 6
CONTINUOUS
100
AcDbCircle
 10
84.133000000000
 20
8.038000000000
 30
 0
 40
1.229000000000
0
ARC
  5
000000bd
 39
 0.100 
 100
AcDbEntity
8
contour007
 6
CONTINUOUS
100
AcDbCircle
 10
84.133000000000
 20
8.038000000000
 30
 0
 40
1.500000000000
100
AcDbArc
 50
0.000000000000
 51
270.000000000000
0
CIRCLE
  5
000000be
 39
 0.100 
 100
AcDbEntity
8
contour007
 6
CONTINUOUS
100
AcDbCircle
 10
129.853000000000
 20
6.038000000000
 30
 0
 40
1.229000000000
0
ARC
  5
000000bf
 39
 0.100 
 100
AcDbEntity
8
contour007
 6
CONTINUOUS
100
AcDbCircle
 10
129.853000000000
 20
6.038000000000
 30
 0
 40
1.500000000000
100
AcDbArc
 50
0.000000000000
 51
270.000000000000
0
CIRCLE
  5
000000c0
 39
 0.100 
 100
AcDbEntity
8
contour007
 6
CONTINUOUS
100
AcDbCircle
 10
173.793000000000
 20
6.038000000000
 30
 0
 40
1.229000000000
0
ARC
  5
000000c1
 39
 0.100 
 100
AcDbEntity
8
contour007
 6
CONTINUOUS
100
AcDbCircle
 10
173.793000000000
 20
6.038000000000
 30
 0
 40
1.500000000000
100
AcDbArc
 50
0.000000000000
 51
270.000000000000
0
CIRCLE
  5
000000c2
 39
 0.100 
 100
AcDbEntity
8
contour007
 6
CONTINUOUS
100
AcDbCircle
 10
103.243000000000
 20
6.038000000000
 30
 0
 40
2.250000000000
0
CIRCLE
  5
000000c3
 39
 0.100 
 100
AcDbEntity
8
contour007
 6
CONTINUOUS
100
AcDbCircle
 10
103.243000000000
 20
74.038000000000
 30
 0
 40
2.250000000000
0
LINE
  5
000000c4
 39
 0.100 
 100
AcDbEntity
8
reference_cross001
 6
CONTINUOUS
 100
AcDbLine
 10
6.993000000000
 20
74.038000000000
 30
 0.0
 11
5.493000000000
 21
74.038000000000
 31
0.0
0
LINE
  5
000000c5
 39
 0.100 
 100
AcDbEntity
8
reference_cross001
 6
CONTINUOUS
 100
AcDbLine
 10
6.243000000000
 20
73.288000000000
 30
 0.0
 11
6.243000000000
 21
74.788000000000
 31
0.0
0
LINE
  5
000000c6
 39
 0.100 
 100
AcDbEntity
8
reference_cross001
 6
CONTINUOUS
 100
AcDbLine
 10
6.993000000000
 20
6.038000000000
 30
 0.0
 11
5.493000000000
 21
6.038000000000
 31
0.0
0
LINE
  5
000000c7
 39
 0.100 
 100
AcDbEntity
8
reference_cross001
 6
CONTINUOUS
 100
AcDbLine
 10
6.243000000000
 20
5.288000000000
 30
 0.0
 11
6.243000000000
 21
6.788000000000
 31
0.0
0
LINE
  5
000000c8
 39
 0.100 
 100
AcDbEntity
8
reference_cross001
 6
CONTINUOUS
 100
AcDbLine
 10
210.993000000000
 20
6.038000000000
 30
 0.0
 11
209.493000000000
 21
6.038000000000
 31
0.0
0
LINE
  5
000000c9
 39
 0.100 
 100
AcDbEntity
8
reference_cross001
 6
CONTINUOUS
 100
AcDbLine
 10
210.243000000000
 20
5.288000000000
 30
 0.0
 11
210.243000000000
 21
6.788000000000
 31
0.0
0
LINE
  5
000000ca
 39
 0.100 
 100
AcDbEntity
8
reference_cross001
 6
CONTINUOUS
 100
AcDbLine
 10
210.993000000000
 20
74.038000000000
 30
 0.0
 11
209.493000000000
 21
74.038000000000
 31
0.0
0
LINE
  5
000000cb
 39
 0.100 
 100
AcDbEntity
8
reference_cross001
 6
CONTINUOUS
 100
AcDbLine
 10
210.243000000000
 20
73.288000000000
 30
 0.0
 11
210.243000000000
 21
74.788000000000
 31
0.0
0
LINE
  5
000000cc
 39
 0.100 
 100
AcDbEntity
8
reference_cross001
 6
CONTINUOUS
 100
AcDbLine
 10
84.883000000000
 20
72.038000000000
 30
 0.0
 11
83.383000000000
 21
72.038000000000
 31
0.0
0
LINE
  5
000000cd
 39
 0.100 
 100
AcDbEntity
8
reference_cross001
 6
CONTINUOUS
 100
AcDbLine
 10
84.133000000000
 20
71.288000000000
 30
 0.0
 11
84.133000000000
 21
72.788000000000
 31
0.0
0
LINE
  5
000000ce
 39
 0.100 
 100
AcDbEntity
8
reference_cross001
 6
CONTINUOUS
 100
AcDbLine
 10
130.598000000000
 20
74.038000000000
 30
 0.0
 11
129.098000000000
 21
74.038000000000
 31
0.0
0
LINE
  5
000000cf
 39
 0.100 
 100
AcDbEntity
8
reference_cross001
 6
CONTINUOUS
 100
AcDbLine
 10
129.848000000000
 20
73.288000000000
 30
 0.0
 11
129.848000000000
 21
74.788000000000
 31
0.0
0
LINE
  5
000000d0
 39
 0.100 
 100
AcDbEntity
8
reference_cross001
 6
CONTINUOUS
 100
AcDbLine
 10
174.540000000000
 20
74.038000000000
 30
 0.0
 11
173.040000000000
 21
74.038000000000
 31
0.0
0
LINE
  5
000000d1
 39
 0.100 
 100
AcDbEntity
8
reference_cross001
 6
CONTINUOUS
 100
AcDbLine
 10
173.790000000000
 20
73.288000000000
 30
 0.0
 11
173.790000000000
 21
74.788000000000
 31
0.0
0
LINE
  5
000000d2
 39
 0.100 
 100
AcDbEntity
8
reference_cross001
 6
CONTINUOUS
 100
AcDbLine
 10
17.493000000000
 20
74.038000000000
 30
 0.0
 11
15.993000000000
 21
74.038000000000
 31
0.0
0
LINE
  5
000000d3
 39
 0.100 
 100
AcDbEntity
8
reference_cross001
 6
CONTINUOUS
 100
AcDbLine
 10
16.743000000000
 20
73.288000000000
 30
 0.0
 11
16.743000000000
 21
74.788000000000
 31
0.0
0
LINE
  5
000000d4
 39
 0.100 
 100
AcDbEntity
8
reference_cross001
 6
CONTINUOUS
 100
AcDbLine
 10
200.493000000000
 20
74.038000000000
 30
 0.0
 11
198.993000000000
 21
74.038000000000
 31
0.0
0
LINE
  5
000000d5
 39
 0.100 
 100
AcDbEntity
8
reference_cross001
 6
CONTINUOUS
 100
AcDbLine
 10
199.743000000000
 20
73.288000000000
 30
 0.0
 11
199.743000000000
 21
74.788000000000
 31
0.0
0
LINE
  5
000000d6
 39
 0.100 
 100
AcDbEntity
8
reference_cross001
 6
CONTINUOUS
 100
AcDbLine
 10
17.493000000000
 20
6.038000000000
 30
 0.0
 11
15.993000000000
 21
6.038000000000
 31
0.0
0
LINE
  5
000000d7
 39
 0.100 
 100
AcDbEntity
8
reference_cross001
 6
CONTINUOUS
 100
AcDbLine
 10
16.743000000000
 20
5.288000000000
 30
 0.0
 11
16.743000000000
 21
6.788000000000
 31
0.0
0
LINE
  5
000000d8
 39
 0.100 
 100
AcDbEntity
8
reference_cross001
 6
CONTINUOUS
 100
AcDbLine
 10
200.493000000000
 20
6.038000000000
 30
 0.0
 11
198.993000000000
 21
6.038000000000
 31
0.0
0
LINE
  5
000000d9
 39
 0.100 
 100
AcDbEntity
8
reference_cross001
 6
CONTINUOUS
 100
AcDbLine
 10
199.743000000000
 20
5.288000000000
 30
 0.0
 11
199.743000000000
 21
6.788000000000
 31
0.0
0
LINE
  5
000000da
 39
 0.100 
 100
AcDbEntity
8
reference_cross001
 6
CONTINUOUS
 100
AcDbLine
 10
84.883000000000
 20
8.038000000000
 30
 0.0
 11
83.383000000000
 21
8.038000000000
 31
0.0
0
LINE
  5
000000db
 39
 0.100 
 100
AcDbEntity
8
reference_cross001
 6
CONTINUOUS
 100
AcDbLine
 10
84.133000000000
 20
7.288000000000
 30
 0.0
 11
84.133000000000
 21
8.788000000000
 31
0.0
0
LINE
  5
000000dc
 39
 0.100 
 100
AcDbEntity
8
reference_cross001
 6
CONTINUOUS
 100
AcDbLine
 10
130.603000000000
 20
6.038000000000
 30
 0.0
 11
129.103000000000
 21
6.038000000000
 31
0.0
0
LINE
  5
000000dd
 39
 0.100 
 100
AcDbEntity
8
reference_cross001
 6
CONTINUOUS
 100
AcDbLine
 10
129.853000000000
 20
5.288000000000
 30
 0.0
 11
129.853000000000
 21
6.788000000000
 31
0.0
0
LINE
  5
000000de
 39
 0.100 
 100
AcDbEntity
8
reference_cross001
 6
CONTINUOUS
 100
AcDbLine
 10
174.543000000000
 20
6.038000000000
 30
 0.0
 11
173.043000000000
 21
6.038000000000
 31
0.0
0
LINE
  5
000000df
 39
 0.100 
 100
AcDbEntity
8
reference_cross001
 6
CONTINUOUS
 100
AcDbLine
 10
173.793000000000
 20
5.288000000000
 30
 0.0
 11
173.793000000000
 21
6.788000000000
 31
0.0
0
LINE
  5
000000e0
 39
 0.100 
 100
AcDbEntity
8
reference_cross001
 6
CONTINUOUS
 100
AcDbLine
 10
103.993000000000
 20
6.038000000000
 30
 0.0
 11
102.493000000000
 21
6.038000000000
 31
0.0
0
LINE
  5
000000e1
 39
 0.100 
 100
AcDbEntity
8
reference_cross001
 6
CONTINUOUS
 100
AcDbLine
 10
103.243000000000
 20
5.288000000000
 30
 0.0
 11
103.243000000000
 21
6.788000000000
 31
0.0
0
LINE
  5
000000e2
 39
 0.100 
 100
AcDbEntity
8
reference_cross001
 6
CONTINUOUS
 100
AcDbLine
 10
103.993000000000
 20
74.038000000000
 30
 0.0
 11
102.493000000000
 21
74.038000000000
 31
0.0
0
LINE
  5
000000e3
 39
 0.100 
 100
AcDbEntity
8
reference_cross001
 6
CONTINUOUS
 100
AcDbLine
 10
103.243000000000
 20
73.288000000000
 30
 0.0
 11
103.243000000000
 21
74.788000000000
 31
0.0
0
ENDSEC
0
SECTION
2
OBJECTS
0
DICTIONARY
5
C
330
0
100
AcDbDictionary
281
1
3
ACAD_GROUP
350
D
0
DICTIONARY
5
D
330
C
100
AcDbDictionary
281
1
0
ENDSEC
0
EOF
