M48
; DRILL file {KiCad 7.0.6-0} date 2023 August 21, Monday 15:57:06
; FORMAT={-:-/ absolute / inch / decimal}
; #@! TF.CreationDate,2023-08-21T15:57:06+02:00
; #@! TF.GenerationSoftware,Kicad,Pcbnew,7.0.6-0
; #@! TF.FileFunction,Plated,1,2,PTH
FMAT,2
INCH
; #@! TA.AperFunction,Plated,PTH,ComponentDrill
T1C0.0236
; #@! TA.AperFunction,Plated,PTH,ComponentDrill
T2C0.0315
; #@! TA.AperFunction,Plated,PTH,ComponentDrill
T3C0.0354
; #@! TA.AperFunction,Plated,PTH,ComponentDrill
T4C0.0394
; #@! TA.AperFunction,Plated,PTH,ComponentDrill
T5C0.0472
; #@! TA.AperFunction,Plated,PTH,ComponentDrill
T6C0.0594
; #@! TA.AperFunction,Plated,PTH,ComponentDrill
T7C0.0787
; #@! TA.AperFunction,Plated,PTH,ComponentDrill
T8C0.1693
%
G90
G05
T1
X3.9401Y-5.3831
X3.9403Y-1.7808
X3.9773Y-5.2933
X3.9773Y-5.4728
X3.9775Y-1.6911
X3.9775Y-1.8706
X4.0671Y-5.2561
X4.0671Y-5.51
X4.0673Y-1.6539
X4.0673Y-1.9078
X4.1568Y-5.2933
X4.1568Y-5.4728
X4.1571Y-1.6911
X4.1571Y-1.8706
X4.194Y-5.3831
X4.1943Y-1.7808
X5.943Y-3.5798
X5.9802Y-3.49
X5.9802Y-3.6696
X6.07Y-3.4528
X6.07Y-3.7067
X6.1598Y-3.49
X6.1598Y-3.6696
X6.197Y-3.5798
X7.5421Y-1.7811
X7.5421Y-5.3831
X7.5793Y-1.6913
X7.5793Y-1.8708
X7.5793Y-5.2933
X7.5793Y-5.4728
X7.6691Y-1.6541
X7.6691Y-1.908
X7.6691Y-5.2561
X7.6691Y-5.51
X7.7588Y-1.6913
X7.7588Y-1.8708
X7.7588Y-5.2933
X7.7588Y-5.4728
X7.796Y-1.7811
X7.796Y-5.3831
T2
X4.47Y-2.11
X4.47Y-5.06
X4.87Y-2.11
X4.87Y-5.06
X5.8702Y-2.11
X5.8702Y-5.06
X6.2702Y-2.11
X6.2702Y-5.06
X6.75Y-2.02
X6.75Y-5.15
X7.15Y-2.02
X7.15Y-5.15
T3
X6.95Y-1.7298
X6.95Y-1.8298
X6.95Y-5.3333
X6.95Y-5.4333
T4
X4.1751Y-2.6801
X4.1751Y-2.9754
X4.1751Y-4.1853
X4.1751Y-4.4806
X4.6363Y-1.78
X4.6363Y-5.3831
X5.03Y-1.78
X5.03Y-5.3831
T5
X5.7749Y-1.78
X5.7749Y-5.3831
X6.3655Y-1.78
X6.3655Y-5.3831
T6
X4.39Y-2.3356
X4.39Y-2.7293
X4.39Y-3.0246
X4.39Y-3.3199
X4.39Y-3.8408
X4.39Y-4.2345
X4.39Y-4.5298
X4.39Y-4.8251
T7
X5.3352Y-2.6533
X5.3352Y-3.047
X5.3352Y-4.1585
X5.3352Y-4.5522
X6.7952Y-4.1548
X6.7952Y-4.5485
X6.8032Y-2.6548
X6.8032Y-3.0485
T8
X6.07Y-3.5798
T4
G00X3.9651Y-2.2998
M15
G01X3.9651Y-2.2802
M16
G05
G00X3.9651Y-2.4998
M15
G01X3.9651Y-2.4802
M16
G05
G00X3.9651Y-3.1798
M15
G01X3.9651Y-3.1602
M16
G05
G00X3.9651Y-3.3798
M15
G01X3.9651Y-3.3602
M16
G05
G00X3.9651Y-3.7998
M15
G01X3.9651Y-3.7802
M16
G05
G00X3.9651Y-3.9998
M15
G01X3.9651Y-3.9802
M16
G05
G00X3.9651Y-4.6898
M15
G01X3.9651Y-4.6702
M16
G05
G00X3.9651Y-4.8898
M15
G01X3.9651Y-4.8702
M16
G05
G00X7.5598Y-3.4
M15
G01X7.5402Y-3.4
M16
G05
G00X7.5598Y-3.74
M15
G01X7.5402Y-3.74
M16
G05
G00X7.7151Y-2.3102
M15
G01X7.7151Y-2.3298
M16
G05
G00X7.7151Y-2.5102
M15
G01X7.7151Y-2.5298
M16
G05
G00X7.7151Y-2.7702
M15
G01X7.7151Y-2.7898
M16
G05
G00X7.7151Y-2.9702
M15
G01X7.7151Y-2.9898
M16
G05
G00X7.7151Y-4.1802
M15
G01X7.7151Y-4.1998
M16
G05
G00X7.7151Y-4.3802
M15
G01X7.7151Y-4.3998
M16
G05
G00X7.7151Y-4.6402
M15
G01X7.7151Y-4.6598
M16
G05
G00X7.7151Y-4.8402
M15
G01X7.7151Y-4.8598
M16
G05
G00X7.7598Y-3.4
M15
G01X7.7402Y-3.4
M16
G05
G00X7.7598Y-3.74
M15
G01X7.7402Y-3.74
M16
G05
T8
G00X4.0671Y-5.3634
M15
G01X4.0671Y-5.4027
M16
G05
G00X4.0476Y-1.7808
M15
G01X4.087Y-1.7808
M16
G05
G00X7.6691Y-1.7614
M15
G01X7.6691Y-1.8007
M16
G05
G00X7.6494Y-5.3831
M15
G01X7.6888Y-5.3831
M16
G05
T0
M30
