%TF.GenerationSoftware,KiCad,Pcbnew,7.0.6-0*%
%TF.CreationDate,2023-08-21T15:57:03+02:00*%
%TF.ProjectId,Q17-PSU,5131372d-5053-4552-9e6b-696361645f70,1.0*%
%TF.SameCoordinates,Original*%
%TF.FileFunction,Copper,L1,Top*%
%TF.FilePolarity,Positive*%
%FSLAX46Y46*%
G04 Gerber Fmt 4.6, Leading zero omitted, Abs format (unit mm)*
G04 Created by KiCad (PCBNEW 7.0.6-0) date 2023-08-21 15:57:03*
%MOMM*%
%LPD*%
G01*
G04 APERTURE LIST*
%TA.AperFunction,ComponentPad*%
%ADD10C,2.000000*%
%TD*%
%TA.AperFunction,ComponentPad*%
%ADD11R,2.270000X2.270000*%
%TD*%
%TA.AperFunction,ComponentPad*%
%ADD12C,2.270000*%
%TD*%
%TA.AperFunction,ComponentPad*%
%ADD13R,4.000000X4.000000*%
%TD*%
%TA.AperFunction,ComponentPad*%
%ADD14C,4.000000*%
%TD*%
%TA.AperFunction,ComponentPad*%
%ADD15C,2.500000*%
%TD*%
%TA.AperFunction,ComponentPad*%
%ADD16C,2.400000*%
%TD*%
%TA.AperFunction,ComponentPad*%
%ADD17C,0.900000*%
%TD*%
%TA.AperFunction,ComponentPad*%
%ADD18C,8.600000*%
%TD*%
%TA.AperFunction,ComponentPad*%
%ADD19C,1.600000*%
%TD*%
%TA.AperFunction,ComponentPad*%
%ADD20O,1.600000X1.600000*%
%TD*%
%TA.AperFunction,ComponentPad*%
%ADD21R,1.800000X1.800000*%
%TD*%
%TA.AperFunction,ComponentPad*%
%ADD22C,1.800000*%
%TD*%
%TA.AperFunction,Conductor*%
%ADD23C,3.000000*%
%TD*%
%TA.AperFunction,Conductor*%
%ADD24C,1.000000*%
%TD*%
G04 APERTURE END LIST*
D10*
%TO.P,C3,1*%
%TO.N,Net-(J1-1-Pin_1)*%
X127762000Y-45212000D03*
%TO.P,C3,2*%
%TO.N,Net-(C3-Pad2)*%
X117762000Y-45212000D03*
%TD*%
D11*
%TO.P,D2,1*%
%TO.N,GNDPWR*%
X111506000Y-97557440D03*
D12*
%TO.P,D2,2*%
%TO.N,Net-(J1-3-Pin_1)*%
X111506000Y-107557440D03*
%TO.P,D2,3*%
%TO.N,Net-(J1-4-Pin_1)*%
X111506000Y-115057440D03*
%TO.P,D2,4*%
%TO.N,Net-(D4-K)*%
X111506000Y-122557440D03*
%TD*%
D10*
%TO.P,C2,1*%
%TO.N,Net-(J1-3-Pin_1)*%
X106046280Y-106307440D03*
%TO.P,C2,2*%
%TO.N,Net-(J1-4-Pin_1)*%
X106046280Y-113807440D03*
%TD*%
D13*
%TO.P,C5,1*%
%TO.N,Net-(D3-A)*%
X135513301Y-67394442D03*
D14*
%TO.P,C5,2*%
%TO.N,GNDPWR*%
X135513301Y-77394442D03*
%TD*%
D15*
%TO.P,J1-3,1,Pin_1*%
%TO.N,Net-(J1-3-Pin_1)*%
X100712280Y-101346000D03*
X100712280Y-96266000D03*
%TD*%
D16*
%TO.P,C9,1*%
%TO.N,Net-(D3-A)*%
X146683581Y-45212000D03*
%TO.P,C9,2*%
%TO.N,Net-(C9-Pad2)*%
X161683581Y-45212000D03*
%TD*%
D15*
%TO.P,J1-4,1,Pin_1*%
%TO.N,Net-(J1-4-Pin_1)*%
X100712280Y-123952000D03*
X100712280Y-118872000D03*
%TD*%
D17*
%TO.P,#GROUND01,1*%
%TO.N,GNDPWR*%
X150953000Y-90926419D03*
X151897581Y-88646000D03*
X151897581Y-93206838D03*
X154178000Y-87701419D03*
D18*
X154178000Y-90926419D03*
D17*
X154178000Y-94151419D03*
X156458419Y-88646000D03*
X156458419Y-93206838D03*
X157403000Y-90926419D03*
%TD*%
D15*
%TO.P,J2-2'1,1,Pin_1*%
%TO.N,GNDPWR*%
X196850000Y-94996000D03*
X191770000Y-94996000D03*
%TD*%
D10*
%TO.P,C1,1*%
%TO.N,Net-(J1-1-Pin_1)*%
X106046280Y-68074941D03*
%TO.P,C1,2*%
%TO.N,Net-(J1-2-Pin_1)*%
X106046280Y-75574941D03*
%TD*%
D15*
%TO.P,J1-1,1,Pin_1*%
%TO.N,Net-(J1-1-Pin_1)*%
X100712280Y-63246000D03*
X100712280Y-58166000D03*
%TD*%
D17*
%TO.P,REF\u002A\u002A,1*%
%TO.N,N/C*%
X191569280Y-136729763D03*
X192513861Y-134449344D03*
X192513861Y-139010182D03*
X194794280Y-133504763D03*
D18*
X194794280Y-136729763D03*
D17*
X194794280Y-139954763D03*
X197074699Y-134449344D03*
X197074699Y-139010182D03*
X198019280Y-136729763D03*
%TD*%
D13*
%TO.P,C8,1*%
%TO.N,GNDPWR*%
X172597301Y-105532941D03*
D14*
%TO.P,C8,2*%
%TO.N,Net-(D4-K)*%
X172597301Y-115532941D03*
%TD*%
D19*
%TO.P,R2,1*%
%TO.N,Net-(C4-Pad2)*%
X113538000Y-128524000D03*
D20*
%TO.P,R2,2*%
%TO.N,Net-(J1-4-Pin_1)*%
X123698000Y-128524000D03*
%TD*%
D19*
%TO.P,R4,1*%
%TO.N,Net-(C10-Pad2)*%
X149103581Y-128524000D03*
D20*
%TO.P,R4,2*%
%TO.N,Net-(D4-K)*%
X159263581Y-128524000D03*
%TD*%
D21*
%TO.P,D4,1,K*%
%TO.N,Net-(D4-K)*%
X176530000Y-138004763D03*
D22*
%TO.P,D4,2,A*%
%TO.N,Net-(D4-A)*%
X176530000Y-135464763D03*
%TD*%
D15*
%TO.P,J2-1'1,1,Pin_1*%
%TO.N,Net-(D3-A)*%
X195962280Y-70612000D03*
X195962280Y-75692000D03*
%TD*%
%TO.P,J2-2,1,Pin_1*%
%TO.N,GNDPWR*%
X196850000Y-86360000D03*
X191770000Y-86360000D03*
%TD*%
%TO.P,J2-3,1,Pin_1*%
%TO.N,Net-(D4-K)*%
X195962280Y-106426000D03*
X195962280Y-111506000D03*
%TD*%
D10*
%TO.P,C4,1*%
%TO.N,Net-(J1-3-Pin_1)*%
X127762000Y-136729763D03*
%TO.P,C4,2*%
%TO.N,Net-(C4-Pad2)*%
X117762000Y-136729763D03*
%TD*%
D11*
%TO.P,D1,1*%
%TO.N,Net-(D3-A)*%
X111506000Y-59324941D03*
D12*
%TO.P,D1,2*%
%TO.N,Net-(J1-1-Pin_1)*%
X111506000Y-69324941D03*
%TO.P,D1,3*%
%TO.N,Net-(J1-2-Pin_1)*%
X111506000Y-76824941D03*
%TO.P,D1,4*%
%TO.N,GNDPWR*%
X111506000Y-84324941D03*
%TD*%
D15*
%TO.P,J1-2,1,Pin_1*%
%TO.N,Net-(J1-2-Pin_1)*%
X100712280Y-85598000D03*
X100712280Y-80518000D03*
%TD*%
D19*
%TO.P,R3,1*%
%TO.N,Net-(C9-Pad2)*%
X159263581Y-53594000D03*
D20*
%TO.P,R3,2*%
%TO.N,GNDPWR*%
X149103581Y-53594000D03*
%TD*%
D17*
%TO.P,REF\u002A\u002A,1*%
%TO.N,N/C*%
X191569280Y-45238963D03*
X192513861Y-42958544D03*
X192513861Y-47519382D03*
X194794280Y-42013963D03*
D18*
X194794280Y-45238963D03*
D17*
X194794280Y-48463963D03*
X197074699Y-42958544D03*
X197074699Y-47519382D03*
X198019280Y-45238963D03*
%TD*%
D13*
%TO.P,C6,1*%
%TO.N,GNDPWR*%
X135513301Y-105626941D03*
D14*
%TO.P,C6,2*%
%TO.N,Net-(D4-K)*%
X135513301Y-115626941D03*
%TD*%
D16*
%TO.P,C10,1*%
%TO.N,GNDPWR*%
X161683581Y-136729763D03*
%TO.P,C10,2*%
%TO.N,Net-(C10-Pad2)*%
X146683581Y-136729763D03*
%TD*%
D21*
%TO.P,D3,1,K*%
%TO.N,Net-(D3-K)*%
X176530000Y-43937000D03*
D22*
%TO.P,D3,2,A*%
%TO.N,Net-(D3-A)*%
X176530000Y-46477000D03*
%TD*%
D17*
%TO.P,REF\u002A\u002A,1*%
%TO.N,N/C*%
X100084061Y-45233382D03*
X101028642Y-42952963D03*
X101028642Y-47513801D03*
X103309061Y-42008382D03*
D18*
X103309061Y-45233382D03*
D17*
X103309061Y-48458382D03*
X105589480Y-42952963D03*
X105589480Y-47513801D03*
X106534061Y-45233382D03*
%TD*%
D19*
%TO.P,R1,1*%
%TO.N,Net-(C3-Pad2)*%
X113538000Y-53594000D03*
D20*
%TO.P,R1,2*%
%TO.N,Net-(J1-2-Pin_1)*%
X123698000Y-53594000D03*
%TD*%
D15*
%TO.P,J2-1,1,Pin_1*%
%TO.N,Net-(D3-A)*%
X195962280Y-58928000D03*
X195962280Y-64008000D03*
%TD*%
D19*
%TO.P,R5,1*%
%TO.N,Net-(D3-K)*%
X171450000Y-51308000D03*
D20*
%TO.P,R5,2*%
%TO.N,GNDPWR*%
X181610000Y-51308000D03*
%TD*%
D13*
%TO.P,C7,1*%
%TO.N,Net-(D3-A)*%
X172800501Y-67432941D03*
D14*
%TO.P,C7,2*%
%TO.N,GNDPWR*%
X172800501Y-77432941D03*
%TD*%
D15*
%TO.P,J2-4'1,1,Pin_1*%
%TO.N,Net-(D4-K)*%
X195962280Y-118110000D03*
X195962280Y-123190000D03*
%TD*%
D17*
%TO.P,REF\u002A\u002A,1*%
%TO.N,N/C*%
X100078480Y-136729763D03*
X101023061Y-134449344D03*
X101023061Y-139010182D03*
X103303480Y-133504763D03*
D18*
X103303480Y-136729763D03*
D17*
X103303480Y-139954763D03*
X105583899Y-134449344D03*
X105583899Y-139010182D03*
X106528480Y-136729763D03*
%TD*%
D19*
%TO.P,R6,1*%
%TO.N,GNDPWR*%
X181610000Y-130810000D03*
D20*
%TO.P,R6,2*%
%TO.N,Net-(D4-A)*%
X171450000Y-130810000D03*
%TD*%
D23*
%TO.N,Net-(J1-1-Pin_1)*%
X111436000Y-69254941D02*
X107653946Y-69254941D01*
D24*
X119018447Y-50907553D02*
X124567554Y-45358446D01*
X118872000Y-66086893D02*
X118872000Y-51261107D01*
X115970447Y-69195553D02*
X118725554Y-66440446D01*
D23*
X106946839Y-68962048D02*
X100712280Y-62727489D01*
X111506000Y-69324941D02*
X111436000Y-69254941D01*
X100712280Y-62727489D02*
X100712280Y-58166000D01*
D24*
X111523059Y-69342000D02*
X115616893Y-69342000D01*
X124921107Y-45212000D02*
X127762000Y-45212000D01*
D23*
X106946808Y-68962079D02*
G75*
G03*
X107653946Y-69254941I707092J707179D01*
G01*
D24*
X118725557Y-66440449D02*
G75*
G03*
X118872000Y-66086893I-353557J353549D01*
G01*
X119018444Y-50907550D02*
G75*
G03*
X118872000Y-51261107I353556J-353550D01*
G01*
X115616893Y-69341995D02*
G75*
G03*
X115970447Y-69195553I7J499995D01*
G01*
X124921107Y-45212005D02*
G75*
G03*
X124567554Y-45358446I-7J-499995D01*
G01*
D23*
%TO.N,Net-(J1-3-Pin_1)*%
X100712280Y-100973440D02*
X100712280Y-96266000D01*
D24*
X125984000Y-110697107D02*
X125984000Y-116124893D01*
X111506000Y-107557440D02*
X122844333Y-107557440D01*
D23*
X107003387Y-107264547D02*
X100712280Y-100973440D01*
D24*
X131064000Y-121619107D02*
X131064000Y-135428893D01*
D23*
X111506000Y-107557440D02*
X107710494Y-107557440D01*
D24*
X126130447Y-116478447D02*
X130917554Y-121265554D01*
X130917553Y-135782447D02*
X130116683Y-136583317D01*
X123197887Y-107703887D02*
X125837554Y-110343554D01*
X129763130Y-136729763D02*
X127762000Y-136729763D01*
X123197862Y-107703912D02*
G75*
G03*
X122844333Y-107557440I-353562J-353488D01*
G01*
D23*
X107003382Y-107264552D02*
G75*
G03*
X107710494Y-107557440I707118J707152D01*
G01*
D24*
X131063995Y-121619107D02*
G75*
G03*
X130917554Y-121265554I-499995J7D01*
G01*
X125984005Y-116124893D02*
G75*
G03*
X126130447Y-116478447I499995J-7D01*
G01*
X125983995Y-110697107D02*
G75*
G03*
X125837554Y-110343554I-499995J7D01*
G01*
X129763130Y-136729795D02*
G75*
G03*
X130116683Y-136583317I-30J499995D01*
G01*
X130917556Y-135782450D02*
G75*
G03*
X131064000Y-135428893I-353556J353550D01*
G01*
D23*
%TO.N,Net-(J1-2-Pin_1)*%
X105530095Y-75984893D02*
X100712280Y-80802708D01*
D24*
X123698000Y-53594000D02*
X123698000Y-73452893D01*
D23*
X109958845Y-75692000D02*
X106237202Y-75692000D01*
D24*
X120325952Y-76824941D02*
X111506000Y-76824941D01*
D23*
X100712280Y-80802708D02*
X100712280Y-85598000D01*
X111506000Y-76824941D02*
X110665952Y-75984893D01*
D24*
X123551553Y-73806447D02*
X120679505Y-76678495D01*
X123551556Y-73806450D02*
G75*
G03*
X123698000Y-73452893I-353556J353550D01*
G01*
D23*
X106237202Y-75692002D02*
G75*
G03*
X105530096Y-75984894I-2J-999998D01*
G01*
D24*
X120325952Y-76824895D02*
G75*
G03*
X120679505Y-76678495I48J499995D01*
G01*
D23*
X110665929Y-75984916D02*
G75*
G03*
X109958845Y-75692000I-707129J-707084D01*
G01*
%TO.N,Net-(J1-4-Pin_1)*%
X100712280Y-119072120D02*
X100712280Y-123952000D01*
X105684067Y-114100333D02*
X100712280Y-119072120D01*
X109841786Y-113807440D02*
X106391174Y-113807440D01*
D24*
X118759887Y-115203887D02*
X119995554Y-116439554D01*
X120288447Y-126638447D02*
X122027554Y-128377554D01*
D23*
X111506000Y-115057440D02*
X110548893Y-114100333D01*
D24*
X111506000Y-115057440D02*
X118406333Y-115057440D01*
X122381107Y-128524000D02*
X123698000Y-128524000D01*
X120142000Y-116793107D02*
X120142000Y-126284893D01*
D23*
X110548891Y-114100335D02*
G75*
G03*
X109841786Y-113807440I-707091J-707065D01*
G01*
X106391174Y-113807469D02*
G75*
G03*
X105684068Y-114100334I26J-1000131D01*
G01*
D24*
X120141995Y-116793107D02*
G75*
G03*
X119995554Y-116439554I-499995J7D01*
G01*
X118759862Y-115203912D02*
G75*
G03*
X118406333Y-115057440I-353562J-353488D01*
G01*
X122027551Y-128377557D02*
G75*
G03*
X122381107Y-128524000I353549J353557D01*
G01*
X120142005Y-126284893D02*
G75*
G03*
X120288447Y-126638447I499995J-7D01*
G01*
%TO.N,Net-(D3-K)*%
X171596447Y-46453833D02*
X173966834Y-44083446D01*
X174320387Y-43937000D02*
X176530000Y-43937000D01*
X171450000Y-51308000D02*
X171450000Y-46807387D01*
X171596454Y-46453840D02*
G75*
G03*
X171450000Y-46807387I353546J-353560D01*
G01*
X174320387Y-43936991D02*
G75*
G03*
X173966834Y-44083446I13J-500009D01*
G01*
%TO.N,Net-(D4-A)*%
X176530000Y-135464763D02*
X173771870Y-135464763D01*
X173418316Y-135318316D02*
X171596446Y-133496446D01*
X171450000Y-133142893D02*
X171450000Y-130810000D01*
X171450005Y-133142893D02*
G75*
G03*
X171596446Y-133496446I499995J-7D01*
G01*
X173418339Y-135318293D02*
G75*
G03*
X173771870Y-135464763I353561J353493D01*
G01*
%TO.N,Net-(C3-Pad2)*%
X115015107Y-45212000D02*
X117762000Y-45212000D01*
X113684447Y-46335553D02*
X114661554Y-45358446D01*
X113538000Y-53594000D02*
X113538000Y-46689107D01*
X115015107Y-45212005D02*
G75*
G03*
X114661554Y-45358446I-7J-499995D01*
G01*
X113684444Y-46335550D02*
G75*
G03*
X113538000Y-46689107I353556J-353550D01*
G01*
%TO.N,Net-(C4-Pad2)*%
X113538000Y-128524000D02*
X117615554Y-132601554D01*
X117762000Y-132955107D02*
X117762000Y-136729763D01*
X117761995Y-132955107D02*
G75*
G03*
X117615554Y-132601554I-499995J7D01*
G01*
%TO.N,Net-(C9-Pad2)*%
X159263581Y-46309526D02*
X159263581Y-53594000D01*
X161683581Y-45212000D02*
X160361107Y-45212000D01*
X160007553Y-45358447D02*
X159410027Y-45955973D01*
X159410010Y-45955956D02*
G75*
G03*
X159263581Y-46309526I353590J-353544D01*
G01*
X160361107Y-45212005D02*
G75*
G03*
X160007553Y-45358447I-7J-499995D01*
G01*
%TO.N,Net-(C10-Pad2)*%
X149103581Y-128524000D02*
X146830027Y-130797554D01*
X146683581Y-131151107D02*
X146683581Y-136729763D01*
X146830020Y-130797547D02*
G75*
G03*
X146683581Y-131151107I353580J-353553D01*
G01*
%TD*%
%TA.AperFunction,Conductor*%
%TO.N,Net-(D3-A)*%
G36*
X192716354Y-40151685D02*
G01*
X192762109Y-40204489D01*
X192772053Y-40273647D01*
X192743028Y-40337203D01*
X192696767Y-40370561D01*
X192552058Y-40430502D01*
X192141510Y-40644219D01*
X191751142Y-40892911D01*
X191383944Y-41174671D01*
X191383941Y-41174673D01*
X191383938Y-41174676D01*
X191042690Y-41487373D01*
X190936844Y-41602884D01*
X190729988Y-41828627D01*
X190562338Y-42047114D01*
X190448228Y-42195825D01*
X190199539Y-42586188D01*
X189985819Y-42996741D01*
X189808694Y-43424358D01*
X189781061Y-43512000D01*
X189669513Y-43865780D01*
X189569332Y-44317668D01*
X189548971Y-44472328D01*
X189508919Y-44776554D01*
X189488730Y-45238963D01*
X189508919Y-45701372D01*
X189534580Y-45896286D01*
X189569332Y-46160258D01*
X189669513Y-46612146D01*
X189728404Y-46798921D01*
X189808694Y-47053568D01*
X189985819Y-47481185D01*
X190199539Y-47891738D01*
X190448228Y-48282101D01*
X190729993Y-48649305D01*
X191042690Y-48990553D01*
X191383938Y-49303250D01*
X191383941Y-49303252D01*
X191383944Y-49303255D01*
X191702538Y-49547720D01*
X191751142Y-49585015D01*
X192104661Y-49810232D01*
X192141510Y-49833707D01*
X192141510Y-49833706D01*
X192552058Y-50047424D01*
X192979675Y-50224549D01*
X193132438Y-50272715D01*
X193421097Y-50363730D01*
X193872985Y-50463911D01*
X194090219Y-50492509D01*
X194331871Y-50524324D01*
X194794280Y-50544513D01*
X195256689Y-50524324D01*
X195498340Y-50492509D01*
X195715575Y-50463911D01*
X196167463Y-50363730D01*
X196456122Y-50272715D01*
X196608885Y-50224549D01*
X197036502Y-50047424D01*
X197447050Y-49833706D01*
X197447050Y-49833707D01*
X197483899Y-49810232D01*
X197837418Y-49585015D01*
X197886022Y-49547720D01*
X198204616Y-49303255D01*
X198204618Y-49303252D01*
X198204622Y-49303250D01*
X198545870Y-48990553D01*
X198858567Y-48649305D01*
X199140332Y-48282101D01*
X199389021Y-47891738D01*
X199602741Y-47481185D01*
X199659439Y-47344303D01*
X199703280Y-47289900D01*
X199769574Y-47267835D01*
X199837273Y-47285114D01*
X199884884Y-47336251D01*
X199898000Y-47391756D01*
X199898000Y-83442000D01*
X199878315Y-83509039D01*
X199825511Y-83554794D01*
X199774000Y-83566000D01*
X189484000Y-83566000D01*
X189484000Y-90012350D01*
X189464315Y-90079389D01*
X189411511Y-90125144D01*
X189360579Y-90136349D01*
X159547874Y-90275555D01*
X159480743Y-90256183D01*
X159434742Y-90203594D01*
X159424356Y-90167741D01*
X159420223Y-90136349D01*
X159402948Y-90005124D01*
X159302767Y-89553236D01*
X159221236Y-89294658D01*
X159163586Y-89111814D01*
X158986461Y-88684197D01*
X158772741Y-88273644D01*
X158524052Y-87883281D01*
X158242287Y-87516077D01*
X157929590Y-87174829D01*
X157588342Y-86862132D01*
X157588338Y-86862129D01*
X157588336Y-86862127D01*
X157221138Y-86580367D01*
X156970450Y-86420661D01*
X156830775Y-86331678D01*
X156830773Y-86331677D01*
X156830770Y-86331675D01*
X156420222Y-86117958D01*
X155992605Y-85940833D01*
X155809760Y-85883182D01*
X155551183Y-85801652D01*
X155099295Y-85701471D01*
X154882061Y-85672872D01*
X154640409Y-85641058D01*
X154178000Y-85620869D01*
X153715591Y-85641058D01*
X153473939Y-85672872D01*
X153256705Y-85701471D01*
X152804817Y-85801652D01*
X152546239Y-85883182D01*
X152363395Y-85940833D01*
X151935778Y-86117958D01*
X151525230Y-86331675D01*
X151525226Y-86331677D01*
X151525225Y-86331678D01*
X151385550Y-86420661D01*
X151134862Y-86580367D01*
X150767664Y-86862127D01*
X150767661Y-86862129D01*
X150767658Y-86862132D01*
X150426410Y-87174829D01*
X150113713Y-87516077D01*
X149831948Y-87883281D01*
X149583259Y-88273644D01*
X149369539Y-88684197D01*
X149192414Y-89111814D01*
X149134763Y-89294658D01*
X149053233Y-89553236D01*
X148953052Y-90005124D01*
X148925037Y-90217915D01*
X148896770Y-90281811D01*
X148838446Y-90320282D01*
X148802677Y-90325728D01*
X109111246Y-90511063D01*
X109044115Y-90491691D01*
X108998114Y-90439102D01*
X108986667Y-90387118D01*
X108984174Y-84324940D01*
X109365510Y-84324940D01*
X109385446Y-84616398D01*
X109444884Y-84902437D01*
X109444886Y-84902442D01*
X109542714Y-85177706D01*
X109542715Y-85177708D01*
X109542716Y-85177711D01*
X109542718Y-85177715D01*
X109677124Y-85437105D01*
X109845598Y-85675778D01*
X110045002Y-85889288D01*
X110271622Y-86073657D01*
X110271624Y-86073658D01*
X110271625Y-86073659D01*
X110521236Y-86225451D01*
X110704242Y-86304941D01*
X110789194Y-86341841D01*
X111070504Y-86420661D01*
X111324954Y-86455633D01*
X111359927Y-86460441D01*
X111359928Y-86460441D01*
X111652073Y-86460441D01*
X111683275Y-86456152D01*
X111941496Y-86420661D01*
X112222806Y-86341841D01*
X112490765Y-86225450D01*
X112740378Y-86073657D01*
X112966998Y-85889288D01*
X113166402Y-85675778D01*
X113334876Y-85437105D01*
X113469282Y-85177715D01*
X113567115Y-84902438D01*
X113626553Y-84616404D01*
X113646490Y-84324941D01*
X113626553Y-84033478D01*
X113567115Y-83747444D01*
X113469282Y-83472167D01*
X113334876Y-83212777D01*
X113166402Y-82974104D01*
X112966998Y-82760594D01*
X112966991Y-82760589D01*
X112966990Y-82760587D01*
X112740374Y-82576222D01*
X112490763Y-82424430D01*
X112222809Y-82308042D01*
X112222807Y-82308041D01*
X112222806Y-82308041D01*
X112142774Y-82285616D01*
X111941501Y-82229222D01*
X111941497Y-82229221D01*
X111941496Y-82229221D01*
X111796784Y-82209331D01*
X111652073Y-82189441D01*
X111652072Y-82189441D01*
X111359928Y-82189441D01*
X111359927Y-82189441D01*
X111070504Y-82229221D01*
X111070498Y-82229222D01*
X110789190Y-82308042D01*
X110521236Y-82424430D01*
X110271625Y-82576222D01*
X110045009Y-82760587D01*
X109845599Y-82974103D01*
X109677124Y-83212776D01*
X109542715Y-83472173D01*
X109542714Y-83472175D01*
X109444886Y-83747439D01*
X109444884Y-83747444D01*
X109385446Y-84033483D01*
X109365510Y-84324940D01*
X108984174Y-84324940D01*
X108982574Y-80433440D01*
X108981704Y-78316551D01*
X109001361Y-78249503D01*
X109054146Y-78203727D01*
X109105704Y-78192500D01*
X109285956Y-78192500D01*
X109352995Y-78212185D01*
X109373637Y-78228819D01*
X109793438Y-78648621D01*
X109793438Y-78648620D01*
X109793446Y-78648628D01*
X109856592Y-78704299D01*
X109970391Y-78804628D01*
X110106524Y-78897143D01*
X110230625Y-78981482D01*
X110510968Y-79124323D01*
X110807004Y-79230903D01*
X111114062Y-79299539D01*
X111427302Y-79329148D01*
X111741783Y-79319266D01*
X111741789Y-79319265D01*
X111741790Y-79319265D01*
X112052542Y-79270046D01*
X112052551Y-79270044D01*
X112240320Y-79215491D01*
X112354689Y-79182265D01*
X112643448Y-79057308D01*
X112914269Y-78897145D01*
X113162880Y-78704302D01*
X113218562Y-78648620D01*
X113385362Y-78481821D01*
X113385362Y-78481820D01*
X113469430Y-78373441D01*
X113526072Y-78332534D01*
X113567409Y-78325441D01*
X120388003Y-78325441D01*
X120388019Y-78325441D01*
X120388034Y-78325439D01*
X120388966Y-78325401D01*
X120438149Y-78325406D01*
X120661420Y-78300272D01*
X120880474Y-78250299D01*
X121092556Y-78176114D01*
X121294998Y-78078651D01*
X121485256Y-77959136D01*
X121660936Y-77819071D01*
X121695723Y-77784292D01*
X121695978Y-77784049D01*
X121696624Y-77783402D01*
X121696631Y-77783397D01*
X121740383Y-77739644D01*
X121823898Y-77656151D01*
X121823899Y-77656149D01*
X121825490Y-77654559D01*
X121825739Y-77654287D01*
X122085581Y-77394445D01*
X132507716Y-77394445D01*
X132528039Y-77743369D01*
X132528040Y-77743380D01*
X132588729Y-78087569D01*
X132588731Y-78087576D01*
X132688975Y-78422414D01*
X132827408Y-78743337D01*
X132827414Y-78743350D01*
X133002171Y-79046039D01*
X133210885Y-79326391D01*
X133210890Y-79326397D01*
X133334764Y-79457695D01*
X133450743Y-79580625D01*
X133627204Y-79728693D01*
X133718487Y-79805289D01*
X133718495Y-79805295D01*
X134010504Y-79997353D01*
X134010508Y-79997355D01*
X134322850Y-80154219D01*
X134651290Y-80273761D01*
X134991387Y-80354365D01*
X135338542Y-80394942D01*
X135338549Y-80394942D01*
X135688053Y-80394942D01*
X135688060Y-80394942D01*
X136035215Y-80354365D01*
X136375312Y-80273761D01*
X136703752Y-80154219D01*
X137016094Y-79997355D01*
X137308112Y-79805291D01*
X137575859Y-79580625D01*
X137815713Y-79326395D01*
X138024431Y-79046038D01*
X138199190Y-78743346D01*
X138337627Y-78422413D01*
X138437870Y-78087578D01*
X138473143Y-77887537D01*
X138498561Y-77743380D01*
X138498560Y-77743380D01*
X138498563Y-77743369D01*
X138516116Y-77441999D01*
X138516643Y-77432944D01*
X169794916Y-77432944D01*
X169815239Y-77781868D01*
X169815240Y-77781879D01*
X169875929Y-78126068D01*
X169875931Y-78126075D01*
X169976175Y-78460913D01*
X170114608Y-78781836D01*
X170114614Y-78781849D01*
X170289371Y-79084538D01*
X170498085Y-79364890D01*
X170498090Y-79364896D01*
X170621964Y-79496194D01*
X170737943Y-79619124D01*
X170914404Y-79767192D01*
X171005687Y-79843788D01*
X171005695Y-79843794D01*
X171297704Y-80035852D01*
X171297708Y-80035854D01*
X171610050Y-80192718D01*
X171938490Y-80312260D01*
X172278587Y-80392864D01*
X172625742Y-80433441D01*
X172625749Y-80433441D01*
X172975253Y-80433441D01*
X172975260Y-80433441D01*
X173322415Y-80392864D01*
X173662512Y-80312260D01*
X173990952Y-80192718D01*
X174303294Y-80035854D01*
X174595312Y-79843790D01*
X174863059Y-79619124D01*
X175102913Y-79364894D01*
X175311631Y-79084537D01*
X175486390Y-78781845D01*
X175624827Y-78460912D01*
X175725070Y-78126077D01*
X175726366Y-78118731D01*
X175785761Y-77781879D01*
X175785760Y-77781879D01*
X175785763Y-77781868D01*
X175803062Y-77484843D01*
X175806086Y-77432944D01*
X175806086Y-77432937D01*
X175797704Y-77289030D01*
X175785763Y-77084014D01*
X175778975Y-77045515D01*
X175725072Y-76739813D01*
X175725070Y-76739806D01*
X175725070Y-76739805D01*
X175624827Y-76404970D01*
X175486390Y-76084037D01*
X175311631Y-75781345D01*
X175282970Y-75742846D01*
X175245120Y-75692004D01*
X194207373Y-75692004D01*
X194226972Y-75953545D01*
X194226973Y-75953550D01*
X194285338Y-76209270D01*
X194381163Y-76453426D01*
X194381162Y-76453426D01*
X194512310Y-76680577D01*
X194560153Y-76740571D01*
X194560154Y-76740571D01*
X195462280Y-75838445D01*
X195462280Y-75977763D01*
X195477600Y-76084315D01*
X195537328Y-76215100D01*
X195631482Y-76323761D01*
X195663496Y-76344335D01*
X194913111Y-77094720D01*
X195084826Y-77211793D01*
X195084830Y-77211795D01*
X195321134Y-77325594D01*
X195321138Y-77325595D01*
X195571774Y-77402907D01*
X195571780Y-77402909D01*
X195831128Y-77441999D01*
X195831137Y-77442000D01*
X196093423Y-77442000D01*
X196093431Y-77441999D01*
X196352779Y-77402909D01*
X196352785Y-77402907D01*
X196603423Y-77325595D01*
X196839725Y-77211798D01*
X196839736Y-77211791D01*
X197011447Y-77094720D01*
X196261063Y-76344335D01*
X196293078Y-76323761D01*
X196387232Y-76215100D01*
X196446960Y-76084315D01*
X196462280Y-75977763D01*
X196462280Y-75838447D01*
X197364404Y-76740571D01*
X197412254Y-76680570D01*
X197543396Y-76453426D01*
X197639221Y-76209270D01*
X197697586Y-75953550D01*
X197697587Y-75953545D01*
X197717187Y-75692004D01*
X197717187Y-75691995D01*
X197697587Y-75430454D01*
X197697586Y-75430449D01*
X197639221Y-75174729D01*
X197543396Y-74930573D01*
X197543397Y-74930573D01*
X197412251Y-74703426D01*
X197364405Y-74643427D01*
X196462280Y-75545552D01*
X196462280Y-75406237D01*
X196446960Y-75299685D01*
X196387232Y-75168900D01*
X196293078Y-75060239D01*
X196261062Y-75039663D01*
X197011447Y-74289278D01*
X196839727Y-74172202D01*
X196839725Y-74172201D01*
X196603422Y-74058404D01*
X196603424Y-74058404D01*
X196352785Y-73981092D01*
X196352779Y-73981090D01*
X196093431Y-73942000D01*
X195831128Y-73942000D01*
X195571780Y-73981090D01*
X195571774Y-73981092D01*
X195321138Y-74058404D01*
X195321134Y-74058405D01*
X195084830Y-74172204D01*
X195084826Y-74172206D01*
X194913112Y-74289278D01*
X195663497Y-75039663D01*
X195631482Y-75060239D01*
X195537328Y-75168900D01*
X195477600Y-75299685D01*
X195462280Y-75406237D01*
X195462280Y-75545553D01*
X194560153Y-74643427D01*
X194512309Y-74703423D01*
X194381163Y-74930573D01*
X194285338Y-75174729D01*
X194226973Y-75430449D01*
X194226972Y-75430454D01*
X194207373Y-75691995D01*
X194207373Y-75692004D01*
X175245120Y-75692004D01*
X175102916Y-75500991D01*
X175102911Y-75500985D01*
X174903229Y-75289336D01*
X174863059Y-75246758D01*
X174640774Y-75060239D01*
X174595314Y-75022093D01*
X174595306Y-75022087D01*
X174303297Y-74830029D01*
X173990959Y-74673167D01*
X173990953Y-74673164D01*
X173662513Y-74553622D01*
X173662510Y-74553621D01*
X173322416Y-74473018D01*
X173279020Y-74467945D01*
X172975260Y-74432441D01*
X172625742Y-74432441D01*
X172321981Y-74467945D01*
X172278586Y-74473018D01*
X172278584Y-74473018D01*
X171938491Y-74553621D01*
X171938488Y-74553622D01*
X171610048Y-74673164D01*
X171610042Y-74673167D01*
X171297704Y-74830029D01*
X171005695Y-75022087D01*
X171005687Y-75022093D01*
X170737943Y-75246758D01*
X170737941Y-75246760D01*
X170498090Y-75500985D01*
X170498085Y-75500991D01*
X170289371Y-75781343D01*
X170114614Y-76084032D01*
X170114608Y-76084045D01*
X169976175Y-76404968D01*
X169875931Y-76739806D01*
X169875929Y-76739813D01*
X169815240Y-77084002D01*
X169815239Y-77084013D01*
X169794916Y-77432937D01*
X169794916Y-77432944D01*
X138516643Y-77432944D01*
X138518886Y-77394445D01*
X138518886Y-77394438D01*
X138508248Y-77211798D01*
X138498563Y-77045515D01*
X138448002Y-76758766D01*
X138437872Y-76701314D01*
X138437870Y-76701307D01*
X138367491Y-76466225D01*
X138337627Y-76366471D01*
X138199190Y-76045538D01*
X138024431Y-75742846D01*
X137844377Y-75500991D01*
X137815716Y-75462492D01*
X137815711Y-75462486D01*
X137645849Y-75282444D01*
X137575859Y-75208259D01*
X137427789Y-75084014D01*
X137308114Y-74983594D01*
X137308106Y-74983588D01*
X137016097Y-74791530D01*
X136703759Y-74634668D01*
X136703753Y-74634665D01*
X136375313Y-74515123D01*
X136375310Y-74515122D01*
X136035216Y-74434519D01*
X135991820Y-74429446D01*
X135688060Y-74393942D01*
X135338542Y-74393942D01*
X135034781Y-74429446D01*
X134991386Y-74434519D01*
X134991384Y-74434519D01*
X134651291Y-74515122D01*
X134651288Y-74515123D01*
X134322848Y-74634665D01*
X134322842Y-74634668D01*
X134010504Y-74791530D01*
X133718495Y-74983588D01*
X133718487Y-74983594D01*
X133450743Y-75208259D01*
X133450741Y-75208261D01*
X133210890Y-75462486D01*
X133210885Y-75462492D01*
X133002171Y-75742844D01*
X132827414Y-76045533D01*
X132827408Y-76045546D01*
X132688975Y-76366469D01*
X132588731Y-76701307D01*
X132588729Y-76701314D01*
X132528040Y-77045503D01*
X132528039Y-77045514D01*
X132507716Y-77394438D01*
X132507716Y-77394445D01*
X122085581Y-77394445D01*
X124522001Y-74958025D01*
X124522015Y-74958014D01*
X124576254Y-74903775D01*
X124576267Y-74903767D01*
X124612578Y-74867454D01*
X124612579Y-74867455D01*
X124692019Y-74788013D01*
X124832111Y-74612340D01*
X124951653Y-74422086D01*
X125049142Y-74219644D01*
X125123351Y-74007559D01*
X125138462Y-73941345D01*
X125173344Y-73788515D01*
X125173345Y-73788506D01*
X125173347Y-73788499D01*
X125198501Y-73565218D01*
X125198500Y-73452872D01*
X125198500Y-73407581D01*
X125198500Y-70612004D01*
X194207373Y-70612004D01*
X194226972Y-70873545D01*
X194226973Y-70873550D01*
X194285338Y-71129270D01*
X194381163Y-71373426D01*
X194381162Y-71373426D01*
X194512310Y-71600577D01*
X194560153Y-71660571D01*
X194560154Y-71660571D01*
X195462280Y-70758445D01*
X195462280Y-70897763D01*
X195477600Y-71004315D01*
X195537328Y-71135100D01*
X195631482Y-71243761D01*
X195663496Y-71264335D01*
X194913111Y-72014720D01*
X195084826Y-72131793D01*
X195084830Y-72131795D01*
X195321134Y-72245594D01*
X195321138Y-72245595D01*
X195571774Y-72322907D01*
X195571780Y-72322909D01*
X195831128Y-72361999D01*
X195831137Y-72362000D01*
X196093423Y-72362000D01*
X196093431Y-72361999D01*
X196352779Y-72322909D01*
X196352785Y-72322907D01*
X196603423Y-72245595D01*
X196839725Y-72131798D01*
X196839736Y-72131791D01*
X197011447Y-72014720D01*
X196261063Y-71264335D01*
X196293078Y-71243761D01*
X196387232Y-71135100D01*
X196446960Y-71004315D01*
X196462280Y-70897763D01*
X196462280Y-70758447D01*
X197364404Y-71660571D01*
X197412254Y-71600570D01*
X197543396Y-71373426D01*
X197639221Y-71129270D01*
X197697586Y-70873550D01*
X197697587Y-70873545D01*
X197717187Y-70612004D01*
X197717187Y-70611995D01*
X197697587Y-70350454D01*
X197697586Y-70350449D01*
X197639221Y-70094729D01*
X197543396Y-69850573D01*
X197543397Y-69850573D01*
X197412251Y-69623426D01*
X197364405Y-69563427D01*
X196462280Y-70465552D01*
X196462280Y-70326237D01*
X196446960Y-70219685D01*
X196387232Y-70088900D01*
X196293078Y-69980239D01*
X196261062Y-69959663D01*
X197011447Y-69209278D01*
X196839727Y-69092202D01*
X196839725Y-69092201D01*
X196603422Y-68978404D01*
X196603424Y-68978404D01*
X196352785Y-68901092D01*
X196352779Y-68901090D01*
X196093431Y-68862000D01*
X195831128Y-68862000D01*
X195571780Y-68901090D01*
X195571774Y-68901092D01*
X195321138Y-68978404D01*
X195321134Y-68978405D01*
X195084830Y-69092204D01*
X195084826Y-69092206D01*
X194913112Y-69209278D01*
X195663497Y-69959663D01*
X195631482Y-69980239D01*
X195537328Y-70088900D01*
X195477600Y-70219685D01*
X195462280Y-70326237D01*
X195462280Y-70465554D01*
X194560153Y-69563427D01*
X194512309Y-69623423D01*
X194381163Y-69850573D01*
X194285338Y-70094729D01*
X194226973Y-70350449D01*
X194226972Y-70350454D01*
X194207373Y-70611995D01*
X194207373Y-70612004D01*
X125198500Y-70612004D01*
X125198500Y-69442286D01*
X133013301Y-69442286D01*
X133019702Y-69501814D01*
X133019704Y-69501821D01*
X133069946Y-69636528D01*
X133069950Y-69636535D01*
X133156110Y-69751629D01*
X133156113Y-69751632D01*
X133271207Y-69837792D01*
X133271214Y-69837796D01*
X133405921Y-69888038D01*
X133405928Y-69888040D01*
X133465456Y-69894441D01*
X133465473Y-69894442D01*
X135263301Y-69894442D01*
X135263301Y-68363963D01*
X135411611Y-68394442D01*
X135564013Y-68394442D01*
X135715638Y-68379023D01*
X135763301Y-68364068D01*
X135763301Y-69894442D01*
X137561129Y-69894442D01*
X137561145Y-69894441D01*
X137620673Y-69888040D01*
X137620680Y-69888038D01*
X137755387Y-69837796D01*
X137755394Y-69837792D01*
X137870488Y-69751632D01*
X137870491Y-69751629D01*
X137956651Y-69636535D01*
X137956655Y-69636528D01*
X138006897Y-69501821D01*
X138006899Y-69501814D01*
X138009160Y-69480785D01*
X170300501Y-69480785D01*
X170306902Y-69540313D01*
X170306904Y-69540320D01*
X170357146Y-69675027D01*
X170357150Y-69675034D01*
X170443310Y-69790128D01*
X170443313Y-69790131D01*
X170558407Y-69876291D01*
X170558414Y-69876295D01*
X170693121Y-69926537D01*
X170693128Y-69926539D01*
X170752656Y-69932940D01*
X170752673Y-69932941D01*
X172550501Y-69932941D01*
X172550500Y-68402462D01*
X172698811Y-68432941D01*
X172851213Y-68432941D01*
X173002838Y-68417522D01*
X173050501Y-68402567D01*
X173050501Y-69932941D01*
X174848329Y-69932941D01*
X174848345Y-69932940D01*
X174907873Y-69926539D01*
X174907880Y-69926537D01*
X175042587Y-69876295D01*
X175042594Y-69876291D01*
X175157688Y-69790131D01*
X175157691Y-69790128D01*
X175243851Y-69675034D01*
X175243855Y-69675027D01*
X175294097Y-69540320D01*
X175294099Y-69540313D01*
X175300500Y-69480785D01*
X175300501Y-69480768D01*
X175300501Y-67682941D01*
X173768747Y-67682941D01*
X173794067Y-67585150D01*
X173804368Y-67382031D01*
X173773868Y-67182941D01*
X175300501Y-67182941D01*
X175300501Y-65385113D01*
X175300500Y-65385096D01*
X175294099Y-65325568D01*
X175294097Y-65325561D01*
X175243855Y-65190854D01*
X175243851Y-65190847D01*
X175157691Y-65075753D01*
X175157688Y-65075750D01*
X175042594Y-64989590D01*
X175042587Y-64989586D01*
X174907880Y-64939344D01*
X174907873Y-64939342D01*
X174848345Y-64932941D01*
X173050501Y-64932941D01*
X173050501Y-66463419D01*
X172902191Y-66432941D01*
X172749789Y-66432941D01*
X172598164Y-66448360D01*
X172550501Y-66463314D01*
X172550501Y-64932941D01*
X170752656Y-64932941D01*
X170693128Y-64939342D01*
X170693121Y-64939344D01*
X170558414Y-64989586D01*
X170558407Y-64989590D01*
X170443313Y-65075750D01*
X170443310Y-65075753D01*
X170357150Y-65190847D01*
X170357146Y-65190854D01*
X170306904Y-65325561D01*
X170306902Y-65325568D01*
X170300501Y-65385096D01*
X170300501Y-67182941D01*
X171832255Y-67182941D01*
X171806935Y-67280732D01*
X171796634Y-67483851D01*
X171827134Y-67682941D01*
X170300501Y-67682941D01*
X170300501Y-69480785D01*
X138009160Y-69480785D01*
X138013300Y-69442286D01*
X138013301Y-69442269D01*
X138013301Y-67644442D01*
X136481547Y-67644442D01*
X136506867Y-67546651D01*
X136517168Y-67343532D01*
X136486668Y-67144442D01*
X138013301Y-67144442D01*
X138013301Y-65346614D01*
X138013300Y-65346597D01*
X138006899Y-65287069D01*
X138006897Y-65287062D01*
X137956655Y-65152355D01*
X137956651Y-65152348D01*
X137870491Y-65037254D01*
X137870488Y-65037251D01*
X137755394Y-64951091D01*
X137755387Y-64951087D01*
X137620680Y-64900845D01*
X137620673Y-64900843D01*
X137561145Y-64894442D01*
X135763301Y-64894442D01*
X135763301Y-66424920D01*
X135614991Y-66394442D01*
X135462589Y-66394442D01*
X135310964Y-66409861D01*
X135263301Y-66424815D01*
X135263301Y-64894442D01*
X133465456Y-64894442D01*
X133405928Y-64900843D01*
X133405921Y-64900845D01*
X133271214Y-64951087D01*
X133271207Y-64951091D01*
X133156113Y-65037251D01*
X133156110Y-65037254D01*
X133069950Y-65152348D01*
X133069946Y-65152355D01*
X133019704Y-65287062D01*
X133019702Y-65287069D01*
X133013301Y-65346597D01*
X133013301Y-67144442D01*
X134545055Y-67144442D01*
X134519735Y-67242233D01*
X134509434Y-67445352D01*
X134539934Y-67644442D01*
X133013301Y-67644442D01*
X133013301Y-69442286D01*
X125198500Y-69442286D01*
X125198500Y-64008004D01*
X194207373Y-64008004D01*
X194226972Y-64269545D01*
X194226973Y-64269550D01*
X194285338Y-64525270D01*
X194381163Y-64769426D01*
X194381162Y-64769426D01*
X194512310Y-64996577D01*
X194560153Y-65056571D01*
X194560154Y-65056571D01*
X195462280Y-64154445D01*
X195462280Y-64293763D01*
X195477600Y-64400315D01*
X195537328Y-64531100D01*
X195631482Y-64639761D01*
X195663496Y-64660335D01*
X194913111Y-65410720D01*
X195084826Y-65527793D01*
X195084830Y-65527795D01*
X195321134Y-65641594D01*
X195321138Y-65641595D01*
X195571774Y-65718907D01*
X195571780Y-65718909D01*
X195831128Y-65757999D01*
X195831137Y-65758000D01*
X196093423Y-65758000D01*
X196093431Y-65757999D01*
X196352779Y-65718909D01*
X196352785Y-65718907D01*
X196603423Y-65641595D01*
X196839725Y-65527798D01*
X196839736Y-65527791D01*
X197011447Y-65410720D01*
X196261063Y-64660335D01*
X196293078Y-64639761D01*
X196387232Y-64531100D01*
X196446960Y-64400315D01*
X196462280Y-64293763D01*
X196462280Y-64154447D01*
X197364404Y-65056571D01*
X197412254Y-64996570D01*
X197543396Y-64769426D01*
X197639221Y-64525270D01*
X197697586Y-64269550D01*
X197697587Y-64269545D01*
X197717187Y-64008004D01*
X197717187Y-64007995D01*
X197697587Y-63746454D01*
X197697586Y-63746449D01*
X197639221Y-63490729D01*
X197543396Y-63246573D01*
X197543397Y-63246573D01*
X197412251Y-63019426D01*
X197364405Y-62959427D01*
X196462280Y-63861552D01*
X196462280Y-63722237D01*
X196446960Y-63615685D01*
X196387232Y-63484900D01*
X196293078Y-63376239D01*
X196261062Y-63355663D01*
X197011447Y-62605278D01*
X196839727Y-62488202D01*
X196839725Y-62488201D01*
X196603422Y-62374404D01*
X196603424Y-62374404D01*
X196352785Y-62297092D01*
X196352779Y-62297090D01*
X196093431Y-62258000D01*
X195831128Y-62258000D01*
X195571780Y-62297090D01*
X195571774Y-62297092D01*
X195321138Y-62374404D01*
X195321134Y-62374405D01*
X195084830Y-62488204D01*
X195084826Y-62488206D01*
X194913112Y-62605278D01*
X195663497Y-63355663D01*
X195631482Y-63376239D01*
X195537328Y-63484900D01*
X195477600Y-63615685D01*
X195462280Y-63722237D01*
X195462280Y-63861554D01*
X194560153Y-62959427D01*
X194512309Y-63019423D01*
X194381163Y-63246573D01*
X194285338Y-63490729D01*
X194226973Y-63746449D01*
X194226972Y-63746454D01*
X194207373Y-64007995D01*
X194207373Y-64008004D01*
X125198500Y-64008004D01*
X125198500Y-58928004D01*
X194207373Y-58928004D01*
X194226972Y-59189545D01*
X194226973Y-59189550D01*
X194285338Y-59445270D01*
X194381163Y-59689426D01*
X194381162Y-59689426D01*
X194512310Y-59916577D01*
X194560153Y-59976571D01*
X194560154Y-59976571D01*
X195462280Y-59074445D01*
X195462280Y-59213763D01*
X195477600Y-59320315D01*
X195537328Y-59451100D01*
X195631482Y-59559761D01*
X195663496Y-59580335D01*
X194913111Y-60330720D01*
X195084826Y-60447793D01*
X195084830Y-60447795D01*
X195321134Y-60561594D01*
X195321138Y-60561595D01*
X195571774Y-60638907D01*
X195571780Y-60638909D01*
X195831128Y-60677999D01*
X195831137Y-60678000D01*
X196093423Y-60678000D01*
X196093431Y-60677999D01*
X196352779Y-60638909D01*
X196352785Y-60638907D01*
X196603423Y-60561595D01*
X196839725Y-60447798D01*
X196839736Y-60447791D01*
X197011447Y-60330720D01*
X196261063Y-59580335D01*
X196293078Y-59559761D01*
X196387232Y-59451100D01*
X196446960Y-59320315D01*
X196462280Y-59213763D01*
X196462280Y-59074446D01*
X197364404Y-59976571D01*
X197412254Y-59916570D01*
X197543396Y-59689426D01*
X197639221Y-59445270D01*
X197697586Y-59189550D01*
X197697587Y-59189545D01*
X197717187Y-58928004D01*
X197717187Y-58927995D01*
X197697587Y-58666454D01*
X197697586Y-58666449D01*
X197639221Y-58410729D01*
X197543396Y-58166573D01*
X197543397Y-58166573D01*
X197412251Y-57939426D01*
X197364405Y-57879427D01*
X196462280Y-58781552D01*
X196462280Y-58642237D01*
X196446960Y-58535685D01*
X196387232Y-58404900D01*
X196293078Y-58296239D01*
X196261062Y-58275663D01*
X197011447Y-57525278D01*
X196839727Y-57408202D01*
X196839725Y-57408201D01*
X196603422Y-57294404D01*
X196603424Y-57294404D01*
X196352785Y-57217092D01*
X196352779Y-57217090D01*
X196093431Y-57178000D01*
X195831128Y-57178000D01*
X195571780Y-57217090D01*
X195571774Y-57217092D01*
X195321138Y-57294404D01*
X195321134Y-57294405D01*
X195084830Y-57408204D01*
X195084826Y-57408206D01*
X194913112Y-57525278D01*
X195663497Y-58275663D01*
X195631482Y-58296239D01*
X195537328Y-58404900D01*
X195477600Y-58535685D01*
X195462280Y-58642237D01*
X195462280Y-58781553D01*
X194560153Y-57879427D01*
X194512309Y-57939423D01*
X194381163Y-58166573D01*
X194285338Y-58410729D01*
X194226973Y-58666449D01*
X194226972Y-58666454D01*
X194207373Y-58927995D01*
X194207373Y-58928004D01*
X125198500Y-58928004D01*
X125198500Y-54629283D01*
X125215113Y-54567284D01*
X125324743Y-54377398D01*
X125423334Y-54126195D01*
X125483383Y-53863103D01*
X125503549Y-53594004D01*
X147298032Y-53594004D01*
X147318197Y-53863101D01*
X147378245Y-54126188D01*
X147378247Y-54126195D01*
X147476838Y-54377398D01*
X147611766Y-54611102D01*
X147626266Y-54629284D01*
X147780023Y-54822089D01*
X147966764Y-54995358D01*
X147977840Y-55005635D01*
X148200807Y-55157651D01*
X148443940Y-55274738D01*
X148701809Y-55354280D01*
X148701810Y-55354280D01*
X148701813Y-55354281D01*
X148968644Y-55394499D01*
X148968649Y-55394499D01*
X148968652Y-55394500D01*
X148968653Y-55394500D01*
X149238509Y-55394500D01*
X149238510Y-55394500D01*
X149238517Y-55394499D01*
X149505348Y-55354281D01*
X149505349Y-55354280D01*
X149505353Y-55354280D01*
X149763222Y-55274738D01*
X150006356Y-55157651D01*
X150229322Y-55005635D01*
X150427142Y-54822085D01*
X150595396Y-54611102D01*
X150730324Y-54377398D01*
X150828915Y-54126195D01*
X150888964Y-53863103D01*
X150909130Y-53594004D01*
X157458032Y-53594004D01*
X157478197Y-53863101D01*
X157538245Y-54126188D01*
X157538247Y-54126195D01*
X157636838Y-54377398D01*
X157771766Y-54611102D01*
X157786266Y-54629284D01*
X157940023Y-54822089D01*
X158126764Y-54995358D01*
X158137840Y-55005635D01*
X158360807Y-55157651D01*
X158603940Y-55274738D01*
X158861809Y-55354280D01*
X158861810Y-55354280D01*
X158861813Y-55354281D01*
X159128644Y-55394499D01*
X159128649Y-55394499D01*
X159128652Y-55394500D01*
X159128653Y-55394500D01*
X159398509Y-55394500D01*
X159398510Y-55394500D01*
X159398517Y-55394499D01*
X159665348Y-55354281D01*
X159665349Y-55354280D01*
X159665353Y-55354280D01*
X159923222Y-55274738D01*
X160166356Y-55157651D01*
X160389322Y-55005635D01*
X160587142Y-54822085D01*
X160755396Y-54611102D01*
X160890324Y-54377398D01*
X160988915Y-54126195D01*
X161048964Y-53863103D01*
X161069130Y-53594000D01*
X161048964Y-53324897D01*
X160988915Y-53061805D01*
X160890324Y-52810602D01*
X160780693Y-52620714D01*
X160764081Y-52558715D01*
X160764081Y-51308004D01*
X169644451Y-51308004D01*
X169664616Y-51577101D01*
X169724664Y-51840188D01*
X169724666Y-51840195D01*
X169799295Y-52030346D01*
X169823257Y-52091398D01*
X169958185Y-52325102D01*
X170094080Y-52495509D01*
X170126442Y-52536089D01*
X170313183Y-52709358D01*
X170324259Y-52719635D01*
X170547226Y-52871651D01*
X170790359Y-52988738D01*
X171048228Y-53068280D01*
X171048229Y-53068280D01*
X171048232Y-53068281D01*
X171315063Y-53108499D01*
X171315068Y-53108499D01*
X171315071Y-53108500D01*
X171315072Y-53108500D01*
X171584928Y-53108500D01*
X171584929Y-53108500D01*
X171584936Y-53108499D01*
X171851767Y-53068281D01*
X171851768Y-53068280D01*
X171851772Y-53068280D01*
X172109641Y-52988738D01*
X172352775Y-52871651D01*
X172575741Y-52719635D01*
X172773561Y-52536085D01*
X172941815Y-52325102D01*
X173076743Y-52091398D01*
X173175334Y-51840195D01*
X173235383Y-51577103D01*
X173255549Y-51308004D01*
X179804451Y-51308004D01*
X179824616Y-51577101D01*
X179884664Y-51840188D01*
X179884666Y-51840195D01*
X179959295Y-52030346D01*
X179983257Y-52091398D01*
X180118185Y-52325102D01*
X180254080Y-52495509D01*
X180286442Y-52536089D01*
X180473183Y-52709358D01*
X180484259Y-52719635D01*
X180707226Y-52871651D01*
X180950359Y-52988738D01*
X181208228Y-53068280D01*
X181208229Y-53068280D01*
X181208232Y-53068281D01*
X181475063Y-53108499D01*
X181475068Y-53108499D01*
X181475071Y-53108500D01*
X181475072Y-53108500D01*
X181744928Y-53108500D01*
X181744929Y-53108500D01*
X181744936Y-53108499D01*
X182011767Y-53068281D01*
X182011768Y-53068280D01*
X182011772Y-53068280D01*
X182269641Y-52988738D01*
X182512775Y-52871651D01*
X182735741Y-52719635D01*
X182933561Y-52536085D01*
X183101815Y-52325102D01*
X183236743Y-52091398D01*
X183335334Y-51840195D01*
X183395383Y-51577103D01*
X183415549Y-51308000D01*
X183395383Y-51038897D01*
X183335334Y-50775805D01*
X183236743Y-50524602D01*
X183101815Y-50290898D01*
X182933561Y-50079915D01*
X182933560Y-50079914D01*
X182933557Y-50079910D01*
X182735741Y-49896365D01*
X182662673Y-49846548D01*
X182512775Y-49744349D01*
X182512769Y-49744346D01*
X182512768Y-49744345D01*
X182512767Y-49744344D01*
X182269643Y-49627263D01*
X182269645Y-49627263D01*
X182011773Y-49547720D01*
X182011767Y-49547718D01*
X181744936Y-49507500D01*
X181744929Y-49507500D01*
X181475071Y-49507500D01*
X181475063Y-49507500D01*
X181208232Y-49547718D01*
X181208226Y-49547720D01*
X180950358Y-49627262D01*
X180707230Y-49744346D01*
X180484258Y-49896365D01*
X180286442Y-50079910D01*
X180118185Y-50290898D01*
X179983258Y-50524599D01*
X179983256Y-50524603D01*
X179884666Y-50775804D01*
X179884664Y-50775811D01*
X179824616Y-51038898D01*
X179804451Y-51307995D01*
X179804451Y-51308004D01*
X173255549Y-51308004D01*
X173255549Y-51308000D01*
X173235383Y-51038897D01*
X173175334Y-50775805D01*
X173076743Y-50524602D01*
X172967112Y-50334714D01*
X172950500Y-50272715D01*
X172950500Y-47273169D01*
X172970185Y-47206130D01*
X172986819Y-47185488D01*
X173818823Y-46353484D01*
X174689480Y-45482826D01*
X174750801Y-45449343D01*
X174820493Y-45454327D01*
X174873261Y-45492149D01*
X174918888Y-45548107D01*
X174940284Y-45565553D01*
X175076593Y-45676698D01*
X175198212Y-45740226D01*
X175248520Y-45788713D01*
X175264627Y-45856701D01*
X175254357Y-45899945D01*
X175201317Y-46020864D01*
X175144361Y-46245781D01*
X175125202Y-46476994D01*
X175125202Y-46477005D01*
X175144361Y-46708218D01*
X175201317Y-46933135D01*
X175294516Y-47145609D01*
X175378811Y-47274633D01*
X176085549Y-46567895D01*
X176086327Y-46578265D01*
X176135887Y-46704541D01*
X176220465Y-46810599D01*
X176332547Y-46887016D01*
X176440298Y-46920252D01*
X175731199Y-47629351D01*
X175761650Y-47653050D01*
X175965697Y-47763476D01*
X175965706Y-47763479D01*
X176185139Y-47838811D01*
X176413993Y-47877000D01*
X176646007Y-47877000D01*
X176874860Y-47838811D01*
X177094293Y-47763479D01*
X177094302Y-47763476D01*
X177298350Y-47653050D01*
X177328798Y-47629351D01*
X176618232Y-46918784D01*
X176664138Y-46911865D01*
X176786357Y-46853007D01*
X176885798Y-46760740D01*
X176953625Y-46643260D01*
X176971499Y-46564947D01*
X177681186Y-47274634D01*
X177765484Y-47145606D01*
X177858682Y-46933135D01*
X177915638Y-46708218D01*
X177934797Y-46477005D01*
X177934797Y-46476994D01*
X177915638Y-46245781D01*
X177858682Y-46020865D01*
X177805642Y-45899945D01*
X177796739Y-45830645D01*
X177826716Y-45767533D01*
X177861783Y-45740228D01*
X177983407Y-45676698D01*
X178141109Y-45548109D01*
X178269698Y-45390407D01*
X178363909Y-45210049D01*
X178419886Y-45014418D01*
X178430500Y-44895037D01*
X178430499Y-42978964D01*
X178419886Y-42859582D01*
X178363909Y-42663951D01*
X178269698Y-42483593D01*
X178194085Y-42390861D01*
X178141109Y-42325890D01*
X177983409Y-42197304D01*
X177983410Y-42197304D01*
X177983407Y-42197302D01*
X177803049Y-42103091D01*
X177803048Y-42103090D01*
X177803045Y-42103089D01*
X177685829Y-42069550D01*
X177607418Y-42047114D01*
X177607415Y-42047113D01*
X177607413Y-42047113D01*
X177516983Y-42039073D01*
X177488037Y-42036500D01*
X177488035Y-42036500D01*
X177488034Y-42036500D01*
X176666331Y-42036500D01*
X175571964Y-42036501D01*
X175542727Y-42039100D01*
X175452584Y-42047113D01*
X175256954Y-42103089D01*
X175166772Y-42150196D01*
X175076593Y-42197302D01*
X175076591Y-42197303D01*
X175076590Y-42197304D01*
X174918890Y-42325890D01*
X174865915Y-42390861D01*
X174808294Y-42430378D01*
X174769813Y-42436500D01*
X174440890Y-42436500D01*
X174440814Y-42436497D01*
X174438440Y-42436497D01*
X174435296Y-42436497D01*
X174371718Y-42436498D01*
X174371690Y-42436490D01*
X174208000Y-42436493D01*
X173984725Y-42461657D01*
X173984709Y-42461660D01*
X173765677Y-42511658D01*
X173765670Y-42511660D01*
X173553588Y-42585876D01*
X173351155Y-42683369D01*
X173160910Y-42802912D01*
X172985246Y-42943004D01*
X172931512Y-42996740D01*
X170491413Y-45436839D01*
X170491256Y-45437007D01*
X170456022Y-45472239D01*
X170456020Y-45472241D01*
X170315932Y-45647898D01*
X170315920Y-45647915D01*
X170196381Y-45838151D01*
X170196379Y-45838154D01*
X170108385Y-46020865D01*
X170098884Y-46040593D01*
X170097284Y-46045166D01*
X170024667Y-46252676D01*
X170024667Y-46252677D01*
X169974669Y-46471709D01*
X169974666Y-46471725D01*
X169949502Y-46695000D01*
X169949501Y-46745172D01*
X169949500Y-46745213D01*
X169949500Y-46807348D01*
X169949497Y-46927947D01*
X169949500Y-46928018D01*
X169949500Y-50272715D01*
X169932887Y-50334715D01*
X169823258Y-50524599D01*
X169724666Y-50775804D01*
X169724664Y-50775811D01*
X169664616Y-51038898D01*
X169644451Y-51307995D01*
X169644451Y-51308004D01*
X160764081Y-51308004D01*
X160764081Y-47396738D01*
X160783766Y-47329699D01*
X160836570Y-47283944D01*
X160905728Y-47274000D01*
X160927932Y-47279317D01*
X161112828Y-47342081D01*
X161395742Y-47398356D01*
X161683581Y-47417222D01*
X161971420Y-47398356D01*
X162254334Y-47342081D01*
X162527483Y-47249359D01*
X162786192Y-47121778D01*
X163026035Y-46961520D01*
X163242908Y-46771327D01*
X163433101Y-46554454D01*
X163593359Y-46314611D01*
X163720940Y-46055902D01*
X163813662Y-45782753D01*
X163869937Y-45499839D01*
X163888803Y-45212000D01*
X163869937Y-44924161D01*
X163813662Y-44641247D01*
X163720940Y-44368098D01*
X163593359Y-44109389D01*
X163572311Y-44077889D01*
X163433102Y-43869547D01*
X163242908Y-43652672D01*
X163026033Y-43462478D01*
X162786194Y-43302223D01*
X162786187Y-43302219D01*
X162527486Y-43174642D01*
X162254341Y-43081921D01*
X162254335Y-43081919D01*
X162254334Y-43081919D01*
X162254332Y-43081918D01*
X162254326Y-43081917D01*
X161971430Y-43025646D01*
X161971420Y-43025644D01*
X161683581Y-43006778D01*
X161395742Y-43025644D01*
X161395736Y-43025645D01*
X161395731Y-43025646D01*
X161112835Y-43081917D01*
X161112820Y-43081921D01*
X160839675Y-43174642D01*
X160580974Y-43302219D01*
X160580967Y-43302223D01*
X160341128Y-43462478D01*
X160124262Y-43652665D01*
X160124251Y-43652676D01*
X160083359Y-43699303D01*
X160024357Y-43736726D01*
X160017724Y-43738433D01*
X159806452Y-43786651D01*
X159806437Y-43786656D01*
X159594361Y-43860861D01*
X159594359Y-43860862D01*
X159391914Y-43958351D01*
X159391914Y-43958352D01*
X159201668Y-44077889D01*
X159201650Y-44077902D01*
X159025995Y-44217978D01*
X159025992Y-44217981D01*
X158946548Y-44297424D01*
X158861057Y-44382914D01*
X158434210Y-44809761D01*
X158434053Y-44809907D01*
X158385277Y-44858689D01*
X158385204Y-44858728D01*
X158269492Y-44974455D01*
X158269489Y-44974459D01*
X158129419Y-45150125D01*
X158129413Y-45150133D01*
X158009882Y-45340391D01*
X157912409Y-45542827D01*
X157912404Y-45542838D01*
X157838206Y-45754921D01*
X157788219Y-45973981D01*
X157788218Y-45973988D01*
X157763075Y-46197259D01*
X157763075Y-46197260D01*
X157763081Y-46300911D01*
X157763081Y-52558715D01*
X157746468Y-52620715D01*
X157636839Y-52810599D01*
X157538247Y-53061804D01*
X157538245Y-53061811D01*
X157478197Y-53324898D01*
X157458032Y-53593995D01*
X157458032Y-53594004D01*
X150909130Y-53594004D01*
X150909130Y-53594000D01*
X150888964Y-53324897D01*
X150828915Y-53061805D01*
X150730324Y-52810602D01*
X150595396Y-52576898D01*
X150427142Y-52365915D01*
X150427141Y-52365914D01*
X150427138Y-52365910D01*
X150229322Y-52182365D01*
X150229321Y-52182365D01*
X150006356Y-52030349D01*
X150006350Y-52030346D01*
X150006349Y-52030345D01*
X150006348Y-52030344D01*
X149763224Y-51913263D01*
X149763226Y-51913263D01*
X149505354Y-51833720D01*
X149505348Y-51833718D01*
X149238517Y-51793500D01*
X149238510Y-51793500D01*
X148968652Y-51793500D01*
X148968644Y-51793500D01*
X148701813Y-51833718D01*
X148701807Y-51833720D01*
X148443939Y-51913262D01*
X148200811Y-52030346D01*
X147977839Y-52182365D01*
X147780023Y-52365910D01*
X147611766Y-52576898D01*
X147476839Y-52810599D01*
X147476837Y-52810603D01*
X147378247Y-53061804D01*
X147378245Y-53061811D01*
X147318197Y-53324898D01*
X147298032Y-53593995D01*
X147298032Y-53594004D01*
X125503549Y-53594004D01*
X125503549Y-53594000D01*
X125483383Y-53324897D01*
X125423334Y-53061805D01*
X125324743Y-52810602D01*
X125189815Y-52576898D01*
X125021561Y-52365915D01*
X125021560Y-52365914D01*
X125021557Y-52365910D01*
X124823741Y-52182365D01*
X124823740Y-52182365D01*
X124600775Y-52030349D01*
X124600769Y-52030346D01*
X124600768Y-52030345D01*
X124600767Y-52030344D01*
X124357643Y-51913263D01*
X124357645Y-51913263D01*
X124099773Y-51833720D01*
X124099767Y-51833718D01*
X123832936Y-51793500D01*
X123832929Y-51793500D01*
X123563071Y-51793500D01*
X123563063Y-51793500D01*
X123296232Y-51833718D01*
X123296226Y-51833720D01*
X123038358Y-51913262D01*
X122795230Y-52030346D01*
X122572258Y-52182365D01*
X122374442Y-52365910D01*
X122206185Y-52576898D01*
X122071258Y-52810599D01*
X122071256Y-52810603D01*
X121972666Y-53061804D01*
X121972664Y-53061811D01*
X121912616Y-53324898D01*
X121892451Y-53593995D01*
X121892451Y-53594004D01*
X121912616Y-53863101D01*
X121972664Y-54126188D01*
X121972666Y-54126195D01*
X122071257Y-54377398D01*
X122180886Y-54567284D01*
X122180887Y-54567285D01*
X122197499Y-54629284D01*
X122197499Y-72987110D01*
X122177814Y-73054149D01*
X122161180Y-73074791D01*
X119947850Y-75288122D01*
X119886527Y-75321607D01*
X119860169Y-75324441D01*
X113572627Y-75324441D01*
X113505588Y-75304756D01*
X113479614Y-75282444D01*
X113379510Y-75168900D01*
X113329687Y-75112387D01*
X113329679Y-75112379D01*
X113329680Y-75112379D01*
X112378516Y-74161216D01*
X112378506Y-74161206D01*
X112378495Y-74161196D01*
X112377839Y-74160581D01*
X112312512Y-74095249D01*
X112125791Y-73942000D01*
X112046670Y-73877062D01*
X112046649Y-73877046D01*
X111858702Y-73751455D01*
X111760695Y-73685964D01*
X111760692Y-73685962D01*
X111760690Y-73685961D01*
X111457388Y-73523828D01*
X111457379Y-73523824D01*
X111286104Y-73452872D01*
X111139635Y-73392196D01*
X110953856Y-73335832D01*
X110810518Y-73292345D01*
X110473205Y-73225234D01*
X110473179Y-73225230D01*
X110130924Y-73191506D01*
X110130930Y-73191506D01*
X110037581Y-73191503D01*
X110037481Y-73191500D01*
X110037428Y-73191500D01*
X109958958Y-73191500D01*
X109807705Y-73191494D01*
X109807704Y-73191494D01*
X109805921Y-73191494D01*
X109805728Y-73191500D01*
X109103545Y-73191500D01*
X109036506Y-73171815D01*
X108990751Y-73119011D01*
X108979545Y-73067551D01*
X108979056Y-71879492D01*
X108998713Y-71812444D01*
X109051498Y-71766668D01*
X109103056Y-71755441D01*
X110903089Y-71755441D01*
X110930138Y-71758426D01*
X111114062Y-71799539D01*
X111427302Y-71829148D01*
X111741783Y-71819266D01*
X111741789Y-71819265D01*
X111741790Y-71819265D01*
X112052542Y-71770047D01*
X112052550Y-71770045D01*
X112218767Y-71721754D01*
X112354689Y-71682265D01*
X112643448Y-71557308D01*
X112914269Y-71397145D01*
X113162880Y-71204302D01*
X113385361Y-70981821D01*
X113456197Y-70890499D01*
X113512841Y-70849593D01*
X113554177Y-70842500D01*
X115680297Y-70842500D01*
X115680506Y-70842495D01*
X115729218Y-70842496D01*
X115952498Y-70817342D01*
X115952508Y-70817339D01*
X115952514Y-70817339D01*
X116105342Y-70782458D01*
X116171557Y-70767346D01*
X116383642Y-70693137D01*
X116586084Y-70595649D01*
X116776337Y-70476107D01*
X116952010Y-70336016D01*
X116986058Y-70301967D01*
X116986096Y-70301932D01*
X117068343Y-70219685D01*
X117114956Y-70173073D01*
X117114957Y-70173071D01*
X117122018Y-70166010D01*
X117122024Y-70166002D01*
X119696005Y-67592021D01*
X119696019Y-67592010D01*
X119750258Y-67537771D01*
X119750271Y-67537763D01*
X119786582Y-67501450D01*
X119786583Y-67501451D01*
X119866023Y-67422009D01*
X120006114Y-67246336D01*
X120125655Y-67056083D01*
X120223143Y-66853641D01*
X120297351Y-66641557D01*
X120317315Y-66554085D01*
X120347344Y-66422514D01*
X120347345Y-66422505D01*
X120347347Y-66422498D01*
X120372501Y-66199218D01*
X120372500Y-66086872D01*
X120372499Y-51726888D01*
X120392184Y-51659850D01*
X120408818Y-51639208D01*
X125299208Y-46748819D01*
X125360531Y-46715334D01*
X125386889Y-46712500D01*
X126386977Y-46712500D01*
X126454016Y-46732185D01*
X126461287Y-46737233D01*
X126677682Y-46899224D01*
X126677690Y-46899229D01*
X126928833Y-47036364D01*
X126928832Y-47036364D01*
X126928836Y-47036365D01*
X126928839Y-47036367D01*
X127196954Y-47136369D01*
X127196960Y-47136370D01*
X127196962Y-47136371D01*
X127476566Y-47197195D01*
X127476568Y-47197195D01*
X127476572Y-47197196D01*
X127730220Y-47215337D01*
X127761999Y-47217610D01*
X127762000Y-47217610D01*
X127762001Y-47217610D01*
X127790595Y-47215564D01*
X128047428Y-47197196D01*
X128284571Y-47145609D01*
X128327037Y-47136371D01*
X128327037Y-47136370D01*
X128327046Y-47136369D01*
X128595161Y-47036367D01*
X128846315Y-46899226D01*
X129075395Y-46727739D01*
X129277739Y-46525395D01*
X129449226Y-46296315D01*
X129586367Y-46045161D01*
X129686369Y-45777046D01*
X129736171Y-45548109D01*
X129747195Y-45497433D01*
X129747195Y-45497432D01*
X129747196Y-45497428D01*
X129767610Y-45212004D01*
X144978814Y-45212004D01*
X144997854Y-45466079D01*
X145054549Y-45714477D01*
X145054554Y-45714494D01*
X145147639Y-45951671D01*
X145147638Y-45951671D01*
X145275038Y-46172332D01*
X145317033Y-46224993D01*
X145317034Y-46224993D01*
X146120807Y-45421219D01*
X146159482Y-45514588D01*
X146255656Y-45639925D01*
X146380993Y-45736099D01*
X146474360Y-45774772D01*
X145670394Y-46578737D01*
X145831204Y-46688375D01*
X145831205Y-46688376D01*
X146060757Y-46798921D01*
X146060755Y-46798921D01*
X146304233Y-46874024D01*
X146304239Y-46874026D01*
X146556176Y-46911999D01*
X146556185Y-46912000D01*
X146810977Y-46912000D01*
X146810985Y-46911999D01*
X147062922Y-46874026D01*
X147062928Y-46874024D01*
X147306405Y-46798921D01*
X147535962Y-46688373D01*
X147696766Y-46578737D01*
X146892801Y-45774772D01*
X146986169Y-45736099D01*
X147111506Y-45639925D01*
X147207680Y-45514589D01*
X147246354Y-45421220D01*
X148050126Y-46224993D01*
X148092126Y-46172327D01*
X148219522Y-45951671D01*
X148312607Y-45714494D01*
X148312612Y-45714477D01*
X148369307Y-45466079D01*
X148388348Y-45212004D01*
X148388348Y-45211995D01*
X148369307Y-44957920D01*
X148312612Y-44709522D01*
X148312607Y-44709505D01*
X148219522Y-44472328D01*
X148219523Y-44472328D01*
X148092125Y-44251671D01*
X148050127Y-44199006D01*
X147246353Y-45002779D01*
X147207680Y-44909412D01*
X147111506Y-44784075D01*
X146986169Y-44687901D01*
X146892801Y-44649227D01*
X147696766Y-43845261D01*
X147535958Y-43735624D01*
X147535957Y-43735623D01*
X147306404Y-43625078D01*
X147306406Y-43625078D01*
X147062928Y-43549975D01*
X147062922Y-43549973D01*
X146810985Y-43512000D01*
X146556176Y-43512000D01*
X146304239Y-43549973D01*
X146304233Y-43549975D01*
X146060756Y-43625078D01*
X145831205Y-43735623D01*
X145831197Y-43735628D01*
X145670394Y-43845261D01*
X146474360Y-44649227D01*
X146380993Y-44687901D01*
X146255656Y-44784075D01*
X146159482Y-44909411D01*
X146120808Y-45002779D01*
X145317034Y-44199006D01*
X145275036Y-44251670D01*
X145147639Y-44472328D01*
X145054554Y-44709505D01*
X145054549Y-44709522D01*
X144997854Y-44957920D01*
X144978814Y-45211995D01*
X144978814Y-45212004D01*
X129767610Y-45212004D01*
X129767610Y-45212000D01*
X129767470Y-45210049D01*
X129763185Y-45150125D01*
X129747196Y-44926572D01*
X129740335Y-44895034D01*
X129686371Y-44646962D01*
X129686370Y-44646960D01*
X129686369Y-44646954D01*
X129586367Y-44378839D01*
X129520955Y-44259047D01*
X129449229Y-44127690D01*
X129449224Y-44127682D01*
X129277745Y-43898612D01*
X129277729Y-43898594D01*
X129075405Y-43696270D01*
X129075387Y-43696254D01*
X128846317Y-43524775D01*
X128846309Y-43524770D01*
X128595166Y-43387635D01*
X128595167Y-43387635D01*
X128487915Y-43347632D01*
X128327046Y-43287631D01*
X128327043Y-43287630D01*
X128327037Y-43287628D01*
X128047433Y-43226804D01*
X127762001Y-43206390D01*
X127761999Y-43206390D01*
X127476566Y-43226804D01*
X127196962Y-43287628D01*
X126928833Y-43387635D01*
X126677690Y-43524770D01*
X126677682Y-43524775D01*
X126461287Y-43686767D01*
X126395823Y-43711184D01*
X126386977Y-43711500D01*
X124859040Y-43711500D01*
X124859036Y-43711500D01*
X124858936Y-43711504D01*
X124808782Y-43711504D01*
X124585503Y-43736658D01*
X124585502Y-43736658D01*
X124585495Y-43736659D01*
X124585486Y-43736660D01*
X124366453Y-43786651D01*
X124366438Y-43786656D01*
X124154366Y-43860859D01*
X123951918Y-43958350D01*
X123761666Y-44077889D01*
X123585994Y-44217981D01*
X123550432Y-44253541D01*
X123550424Y-44253549D01*
X123544925Y-44259047D01*
X123525739Y-44278232D01*
X123506552Y-44297420D01*
X123486308Y-44317664D01*
X123422224Y-44381746D01*
X123422200Y-44381772D01*
X118040930Y-49763041D01*
X118040922Y-49763047D01*
X117993746Y-49810225D01*
X117993732Y-49810232D01*
X117877976Y-49925991D01*
X117737891Y-50101656D01*
X117737885Y-50101665D01*
X117660674Y-50224549D01*
X117618347Y-50291914D01*
X117569602Y-50393134D01*
X117520855Y-50494361D01*
X117446651Y-50706435D01*
X117446646Y-50706450D01*
X117396655Y-50925484D01*
X117396654Y-50925493D01*
X117396653Y-50925500D01*
X117396653Y-50925501D01*
X117383879Y-51038897D01*
X117371499Y-51148786D01*
X117371500Y-51216534D01*
X117371500Y-65621109D01*
X117351815Y-65688148D01*
X117335181Y-65708790D01*
X115238791Y-67805181D01*
X115177468Y-67838666D01*
X115151110Y-67841500D01*
X113586794Y-67841500D01*
X113519755Y-67821815D01*
X113488913Y-67791755D01*
X113488288Y-67792240D01*
X113488267Y-67792259D01*
X113488265Y-67792257D01*
X113488072Y-67792408D01*
X113485685Y-67789330D01*
X113357947Y-67644442D01*
X113329687Y-67612387D01*
X113329679Y-67612379D01*
X113329680Y-67612379D01*
X113231894Y-67514593D01*
X113151092Y-67428549D01*
X113151090Y-67428547D01*
X113060153Y-67353318D01*
X112971606Y-67275253D01*
X112941438Y-67254750D01*
X112936765Y-67251241D01*
X112908664Y-67227994D01*
X112908661Y-67227992D01*
X112809005Y-67164749D01*
X112711377Y-67098401D01*
X112711367Y-67098396D01*
X112678871Y-67081838D01*
X112673795Y-67078942D01*
X112643003Y-67059401D01*
X112536215Y-67009151D01*
X112431034Y-66955559D01*
X112431033Y-66955558D01*
X112431032Y-66955558D01*
X112396713Y-66943202D01*
X112391315Y-66940966D01*
X112358322Y-66925441D01*
X112358308Y-66925435D01*
X112246051Y-66888961D01*
X112134998Y-66848979D01*
X112111838Y-66843802D01*
X112099399Y-66841021D01*
X112093769Y-66839481D01*
X112088880Y-66837892D01*
X112059079Y-66828210D01*
X111943129Y-66806091D01*
X111943128Y-66806091D01*
X111827944Y-66780344D01*
X111827938Y-66780343D01*
X111815625Y-66779179D01*
X111791621Y-66776909D01*
X111785839Y-66776086D01*
X111750015Y-66769253D01*
X111750004Y-66769251D01*
X111632196Y-66761840D01*
X111632195Y-66761840D01*
X111514698Y-66750734D01*
X111514695Y-66750734D01*
X111396728Y-66754441D01*
X109100898Y-66754441D01*
X109033859Y-66734756D01*
X108988104Y-66681952D01*
X108976898Y-66630492D01*
X108974380Y-60507785D01*
X109871000Y-60507785D01*
X109877401Y-60567313D01*
X109877403Y-60567320D01*
X109927645Y-60702027D01*
X109927649Y-60702034D01*
X110013809Y-60817128D01*
X110013812Y-60817131D01*
X110128906Y-60903291D01*
X110128913Y-60903295D01*
X110263620Y-60953537D01*
X110263627Y-60953539D01*
X110323155Y-60959940D01*
X110323172Y-60959941D01*
X111256000Y-60959941D01*
X111256000Y-60041605D01*
X111417753Y-60079941D01*
X111549975Y-60079941D01*
X111681300Y-60064591D01*
X111756000Y-60037402D01*
X111756000Y-60959941D01*
X112688828Y-60959941D01*
X112688844Y-60959940D01*
X112748372Y-60953539D01*
X112748379Y-60953537D01*
X112883086Y-60903295D01*
X112883093Y-60903291D01*
X112998187Y-60817131D01*
X112998190Y-60817128D01*
X113084350Y-60702034D01*
X113084354Y-60702027D01*
X113134596Y-60567320D01*
X113134598Y-60567313D01*
X113140999Y-60507785D01*
X113141000Y-60507768D01*
X113141000Y-59574941D01*
X112219264Y-59574941D01*
X112254592Y-59456938D01*
X112264854Y-59280743D01*
X112234206Y-59106930D01*
X112220407Y-59074941D01*
X113141000Y-59074941D01*
X113141000Y-58142113D01*
X113140999Y-58142096D01*
X113134598Y-58082568D01*
X113134596Y-58082561D01*
X113084354Y-57947854D01*
X113084350Y-57947847D01*
X112998190Y-57832753D01*
X112998187Y-57832750D01*
X112883093Y-57746590D01*
X112883086Y-57746586D01*
X112748379Y-57696344D01*
X112748372Y-57696342D01*
X112688844Y-57689941D01*
X111756000Y-57689941D01*
X111755999Y-58608276D01*
X111594247Y-58569941D01*
X111462025Y-58569941D01*
X111330700Y-58585291D01*
X111256000Y-58612479D01*
X111256000Y-57689941D01*
X110323155Y-57689941D01*
X110263627Y-57696342D01*
X110263620Y-57696344D01*
X110128913Y-57746586D01*
X110128906Y-57746590D01*
X110013812Y-57832750D01*
X110013809Y-57832753D01*
X109927649Y-57947847D01*
X109927645Y-57947854D01*
X109877403Y-58082561D01*
X109877401Y-58082568D01*
X109871000Y-58142096D01*
X109871000Y-59074941D01*
X110792736Y-59074941D01*
X110757408Y-59192944D01*
X110747146Y-59369139D01*
X110777794Y-59542952D01*
X110791593Y-59574941D01*
X109871000Y-59574941D01*
X109871000Y-60507785D01*
X108974380Y-60507785D01*
X108971537Y-53594004D01*
X111732451Y-53594004D01*
X111752616Y-53863101D01*
X111812664Y-54126188D01*
X111812666Y-54126195D01*
X111911257Y-54377398D01*
X112046185Y-54611102D01*
X112060685Y-54629284D01*
X112214442Y-54822089D01*
X112401183Y-54995358D01*
X112412259Y-55005635D01*
X112635226Y-55157651D01*
X112878359Y-55274738D01*
X113136228Y-55354280D01*
X113136229Y-55354280D01*
X113136232Y-55354281D01*
X113403063Y-55394499D01*
X113403068Y-55394499D01*
X113403071Y-55394500D01*
X113403072Y-55394500D01*
X113672928Y-55394500D01*
X113672929Y-55394500D01*
X113672936Y-55394499D01*
X113939767Y-55354281D01*
X113939768Y-55354280D01*
X113939772Y-55354280D01*
X114197641Y-55274738D01*
X114440775Y-55157651D01*
X114663741Y-55005635D01*
X114861561Y-54822085D01*
X115029815Y-54611102D01*
X115164743Y-54377398D01*
X115263334Y-54126195D01*
X115323383Y-53863103D01*
X115343549Y-53594000D01*
X115323383Y-53324897D01*
X115263334Y-53061805D01*
X115164743Y-52810602D01*
X115055112Y-52620714D01*
X115038500Y-52558715D01*
X115038500Y-47154889D01*
X115058185Y-47087850D01*
X115074814Y-47067213D01*
X115393208Y-46748819D01*
X115454532Y-46715334D01*
X115480890Y-46712500D01*
X116386977Y-46712500D01*
X116454016Y-46732185D01*
X116461287Y-46737233D01*
X116677682Y-46899224D01*
X116677690Y-46899229D01*
X116928833Y-47036364D01*
X116928832Y-47036364D01*
X116928836Y-47036365D01*
X116928839Y-47036367D01*
X117196954Y-47136369D01*
X117196960Y-47136370D01*
X117196962Y-47136371D01*
X117476566Y-47197195D01*
X117476568Y-47197195D01*
X117476572Y-47197196D01*
X117730220Y-47215337D01*
X117761999Y-47217610D01*
X117762000Y-47217610D01*
X117762001Y-47217610D01*
X117790595Y-47215564D01*
X118047428Y-47197196D01*
X118284571Y-47145609D01*
X118327037Y-47136371D01*
X118327037Y-47136370D01*
X118327046Y-47136369D01*
X118595161Y-47036367D01*
X118846315Y-46899226D01*
X119075395Y-46727739D01*
X119277739Y-46525395D01*
X119449226Y-46296315D01*
X119586367Y-46045161D01*
X119686369Y-45777046D01*
X119736171Y-45548109D01*
X119747195Y-45497433D01*
X119747195Y-45497432D01*
X119747196Y-45497428D01*
X119767610Y-45212000D01*
X119767470Y-45210049D01*
X119763185Y-45150125D01*
X119747196Y-44926572D01*
X119740335Y-44895034D01*
X119686371Y-44646962D01*
X119686370Y-44646960D01*
X119686369Y-44646954D01*
X119586367Y-44378839D01*
X119520955Y-44259047D01*
X119449229Y-44127690D01*
X119449224Y-44127682D01*
X119277745Y-43898612D01*
X119277729Y-43898594D01*
X119075405Y-43696270D01*
X119075387Y-43696254D01*
X118846317Y-43524775D01*
X118846309Y-43524770D01*
X118595166Y-43387635D01*
X118595167Y-43387635D01*
X118487915Y-43347632D01*
X118327046Y-43287631D01*
X118327043Y-43287630D01*
X118327037Y-43287628D01*
X118047433Y-43226804D01*
X117762001Y-43206390D01*
X117761999Y-43206390D01*
X117476566Y-43226804D01*
X117196962Y-43287628D01*
X116928833Y-43387635D01*
X116677690Y-43524770D01*
X116677682Y-43524775D01*
X116461287Y-43686767D01*
X116395823Y-43711184D01*
X116386977Y-43711500D01*
X114953040Y-43711500D01*
X114953036Y-43711500D01*
X114952936Y-43711504D01*
X114902782Y-43711504D01*
X114679503Y-43736658D01*
X114679502Y-43736658D01*
X114679495Y-43736659D01*
X114679486Y-43736660D01*
X114460453Y-43786651D01*
X114460438Y-43786656D01*
X114248366Y-43860859D01*
X114045918Y-43958350D01*
X113855666Y-44077889D01*
X113739627Y-44170426D01*
X113679994Y-44217981D01*
X113644438Y-44253534D01*
X113644428Y-44253544D01*
X113609642Y-44288330D01*
X113600552Y-44297420D01*
X113600550Y-44297422D01*
X113517048Y-44380923D01*
X112706930Y-45191041D01*
X112706922Y-45191047D01*
X112659746Y-45238225D01*
X112659732Y-45238232D01*
X112543976Y-45353991D01*
X112403891Y-45529656D01*
X112403885Y-45529665D01*
X112284350Y-45719909D01*
X112284347Y-45719914D01*
X112259790Y-45770909D01*
X112186855Y-45922361D01*
X112112651Y-46134435D01*
X112112646Y-46134450D01*
X112062655Y-46353484D01*
X112062654Y-46353493D01*
X112062653Y-46353500D01*
X112062653Y-46353501D01*
X112040015Y-46554454D01*
X112037499Y-46576786D01*
X112037500Y-46636063D01*
X112037500Y-52558715D01*
X112020887Y-52620715D01*
X111911258Y-52810599D01*
X111812666Y-53061804D01*
X111812664Y-53061811D01*
X111752616Y-53324898D01*
X111732451Y-53593995D01*
X111732451Y-53594004D01*
X108971537Y-53594004D01*
X108966051Y-40256051D01*
X108985708Y-40189003D01*
X109038493Y-40143227D01*
X109090051Y-40132000D01*
X192649315Y-40132000D01*
X192716354Y-40151685D01*
G37*
%TD.AperFunction*%
%TD*%
%TA.AperFunction,Conductor*%
%TO.N,Net-(D4-K)*%
G36*
X189426729Y-91452899D02*
G01*
X189472631Y-91505575D01*
X189483981Y-91557401D01*
X189483999Y-97789999D01*
X189484000Y-97790000D01*
X199774000Y-97790000D01*
X199841039Y-97809685D01*
X199886794Y-97862489D01*
X199898000Y-97914000D01*
X199898000Y-134576969D01*
X199878315Y-134644008D01*
X199825511Y-134689763D01*
X199756353Y-134699707D01*
X199692797Y-134670682D01*
X199659439Y-134624422D01*
X199649191Y-134599682D01*
X199602741Y-134487541D01*
X199389021Y-134076988D01*
X199140332Y-133686625D01*
X199101936Y-133636586D01*
X198858572Y-133319427D01*
X198799735Y-133255218D01*
X198545870Y-132978173D01*
X198204622Y-132665476D01*
X198204618Y-132665473D01*
X198204616Y-132665471D01*
X197837418Y-132383711D01*
X197447050Y-132135019D01*
X197036502Y-131921302D01*
X196608885Y-131744177D01*
X196426040Y-131686526D01*
X196167463Y-131604996D01*
X195715575Y-131504815D01*
X195498340Y-131476216D01*
X195256689Y-131444402D01*
X194794280Y-131424213D01*
X194331871Y-131444402D01*
X194090219Y-131476216D01*
X193872985Y-131504815D01*
X193421097Y-131604996D01*
X193162519Y-131686526D01*
X192979675Y-131744177D01*
X192552058Y-131921302D01*
X192141510Y-132135019D01*
X191751142Y-132383711D01*
X191383944Y-132665471D01*
X191383941Y-132665473D01*
X191383938Y-132665476D01*
X191042690Y-132978173D01*
X190788825Y-133255218D01*
X190729988Y-133319427D01*
X190486624Y-133636586D01*
X190448228Y-133686625D01*
X190199539Y-134076988D01*
X189985819Y-134487541D01*
X189808694Y-134915158D01*
X189751396Y-135096884D01*
X189669513Y-135356580D01*
X189585415Y-135735923D01*
X189569333Y-135808464D01*
X189508919Y-136267354D01*
X189488730Y-136729763D01*
X189508919Y-137192172D01*
X189523182Y-137300508D01*
X189569332Y-137651058D01*
X189669513Y-138102946D01*
X189717455Y-138254996D01*
X189808694Y-138544368D01*
X189985819Y-138971985D01*
X190199539Y-139382538D01*
X190213697Y-139404762D01*
X190448228Y-139772901D01*
X190543537Y-139897111D01*
X190729993Y-140140105D01*
X191042690Y-140481353D01*
X191383938Y-140794050D01*
X191383941Y-140794052D01*
X191383944Y-140794055D01*
X191416662Y-140819160D01*
X191751142Y-141075815D01*
X192084715Y-141288325D01*
X192141510Y-141324507D01*
X192141510Y-141324506D01*
X192259413Y-141385883D01*
X192474808Y-141498011D01*
X192525183Y-141546426D01*
X192541386Y-141614391D01*
X192518272Y-141680327D01*
X192463180Y-141723300D01*
X192417551Y-141732000D01*
X109198930Y-141732000D01*
X109131891Y-141712315D01*
X109086136Y-141659511D01*
X109074930Y-141608270D01*
X109073209Y-140819160D01*
X109046397Y-128524004D01*
X111732451Y-128524004D01*
X111752616Y-128793101D01*
X111812664Y-129056188D01*
X111812666Y-129056195D01*
X111887295Y-129246346D01*
X111911257Y-129307398D01*
X112046185Y-129541102D01*
X112139502Y-129658117D01*
X112214442Y-129752089D01*
X112347064Y-129875143D01*
X112412259Y-129935635D01*
X112635226Y-130087651D01*
X112878359Y-130204738D01*
X113136228Y-130284280D01*
X113143003Y-130285301D01*
X113206361Y-130314755D01*
X113212208Y-130320236D01*
X116225180Y-133333208D01*
X116258665Y-133394531D01*
X116261499Y-133420889D01*
X116261499Y-135354740D01*
X116241814Y-135421779D01*
X116236766Y-135429050D01*
X116074775Y-135645445D01*
X116074770Y-135645453D01*
X115937635Y-135896596D01*
X115837628Y-136164725D01*
X115776804Y-136444329D01*
X115756390Y-136729761D01*
X115756390Y-136729763D01*
X115776804Y-137015196D01*
X115837628Y-137294800D01*
X115837630Y-137294806D01*
X115837631Y-137294809D01*
X115865720Y-137370118D01*
X115937635Y-137562929D01*
X116074770Y-137814072D01*
X116074775Y-137814080D01*
X116246254Y-138043150D01*
X116246270Y-138043168D01*
X116448594Y-138245492D01*
X116448612Y-138245508D01*
X116677682Y-138416987D01*
X116677690Y-138416992D01*
X116928833Y-138554127D01*
X116928832Y-138554127D01*
X116928836Y-138554128D01*
X116928839Y-138554130D01*
X117196954Y-138654132D01*
X117196960Y-138654133D01*
X117196962Y-138654134D01*
X117476566Y-138714958D01*
X117476568Y-138714958D01*
X117476572Y-138714959D01*
X117730220Y-138733100D01*
X117761999Y-138735373D01*
X117762000Y-138735373D01*
X117762001Y-138735373D01*
X117790595Y-138733327D01*
X118047428Y-138714959D01*
X118327046Y-138654132D01*
X118595161Y-138554130D01*
X118846315Y-138416989D01*
X119075395Y-138245502D01*
X119277739Y-138043158D01*
X119449226Y-137814078D01*
X119586367Y-137562924D01*
X119686369Y-137294809D01*
X119747196Y-137015191D01*
X119767610Y-136729763D01*
X119747196Y-136444335D01*
X119742690Y-136423623D01*
X119686371Y-136164725D01*
X119686370Y-136164723D01*
X119686369Y-136164717D01*
X119586367Y-135896602D01*
X119498629Y-135735923D01*
X119449229Y-135645453D01*
X119449224Y-135645445D01*
X119287232Y-135429047D01*
X119262815Y-135363583D01*
X119262499Y-135354737D01*
X119262499Y-134217010D01*
X119262500Y-132893040D01*
X119262499Y-132893029D01*
X119262499Y-132891718D01*
X119262495Y-132891501D01*
X119262496Y-132842782D01*
X119237342Y-132619503D01*
X119237339Y-132619493D01*
X119237339Y-132619486D01*
X119187348Y-132400453D01*
X119187346Y-132400444D01*
X119113138Y-132188361D01*
X119015651Y-131985920D01*
X118896110Y-131795666D01*
X118756019Y-131619994D01*
X118738333Y-131602307D01*
X118720558Y-131584530D01*
X118720540Y-131584511D01*
X118591447Y-131455418D01*
X118591432Y-131455404D01*
X115328667Y-128192639D01*
X115295457Y-128132549D01*
X115282934Y-128077682D01*
X115263334Y-127991805D01*
X115164743Y-127740602D01*
X115029815Y-127506898D01*
X114861561Y-127295915D01*
X114861560Y-127295914D01*
X114861557Y-127295910D01*
X114663741Y-127112365D01*
X114440775Y-126960349D01*
X114440769Y-126960346D01*
X114440768Y-126960345D01*
X114440767Y-126960344D01*
X114197643Y-126843263D01*
X114197645Y-126843263D01*
X113939773Y-126763720D01*
X113939767Y-126763718D01*
X113672936Y-126723500D01*
X113672929Y-126723500D01*
X113403071Y-126723500D01*
X113403063Y-126723500D01*
X113136232Y-126763718D01*
X113136226Y-126763720D01*
X112878358Y-126843262D01*
X112635230Y-126960346D01*
X112412258Y-127112365D01*
X112214442Y-127295910D01*
X112046185Y-127506898D01*
X111911258Y-127740599D01*
X111911256Y-127740603D01*
X111812666Y-127991804D01*
X111812664Y-127991811D01*
X111752616Y-128254898D01*
X111732451Y-128523995D01*
X111732451Y-128524004D01*
X109046397Y-128524004D01*
X109033385Y-122557440D01*
X109865944Y-122557440D01*
X109886136Y-122814004D01*
X109946214Y-123064246D01*
X109946214Y-123064248D01*
X110044696Y-123302006D01*
X110044698Y-123302009D01*
X110179168Y-123521442D01*
X110179172Y-123521448D01*
X110183439Y-123526444D01*
X110183440Y-123526445D01*
X110824999Y-122884886D01*
X110847699Y-122937510D01*
X110953094Y-123079080D01*
X111088296Y-123192528D01*
X111178940Y-123238051D01*
X110536993Y-123879998D01*
X110541997Y-123884271D01*
X110542005Y-123884277D01*
X110761430Y-124018741D01*
X110761433Y-124018743D01*
X110999192Y-124117225D01*
X111249435Y-124177303D01*
X111506000Y-124197495D01*
X111762564Y-124177303D01*
X112012806Y-124117225D01*
X112012808Y-124117225D01*
X112250566Y-124018743D01*
X112250569Y-124018741D01*
X112469996Y-123884275D01*
X112469999Y-123884273D01*
X112475004Y-123879998D01*
X111835847Y-123240839D01*
X111847150Y-123236726D01*
X111994609Y-123139741D01*
X112115726Y-123011364D01*
X112188108Y-122885994D01*
X112828558Y-123526444D01*
X112832833Y-123521439D01*
X112832835Y-123521436D01*
X112967301Y-123302009D01*
X112967303Y-123302006D01*
X113065785Y-123064248D01*
X113065785Y-123064246D01*
X113125863Y-122814004D01*
X113146055Y-122557440D01*
X113125863Y-122300875D01*
X113065785Y-122050633D01*
X113065785Y-122050631D01*
X112967303Y-121812873D01*
X112967301Y-121812870D01*
X112832837Y-121593445D01*
X112832831Y-121593437D01*
X112828558Y-121588433D01*
X112186999Y-122229991D01*
X112164301Y-122177370D01*
X112058906Y-122035800D01*
X111923704Y-121922352D01*
X111833058Y-121876828D01*
X112475005Y-121234880D01*
X112475004Y-121234879D01*
X112470008Y-121230612D01*
X112470002Y-121230608D01*
X112250569Y-121096138D01*
X112250566Y-121096136D01*
X112012807Y-120997654D01*
X111762564Y-120937576D01*
X111506000Y-120917384D01*
X111249435Y-120937576D01*
X110999193Y-120997654D01*
X110999191Y-120997654D01*
X110761433Y-121096136D01*
X110761430Y-121096138D01*
X110542005Y-121230602D01*
X110541996Y-121230609D01*
X110536994Y-121234879D01*
X110536993Y-121234880D01*
X111176153Y-121874039D01*
X111164850Y-121878154D01*
X111017391Y-121975139D01*
X110896274Y-122103516D01*
X110823892Y-122228885D01*
X110183440Y-121588433D01*
X110183439Y-121588434D01*
X110179169Y-121593436D01*
X110179162Y-121593445D01*
X110044698Y-121812870D01*
X110044696Y-121812873D01*
X109946214Y-122050631D01*
X109946214Y-122050633D01*
X109886136Y-122300875D01*
X109865944Y-122557440D01*
X109033385Y-122557440D01*
X109020027Y-116432208D01*
X109039566Y-116365128D01*
X109092270Y-116319258D01*
X109144027Y-116307940D01*
X109168897Y-116307940D01*
X109235936Y-116327625D01*
X109256578Y-116344259D01*
X109793446Y-116881128D01*
X109970396Y-117037129D01*
X110230626Y-117213982D01*
X110510968Y-117356823D01*
X110807004Y-117463402D01*
X111114062Y-117532038D01*
X111427302Y-117561648D01*
X111741784Y-117551765D01*
X111741790Y-117551764D01*
X111741791Y-117551764D01*
X112052543Y-117502546D01*
X112052552Y-117502544D01*
X112269769Y-117439436D01*
X112354690Y-117414765D01*
X112643448Y-117289807D01*
X112914269Y-117129644D01*
X113162880Y-116936801D01*
X113385361Y-116714320D01*
X113385362Y-116714319D01*
X113469430Y-116605940D01*
X113526072Y-116565033D01*
X113567409Y-116557940D01*
X117940550Y-116557940D01*
X118007589Y-116577625D01*
X118028231Y-116594259D01*
X118605181Y-117171209D01*
X118638666Y-117232532D01*
X118641500Y-117258890D01*
X118641500Y-126346956D01*
X118641504Y-126347062D01*
X118641504Y-126397218D01*
X118666658Y-126620498D01*
X118666659Y-126620505D01*
X118666660Y-126620514D01*
X118716651Y-126839547D01*
X118716653Y-126839553D01*
X118716654Y-126839557D01*
X118717951Y-126843263D01*
X118790861Y-127051638D01*
X118790862Y-127051640D01*
X118790863Y-127051642D01*
X118888351Y-127254084D01*
X118888352Y-127254085D01*
X119007889Y-127444331D01*
X119007902Y-127444349D01*
X119147978Y-127620004D01*
X119147984Y-127620009D01*
X119147984Y-127620010D01*
X119183479Y-127655506D01*
X119183498Y-127655527D01*
X119199838Y-127671866D01*
X119216177Y-127688205D01*
X119221802Y-127693830D01*
X119227425Y-127699454D01*
X119312816Y-127784845D01*
X119312826Y-127784854D01*
X120881396Y-129353424D01*
X120881424Y-129353454D01*
X120930229Y-129402258D01*
X120930236Y-129402271D01*
X120966549Y-129438582D01*
X120966549Y-129438583D01*
X121045991Y-129518023D01*
X121045995Y-129518026D01*
X121045999Y-129518030D01*
X121221668Y-129658117D01*
X121371228Y-129752089D01*
X121411917Y-129777655D01*
X121614359Y-129875143D01*
X121614360Y-129875143D01*
X121614361Y-129875144D01*
X121667379Y-129893695D01*
X121826443Y-129949351D01*
X121826452Y-129949353D01*
X122045485Y-129999344D01*
X122045492Y-129999344D01*
X122045502Y-129999347D01*
X122268782Y-130024501D01*
X122381128Y-130024500D01*
X122664351Y-130024500D01*
X122731390Y-130044185D01*
X122734202Y-130046046D01*
X122795226Y-130087651D01*
X123038359Y-130204738D01*
X123296228Y-130284280D01*
X123296229Y-130284280D01*
X123296232Y-130284281D01*
X123563063Y-130324499D01*
X123563068Y-130324499D01*
X123563071Y-130324500D01*
X123563072Y-130324500D01*
X123832928Y-130324500D01*
X123832929Y-130324500D01*
X123861219Y-130320236D01*
X124099767Y-130284281D01*
X124099768Y-130284280D01*
X124099772Y-130284280D01*
X124357641Y-130204738D01*
X124600775Y-130087651D01*
X124823741Y-129935635D01*
X125021561Y-129752085D01*
X125189815Y-129541102D01*
X125324743Y-129307398D01*
X125423334Y-129056195D01*
X125483383Y-128793103D01*
X125503549Y-128524000D01*
X125483383Y-128254897D01*
X125423334Y-127991805D01*
X125324743Y-127740602D01*
X125189815Y-127506898D01*
X125021561Y-127295915D01*
X125021560Y-127295914D01*
X125021557Y-127295910D01*
X124823741Y-127112365D01*
X124823740Y-127112365D01*
X124600775Y-126960349D01*
X124600769Y-126960346D01*
X124600768Y-126960345D01*
X124600767Y-126960344D01*
X124357643Y-126843263D01*
X124357645Y-126843263D01*
X124099773Y-126763720D01*
X124099767Y-126763718D01*
X123832936Y-126723500D01*
X123832929Y-126723500D01*
X123563071Y-126723500D01*
X123563063Y-126723500D01*
X123296232Y-126763718D01*
X123296226Y-126763720D01*
X123038355Y-126843263D01*
X122832074Y-126942603D01*
X122763133Y-126953955D01*
X122698999Y-126926233D01*
X122690592Y-126918564D01*
X121678819Y-125906791D01*
X121645334Y-125845468D01*
X121642500Y-125819110D01*
X121642500Y-121283486D01*
X121642500Y-116731040D01*
X121642499Y-116731029D01*
X121642499Y-116729718D01*
X121642495Y-116729501D01*
X121642495Y-116707278D01*
X121642496Y-116680782D01*
X121617342Y-116457503D01*
X121617339Y-116457493D01*
X121617339Y-116457486D01*
X121567348Y-116238453D01*
X121567346Y-116238444D01*
X121493138Y-116026361D01*
X121395651Y-115823920D01*
X121276110Y-115633666D01*
X121136019Y-115457994D01*
X121118333Y-115440307D01*
X121100558Y-115422530D01*
X121100540Y-115422511D01*
X120971447Y-115293418D01*
X120971432Y-115293404D01*
X119777013Y-114098985D01*
X119777012Y-114098984D01*
X119776990Y-114098962D01*
X119776474Y-114098486D01*
X119741552Y-114063558D01*
X119737805Y-114060569D01*
X119565890Y-113923444D01*
X119375644Y-113803880D01*
X119173207Y-113706369D01*
X119173206Y-113706368D01*
X119173196Y-113706364D01*
X118961138Y-113632143D01*
X118961129Y-113632140D01*
X118795663Y-113594360D01*
X118742064Y-113582122D01*
X118742062Y-113582121D01*
X118742059Y-113582121D01*
X118742045Y-113582119D01*
X118518783Y-113556948D01*
X118518778Y-113556947D01*
X118468586Y-113556944D01*
X118468481Y-113556940D01*
X118468400Y-113556940D01*
X118406432Y-113556940D01*
X118288340Y-113556932D01*
X118288339Y-113556932D01*
X118286022Y-113556932D01*
X118285820Y-113556940D01*
X113572626Y-113556940D01*
X113505587Y-113537255D01*
X113479612Y-113514943D01*
X113329688Y-113344886D01*
X112261517Y-112276716D01*
X112261447Y-112276646D01*
X112261440Y-112276640D01*
X112195443Y-112210640D01*
X111974241Y-112029100D01*
X111929576Y-111992443D01*
X111929573Y-111992440D01*
X111643602Y-111801355D01*
X111643588Y-111801347D01*
X111340258Y-111639211D01*
X111022493Y-111507588D01*
X110693349Y-111407744D01*
X110465362Y-111362396D01*
X110356016Y-111340647D01*
X110356012Y-111340646D01*
X110356004Y-111340645D01*
X110124960Y-111317891D01*
X110013725Y-111306937D01*
X110013721Y-111306937D01*
X109841751Y-111306940D01*
X109132580Y-111306940D01*
X109065541Y-111287255D01*
X109019786Y-111234451D01*
X109008580Y-111183213D01*
X109006397Y-110182210D01*
X109025937Y-110115128D01*
X109078641Y-110069258D01*
X109130398Y-110057940D01*
X111584589Y-110057940D01*
X111820004Y-110043129D01*
X111820007Y-110043128D01*
X111820015Y-110043128D01*
X112129079Y-109984171D01*
X112428315Y-109886943D01*
X112713007Y-109752977D01*
X112978663Y-109584387D01*
X113221094Y-109383830D01*
X113436478Y-109154470D01*
X113469473Y-109109055D01*
X113524803Y-109066389D01*
X113569792Y-109057940D01*
X122378550Y-109057940D01*
X122445589Y-109077625D01*
X122466231Y-109094259D01*
X124447181Y-111075209D01*
X124480666Y-111136532D01*
X124483500Y-111162890D01*
X124483500Y-116186956D01*
X124483504Y-116187062D01*
X124483503Y-116237213D01*
X124490082Y-116295612D01*
X124508047Y-116455078D01*
X124508659Y-116460505D01*
X124508660Y-116460514D01*
X124558651Y-116679547D01*
X124558656Y-116679562D01*
X124632861Y-116891638D01*
X124632862Y-116891640D01*
X124632863Y-116891642D01*
X124730351Y-117094084D01*
X124778811Y-117171209D01*
X124849889Y-117284331D01*
X124849902Y-117284349D01*
X124989978Y-117460004D01*
X124989984Y-117460009D01*
X124989984Y-117460010D01*
X125025484Y-117495511D01*
X125025499Y-117495527D01*
X125025544Y-117495572D01*
X125025545Y-117495573D01*
X125062010Y-117532038D01*
X125065719Y-117535747D01*
X125069426Y-117539455D01*
X125154816Y-117624845D01*
X125154826Y-117624854D01*
X127349574Y-119819601D01*
X129527180Y-121997208D01*
X129560665Y-122058531D01*
X129563499Y-122084889D01*
X129563499Y-134963110D01*
X129543814Y-135030149D01*
X129527184Y-135050786D01*
X129385026Y-135192945D01*
X129323706Y-135226429D01*
X129297347Y-135229263D01*
X129137023Y-135229263D01*
X129069984Y-135209578D01*
X129062713Y-135204530D01*
X128846317Y-135042538D01*
X128846309Y-135042533D01*
X128595166Y-134905398D01*
X128595167Y-134905398D01*
X128487915Y-134865395D01*
X128327046Y-134805394D01*
X128327043Y-134805393D01*
X128327037Y-134805391D01*
X128047433Y-134744567D01*
X127762001Y-134724153D01*
X127761999Y-134724153D01*
X127476566Y-134744567D01*
X127196962Y-134805391D01*
X126928833Y-134905398D01*
X126677690Y-135042533D01*
X126677682Y-135042538D01*
X126448612Y-135214017D01*
X126448594Y-135214033D01*
X126246270Y-135416357D01*
X126246254Y-135416375D01*
X126074775Y-135645445D01*
X126074770Y-135645453D01*
X125937635Y-135896596D01*
X125837628Y-136164725D01*
X125776804Y-136444329D01*
X125756390Y-136729761D01*
X125756390Y-136729763D01*
X125776804Y-137015196D01*
X125837628Y-137294800D01*
X125837630Y-137294806D01*
X125837631Y-137294809D01*
X125865720Y-137370118D01*
X125937635Y-137562929D01*
X126074770Y-137814072D01*
X126074775Y-137814080D01*
X126246254Y-138043150D01*
X126246270Y-138043168D01*
X126448594Y-138245492D01*
X126448612Y-138245508D01*
X126677682Y-138416987D01*
X126677690Y-138416992D01*
X126928833Y-138554127D01*
X126928832Y-138554127D01*
X126928836Y-138554128D01*
X126928839Y-138554130D01*
X127196954Y-138654132D01*
X127196960Y-138654133D01*
X127196962Y-138654134D01*
X127476566Y-138714958D01*
X127476568Y-138714958D01*
X127476572Y-138714959D01*
X127730220Y-138733100D01*
X127761999Y-138735373D01*
X127762000Y-138735373D01*
X127762001Y-138735373D01*
X127790595Y-138733327D01*
X128047428Y-138714959D01*
X128327046Y-138654132D01*
X128595161Y-138554130D01*
X128846315Y-138416989D01*
X129017168Y-138289090D01*
X129062713Y-138254996D01*
X129128177Y-138230579D01*
X129137023Y-138230263D01*
X129642585Y-138230263D01*
X129642758Y-138230269D01*
X129645120Y-138230268D01*
X129645128Y-138230270D01*
X129711824Y-138230266D01*
X129711933Y-138230297D01*
X129763220Y-138230294D01*
X129763220Y-138230295D01*
X129875570Y-138230288D01*
X129999964Y-138216264D01*
X130098844Y-138205117D01*
X130098862Y-138205114D01*
X130317912Y-138155101D01*
X130317915Y-138155099D01*
X130317919Y-138155099D01*
X130530004Y-138080870D01*
X130732445Y-137983360D01*
X130922694Y-137863796D01*
X131098359Y-137723682D01*
X131177796Y-137644232D01*
X131177796Y-137644231D01*
X131182551Y-137639475D01*
X131888001Y-136934025D01*
X131888015Y-136934014D01*
X131942254Y-136879775D01*
X131942267Y-136879767D01*
X131978578Y-136843454D01*
X131978579Y-136843455D01*
X132058019Y-136764013D01*
X132085332Y-136729763D01*
X144478359Y-136729763D01*
X144491747Y-136934031D01*
X144497225Y-137017600D01*
X144497227Y-137017612D01*
X144553498Y-137300508D01*
X144553502Y-137300523D01*
X144646223Y-137573668D01*
X144773800Y-137832369D01*
X144773804Y-137832376D01*
X144934059Y-138072215D01*
X145124253Y-138289090D01*
X145341128Y-138479284D01*
X145453139Y-138554127D01*
X145580970Y-138639541D01*
X145839679Y-138767122D01*
X146112828Y-138859844D01*
X146395742Y-138916119D01*
X146683581Y-138934985D01*
X146971420Y-138916119D01*
X147254334Y-138859844D01*
X147527483Y-138767122D01*
X147786192Y-138639541D01*
X148026035Y-138479283D01*
X148242908Y-138289090D01*
X148433101Y-138072217D01*
X148593359Y-137832374D01*
X148720940Y-137573665D01*
X148813662Y-137300516D01*
X148869937Y-137017602D01*
X148888803Y-136729763D01*
X159478359Y-136729763D01*
X159491747Y-136934031D01*
X159497225Y-137017600D01*
X159497227Y-137017612D01*
X159553498Y-137300508D01*
X159553502Y-137300523D01*
X159646223Y-137573668D01*
X159773800Y-137832369D01*
X159773804Y-137832376D01*
X159934059Y-138072215D01*
X160124253Y-138289090D01*
X160341128Y-138479284D01*
X160453139Y-138554127D01*
X160580970Y-138639541D01*
X160839679Y-138767122D01*
X161112828Y-138859844D01*
X161395742Y-138916119D01*
X161683581Y-138934985D01*
X161971420Y-138916119D01*
X162254334Y-138859844D01*
X162527483Y-138767122D01*
X162786192Y-138639541D01*
X163026035Y-138479283D01*
X163242908Y-138289090D01*
X163433101Y-138072217D01*
X163593359Y-137832374D01*
X163720940Y-137573665D01*
X163813662Y-137300516D01*
X163869937Y-137017602D01*
X163888803Y-136729763D01*
X163869937Y-136441924D01*
X163813662Y-136159010D01*
X163720940Y-135885861D01*
X163593359Y-135627152D01*
X163484853Y-135464761D01*
X163433102Y-135387310D01*
X163242908Y-135170435D01*
X163026033Y-134980241D01*
X162786194Y-134819986D01*
X162786187Y-134819982D01*
X162527486Y-134692405D01*
X162254341Y-134599684D01*
X162254335Y-134599682D01*
X162254334Y-134599682D01*
X162254332Y-134599681D01*
X162254326Y-134599680D01*
X161971430Y-134543409D01*
X161971420Y-134543407D01*
X161683581Y-134524541D01*
X161395742Y-134543407D01*
X161395736Y-134543408D01*
X161395731Y-134543409D01*
X161112835Y-134599680D01*
X161112820Y-134599684D01*
X160839675Y-134692405D01*
X160580974Y-134819982D01*
X160580967Y-134819986D01*
X160341128Y-134980241D01*
X160124253Y-135170435D01*
X159934059Y-135387310D01*
X159773804Y-135627149D01*
X159773800Y-135627156D01*
X159646223Y-135885857D01*
X159553502Y-136159002D01*
X159553498Y-136159017D01*
X159534151Y-136256282D01*
X159497225Y-136441924D01*
X159478359Y-136729763D01*
X148888803Y-136729763D01*
X148869937Y-136441924D01*
X148813662Y-136159010D01*
X148720940Y-135885861D01*
X148593359Y-135627152D01*
X148484853Y-135464761D01*
X148433102Y-135387310D01*
X148242910Y-135170438D01*
X148226319Y-135155887D01*
X148188897Y-135096884D01*
X148184081Y-135062661D01*
X148184081Y-131616889D01*
X148203766Y-131549850D01*
X148220400Y-131529208D01*
X148710823Y-131038785D01*
X148939604Y-130810004D01*
X169644451Y-130810004D01*
X169664616Y-131079101D01*
X169724664Y-131342188D01*
X169724666Y-131342195D01*
X169823256Y-131593396D01*
X169823258Y-131593400D01*
X169932887Y-131783284D01*
X169949500Y-131845284D01*
X169949500Y-133204956D01*
X169949504Y-133205062D01*
X169949504Y-133255218D01*
X169962382Y-133369528D01*
X169974659Y-133478504D01*
X169974660Y-133478513D01*
X170024651Y-133697546D01*
X170024656Y-133697561D01*
X170098859Y-133909633D01*
X170098862Y-133909639D01*
X170196349Y-134112080D01*
X170315890Y-134302334D01*
X170455981Y-134478006D01*
X170472753Y-134494779D01*
X170490501Y-134512529D01*
X170535113Y-134557141D01*
X170535479Y-134557508D01*
X170620822Y-134642851D01*
X170620832Y-134642860D01*
X172401190Y-136423218D01*
X172401220Y-136423243D01*
X172401633Y-136423623D01*
X172436662Y-136458659D01*
X172612320Y-136598767D01*
X172685741Y-136644908D01*
X172802568Y-136718330D01*
X173005005Y-136815839D01*
X173217084Y-136890067D01*
X173217086Y-136890067D01*
X173217088Y-136890068D01*
X173300787Y-136909178D01*
X173436141Y-136940082D01*
X173436159Y-136940085D01*
X173565773Y-136954697D01*
X173659431Y-136965256D01*
X173708693Y-136965258D01*
X173708852Y-136965263D01*
X173771780Y-136965263D01*
X173889872Y-136965270D01*
X173889879Y-136965268D01*
X173892240Y-136965269D01*
X173892415Y-136965263D01*
X175006000Y-136965263D01*
X175073039Y-136984948D01*
X175118794Y-137037752D01*
X175130000Y-137089263D01*
X175130000Y-137754763D01*
X176154722Y-137754763D01*
X176106375Y-137838503D01*
X176076190Y-137970755D01*
X176086327Y-138106028D01*
X176135887Y-138232304D01*
X176153797Y-138254763D01*
X175130000Y-138254763D01*
X175130000Y-138952607D01*
X175136401Y-139012135D01*
X175136403Y-139012142D01*
X175186645Y-139146849D01*
X175186649Y-139146856D01*
X175272809Y-139261950D01*
X175272812Y-139261953D01*
X175387906Y-139348113D01*
X175387913Y-139348117D01*
X175522620Y-139398359D01*
X175522627Y-139398361D01*
X175582155Y-139404762D01*
X175582172Y-139404763D01*
X176280000Y-139404763D01*
X176279999Y-138378952D01*
X176332547Y-138414779D01*
X176462173Y-138454763D01*
X176563724Y-138454763D01*
X176664138Y-138439628D01*
X176780000Y-138383831D01*
X176780000Y-139404763D01*
X177477828Y-139404763D01*
X177477844Y-139404762D01*
X177537372Y-139398361D01*
X177537379Y-139398359D01*
X177672086Y-139348117D01*
X177672093Y-139348113D01*
X177787187Y-139261953D01*
X177787190Y-139261950D01*
X177873350Y-139146856D01*
X177873354Y-139146849D01*
X177923596Y-139012142D01*
X177923598Y-139012135D01*
X177929999Y-138952607D01*
X177930000Y-138952590D01*
X177930000Y-138254763D01*
X176905278Y-138254763D01*
X176953625Y-138171023D01*
X176983810Y-138038771D01*
X176973673Y-137903498D01*
X176924113Y-137777222D01*
X176906203Y-137754763D01*
X177930000Y-137754763D01*
X177930000Y-137056935D01*
X177929999Y-137056918D01*
X177923598Y-136997390D01*
X177923596Y-136997383D01*
X177886654Y-136898334D01*
X177881670Y-136828642D01*
X177915152Y-136767323D01*
X177969971Y-136712505D01*
X178132887Y-136494876D01*
X178263172Y-136256276D01*
X178358175Y-136001564D01*
X178415961Y-135735923D01*
X178435355Y-135464763D01*
X178415961Y-135193603D01*
X178358175Y-134927962D01*
X178263172Y-134673250D01*
X178263170Y-134673247D01*
X178263169Y-134673243D01*
X178132890Y-134434655D01*
X178132889Y-134434654D01*
X178132887Y-134434650D01*
X177969971Y-134217021D01*
X177969966Y-134217016D01*
X177969961Y-134217010D01*
X177777752Y-134024801D01*
X177777746Y-134024796D01*
X177777742Y-134024792D01*
X177560113Y-133861876D01*
X177560108Y-133861873D01*
X177560107Y-133861872D01*
X177321518Y-133731593D01*
X177321519Y-133731593D01*
X177230275Y-133697561D01*
X177066801Y-133636588D01*
X177066794Y-133636586D01*
X177066793Y-133636586D01*
X176801167Y-133578803D01*
X176801160Y-133578802D01*
X176530001Y-133559408D01*
X176529999Y-133559408D01*
X176258839Y-133578802D01*
X176258832Y-133578803D01*
X175993206Y-133636586D01*
X175993202Y-133636587D01*
X175993199Y-133636588D01*
X175865843Y-133684089D01*
X175738480Y-133731593D01*
X175499892Y-133861872D01*
X175499884Y-133861877D01*
X175396153Y-133939530D01*
X175330689Y-133963947D01*
X175321843Y-133964263D01*
X174237653Y-133964263D01*
X174170614Y-133944578D01*
X174149972Y-133927944D01*
X172986819Y-132764790D01*
X172953334Y-132703467D01*
X172950500Y-132677109D01*
X172950500Y-131845284D01*
X172967113Y-131783284D01*
X172989691Y-131744177D01*
X173076743Y-131593398D01*
X173175334Y-131342195D01*
X173235383Y-131079103D01*
X173255136Y-130815511D01*
X173255549Y-130810004D01*
X179804451Y-130810004D01*
X179824616Y-131079101D01*
X179884664Y-131342188D01*
X179884666Y-131342195D01*
X179979776Y-131584530D01*
X179983257Y-131593398D01*
X180118185Y-131827102D01*
X180193308Y-131921303D01*
X180286442Y-132038089D01*
X180473183Y-132211358D01*
X180484259Y-132221635D01*
X180707226Y-132373651D01*
X180950359Y-132490738D01*
X181208228Y-132570280D01*
X181208229Y-132570280D01*
X181208232Y-132570281D01*
X181475063Y-132610499D01*
X181475068Y-132610499D01*
X181475071Y-132610500D01*
X181475072Y-132610500D01*
X181744928Y-132610500D01*
X181744929Y-132610500D01*
X181744936Y-132610499D01*
X182011767Y-132570281D01*
X182011768Y-132570280D01*
X182011772Y-132570280D01*
X182269641Y-132490738D01*
X182512775Y-132373651D01*
X182735741Y-132221635D01*
X182933561Y-132038085D01*
X183101815Y-131827102D01*
X183236743Y-131593398D01*
X183335334Y-131342195D01*
X183395383Y-131079103D01*
X183415136Y-130815511D01*
X183415549Y-130810004D01*
X183415549Y-130809995D01*
X183395383Y-130540898D01*
X183359658Y-130384377D01*
X183335334Y-130277805D01*
X183236743Y-130026602D01*
X183101815Y-129792898D01*
X182933561Y-129581915D01*
X182933560Y-129581914D01*
X182933557Y-129581910D01*
X182735741Y-129398365D01*
X182672243Y-129355073D01*
X182512775Y-129246349D01*
X182512769Y-129246346D01*
X182512768Y-129246345D01*
X182512767Y-129246344D01*
X182269643Y-129129263D01*
X182269645Y-129129263D01*
X182011773Y-129049720D01*
X182011767Y-129049718D01*
X181744936Y-129009500D01*
X181744929Y-129009500D01*
X181475071Y-129009500D01*
X181475063Y-129009500D01*
X181208232Y-129049718D01*
X181208226Y-129049720D01*
X180950358Y-129129262D01*
X180707230Y-129246346D01*
X180484258Y-129398365D01*
X180286442Y-129581910D01*
X180118185Y-129792898D01*
X179983258Y-130026599D01*
X179983256Y-130026603D01*
X179884666Y-130277804D01*
X179884664Y-130277811D01*
X179824616Y-130540898D01*
X179804451Y-130809995D01*
X179804451Y-130810004D01*
X173255549Y-130810004D01*
X173255549Y-130809995D01*
X173235383Y-130540898D01*
X173199658Y-130384377D01*
X173175334Y-130277805D01*
X173076743Y-130026602D01*
X172941815Y-129792898D01*
X172773561Y-129581915D01*
X172773560Y-129581914D01*
X172773557Y-129581910D01*
X172575741Y-129398365D01*
X172512243Y-129355073D01*
X172352775Y-129246349D01*
X172352769Y-129246346D01*
X172352768Y-129246345D01*
X172352767Y-129246344D01*
X172109643Y-129129263D01*
X172109645Y-129129263D01*
X171851773Y-129049720D01*
X171851767Y-129049718D01*
X171584936Y-129009500D01*
X171584929Y-129009500D01*
X171315071Y-129009500D01*
X171315063Y-129009500D01*
X171048232Y-129049718D01*
X171048226Y-129049720D01*
X170790358Y-129129262D01*
X170547230Y-129246346D01*
X170324258Y-129398365D01*
X170126442Y-129581910D01*
X169958185Y-129792898D01*
X169823258Y-130026599D01*
X169823256Y-130026603D01*
X169724666Y-130277804D01*
X169724664Y-130277811D01*
X169664616Y-130540898D01*
X169644451Y-130809995D01*
X169644451Y-130810004D01*
X148939604Y-130810004D01*
X149429373Y-130320234D01*
X149490694Y-130286751D01*
X149498569Y-130285302D01*
X149505353Y-130284280D01*
X149763222Y-130204738D01*
X150006356Y-130087651D01*
X150229322Y-129935635D01*
X150427142Y-129752085D01*
X150595396Y-129541102D01*
X150730324Y-129307398D01*
X150828915Y-129056195D01*
X150888964Y-128793103D01*
X150909130Y-128524000D01*
X150890395Y-128273999D01*
X157984708Y-128273999D01*
X157984709Y-128274000D01*
X158947895Y-128274000D01*
X158935940Y-128285955D01*
X158878416Y-128398852D01*
X158858595Y-128524000D01*
X158878416Y-128649148D01*
X158935940Y-128762045D01*
X158947895Y-128774000D01*
X157984709Y-128774000D01*
X158037311Y-128970317D01*
X158037315Y-128970326D01*
X158133446Y-129176482D01*
X158263923Y-129362820D01*
X158424760Y-129523657D01*
X158611098Y-129654134D01*
X158817254Y-129750265D01*
X158817263Y-129750269D01*
X159013580Y-129802872D01*
X159013581Y-129802871D01*
X159013581Y-128839685D01*
X159025536Y-128851641D01*
X159138433Y-128909165D01*
X159232100Y-128924000D01*
X159295062Y-128924000D01*
X159388729Y-128909165D01*
X159501626Y-128851641D01*
X159513581Y-128839686D01*
X159513581Y-129802872D01*
X159709898Y-129750269D01*
X159709907Y-129750265D01*
X159916063Y-129654134D01*
X160102401Y-129523657D01*
X160263238Y-129362820D01*
X160393715Y-129176482D01*
X160489846Y-128970326D01*
X160489850Y-128970317D01*
X160542453Y-128774000D01*
X159579267Y-128774000D01*
X159591222Y-128762045D01*
X159648746Y-128649148D01*
X159668567Y-128524000D01*
X159648746Y-128398852D01*
X159591222Y-128285955D01*
X159579267Y-128274000D01*
X160542453Y-128274000D01*
X160542453Y-128273999D01*
X160489850Y-128077682D01*
X160489846Y-128077673D01*
X160393715Y-127871517D01*
X160263238Y-127685179D01*
X160102401Y-127524342D01*
X159916063Y-127393865D01*
X159709909Y-127297734D01*
X159513581Y-127245127D01*
X159513581Y-128208314D01*
X159501626Y-128196359D01*
X159388729Y-128138835D01*
X159295062Y-128124000D01*
X159232100Y-128124000D01*
X159138433Y-128138835D01*
X159025536Y-128196359D01*
X159013581Y-128208314D01*
X159013581Y-127245127D01*
X158817252Y-127297734D01*
X158611098Y-127393865D01*
X158424760Y-127524342D01*
X158263923Y-127685179D01*
X158133446Y-127871517D01*
X158037315Y-128077673D01*
X158037311Y-128077682D01*
X157984708Y-128273999D01*
X150890395Y-128273999D01*
X150888964Y-128254897D01*
X150828915Y-127991805D01*
X150730324Y-127740602D01*
X150595396Y-127506898D01*
X150427142Y-127295915D01*
X150427141Y-127295914D01*
X150427138Y-127295910D01*
X150229322Y-127112365D01*
X150229321Y-127112365D01*
X150006356Y-126960349D01*
X150006350Y-126960346D01*
X150006349Y-126960345D01*
X150006348Y-126960344D01*
X149763224Y-126843263D01*
X149763226Y-126843263D01*
X149505354Y-126763720D01*
X149505348Y-126763718D01*
X149238517Y-126723500D01*
X149238510Y-126723500D01*
X148968652Y-126723500D01*
X148968644Y-126723500D01*
X148701813Y-126763718D01*
X148701807Y-126763720D01*
X148443939Y-126843262D01*
X148200811Y-126960346D01*
X147977839Y-127112365D01*
X147780023Y-127295910D01*
X147611766Y-127506898D01*
X147476839Y-127740599D01*
X147476837Y-127740603D01*
X147378247Y-127991804D01*
X147378245Y-127991811D01*
X147346122Y-128132551D01*
X147312912Y-128192639D01*
X145854233Y-129651319D01*
X145854124Y-129651421D01*
X145805296Y-129700252D01*
X145805265Y-129700268D01*
X145689531Y-129816013D01*
X145549450Y-129991680D01*
X145549447Y-129991685D01*
X145429912Y-130181936D01*
X145429910Y-130181941D01*
X145332428Y-130384377D01*
X145258223Y-130596462D01*
X145208232Y-130815508D01*
X145183079Y-131038788D01*
X145183081Y-131137997D01*
X145183081Y-135062661D01*
X145163396Y-135129700D01*
X145140843Y-135155887D01*
X145124251Y-135170438D01*
X144934059Y-135387310D01*
X144773804Y-135627149D01*
X144773800Y-135627156D01*
X144646223Y-135885857D01*
X144553502Y-136159002D01*
X144553498Y-136159017D01*
X144534151Y-136256282D01*
X144497225Y-136441924D01*
X144478359Y-136729763D01*
X132085332Y-136729763D01*
X132198111Y-136588340D01*
X132317653Y-136398086D01*
X132415142Y-136195644D01*
X132489351Y-135983559D01*
X132511649Y-135885861D01*
X132539344Y-135764515D01*
X132539345Y-135764506D01*
X132539347Y-135764499D01*
X132564501Y-135541218D01*
X132564500Y-135428872D01*
X132564500Y-135380537D01*
X132564500Y-123190004D01*
X194207373Y-123190004D01*
X194226972Y-123451545D01*
X194226973Y-123451550D01*
X194285338Y-123707270D01*
X194381163Y-123951426D01*
X194381162Y-123951426D01*
X194512310Y-124178577D01*
X194560153Y-124238571D01*
X194560154Y-124238571D01*
X195462280Y-123336445D01*
X195462280Y-123475763D01*
X195477600Y-123582315D01*
X195537328Y-123713100D01*
X195631482Y-123821761D01*
X195663496Y-123842335D01*
X194913111Y-124592720D01*
X195084826Y-124709793D01*
X195084830Y-124709795D01*
X195321134Y-124823594D01*
X195321138Y-124823595D01*
X195571774Y-124900907D01*
X195571780Y-124900909D01*
X195831128Y-124939999D01*
X195831137Y-124940000D01*
X196093423Y-124940000D01*
X196093431Y-124939999D01*
X196352779Y-124900909D01*
X196352785Y-124900907D01*
X196603423Y-124823595D01*
X196839725Y-124709798D01*
X196839736Y-124709791D01*
X197011447Y-124592720D01*
X196261063Y-123842335D01*
X196293078Y-123821761D01*
X196387232Y-123713100D01*
X196446960Y-123582315D01*
X196462280Y-123475763D01*
X196462280Y-123336446D01*
X197364404Y-124238571D01*
X197412254Y-124178570D01*
X197543396Y-123951426D01*
X197639221Y-123707270D01*
X197697586Y-123451550D01*
X197697587Y-123451545D01*
X197717187Y-123190004D01*
X197717187Y-123189995D01*
X197697587Y-122928454D01*
X197697586Y-122928449D01*
X197639221Y-122672729D01*
X197543396Y-122428573D01*
X197543397Y-122428573D01*
X197412251Y-122201426D01*
X197364405Y-122141427D01*
X196462280Y-123043551D01*
X196462280Y-122904237D01*
X196446960Y-122797685D01*
X196387232Y-122666900D01*
X196293078Y-122558239D01*
X196261062Y-122537663D01*
X197011447Y-121787278D01*
X196839727Y-121670202D01*
X196839725Y-121670201D01*
X196603422Y-121556404D01*
X196603424Y-121556404D01*
X196352785Y-121479092D01*
X196352779Y-121479090D01*
X196093431Y-121440000D01*
X195831128Y-121440000D01*
X195571780Y-121479090D01*
X195571774Y-121479092D01*
X195321138Y-121556404D01*
X195321134Y-121556405D01*
X195084830Y-121670204D01*
X195084826Y-121670206D01*
X194913112Y-121787278D01*
X195663497Y-122537663D01*
X195631482Y-122558239D01*
X195537328Y-122666900D01*
X195477600Y-122797685D01*
X195462280Y-122904237D01*
X195462280Y-123043554D01*
X194560153Y-122141427D01*
X194512309Y-122201423D01*
X194381163Y-122428573D01*
X194285338Y-122672729D01*
X194226973Y-122928449D01*
X194226972Y-122928454D01*
X194207373Y-123189995D01*
X194207373Y-123190004D01*
X132564500Y-123190004D01*
X132564500Y-121557040D01*
X132564500Y-121555718D01*
X132564495Y-121555501D01*
X132564496Y-121506782D01*
X132539342Y-121283503D01*
X132539339Y-121283493D01*
X132539339Y-121283486D01*
X132489348Y-121064453D01*
X132489346Y-121064444D01*
X132415138Y-120852361D01*
X132317651Y-120649920D01*
X132198110Y-120459666D01*
X132058019Y-120283994D01*
X132024017Y-120249991D01*
X132023990Y-120249962D01*
X132004965Y-120230938D01*
X132004964Y-120230937D01*
X131978580Y-120204552D01*
X131935643Y-120161615D01*
X131893513Y-120119483D01*
X131893470Y-120119443D01*
X127520819Y-115746791D01*
X127487334Y-115685468D01*
X127484500Y-115659110D01*
X127484500Y-115626946D01*
X133008358Y-115626946D01*
X133028108Y-115940883D01*
X133028109Y-115940890D01*
X133087056Y-116249899D01*
X133184264Y-116549073D01*
X133184266Y-116549078D01*
X133318201Y-116833702D01*
X133318204Y-116833708D01*
X133486758Y-117099308D01*
X133486761Y-117099312D01*
X133577587Y-117209101D01*
X134651650Y-116135038D01*
X134718447Y-116242204D01*
X134858569Y-116389612D01*
X135003386Y-116490407D01*
X133928272Y-117565520D01*
X133928273Y-117565522D01*
X134171073Y-117741926D01*
X134171091Y-117741937D01*
X134446748Y-117893481D01*
X134446756Y-117893485D01*
X134739227Y-118009281D01*
X135043921Y-118087514D01*
X135043930Y-118087516D01*
X135356002Y-118126940D01*
X135356016Y-118126941D01*
X135670586Y-118126941D01*
X135670599Y-118126940D01*
X135804661Y-118110004D01*
X194207373Y-118110004D01*
X194226972Y-118371545D01*
X194226973Y-118371550D01*
X194285338Y-118627270D01*
X194381163Y-118871426D01*
X194381162Y-118871426D01*
X194512310Y-119098577D01*
X194560153Y-119158571D01*
X194560154Y-119158571D01*
X195462280Y-118256445D01*
X195462280Y-118395763D01*
X195477600Y-118502315D01*
X195537328Y-118633100D01*
X195631482Y-118741761D01*
X195663496Y-118762335D01*
X194913111Y-119512720D01*
X195084826Y-119629793D01*
X195084830Y-119629795D01*
X195321134Y-119743594D01*
X195321138Y-119743595D01*
X195571774Y-119820907D01*
X195571780Y-119820909D01*
X195831128Y-119859999D01*
X195831137Y-119860000D01*
X196093423Y-119860000D01*
X196093431Y-119859999D01*
X196352779Y-119820909D01*
X196352785Y-119820907D01*
X196603423Y-119743595D01*
X196839725Y-119629798D01*
X196839736Y-119629791D01*
X197011447Y-119512720D01*
X196261063Y-118762335D01*
X196293078Y-118741761D01*
X196387232Y-118633100D01*
X196446960Y-118502315D01*
X196462280Y-118395763D01*
X196462280Y-118256447D01*
X197364404Y-119158571D01*
X197412254Y-119098570D01*
X197543396Y-118871426D01*
X197639221Y-118627270D01*
X197697586Y-118371550D01*
X197697587Y-118371545D01*
X197717187Y-118110004D01*
X197717187Y-118109995D01*
X197697587Y-117848454D01*
X197697586Y-117848449D01*
X197639221Y-117592729D01*
X197543396Y-117348573D01*
X197543397Y-117348573D01*
X197412251Y-117121426D01*
X197364405Y-117061427D01*
X196462280Y-117963552D01*
X196462280Y-117824237D01*
X196446960Y-117717685D01*
X196387232Y-117586900D01*
X196293078Y-117478239D01*
X196261062Y-117457663D01*
X197011447Y-116707278D01*
X196839727Y-116590202D01*
X196839725Y-116590201D01*
X196603422Y-116476404D01*
X196603424Y-116476404D01*
X196352785Y-116399092D01*
X196352779Y-116399090D01*
X196093431Y-116360000D01*
X195831128Y-116360000D01*
X195571780Y-116399090D01*
X195571774Y-116399092D01*
X195321138Y-116476404D01*
X195321134Y-116476405D01*
X195084830Y-116590204D01*
X195084826Y-116590206D01*
X194913112Y-116707278D01*
X195663497Y-117457663D01*
X195631482Y-117478239D01*
X195537328Y-117586900D01*
X195477600Y-117717685D01*
X195462280Y-117824237D01*
X195462280Y-117963554D01*
X194560153Y-117061427D01*
X194512309Y-117121423D01*
X194381163Y-117348573D01*
X194285338Y-117592729D01*
X194226973Y-117848449D01*
X194226972Y-117848454D01*
X194207373Y-118109995D01*
X194207373Y-118110004D01*
X135804661Y-118110004D01*
X135982671Y-118087516D01*
X135982680Y-118087514D01*
X136287374Y-118009281D01*
X136579845Y-117893485D01*
X136579853Y-117893481D01*
X136855510Y-117741937D01*
X136855520Y-117741931D01*
X137098327Y-117565520D01*
X137098328Y-117565520D01*
X136021426Y-116488619D01*
X136087515Y-116451937D01*
X136241832Y-116319461D01*
X136366322Y-116158633D01*
X136376926Y-116137013D01*
X137449013Y-117209101D01*
X137539845Y-117099305D01*
X137708397Y-116833708D01*
X137708400Y-116833702D01*
X137842335Y-116549078D01*
X137842337Y-116549073D01*
X137939545Y-116249899D01*
X137998492Y-115940890D01*
X137998493Y-115940883D01*
X138018244Y-115626946D01*
X138018244Y-115626935D01*
X138012331Y-115532946D01*
X170092358Y-115532946D01*
X170112108Y-115846883D01*
X170112109Y-115846890D01*
X170171056Y-116155899D01*
X170268264Y-116455073D01*
X170268266Y-116455078D01*
X170402201Y-116739702D01*
X170402204Y-116739708D01*
X170570758Y-117005308D01*
X170570761Y-117005312D01*
X170661587Y-117115101D01*
X171735650Y-116041038D01*
X171802447Y-116148204D01*
X171942569Y-116295612D01*
X172087386Y-116396407D01*
X171012272Y-117471520D01*
X171012273Y-117471522D01*
X171255073Y-117647926D01*
X171255091Y-117647937D01*
X171530748Y-117799481D01*
X171530756Y-117799485D01*
X171823227Y-117915281D01*
X172127921Y-117993514D01*
X172127930Y-117993516D01*
X172440002Y-118032940D01*
X172440016Y-118032941D01*
X172754586Y-118032941D01*
X172754599Y-118032940D01*
X173066671Y-117993516D01*
X173066680Y-117993514D01*
X173371374Y-117915281D01*
X173663845Y-117799485D01*
X173663853Y-117799481D01*
X173939510Y-117647937D01*
X173939520Y-117647931D01*
X174182327Y-117471520D01*
X174182328Y-117471520D01*
X173105426Y-116394619D01*
X173171515Y-116357937D01*
X173325832Y-116225461D01*
X173450322Y-116064633D01*
X173460926Y-116043014D01*
X174533013Y-117115101D01*
X174623845Y-117005305D01*
X174792397Y-116739708D01*
X174792400Y-116739702D01*
X174926335Y-116455078D01*
X174926337Y-116455073D01*
X175023545Y-116155899D01*
X175082492Y-115846890D01*
X175082493Y-115846883D01*
X175102244Y-115532946D01*
X175102244Y-115532935D01*
X175082493Y-115218998D01*
X175082492Y-115218991D01*
X175023545Y-114909982D01*
X174926337Y-114610808D01*
X174926335Y-114610803D01*
X174792400Y-114326179D01*
X174792397Y-114326173D01*
X174623843Y-114060573D01*
X174623840Y-114060569D01*
X174533013Y-113950779D01*
X173458950Y-115024842D01*
X173392155Y-114917678D01*
X173252033Y-114770270D01*
X173107215Y-114669473D01*
X174182328Y-113594360D01*
X174182327Y-113594358D01*
X173939528Y-113417955D01*
X173939510Y-113417944D01*
X173663853Y-113266400D01*
X173663845Y-113266396D01*
X173371374Y-113150600D01*
X173066680Y-113072367D01*
X173066671Y-113072365D01*
X172754599Y-113032941D01*
X172440002Y-113032941D01*
X172127930Y-113072365D01*
X172127921Y-113072367D01*
X171823227Y-113150600D01*
X171530756Y-113266396D01*
X171530748Y-113266400D01*
X171255088Y-113417945D01*
X171255083Y-113417948D01*
X171012273Y-113594359D01*
X171012272Y-113594360D01*
X172089175Y-114671262D01*
X172023087Y-114707945D01*
X171868770Y-114840421D01*
X171744280Y-115001249D01*
X171733675Y-115022867D01*
X170661587Y-113950779D01*
X170661586Y-113950779D01*
X170570760Y-114060570D01*
X170570758Y-114060573D01*
X170402204Y-114326173D01*
X170402201Y-114326179D01*
X170268266Y-114610803D01*
X170268264Y-114610808D01*
X170171056Y-114909982D01*
X170112109Y-115218991D01*
X170112108Y-115218998D01*
X170092358Y-115532935D01*
X170092358Y-115532946D01*
X138012331Y-115532946D01*
X137998493Y-115312998D01*
X137998492Y-115312991D01*
X137939545Y-115003982D01*
X137842337Y-114704808D01*
X137842335Y-114704803D01*
X137708400Y-114420179D01*
X137708397Y-114420173D01*
X137539843Y-114154573D01*
X137539840Y-114154569D01*
X137449013Y-114044779D01*
X136374950Y-115118842D01*
X136308155Y-115011678D01*
X136168033Y-114864270D01*
X136023215Y-114763473D01*
X137098328Y-113688360D01*
X137098327Y-113688358D01*
X136855528Y-113511955D01*
X136855510Y-113511944D01*
X136579853Y-113360400D01*
X136579845Y-113360396D01*
X136287374Y-113244600D01*
X135982680Y-113166367D01*
X135982671Y-113166365D01*
X135670599Y-113126941D01*
X135356002Y-113126941D01*
X135043930Y-113166365D01*
X135043921Y-113166367D01*
X134739227Y-113244600D01*
X134446756Y-113360396D01*
X134446748Y-113360400D01*
X134171088Y-113511945D01*
X134171083Y-113511948D01*
X133928273Y-113688359D01*
X133928272Y-113688360D01*
X135005175Y-114765262D01*
X134939087Y-114801945D01*
X134784770Y-114934421D01*
X134660280Y-115095249D01*
X134649675Y-115116867D01*
X133577587Y-114044779D01*
X133577586Y-114044779D01*
X133486760Y-114154570D01*
X133486758Y-114154573D01*
X133318204Y-114420173D01*
X133318201Y-114420179D01*
X133184266Y-114704803D01*
X133184264Y-114704808D01*
X133087056Y-115003982D01*
X133028109Y-115312991D01*
X133028108Y-115312998D01*
X133008358Y-115626935D01*
X133008358Y-115626946D01*
X127484500Y-115626946D01*
X127484500Y-111506004D01*
X194207373Y-111506004D01*
X194226972Y-111767545D01*
X194226973Y-111767550D01*
X194285338Y-112023270D01*
X194381163Y-112267426D01*
X194381162Y-112267426D01*
X194512310Y-112494577D01*
X194560153Y-112554571D01*
X194560154Y-112554571D01*
X195462280Y-111652445D01*
X195462280Y-111791763D01*
X195477600Y-111898315D01*
X195537328Y-112029100D01*
X195631482Y-112137761D01*
X195663496Y-112158335D01*
X194913111Y-112908720D01*
X195084826Y-113025793D01*
X195084830Y-113025795D01*
X195321134Y-113139594D01*
X195321138Y-113139595D01*
X195571774Y-113216907D01*
X195571780Y-113216909D01*
X195831128Y-113255999D01*
X195831137Y-113256000D01*
X196093423Y-113256000D01*
X196093431Y-113255999D01*
X196352779Y-113216909D01*
X196352785Y-113216907D01*
X196603423Y-113139595D01*
X196839725Y-113025798D01*
X196839736Y-113025791D01*
X197011447Y-112908720D01*
X196261063Y-112158335D01*
X196293078Y-112137761D01*
X196387232Y-112029100D01*
X196446960Y-111898315D01*
X196462280Y-111791763D01*
X196462280Y-111652447D01*
X197364404Y-112554571D01*
X197412254Y-112494570D01*
X197543396Y-112267426D01*
X197639221Y-112023270D01*
X197697586Y-111767550D01*
X197697587Y-111767545D01*
X197717187Y-111506004D01*
X197717187Y-111505995D01*
X197697587Y-111244454D01*
X197697586Y-111244449D01*
X197639221Y-110988729D01*
X197543396Y-110744573D01*
X197543397Y-110744573D01*
X197412251Y-110517426D01*
X197364405Y-110457427D01*
X196462280Y-111359552D01*
X196462280Y-111220237D01*
X196446960Y-111113685D01*
X196387232Y-110982900D01*
X196293078Y-110874239D01*
X196261062Y-110853663D01*
X197011447Y-110103278D01*
X196839727Y-109986202D01*
X196839725Y-109986201D01*
X196603422Y-109872404D01*
X196603424Y-109872404D01*
X196352785Y-109795092D01*
X196352779Y-109795090D01*
X196093431Y-109756000D01*
X195831128Y-109756000D01*
X195571780Y-109795090D01*
X195571774Y-109795092D01*
X195321138Y-109872404D01*
X195321134Y-109872405D01*
X195084830Y-109986204D01*
X195084826Y-109986206D01*
X194913112Y-110103278D01*
X195663497Y-110853663D01*
X195631482Y-110874239D01*
X195537328Y-110982900D01*
X195477600Y-111113685D01*
X195462280Y-111220237D01*
X195462280Y-111359554D01*
X194560153Y-110457427D01*
X194512309Y-110517423D01*
X194381163Y-110744573D01*
X194285338Y-110988729D01*
X194226973Y-111244449D01*
X194226972Y-111244454D01*
X194207373Y-111505995D01*
X194207373Y-111506004D01*
X127484500Y-111506004D01*
X127484500Y-110633718D01*
X127484495Y-110633501D01*
X127484496Y-110584782D01*
X127459342Y-110361503D01*
X127459339Y-110361493D01*
X127459339Y-110361486D01*
X127409348Y-110142453D01*
X127409346Y-110142444D01*
X127335138Y-109930361D01*
X127237651Y-109727920D01*
X127118110Y-109537666D01*
X126978019Y-109361994D01*
X126960333Y-109344307D01*
X126942558Y-109326530D01*
X126942540Y-109326511D01*
X126813447Y-109197418D01*
X126813432Y-109197404D01*
X124215013Y-106598985D01*
X124215012Y-106598984D01*
X124214990Y-106598962D01*
X124214474Y-106598486D01*
X124179552Y-106563558D01*
X124007099Y-106426004D01*
X124003890Y-106423444D01*
X123813644Y-106303880D01*
X123611207Y-106206369D01*
X123611206Y-106206368D01*
X123611196Y-106206364D01*
X123399138Y-106132143D01*
X123399129Y-106132140D01*
X123399125Y-106132139D01*
X123180064Y-106082122D01*
X123180062Y-106082121D01*
X123180059Y-106082121D01*
X123180045Y-106082119D01*
X122956783Y-106056948D01*
X122956778Y-106056947D01*
X122906586Y-106056944D01*
X122906481Y-106056940D01*
X122906400Y-106056940D01*
X122844432Y-106056940D01*
X122726340Y-106056932D01*
X122726339Y-106056932D01*
X122724022Y-106056932D01*
X122723820Y-106056940D01*
X113569792Y-106056940D01*
X113502753Y-106037255D01*
X113469473Y-106005824D01*
X113436482Y-105960415D01*
X113436476Y-105960408D01*
X113280433Y-105794239D01*
X113221094Y-105731050D01*
X113221092Y-105731048D01*
X113221090Y-105731046D01*
X112978665Y-105530494D01*
X112978661Y-105530491D01*
X112713009Y-105361904D01*
X112713003Y-105361901D01*
X112428321Y-105227939D01*
X112428316Y-105227937D01*
X112129083Y-105130710D01*
X112129080Y-105130709D01*
X112129079Y-105130709D01*
X111974547Y-105101230D01*
X111820011Y-105071751D01*
X111820004Y-105071750D01*
X111584589Y-105056940D01*
X111584583Y-105056940D01*
X109118951Y-105056940D01*
X109051912Y-105037255D01*
X109006157Y-104984451D01*
X108994951Y-104933210D01*
X108991976Y-103568904D01*
X132512801Y-103568904D01*
X132512802Y-107684977D01*
X132515632Y-107716813D01*
X132523414Y-107804356D01*
X132579390Y-107999986D01*
X132579391Y-107999989D01*
X132579392Y-107999990D01*
X132673603Y-108180348D01*
X132673605Y-108180350D01*
X132802191Y-108338050D01*
X132844608Y-108372636D01*
X132959894Y-108466639D01*
X133140252Y-108560850D01*
X133335883Y-108616827D01*
X133455264Y-108627441D01*
X133455265Y-108627440D01*
X133455266Y-108627441D01*
X133455267Y-108627441D01*
X135228854Y-108627440D01*
X137571337Y-108627440D01*
X137690719Y-108616827D01*
X137886350Y-108560850D01*
X138066708Y-108466639D01*
X138224410Y-108338050D01*
X138352999Y-108180348D01*
X138447210Y-107999990D01*
X138503187Y-107804359D01*
X138513801Y-107684978D01*
X138513800Y-103568905D01*
X138505444Y-103474907D01*
X169596801Y-103474907D01*
X169596802Y-107590973D01*
X169596802Y-107590974D01*
X169607414Y-107710356D01*
X169663390Y-107905986D01*
X169663391Y-107905989D01*
X169663392Y-107905990D01*
X169757603Y-108086348D01*
X169757605Y-108086350D01*
X169886191Y-108244050D01*
X169980104Y-108320625D01*
X170043894Y-108372639D01*
X170224252Y-108466850D01*
X170419883Y-108522827D01*
X170539264Y-108533441D01*
X170539265Y-108533440D01*
X170539266Y-108533441D01*
X170539267Y-108533441D01*
X172303506Y-108533440D01*
X174655337Y-108533440D01*
X174774719Y-108522827D01*
X174970350Y-108466850D01*
X175150708Y-108372639D01*
X175308410Y-108244050D01*
X175436999Y-108086348D01*
X175531210Y-107905990D01*
X175587187Y-107710359D01*
X175597801Y-107590978D01*
X175597801Y-106426004D01*
X194207373Y-106426004D01*
X194226972Y-106687545D01*
X194226973Y-106687550D01*
X194285338Y-106943270D01*
X194381163Y-107187426D01*
X194381162Y-107187426D01*
X194512310Y-107414577D01*
X194560153Y-107474571D01*
X194560154Y-107474571D01*
X195462280Y-106572445D01*
X195462280Y-106711763D01*
X195477600Y-106818315D01*
X195537328Y-106949100D01*
X195631482Y-107057761D01*
X195663496Y-107078335D01*
X194913111Y-107828720D01*
X195084826Y-107945793D01*
X195084830Y-107945795D01*
X195321134Y-108059594D01*
X195321138Y-108059595D01*
X195571774Y-108136907D01*
X195571780Y-108136909D01*
X195831128Y-108175999D01*
X195831137Y-108176000D01*
X196093423Y-108176000D01*
X196093431Y-108175999D01*
X196352779Y-108136909D01*
X196352785Y-108136907D01*
X196603423Y-108059595D01*
X196839725Y-107945798D01*
X196839736Y-107945791D01*
X197011447Y-107828720D01*
X196261063Y-107078335D01*
X196293078Y-107057761D01*
X196387232Y-106949100D01*
X196446960Y-106818315D01*
X196462280Y-106711763D01*
X196462280Y-106572447D01*
X197364404Y-107474571D01*
X197412254Y-107414570D01*
X197543396Y-107187426D01*
X197639221Y-106943270D01*
X197697586Y-106687550D01*
X197697587Y-106687545D01*
X197717187Y-106426004D01*
X197717187Y-106425995D01*
X197697587Y-106164454D01*
X197697586Y-106164449D01*
X197639221Y-105908729D01*
X197543396Y-105664573D01*
X197543397Y-105664573D01*
X197412251Y-105437426D01*
X197364405Y-105377427D01*
X196462280Y-106279552D01*
X196462280Y-106140237D01*
X196446960Y-106033685D01*
X196387232Y-105902900D01*
X196293078Y-105794239D01*
X196261062Y-105773663D01*
X197011447Y-105023278D01*
X196839727Y-104906202D01*
X196839725Y-104906201D01*
X196603422Y-104792404D01*
X196603424Y-104792404D01*
X196352785Y-104715092D01*
X196352779Y-104715090D01*
X196093431Y-104676000D01*
X195831128Y-104676000D01*
X195571780Y-104715090D01*
X195571774Y-104715092D01*
X195321138Y-104792404D01*
X195321134Y-104792405D01*
X195084830Y-104906204D01*
X195084826Y-104906206D01*
X194913112Y-105023278D01*
X195663497Y-105773663D01*
X195631482Y-105794239D01*
X195537328Y-105902900D01*
X195477600Y-106033685D01*
X195462280Y-106140237D01*
X195462280Y-106279554D01*
X194560153Y-105377427D01*
X194512309Y-105437423D01*
X194381163Y-105664573D01*
X194285338Y-105908729D01*
X194226973Y-106164449D01*
X194226972Y-106164454D01*
X194207373Y-106425995D01*
X194207373Y-106426004D01*
X175597801Y-106426004D01*
X175597800Y-103474905D01*
X175587187Y-103355523D01*
X175531210Y-103159892D01*
X175436999Y-102979534D01*
X175384985Y-102915744D01*
X175308410Y-102821831D01*
X175150710Y-102693245D01*
X175150711Y-102693245D01*
X175150708Y-102693243D01*
X174970350Y-102599032D01*
X174970349Y-102599031D01*
X174970346Y-102599030D01*
X174853130Y-102565491D01*
X174774719Y-102543055D01*
X174774716Y-102543054D01*
X174774714Y-102543054D01*
X174684284Y-102535014D01*
X174655338Y-102532441D01*
X174655336Y-102532441D01*
X174655335Y-102532441D01*
X172865243Y-102532441D01*
X170539265Y-102532442D01*
X170510028Y-102535041D01*
X170419885Y-102543054D01*
X170224255Y-102599030D01*
X170134073Y-102646137D01*
X170043894Y-102693243D01*
X170043892Y-102693244D01*
X170043891Y-102693245D01*
X169886191Y-102821831D01*
X169757605Y-102979531D01*
X169663390Y-103159895D01*
X169607415Y-103355524D01*
X169607414Y-103355527D01*
X169596801Y-103474906D01*
X169596801Y-103474907D01*
X138505444Y-103474907D01*
X138503187Y-103449523D01*
X138447210Y-103253892D01*
X138352999Y-103073534D01*
X138276350Y-102979531D01*
X138224410Y-102915831D01*
X138066710Y-102787245D01*
X138066711Y-102787245D01*
X138066708Y-102787243D01*
X137886350Y-102693032D01*
X137886349Y-102693031D01*
X137886346Y-102693030D01*
X137769130Y-102659491D01*
X137690719Y-102637055D01*
X137690716Y-102637054D01*
X137690714Y-102637054D01*
X137600284Y-102629014D01*
X137571338Y-102626441D01*
X137571336Y-102626441D01*
X137571335Y-102626441D01*
X135790592Y-102626441D01*
X133455265Y-102626442D01*
X133426028Y-102629041D01*
X133335885Y-102637054D01*
X133140255Y-102693030D01*
X133050073Y-102740137D01*
X132959894Y-102787243D01*
X132959892Y-102787244D01*
X132959891Y-102787245D01*
X132802191Y-102915831D01*
X132673605Y-103073531D01*
X132579390Y-103253895D01*
X132523415Y-103449524D01*
X132523414Y-103449527D01*
X132515096Y-103543087D01*
X132512801Y-103568904D01*
X108991976Y-103568904D01*
X108983378Y-99626350D01*
X108976264Y-96364406D01*
X109370500Y-96364406D01*
X109370501Y-98750472D01*
X109370501Y-98750473D01*
X109381113Y-98869855D01*
X109437089Y-99065485D01*
X109437090Y-99065488D01*
X109437091Y-99065489D01*
X109531302Y-99245847D01*
X109531304Y-99245849D01*
X109659890Y-99403549D01*
X109753803Y-99480124D01*
X109817593Y-99532138D01*
X109997951Y-99626349D01*
X110193582Y-99682326D01*
X110312963Y-99692940D01*
X110312964Y-99692939D01*
X110312965Y-99692940D01*
X110312966Y-99692940D01*
X111326939Y-99692939D01*
X112699036Y-99692939D01*
X112818418Y-99682326D01*
X113014049Y-99626349D01*
X113194407Y-99532138D01*
X113352109Y-99403549D01*
X113480698Y-99245847D01*
X113574909Y-99065489D01*
X113630886Y-98869858D01*
X113641500Y-98750477D01*
X113641499Y-96364404D01*
X113630886Y-96245022D01*
X113574909Y-96049391D01*
X113480698Y-95869033D01*
X113371310Y-95734879D01*
X113352109Y-95711330D01*
X113194409Y-95582744D01*
X113194410Y-95582744D01*
X113194407Y-95582742D01*
X113014049Y-95488531D01*
X113014048Y-95488530D01*
X113014045Y-95488529D01*
X112896829Y-95454990D01*
X112818418Y-95432554D01*
X112818415Y-95432553D01*
X112818413Y-95432553D01*
X112727983Y-95424513D01*
X112699037Y-95421940D01*
X112699035Y-95421940D01*
X112699034Y-95421940D01*
X111673344Y-95421940D01*
X110312964Y-95421941D01*
X110283727Y-95424540D01*
X110193584Y-95432553D01*
X109997954Y-95488529D01*
X109935486Y-95521160D01*
X109817593Y-95582742D01*
X109817591Y-95582743D01*
X109817590Y-95582744D01*
X109659890Y-95711330D01*
X109539420Y-95859077D01*
X109531302Y-95869033D01*
X109484196Y-95959211D01*
X109437089Y-96049394D01*
X109381114Y-96245023D01*
X109381113Y-96245026D01*
X109370500Y-96364405D01*
X109370500Y-96364406D01*
X108976264Y-96364406D01*
X108966270Y-91781446D01*
X108985809Y-91714365D01*
X109038513Y-91668495D01*
X109089921Y-91657177D01*
X148804302Y-91546461D01*
X148871394Y-91565959D01*
X148917296Y-91618635D01*
X148927585Y-91654275D01*
X148953052Y-91847714D01*
X149053233Y-92299602D01*
X149134763Y-92558179D01*
X149192414Y-92741024D01*
X149369539Y-93168641D01*
X149583259Y-93579194D01*
X149831948Y-93969557D01*
X150113713Y-94336761D01*
X150426410Y-94678009D01*
X150767658Y-94990706D01*
X150767661Y-94990708D01*
X150767664Y-94990711D01*
X151134862Y-95272471D01*
X151525230Y-95521163D01*
X151525230Y-95521162D01*
X151935778Y-95734880D01*
X152363395Y-95912005D01*
X152546239Y-95969655D01*
X152804817Y-96051186D01*
X153256705Y-96151367D01*
X153473938Y-96179965D01*
X153715591Y-96211780D01*
X154178000Y-96231969D01*
X154640409Y-96211780D01*
X154882061Y-96179965D01*
X155099295Y-96151367D01*
X155551183Y-96051186D01*
X155809760Y-95969655D01*
X155992605Y-95912005D01*
X156420222Y-95734880D01*
X156830770Y-95521162D01*
X156830770Y-95521163D01*
X157221138Y-95272471D01*
X157588336Y-94990711D01*
X157588338Y-94990708D01*
X157588342Y-94990706D01*
X157929590Y-94678009D01*
X158242287Y-94336761D01*
X158524052Y-93969557D01*
X158772741Y-93579194D01*
X158986461Y-93168641D01*
X159163586Y-92741024D01*
X159221236Y-92558179D01*
X159302767Y-92299602D01*
X159402948Y-91847714D01*
X159402947Y-91847715D01*
X159432360Y-91624302D01*
X159460625Y-91560409D01*
X159518949Y-91521937D01*
X159554944Y-91516491D01*
X189359637Y-91433401D01*
X189426729Y-91452899D01*
G37*
%TD.AperFunction*%
%TD*%
M02*
