%TF.GenerationSoftware,KiCad,Pcbnew,7.0.6-0*%
%TF.CreationDate,2023-08-21T15:57:03+02:00*%
%TF.ProjectId,Q17-PSU,5131372d-5053-4552-9e6b-696361645f70,1.0*%
%TF.SameCoordinates,Original*%
%TF.FileFunction,Legend,Top*%
%TF.FilePolarity,Positive*%
%FSLAX46Y46*%
G04 Gerber Fmt 4.6, Leading zero omitted, Abs format (unit mm)*
G04 Created by KiCad (PCBNEW 7.0.6-0) date 2023-08-21 15:57:03*
%MOMM*%
%LPD*%
G01*
G04 APERTURE LIST*
%ADD10C,0.300000*%
%ADD11C,0.500000*%
%ADD12C,0.150000*%
%ADD13C,0.400000*%
%ADD14C,0.200000*%
%ADD15C,0.120000*%
%ADD16C,0.127000*%
G04 APERTURE END LIST*
D10*
X152908190Y-97148876D02*
X152717714Y-97053638D01*
X152717714Y-97053638D02*
X152432000Y-97053638D01*
X152432000Y-97053638D02*
X152146285Y-97148876D01*
X152146285Y-97148876D02*
X151955809Y-97339352D01*
X151955809Y-97339352D02*
X151860571Y-97529828D01*
X151860571Y-97529828D02*
X151765333Y-97910780D01*
X151765333Y-97910780D02*
X151765333Y-98196495D01*
X151765333Y-98196495D02*
X151860571Y-98577447D01*
X151860571Y-98577447D02*
X151955809Y-98767923D01*
X151955809Y-98767923D02*
X152146285Y-98958400D01*
X152146285Y-98958400D02*
X152432000Y-99053638D01*
X152432000Y-99053638D02*
X152622476Y-99053638D01*
X152622476Y-99053638D02*
X152908190Y-98958400D01*
X152908190Y-98958400D02*
X153003428Y-98863161D01*
X153003428Y-98863161D02*
X153003428Y-98196495D01*
X153003428Y-98196495D02*
X152622476Y-98196495D01*
X153860571Y-99053638D02*
X153860571Y-97053638D01*
X153860571Y-97053638D02*
X155003428Y-99053638D01*
X155003428Y-99053638D02*
X155003428Y-97053638D01*
X155955809Y-99053638D02*
X155955809Y-97053638D01*
X155955809Y-97053638D02*
X156431999Y-97053638D01*
X156431999Y-97053638D02*
X156717714Y-97148876D01*
X156717714Y-97148876D02*
X156908190Y-97339352D01*
X156908190Y-97339352D02*
X157003428Y-97529828D01*
X157003428Y-97529828D02*
X157098666Y-97910780D01*
X157098666Y-97910780D02*
X157098666Y-98196495D01*
X157098666Y-98196495D02*
X157003428Y-98577447D01*
X157003428Y-98577447D02*
X156908190Y-98767923D01*
X156908190Y-98767923D02*
X156717714Y-98958400D01*
X156717714Y-98958400D02*
X156431999Y-99053638D01*
X156431999Y-99053638D02*
X155955809Y-99053638D01*
D11*
X193047333Y-113284190D02*
X193047333Y-116331810D01*
D12*
X119682180Y-84043142D02*
X120682180Y-84043142D01*
X120682180Y-84043142D02*
X120682180Y-84424094D01*
X120682180Y-84424094D02*
X120634561Y-84519332D01*
X120634561Y-84519332D02*
X120586942Y-84566951D01*
X120586942Y-84566951D02*
X120491704Y-84614570D01*
X120491704Y-84614570D02*
X120348847Y-84614570D01*
X120348847Y-84614570D02*
X120253609Y-84566951D01*
X120253609Y-84566951D02*
X120205990Y-84519332D01*
X120205990Y-84519332D02*
X120158371Y-84424094D01*
X120158371Y-84424094D02*
X120158371Y-84043142D01*
X119777419Y-85614570D02*
X119729800Y-85566951D01*
X119729800Y-85566951D02*
X119682180Y-85424094D01*
X119682180Y-85424094D02*
X119682180Y-85328856D01*
X119682180Y-85328856D02*
X119729800Y-85185999D01*
X119729800Y-85185999D02*
X119825038Y-85090761D01*
X119825038Y-85090761D02*
X119920276Y-85043142D01*
X119920276Y-85043142D02*
X120110752Y-84995523D01*
X120110752Y-84995523D02*
X120253609Y-84995523D01*
X120253609Y-84995523D02*
X120444085Y-85043142D01*
X120444085Y-85043142D02*
X120539323Y-85090761D01*
X120539323Y-85090761D02*
X120634561Y-85185999D01*
X120634561Y-85185999D02*
X120682180Y-85328856D01*
X120682180Y-85328856D02*
X120682180Y-85424094D01*
X120682180Y-85424094D02*
X120634561Y-85566951D01*
X120634561Y-85566951D02*
X120586942Y-85614570D01*
X120205990Y-86376475D02*
X120158371Y-86519332D01*
X120158371Y-86519332D02*
X120110752Y-86566951D01*
X120110752Y-86566951D02*
X120015514Y-86614570D01*
X120015514Y-86614570D02*
X119872657Y-86614570D01*
X119872657Y-86614570D02*
X119777419Y-86566951D01*
X119777419Y-86566951D02*
X119729800Y-86519332D01*
X119729800Y-86519332D02*
X119682180Y-86424094D01*
X119682180Y-86424094D02*
X119682180Y-86043142D01*
X119682180Y-86043142D02*
X120682180Y-86043142D01*
X120682180Y-86043142D02*
X120682180Y-86376475D01*
X120682180Y-86376475D02*
X120634561Y-86471713D01*
X120634561Y-86471713D02*
X120586942Y-86519332D01*
X120586942Y-86519332D02*
X120491704Y-86566951D01*
X120491704Y-86566951D02*
X120396466Y-86566951D01*
X120396466Y-86566951D02*
X120301228Y-86519332D01*
X120301228Y-86519332D02*
X120253609Y-86471713D01*
X120253609Y-86471713D02*
X120205990Y-86376475D01*
X120205990Y-86376475D02*
X120205990Y-86043142D01*
X119682180Y-88233618D02*
X120682180Y-88233618D01*
X119729800Y-88233618D02*
X119682180Y-88138380D01*
X119682180Y-88138380D02*
X119682180Y-87947904D01*
X119682180Y-87947904D02*
X119729800Y-87852666D01*
X119729800Y-87852666D02*
X119777419Y-87805047D01*
X119777419Y-87805047D02*
X119872657Y-87757428D01*
X119872657Y-87757428D02*
X120158371Y-87757428D01*
X120158371Y-87757428D02*
X120253609Y-87805047D01*
X120253609Y-87805047D02*
X120301228Y-87852666D01*
X120301228Y-87852666D02*
X120348847Y-87947904D01*
X120348847Y-87947904D02*
X120348847Y-88138380D01*
X120348847Y-88138380D02*
X120301228Y-88233618D01*
X119729800Y-89090761D02*
X119682180Y-88995523D01*
X119682180Y-88995523D02*
X119682180Y-88805047D01*
X119682180Y-88805047D02*
X119729800Y-88709809D01*
X119729800Y-88709809D02*
X119825038Y-88662190D01*
X119825038Y-88662190D02*
X120205990Y-88662190D01*
X120205990Y-88662190D02*
X120301228Y-88709809D01*
X120301228Y-88709809D02*
X120348847Y-88805047D01*
X120348847Y-88805047D02*
X120348847Y-88995523D01*
X120348847Y-88995523D02*
X120301228Y-89090761D01*
X120301228Y-89090761D02*
X120205990Y-89138380D01*
X120205990Y-89138380D02*
X120110752Y-89138380D01*
X120110752Y-89138380D02*
X120015514Y-88662190D01*
X119729800Y-89519333D02*
X119682180Y-89614571D01*
X119682180Y-89614571D02*
X119682180Y-89805047D01*
X119682180Y-89805047D02*
X119729800Y-89900285D01*
X119729800Y-89900285D02*
X119825038Y-89947904D01*
X119825038Y-89947904D02*
X119872657Y-89947904D01*
X119872657Y-89947904D02*
X119967895Y-89900285D01*
X119967895Y-89900285D02*
X120015514Y-89805047D01*
X120015514Y-89805047D02*
X120015514Y-89662190D01*
X120015514Y-89662190D02*
X120063133Y-89566952D01*
X120063133Y-89566952D02*
X120158371Y-89519333D01*
X120158371Y-89519333D02*
X120205990Y-89519333D01*
X120205990Y-89519333D02*
X120301228Y-89566952D01*
X120301228Y-89566952D02*
X120348847Y-89662190D01*
X120348847Y-89662190D02*
X120348847Y-89805047D01*
X120348847Y-89805047D02*
X120301228Y-89900285D01*
X119682180Y-90376476D02*
X120348847Y-90376476D01*
X120682180Y-90376476D02*
X120634561Y-90328857D01*
X120634561Y-90328857D02*
X120586942Y-90376476D01*
X120586942Y-90376476D02*
X120634561Y-90424095D01*
X120634561Y-90424095D02*
X120682180Y-90376476D01*
X120682180Y-90376476D02*
X120586942Y-90376476D01*
X120348847Y-91281237D02*
X119539323Y-91281237D01*
X119539323Y-91281237D02*
X119444085Y-91233618D01*
X119444085Y-91233618D02*
X119396466Y-91185999D01*
X119396466Y-91185999D02*
X119348847Y-91090761D01*
X119348847Y-91090761D02*
X119348847Y-90947904D01*
X119348847Y-90947904D02*
X119396466Y-90852666D01*
X119729800Y-91281237D02*
X119682180Y-91185999D01*
X119682180Y-91185999D02*
X119682180Y-90995523D01*
X119682180Y-90995523D02*
X119729800Y-90900285D01*
X119729800Y-90900285D02*
X119777419Y-90852666D01*
X119777419Y-90852666D02*
X119872657Y-90805047D01*
X119872657Y-90805047D02*
X120158371Y-90805047D01*
X120158371Y-90805047D02*
X120253609Y-90852666D01*
X120253609Y-90852666D02*
X120301228Y-90900285D01*
X120301228Y-90900285D02*
X120348847Y-90995523D01*
X120348847Y-90995523D02*
X120348847Y-91185999D01*
X120348847Y-91185999D02*
X120301228Y-91281237D01*
X120348847Y-91757428D02*
X119682180Y-91757428D01*
X120253609Y-91757428D02*
X120301228Y-91805047D01*
X120301228Y-91805047D02*
X120348847Y-91900285D01*
X120348847Y-91900285D02*
X120348847Y-92043142D01*
X120348847Y-92043142D02*
X120301228Y-92138380D01*
X120301228Y-92138380D02*
X120205990Y-92185999D01*
X120205990Y-92185999D02*
X119682180Y-92185999D01*
X119682180Y-93424095D02*
X120682180Y-93424095D01*
X120301228Y-93424095D02*
X120348847Y-93519333D01*
X120348847Y-93519333D02*
X120348847Y-93709809D01*
X120348847Y-93709809D02*
X120301228Y-93805047D01*
X120301228Y-93805047D02*
X120253609Y-93852666D01*
X120253609Y-93852666D02*
X120158371Y-93900285D01*
X120158371Y-93900285D02*
X119872657Y-93900285D01*
X119872657Y-93900285D02*
X119777419Y-93852666D01*
X119777419Y-93852666D02*
X119729800Y-93805047D01*
X119729800Y-93805047D02*
X119682180Y-93709809D01*
X119682180Y-93709809D02*
X119682180Y-93519333D01*
X119682180Y-93519333D02*
X119729800Y-93424095D01*
X120348847Y-94233619D02*
X119682180Y-94471714D01*
X120348847Y-94709809D02*
X119682180Y-94471714D01*
X119682180Y-94471714D02*
X119444085Y-94376476D01*
X119444085Y-94376476D02*
X119396466Y-94328857D01*
X119396466Y-94328857D02*
X119348847Y-94233619D01*
X119729800Y-95805048D02*
X119682180Y-95947905D01*
X119682180Y-95947905D02*
X119682180Y-96186000D01*
X119682180Y-96186000D02*
X119729800Y-96281238D01*
X119729800Y-96281238D02*
X119777419Y-96328857D01*
X119777419Y-96328857D02*
X119872657Y-96376476D01*
X119872657Y-96376476D02*
X119967895Y-96376476D01*
X119967895Y-96376476D02*
X120063133Y-96328857D01*
X120063133Y-96328857D02*
X120110752Y-96281238D01*
X120110752Y-96281238D02*
X120158371Y-96186000D01*
X120158371Y-96186000D02*
X120205990Y-95995524D01*
X120205990Y-95995524D02*
X120253609Y-95900286D01*
X120253609Y-95900286D02*
X120301228Y-95852667D01*
X120301228Y-95852667D02*
X120396466Y-95805048D01*
X120396466Y-95805048D02*
X120491704Y-95805048D01*
X120491704Y-95805048D02*
X120586942Y-95852667D01*
X120586942Y-95852667D02*
X120634561Y-95900286D01*
X120634561Y-95900286D02*
X120682180Y-95995524D01*
X120682180Y-95995524D02*
X120682180Y-96233619D01*
X120682180Y-96233619D02*
X120634561Y-96376476D01*
X120348847Y-96662191D02*
X120348847Y-97043143D01*
X120682180Y-96805048D02*
X119825038Y-96805048D01*
X119825038Y-96805048D02*
X119729800Y-96852667D01*
X119729800Y-96852667D02*
X119682180Y-96947905D01*
X119682180Y-96947905D02*
X119682180Y-97043143D01*
X119729800Y-97757429D02*
X119682180Y-97662191D01*
X119682180Y-97662191D02*
X119682180Y-97471715D01*
X119682180Y-97471715D02*
X119729800Y-97376477D01*
X119729800Y-97376477D02*
X119825038Y-97328858D01*
X119825038Y-97328858D02*
X120205990Y-97328858D01*
X120205990Y-97328858D02*
X120301228Y-97376477D01*
X120301228Y-97376477D02*
X120348847Y-97471715D01*
X120348847Y-97471715D02*
X120348847Y-97662191D01*
X120348847Y-97662191D02*
X120301228Y-97757429D01*
X120301228Y-97757429D02*
X120205990Y-97805048D01*
X120205990Y-97805048D02*
X120110752Y-97805048D01*
X120110752Y-97805048D02*
X120015514Y-97328858D01*
X120348847Y-98090763D02*
X120348847Y-98471715D01*
X119682180Y-98233620D02*
X120539323Y-98233620D01*
X120539323Y-98233620D02*
X120634561Y-98281239D01*
X120634561Y-98281239D02*
X120682180Y-98376477D01*
X120682180Y-98376477D02*
X120682180Y-98471715D01*
X117366942Y-89471714D02*
X117414561Y-89519333D01*
X117414561Y-89519333D02*
X117462180Y-89614571D01*
X117462180Y-89614571D02*
X117462180Y-89852666D01*
X117462180Y-89852666D02*
X117414561Y-89947904D01*
X117414561Y-89947904D02*
X117366942Y-89995523D01*
X117366942Y-89995523D02*
X117271704Y-90043142D01*
X117271704Y-90043142D02*
X117176466Y-90043142D01*
X117176466Y-90043142D02*
X117033609Y-89995523D01*
X117033609Y-89995523D02*
X116462180Y-89424095D01*
X116462180Y-89424095D02*
X116462180Y-90043142D01*
X117462180Y-90662190D02*
X117462180Y-90757428D01*
X117462180Y-90757428D02*
X117414561Y-90852666D01*
X117414561Y-90852666D02*
X117366942Y-90900285D01*
X117366942Y-90900285D02*
X117271704Y-90947904D01*
X117271704Y-90947904D02*
X117081228Y-90995523D01*
X117081228Y-90995523D02*
X116843133Y-90995523D01*
X116843133Y-90995523D02*
X116652657Y-90947904D01*
X116652657Y-90947904D02*
X116557419Y-90900285D01*
X116557419Y-90900285D02*
X116509800Y-90852666D01*
X116509800Y-90852666D02*
X116462180Y-90757428D01*
X116462180Y-90757428D02*
X116462180Y-90662190D01*
X116462180Y-90662190D02*
X116509800Y-90566952D01*
X116509800Y-90566952D02*
X116557419Y-90519333D01*
X116557419Y-90519333D02*
X116652657Y-90471714D01*
X116652657Y-90471714D02*
X116843133Y-90424095D01*
X116843133Y-90424095D02*
X117081228Y-90424095D01*
X117081228Y-90424095D02*
X117271704Y-90471714D01*
X117271704Y-90471714D02*
X117366942Y-90519333D01*
X117366942Y-90519333D02*
X117414561Y-90566952D01*
X117414561Y-90566952D02*
X117462180Y-90662190D01*
X117366942Y-91376476D02*
X117414561Y-91424095D01*
X117414561Y-91424095D02*
X117462180Y-91519333D01*
X117462180Y-91519333D02*
X117462180Y-91757428D01*
X117462180Y-91757428D02*
X117414561Y-91852666D01*
X117414561Y-91852666D02*
X117366942Y-91900285D01*
X117366942Y-91900285D02*
X117271704Y-91947904D01*
X117271704Y-91947904D02*
X117176466Y-91947904D01*
X117176466Y-91947904D02*
X117033609Y-91900285D01*
X117033609Y-91900285D02*
X116462180Y-91328857D01*
X116462180Y-91328857D02*
X116462180Y-91947904D01*
X117462180Y-92281238D02*
X117462180Y-92900285D01*
X117462180Y-92900285D02*
X117081228Y-92566952D01*
X117081228Y-92566952D02*
X117081228Y-92709809D01*
X117081228Y-92709809D02*
X117033609Y-92805047D01*
X117033609Y-92805047D02*
X116985990Y-92852666D01*
X116985990Y-92852666D02*
X116890752Y-92900285D01*
X116890752Y-92900285D02*
X116652657Y-92900285D01*
X116652657Y-92900285D02*
X116557419Y-92852666D01*
X116557419Y-92852666D02*
X116509800Y-92805047D01*
X116509800Y-92805047D02*
X116462180Y-92709809D01*
X116462180Y-92709809D02*
X116462180Y-92424095D01*
X116462180Y-92424095D02*
X116509800Y-92328857D01*
X116509800Y-92328857D02*
X116557419Y-92281238D01*
D13*
X104977085Y-82844680D02*
X105072323Y-82654204D01*
X105072323Y-82654204D02*
X105262800Y-82463728D01*
X105262800Y-82463728D02*
X105548514Y-82178014D01*
X105548514Y-82178014D02*
X105643752Y-81987537D01*
X105643752Y-81987537D02*
X105643752Y-81797061D01*
X105167561Y-81892299D02*
X105262800Y-81701823D01*
X105262800Y-81701823D02*
X105453276Y-81511347D01*
X105453276Y-81511347D02*
X105834228Y-81416109D01*
X105834228Y-81416109D02*
X106500895Y-81416109D01*
X106500895Y-81416109D02*
X106881847Y-81511347D01*
X106881847Y-81511347D02*
X107072323Y-81701823D01*
X107072323Y-81701823D02*
X107167561Y-81892299D01*
X107167561Y-81892299D02*
X107167561Y-82273252D01*
X107167561Y-82273252D02*
X107072323Y-82463728D01*
X107072323Y-82463728D02*
X106881847Y-82654204D01*
X106881847Y-82654204D02*
X106500895Y-82749442D01*
X106500895Y-82749442D02*
X105834228Y-82749442D01*
X105834228Y-82749442D02*
X105453276Y-82654204D01*
X105453276Y-82654204D02*
X105262800Y-82463728D01*
X105262800Y-82463728D02*
X105167561Y-82273252D01*
X105167561Y-82273252D02*
X105167561Y-81892299D01*
X105167561Y-84654204D02*
X105167561Y-83511347D01*
X105167561Y-84082775D02*
X107167561Y-84082775D01*
X107167561Y-84082775D02*
X106881847Y-83892299D01*
X106881847Y-83892299D02*
X106691371Y-83701823D01*
X106691371Y-83701823D02*
X106596133Y-83511347D01*
X107167561Y-85320871D02*
X107167561Y-86654204D01*
X107167561Y-86654204D02*
X105167561Y-85797061D01*
X105929466Y-87416109D02*
X105929466Y-88939919D01*
X105167561Y-89892299D02*
X107167561Y-89892299D01*
X107167561Y-89892299D02*
X107167561Y-90654204D01*
X107167561Y-90654204D02*
X107072323Y-90844680D01*
X107072323Y-90844680D02*
X106977085Y-90939918D01*
X106977085Y-90939918D02*
X106786609Y-91035156D01*
X106786609Y-91035156D02*
X106500895Y-91035156D01*
X106500895Y-91035156D02*
X106310419Y-90939918D01*
X106310419Y-90939918D02*
X106215180Y-90844680D01*
X106215180Y-90844680D02*
X106119942Y-90654204D01*
X106119942Y-90654204D02*
X106119942Y-89892299D01*
X105262800Y-91797061D02*
X105167561Y-92082775D01*
X105167561Y-92082775D02*
X105167561Y-92558966D01*
X105167561Y-92558966D02*
X105262800Y-92749442D01*
X105262800Y-92749442D02*
X105358038Y-92844680D01*
X105358038Y-92844680D02*
X105548514Y-92939918D01*
X105548514Y-92939918D02*
X105738990Y-92939918D01*
X105738990Y-92939918D02*
X105929466Y-92844680D01*
X105929466Y-92844680D02*
X106024704Y-92749442D01*
X106024704Y-92749442D02*
X106119942Y-92558966D01*
X106119942Y-92558966D02*
X106215180Y-92178013D01*
X106215180Y-92178013D02*
X106310419Y-91987537D01*
X106310419Y-91987537D02*
X106405657Y-91892299D01*
X106405657Y-91892299D02*
X106596133Y-91797061D01*
X106596133Y-91797061D02*
X106786609Y-91797061D01*
X106786609Y-91797061D02*
X106977085Y-91892299D01*
X106977085Y-91892299D02*
X107072323Y-91987537D01*
X107072323Y-91987537D02*
X107167561Y-92178013D01*
X107167561Y-92178013D02*
X107167561Y-92654204D01*
X107167561Y-92654204D02*
X107072323Y-92939918D01*
X107167561Y-93797061D02*
X105548514Y-93797061D01*
X105548514Y-93797061D02*
X105358038Y-93892299D01*
X105358038Y-93892299D02*
X105262800Y-93987537D01*
X105262800Y-93987537D02*
X105167561Y-94178013D01*
X105167561Y-94178013D02*
X105167561Y-94558966D01*
X105167561Y-94558966D02*
X105262800Y-94749442D01*
X105262800Y-94749442D02*
X105358038Y-94844680D01*
X105358038Y-94844680D02*
X105548514Y-94939918D01*
X105548514Y-94939918D02*
X107167561Y-94939918D01*
X105167561Y-98463728D02*
X105167561Y-97320871D01*
X105167561Y-97892299D02*
X107167561Y-97892299D01*
X107167561Y-97892299D02*
X106881847Y-97701823D01*
X106881847Y-97701823D02*
X106691371Y-97511347D01*
X106691371Y-97511347D02*
X106596133Y-97320871D01*
X105358038Y-99320871D02*
X105262800Y-99416109D01*
X105262800Y-99416109D02*
X105167561Y-99320871D01*
X105167561Y-99320871D02*
X105262800Y-99225633D01*
X105262800Y-99225633D02*
X105358038Y-99320871D01*
X105358038Y-99320871D02*
X105167561Y-99320871D01*
X107167561Y-100654204D02*
X107167561Y-100844681D01*
X107167561Y-100844681D02*
X107072323Y-101035157D01*
X107072323Y-101035157D02*
X106977085Y-101130395D01*
X106977085Y-101130395D02*
X106786609Y-101225633D01*
X106786609Y-101225633D02*
X106405657Y-101320871D01*
X106405657Y-101320871D02*
X105929466Y-101320871D01*
X105929466Y-101320871D02*
X105548514Y-101225633D01*
X105548514Y-101225633D02*
X105358038Y-101130395D01*
X105358038Y-101130395D02*
X105262800Y-101035157D01*
X105262800Y-101035157D02*
X105167561Y-100844681D01*
X105167561Y-100844681D02*
X105167561Y-100654204D01*
X105167561Y-100654204D02*
X105262800Y-100463728D01*
X105262800Y-100463728D02*
X105358038Y-100368490D01*
X105358038Y-100368490D02*
X105548514Y-100273252D01*
X105548514Y-100273252D02*
X105929466Y-100178014D01*
X105929466Y-100178014D02*
X106405657Y-100178014D01*
X106405657Y-100178014D02*
X106786609Y-100273252D01*
X106786609Y-100273252D02*
X106977085Y-100368490D01*
X106977085Y-100368490D02*
X107072323Y-100463728D01*
X107072323Y-100463728D02*
X107167561Y-100654204D01*
D10*
X187318876Y-92455809D02*
X187223638Y-92646285D01*
X187223638Y-92646285D02*
X187223638Y-92931999D01*
X187223638Y-92931999D02*
X187318876Y-93217714D01*
X187318876Y-93217714D02*
X187509352Y-93408190D01*
X187509352Y-93408190D02*
X187699828Y-93503428D01*
X187699828Y-93503428D02*
X188080780Y-93598666D01*
X188080780Y-93598666D02*
X188366495Y-93598666D01*
X188366495Y-93598666D02*
X188747447Y-93503428D01*
X188747447Y-93503428D02*
X188937923Y-93408190D01*
X188937923Y-93408190D02*
X189128400Y-93217714D01*
X189128400Y-93217714D02*
X189223638Y-92931999D01*
X189223638Y-92931999D02*
X189223638Y-92741523D01*
X189223638Y-92741523D02*
X189128400Y-92455809D01*
X189128400Y-92455809D02*
X189033161Y-92360571D01*
X189033161Y-92360571D02*
X188366495Y-92360571D01*
X188366495Y-92360571D02*
X188366495Y-92741523D01*
X189223638Y-91503428D02*
X187223638Y-91503428D01*
X187223638Y-91503428D02*
X189223638Y-90360571D01*
X189223638Y-90360571D02*
X187223638Y-90360571D01*
X189223638Y-89408190D02*
X187223638Y-89408190D01*
X187223638Y-89408190D02*
X187223638Y-88932000D01*
X187223638Y-88932000D02*
X187318876Y-88646285D01*
X187318876Y-88646285D02*
X187509352Y-88455809D01*
X187509352Y-88455809D02*
X187699828Y-88360571D01*
X187699828Y-88360571D02*
X188080780Y-88265333D01*
X188080780Y-88265333D02*
X188366495Y-88265333D01*
X188366495Y-88265333D02*
X188747447Y-88360571D01*
X188747447Y-88360571D02*
X188937923Y-88455809D01*
X188937923Y-88455809D02*
X189128400Y-88646285D01*
X189128400Y-88646285D02*
X189223638Y-88932000D01*
X189223638Y-88932000D02*
X189223638Y-89408190D01*
D11*
X193047333Y-65786190D02*
X193047333Y-68833810D01*
X191523523Y-67310000D02*
X194571142Y-67310000D01*
D10*
X100449742Y-69743143D02*
X100449742Y-70457429D01*
X100021171Y-69600286D02*
X101521171Y-70100286D01*
X101521171Y-70100286D02*
X100021171Y-70600286D01*
X100164028Y-71957428D02*
X100092600Y-71886000D01*
X100092600Y-71886000D02*
X100021171Y-71671714D01*
X100021171Y-71671714D02*
X100021171Y-71528857D01*
X100021171Y-71528857D02*
X100092600Y-71314571D01*
X100092600Y-71314571D02*
X100235457Y-71171714D01*
X100235457Y-71171714D02*
X100378314Y-71100285D01*
X100378314Y-71100285D02*
X100664028Y-71028857D01*
X100664028Y-71028857D02*
X100878314Y-71028857D01*
X100878314Y-71028857D02*
X101164028Y-71100285D01*
X101164028Y-71100285D02*
X101306885Y-71171714D01*
X101306885Y-71171714D02*
X101449742Y-71314571D01*
X101449742Y-71314571D02*
X101521171Y-71528857D01*
X101521171Y-71528857D02*
X101521171Y-71671714D01*
X101521171Y-71671714D02*
X101449742Y-71886000D01*
X101449742Y-71886000D02*
X101378314Y-71957428D01*
X100021171Y-74528857D02*
X100021171Y-73671714D01*
X100021171Y-74100285D02*
X101521171Y-74100285D01*
X101521171Y-74100285D02*
X101306885Y-73957428D01*
X101306885Y-73957428D02*
X101164028Y-73814571D01*
X101164028Y-73814571D02*
X101092600Y-73671714D01*
X100449742Y-107589143D02*
X100449742Y-108303429D01*
X100021171Y-107446286D02*
X101521171Y-107946286D01*
X101521171Y-107946286D02*
X100021171Y-108446286D01*
X100164028Y-109803428D02*
X100092600Y-109732000D01*
X100092600Y-109732000D02*
X100021171Y-109517714D01*
X100021171Y-109517714D02*
X100021171Y-109374857D01*
X100021171Y-109374857D02*
X100092600Y-109160571D01*
X100092600Y-109160571D02*
X100235457Y-109017714D01*
X100235457Y-109017714D02*
X100378314Y-108946285D01*
X100378314Y-108946285D02*
X100664028Y-108874857D01*
X100664028Y-108874857D02*
X100878314Y-108874857D01*
X100878314Y-108874857D02*
X101164028Y-108946285D01*
X101164028Y-108946285D02*
X101306885Y-109017714D01*
X101306885Y-109017714D02*
X101449742Y-109160571D01*
X101449742Y-109160571D02*
X101521171Y-109374857D01*
X101521171Y-109374857D02*
X101521171Y-109517714D01*
X101521171Y-109517714D02*
X101449742Y-109732000D01*
X101449742Y-109732000D02*
X101378314Y-109803428D01*
X101378314Y-111517714D02*
X101449742Y-111589142D01*
X101449742Y-111589142D02*
X101521171Y-111732000D01*
X101521171Y-111732000D02*
X101521171Y-112089142D01*
X101521171Y-112089142D02*
X101449742Y-112232000D01*
X101449742Y-112232000D02*
X101378314Y-112303428D01*
X101378314Y-112303428D02*
X101235457Y-112374857D01*
X101235457Y-112374857D02*
X101092600Y-112374857D01*
X101092600Y-112374857D02*
X100878314Y-112303428D01*
X100878314Y-112303428D02*
X100021171Y-111446285D01*
X100021171Y-111446285D02*
X100021171Y-112374857D01*
D12*
X122595333Y-41761580D02*
X122547714Y-41809200D01*
X122547714Y-41809200D02*
X122404857Y-41856819D01*
X122404857Y-41856819D02*
X122309619Y-41856819D01*
X122309619Y-41856819D02*
X122166762Y-41809200D01*
X122166762Y-41809200D02*
X122071524Y-41713961D01*
X122071524Y-41713961D02*
X122023905Y-41618723D01*
X122023905Y-41618723D02*
X121976286Y-41428247D01*
X121976286Y-41428247D02*
X121976286Y-41285390D01*
X121976286Y-41285390D02*
X122023905Y-41094914D01*
X122023905Y-41094914D02*
X122071524Y-40999676D01*
X122071524Y-40999676D02*
X122166762Y-40904438D01*
X122166762Y-40904438D02*
X122309619Y-40856819D01*
X122309619Y-40856819D02*
X122404857Y-40856819D01*
X122404857Y-40856819D02*
X122547714Y-40904438D01*
X122547714Y-40904438D02*
X122595333Y-40952057D01*
X122928667Y-40856819D02*
X123547714Y-40856819D01*
X123547714Y-40856819D02*
X123214381Y-41237771D01*
X123214381Y-41237771D02*
X123357238Y-41237771D01*
X123357238Y-41237771D02*
X123452476Y-41285390D01*
X123452476Y-41285390D02*
X123500095Y-41333009D01*
X123500095Y-41333009D02*
X123547714Y-41428247D01*
X123547714Y-41428247D02*
X123547714Y-41666342D01*
X123547714Y-41666342D02*
X123500095Y-41761580D01*
X123500095Y-41761580D02*
X123452476Y-41809200D01*
X123452476Y-41809200D02*
X123357238Y-41856819D01*
X123357238Y-41856819D02*
X123071524Y-41856819D01*
X123071524Y-41856819D02*
X122976286Y-41809200D01*
X122976286Y-41809200D02*
X122928667Y-41761580D01*
X108843866Y-123715332D02*
X107443866Y-123715332D01*
X107443866Y-123715332D02*
X107443866Y-123381999D01*
X107443866Y-123381999D02*
X107510533Y-123181999D01*
X107510533Y-123181999D02*
X107643866Y-123048666D01*
X107643866Y-123048666D02*
X107777200Y-122981999D01*
X107777200Y-122981999D02*
X108043866Y-122915332D01*
X108043866Y-122915332D02*
X108243866Y-122915332D01*
X108243866Y-122915332D02*
X108510533Y-122981999D01*
X108510533Y-122981999D02*
X108643866Y-123048666D01*
X108643866Y-123048666D02*
X108777200Y-123181999D01*
X108777200Y-123181999D02*
X108843866Y-123381999D01*
X108843866Y-123381999D02*
X108843866Y-123715332D01*
X107577200Y-122381999D02*
X107510533Y-122315332D01*
X107510533Y-122315332D02*
X107443866Y-122181999D01*
X107443866Y-122181999D02*
X107443866Y-121848666D01*
X107443866Y-121848666D02*
X107510533Y-121715332D01*
X107510533Y-121715332D02*
X107577200Y-121648666D01*
X107577200Y-121648666D02*
X107710533Y-121581999D01*
X107710533Y-121581999D02*
X107843866Y-121581999D01*
X107843866Y-121581999D02*
X108043866Y-121648666D01*
X108043866Y-121648666D02*
X108843866Y-122448666D01*
X108843866Y-122448666D02*
X108843866Y-121581999D01*
X106531580Y-116752666D02*
X106579200Y-116800285D01*
X106579200Y-116800285D02*
X106626819Y-116943142D01*
X106626819Y-116943142D02*
X106626819Y-117038380D01*
X106626819Y-117038380D02*
X106579200Y-117181237D01*
X106579200Y-117181237D02*
X106483961Y-117276475D01*
X106483961Y-117276475D02*
X106388723Y-117324094D01*
X106388723Y-117324094D02*
X106198247Y-117371713D01*
X106198247Y-117371713D02*
X106055390Y-117371713D01*
X106055390Y-117371713D02*
X105864914Y-117324094D01*
X105864914Y-117324094D02*
X105769676Y-117276475D01*
X105769676Y-117276475D02*
X105674438Y-117181237D01*
X105674438Y-117181237D02*
X105626819Y-117038380D01*
X105626819Y-117038380D02*
X105626819Y-116943142D01*
X105626819Y-116943142D02*
X105674438Y-116800285D01*
X105674438Y-116800285D02*
X105722057Y-116752666D01*
X105722057Y-116371713D02*
X105674438Y-116324094D01*
X105674438Y-116324094D02*
X105626819Y-116228856D01*
X105626819Y-116228856D02*
X105626819Y-115990761D01*
X105626819Y-115990761D02*
X105674438Y-115895523D01*
X105674438Y-115895523D02*
X105722057Y-115847904D01*
X105722057Y-115847904D02*
X105817295Y-115800285D01*
X105817295Y-115800285D02*
X105912533Y-115800285D01*
X105912533Y-115800285D02*
X106055390Y-115847904D01*
X106055390Y-115847904D02*
X106626819Y-116419332D01*
X106626819Y-116419332D02*
X106626819Y-115800285D01*
X135820401Y-52912924D02*
X135868021Y-52960543D01*
X135868021Y-52960543D02*
X135915640Y-53103400D01*
X135915640Y-53103400D02*
X135915640Y-53198638D01*
X135915640Y-53198638D02*
X135868021Y-53341495D01*
X135868021Y-53341495D02*
X135772782Y-53436733D01*
X135772782Y-53436733D02*
X135677544Y-53484352D01*
X135677544Y-53484352D02*
X135487068Y-53531971D01*
X135487068Y-53531971D02*
X135344211Y-53531971D01*
X135344211Y-53531971D02*
X135153735Y-53484352D01*
X135153735Y-53484352D02*
X135058497Y-53436733D01*
X135058497Y-53436733D02*
X134963259Y-53341495D01*
X134963259Y-53341495D02*
X134915640Y-53198638D01*
X134915640Y-53198638D02*
X134915640Y-53103400D01*
X134915640Y-53103400D02*
X134963259Y-52960543D01*
X134963259Y-52960543D02*
X135010878Y-52912924D01*
X134915640Y-52008162D02*
X134915640Y-52484352D01*
X134915640Y-52484352D02*
X135391830Y-52531971D01*
X135391830Y-52531971D02*
X135344211Y-52484352D01*
X135344211Y-52484352D02*
X135296592Y-52389114D01*
X135296592Y-52389114D02*
X135296592Y-52151019D01*
X135296592Y-52151019D02*
X135344211Y-52055781D01*
X135344211Y-52055781D02*
X135391830Y-52008162D01*
X135391830Y-52008162D02*
X135487068Y-51960543D01*
X135487068Y-51960543D02*
X135725163Y-51960543D01*
X135725163Y-51960543D02*
X135820401Y-52008162D01*
X135820401Y-52008162D02*
X135868021Y-52055781D01*
X135868021Y-52055781D02*
X135915640Y-52151019D01*
X135915640Y-52151019D02*
X135915640Y-52389114D01*
X135915640Y-52389114D02*
X135868021Y-52484352D01*
X135868021Y-52484352D02*
X135820401Y-52531971D01*
X143348914Y-45825580D02*
X143301295Y-45873200D01*
X143301295Y-45873200D02*
X143158438Y-45920819D01*
X143158438Y-45920819D02*
X143063200Y-45920819D01*
X143063200Y-45920819D02*
X142920343Y-45873200D01*
X142920343Y-45873200D02*
X142825105Y-45777961D01*
X142825105Y-45777961D02*
X142777486Y-45682723D01*
X142777486Y-45682723D02*
X142729867Y-45492247D01*
X142729867Y-45492247D02*
X142729867Y-45349390D01*
X142729867Y-45349390D02*
X142777486Y-45158914D01*
X142777486Y-45158914D02*
X142825105Y-45063676D01*
X142825105Y-45063676D02*
X142920343Y-44968438D01*
X142920343Y-44968438D02*
X143063200Y-44920819D01*
X143063200Y-44920819D02*
X143158438Y-44920819D01*
X143158438Y-44920819D02*
X143301295Y-44968438D01*
X143301295Y-44968438D02*
X143348914Y-45016057D01*
X143825105Y-45920819D02*
X144015581Y-45920819D01*
X144015581Y-45920819D02*
X144110819Y-45873200D01*
X144110819Y-45873200D02*
X144158438Y-45825580D01*
X144158438Y-45825580D02*
X144253676Y-45682723D01*
X144253676Y-45682723D02*
X144301295Y-45492247D01*
X144301295Y-45492247D02*
X144301295Y-45111295D01*
X144301295Y-45111295D02*
X144253676Y-45016057D01*
X144253676Y-45016057D02*
X144206057Y-44968438D01*
X144206057Y-44968438D02*
X144110819Y-44920819D01*
X144110819Y-44920819D02*
X143920343Y-44920819D01*
X143920343Y-44920819D02*
X143825105Y-44968438D01*
X143825105Y-44968438D02*
X143777486Y-45016057D01*
X143777486Y-45016057D02*
X143729867Y-45111295D01*
X143729867Y-45111295D02*
X143729867Y-45349390D01*
X143729867Y-45349390D02*
X143777486Y-45444628D01*
X143777486Y-45444628D02*
X143825105Y-45492247D01*
X143825105Y-45492247D02*
X143920343Y-45539866D01*
X143920343Y-45539866D02*
X144110819Y-45539866D01*
X144110819Y-45539866D02*
X144206057Y-45492247D01*
X144206057Y-45492247D02*
X144253676Y-45444628D01*
X144253676Y-45444628D02*
X144301295Y-45349390D01*
X106277580Y-65444666D02*
X106325200Y-65492285D01*
X106325200Y-65492285D02*
X106372819Y-65635142D01*
X106372819Y-65635142D02*
X106372819Y-65730380D01*
X106372819Y-65730380D02*
X106325200Y-65873237D01*
X106325200Y-65873237D02*
X106229961Y-65968475D01*
X106229961Y-65968475D02*
X106134723Y-66016094D01*
X106134723Y-66016094D02*
X105944247Y-66063713D01*
X105944247Y-66063713D02*
X105801390Y-66063713D01*
X105801390Y-66063713D02*
X105610914Y-66016094D01*
X105610914Y-66016094D02*
X105515676Y-65968475D01*
X105515676Y-65968475D02*
X105420438Y-65873237D01*
X105420438Y-65873237D02*
X105372819Y-65730380D01*
X105372819Y-65730380D02*
X105372819Y-65635142D01*
X105372819Y-65635142D02*
X105420438Y-65492285D01*
X105420438Y-65492285D02*
X105468057Y-65444666D01*
X106372819Y-64492285D02*
X106372819Y-65063713D01*
X106372819Y-64777999D02*
X105372819Y-64777999D01*
X105372819Y-64777999D02*
X105515676Y-64873237D01*
X105515676Y-64873237D02*
X105610914Y-64968475D01*
X105610914Y-64968475D02*
X105658533Y-65063713D01*
X187049580Y-124880666D02*
X187097200Y-124928285D01*
X187097200Y-124928285D02*
X187144819Y-125071142D01*
X187144819Y-125071142D02*
X187144819Y-125166380D01*
X187144819Y-125166380D02*
X187097200Y-125309237D01*
X187097200Y-125309237D02*
X187001961Y-125404475D01*
X187001961Y-125404475D02*
X186906723Y-125452094D01*
X186906723Y-125452094D02*
X186716247Y-125499713D01*
X186716247Y-125499713D02*
X186573390Y-125499713D01*
X186573390Y-125499713D02*
X186382914Y-125452094D01*
X186382914Y-125452094D02*
X186287676Y-125404475D01*
X186287676Y-125404475D02*
X186192438Y-125309237D01*
X186192438Y-125309237D02*
X186144819Y-125166380D01*
X186144819Y-125166380D02*
X186144819Y-125071142D01*
X186144819Y-125071142D02*
X186192438Y-124928285D01*
X186192438Y-124928285D02*
X186240057Y-124880666D01*
X186573390Y-124309237D02*
X186525771Y-124404475D01*
X186525771Y-124404475D02*
X186478152Y-124452094D01*
X186478152Y-124452094D02*
X186382914Y-124499713D01*
X186382914Y-124499713D02*
X186335295Y-124499713D01*
X186335295Y-124499713D02*
X186240057Y-124452094D01*
X186240057Y-124452094D02*
X186192438Y-124404475D01*
X186192438Y-124404475D02*
X186144819Y-124309237D01*
X186144819Y-124309237D02*
X186144819Y-124118761D01*
X186144819Y-124118761D02*
X186192438Y-124023523D01*
X186192438Y-124023523D02*
X186240057Y-123975904D01*
X186240057Y-123975904D02*
X186335295Y-123928285D01*
X186335295Y-123928285D02*
X186382914Y-123928285D01*
X186382914Y-123928285D02*
X186478152Y-123975904D01*
X186478152Y-123975904D02*
X186525771Y-124023523D01*
X186525771Y-124023523D02*
X186573390Y-124118761D01*
X186573390Y-124118761D02*
X186573390Y-124309237D01*
X186573390Y-124309237D02*
X186621009Y-124404475D01*
X186621009Y-124404475D02*
X186668628Y-124452094D01*
X186668628Y-124452094D02*
X186763866Y-124499713D01*
X186763866Y-124499713D02*
X186954342Y-124499713D01*
X186954342Y-124499713D02*
X187049580Y-124452094D01*
X187049580Y-124452094D02*
X187097200Y-124404475D01*
X187097200Y-124404475D02*
X187144819Y-124309237D01*
X187144819Y-124309237D02*
X187144819Y-124118761D01*
X187144819Y-124118761D02*
X187097200Y-124023523D01*
X187097200Y-124023523D02*
X187049580Y-123975904D01*
X187049580Y-123975904D02*
X186954342Y-123928285D01*
X186954342Y-123928285D02*
X186763866Y-123928285D01*
X186763866Y-123928285D02*
X186668628Y-123975904D01*
X186668628Y-123975904D02*
X186621009Y-124023523D01*
X186621009Y-124023523D02*
X186573390Y-124118761D01*
X118451333Y-131518819D02*
X118118000Y-131042628D01*
X117879905Y-131518819D02*
X117879905Y-130518819D01*
X117879905Y-130518819D02*
X118260857Y-130518819D01*
X118260857Y-130518819D02*
X118356095Y-130566438D01*
X118356095Y-130566438D02*
X118403714Y-130614057D01*
X118403714Y-130614057D02*
X118451333Y-130709295D01*
X118451333Y-130709295D02*
X118451333Y-130852152D01*
X118451333Y-130852152D02*
X118403714Y-130947390D01*
X118403714Y-130947390D02*
X118356095Y-130995009D01*
X118356095Y-130995009D02*
X118260857Y-131042628D01*
X118260857Y-131042628D02*
X117879905Y-131042628D01*
X118832286Y-130614057D02*
X118879905Y-130566438D01*
X118879905Y-130566438D02*
X118975143Y-130518819D01*
X118975143Y-130518819D02*
X119213238Y-130518819D01*
X119213238Y-130518819D02*
X119308476Y-130566438D01*
X119308476Y-130566438D02*
X119356095Y-130614057D01*
X119356095Y-130614057D02*
X119403714Y-130709295D01*
X119403714Y-130709295D02*
X119403714Y-130804533D01*
X119403714Y-130804533D02*
X119356095Y-130947390D01*
X119356095Y-130947390D02*
X118784667Y-131518819D01*
X118784667Y-131518819D02*
X119403714Y-131518819D01*
X154016914Y-126608819D02*
X153683581Y-126132628D01*
X153445486Y-126608819D02*
X153445486Y-125608819D01*
X153445486Y-125608819D02*
X153826438Y-125608819D01*
X153826438Y-125608819D02*
X153921676Y-125656438D01*
X153921676Y-125656438D02*
X153969295Y-125704057D01*
X153969295Y-125704057D02*
X154016914Y-125799295D01*
X154016914Y-125799295D02*
X154016914Y-125942152D01*
X154016914Y-125942152D02*
X153969295Y-126037390D01*
X153969295Y-126037390D02*
X153921676Y-126085009D01*
X153921676Y-126085009D02*
X153826438Y-126132628D01*
X153826438Y-126132628D02*
X153445486Y-126132628D01*
X154874057Y-125942152D02*
X154874057Y-126608819D01*
X154635962Y-125561200D02*
X154397867Y-126275485D01*
X154397867Y-126275485D02*
X155016914Y-126275485D01*
X181048819Y-137472857D02*
X180048819Y-137472857D01*
X180048819Y-137472857D02*
X180048819Y-137234762D01*
X180048819Y-137234762D02*
X180096438Y-137091905D01*
X180096438Y-137091905D02*
X180191676Y-136996667D01*
X180191676Y-136996667D02*
X180286914Y-136949048D01*
X180286914Y-136949048D02*
X180477390Y-136901429D01*
X180477390Y-136901429D02*
X180620247Y-136901429D01*
X180620247Y-136901429D02*
X180810723Y-136949048D01*
X180810723Y-136949048D02*
X180905961Y-136996667D01*
X180905961Y-136996667D02*
X181001200Y-137091905D01*
X181001200Y-137091905D02*
X181048819Y-137234762D01*
X181048819Y-137234762D02*
X181048819Y-137472857D01*
X180382152Y-136044286D02*
X181048819Y-136044286D01*
X180001200Y-136282381D02*
X180715485Y-136520476D01*
X180715485Y-136520476D02*
X180715485Y-135901429D01*
D14*
X198588219Y-74104380D02*
X199588219Y-73771047D01*
X199588219Y-73771047D02*
X198588219Y-73437714D01*
X199207266Y-73104380D02*
X199207266Y-72342476D01*
X199588219Y-72723428D02*
X198826314Y-72723428D01*
X198588219Y-109904057D02*
X199588219Y-109570724D01*
X199588219Y-109570724D02*
X198588219Y-109237391D01*
X199207266Y-108904057D02*
X199207266Y-108142153D01*
D12*
X122595333Y-140839343D02*
X122547714Y-140886963D01*
X122547714Y-140886963D02*
X122404857Y-140934582D01*
X122404857Y-140934582D02*
X122309619Y-140934582D01*
X122309619Y-140934582D02*
X122166762Y-140886963D01*
X122166762Y-140886963D02*
X122071524Y-140791724D01*
X122071524Y-140791724D02*
X122023905Y-140696486D01*
X122023905Y-140696486D02*
X121976286Y-140506010D01*
X121976286Y-140506010D02*
X121976286Y-140363153D01*
X121976286Y-140363153D02*
X122023905Y-140172677D01*
X122023905Y-140172677D02*
X122071524Y-140077439D01*
X122071524Y-140077439D02*
X122166762Y-139982201D01*
X122166762Y-139982201D02*
X122309619Y-139934582D01*
X122309619Y-139934582D02*
X122404857Y-139934582D01*
X122404857Y-139934582D02*
X122547714Y-139982201D01*
X122547714Y-139982201D02*
X122595333Y-140029820D01*
X123452476Y-140267915D02*
X123452476Y-140934582D01*
X123214381Y-139886963D02*
X122976286Y-140601248D01*
X122976286Y-140601248D02*
X123595333Y-140601248D01*
X108843866Y-60215332D02*
X107443866Y-60215332D01*
X107443866Y-60215332D02*
X107443866Y-59881999D01*
X107443866Y-59881999D02*
X107510533Y-59681999D01*
X107510533Y-59681999D02*
X107643866Y-59548666D01*
X107643866Y-59548666D02*
X107777200Y-59481999D01*
X107777200Y-59481999D02*
X108043866Y-59415332D01*
X108043866Y-59415332D02*
X108243866Y-59415332D01*
X108243866Y-59415332D02*
X108510533Y-59481999D01*
X108510533Y-59481999D02*
X108643866Y-59548666D01*
X108643866Y-59548666D02*
X108777200Y-59681999D01*
X108777200Y-59681999D02*
X108843866Y-59881999D01*
X108843866Y-59881999D02*
X108843866Y-60215332D01*
X108843866Y-58081999D02*
X108843866Y-58881999D01*
X108843866Y-58481999D02*
X107443866Y-58481999D01*
X107443866Y-58481999D02*
X107643866Y-58615332D01*
X107643866Y-58615332D02*
X107777200Y-58748666D01*
X107777200Y-58748666D02*
X107843866Y-58881999D01*
X154270914Y-56588819D02*
X153937581Y-56112628D01*
X153699486Y-56588819D02*
X153699486Y-55588819D01*
X153699486Y-55588819D02*
X154080438Y-55588819D01*
X154080438Y-55588819D02*
X154175676Y-55636438D01*
X154175676Y-55636438D02*
X154223295Y-55684057D01*
X154223295Y-55684057D02*
X154270914Y-55779295D01*
X154270914Y-55779295D02*
X154270914Y-55922152D01*
X154270914Y-55922152D02*
X154223295Y-56017390D01*
X154223295Y-56017390D02*
X154175676Y-56065009D01*
X154175676Y-56065009D02*
X154080438Y-56112628D01*
X154080438Y-56112628D02*
X153699486Y-56112628D01*
X154604248Y-55588819D02*
X155223295Y-55588819D01*
X155223295Y-55588819D02*
X154889962Y-55969771D01*
X154889962Y-55969771D02*
X155032819Y-55969771D01*
X155032819Y-55969771D02*
X155128057Y-56017390D01*
X155128057Y-56017390D02*
X155175676Y-56065009D01*
X155175676Y-56065009D02*
X155223295Y-56160247D01*
X155223295Y-56160247D02*
X155223295Y-56398342D01*
X155223295Y-56398342D02*
X155175676Y-56493580D01*
X155175676Y-56493580D02*
X155128057Y-56541200D01*
X155128057Y-56541200D02*
X155032819Y-56588819D01*
X155032819Y-56588819D02*
X154747105Y-56588819D01*
X154747105Y-56588819D02*
X154651867Y-56541200D01*
X154651867Y-56541200D02*
X154604248Y-56493580D01*
X135566401Y-130382924D02*
X135614021Y-130430543D01*
X135614021Y-130430543D02*
X135661640Y-130573400D01*
X135661640Y-130573400D02*
X135661640Y-130668638D01*
X135661640Y-130668638D02*
X135614021Y-130811495D01*
X135614021Y-130811495D02*
X135518782Y-130906733D01*
X135518782Y-130906733D02*
X135423544Y-130954352D01*
X135423544Y-130954352D02*
X135233068Y-131001971D01*
X135233068Y-131001971D02*
X135090211Y-131001971D01*
X135090211Y-131001971D02*
X134899735Y-130954352D01*
X134899735Y-130954352D02*
X134804497Y-130906733D01*
X134804497Y-130906733D02*
X134709259Y-130811495D01*
X134709259Y-130811495D02*
X134661640Y-130668638D01*
X134661640Y-130668638D02*
X134661640Y-130573400D01*
X134661640Y-130573400D02*
X134709259Y-130430543D01*
X134709259Y-130430543D02*
X134756878Y-130382924D01*
X134661640Y-129525781D02*
X134661640Y-129716257D01*
X134661640Y-129716257D02*
X134709259Y-129811495D01*
X134709259Y-129811495D02*
X134756878Y-129859114D01*
X134756878Y-129859114D02*
X134899735Y-129954352D01*
X134899735Y-129954352D02*
X135090211Y-130001971D01*
X135090211Y-130001971D02*
X135471163Y-130001971D01*
X135471163Y-130001971D02*
X135566401Y-129954352D01*
X135566401Y-129954352D02*
X135614021Y-129906733D01*
X135614021Y-129906733D02*
X135661640Y-129811495D01*
X135661640Y-129811495D02*
X135661640Y-129621019D01*
X135661640Y-129621019D02*
X135614021Y-129525781D01*
X135614021Y-129525781D02*
X135566401Y-129478162D01*
X135566401Y-129478162D02*
X135471163Y-129430543D01*
X135471163Y-129430543D02*
X135233068Y-129430543D01*
X135233068Y-129430543D02*
X135137830Y-129478162D01*
X135137830Y-129478162D02*
X135090211Y-129525781D01*
X135090211Y-129525781D02*
X135042592Y-129621019D01*
X135042592Y-129621019D02*
X135042592Y-129811495D01*
X135042592Y-129811495D02*
X135090211Y-129906733D01*
X135090211Y-129906733D02*
X135137830Y-129954352D01*
X135137830Y-129954352D02*
X135233068Y-130001971D01*
X141982443Y-136835343D02*
X141934824Y-136882963D01*
X141934824Y-136882963D02*
X141791967Y-136930582D01*
X141791967Y-136930582D02*
X141696729Y-136930582D01*
X141696729Y-136930582D02*
X141553872Y-136882963D01*
X141553872Y-136882963D02*
X141458634Y-136787724D01*
X141458634Y-136787724D02*
X141411015Y-136692486D01*
X141411015Y-136692486D02*
X141363396Y-136502010D01*
X141363396Y-136502010D02*
X141363396Y-136359153D01*
X141363396Y-136359153D02*
X141411015Y-136168677D01*
X141411015Y-136168677D02*
X141458634Y-136073439D01*
X141458634Y-136073439D02*
X141553872Y-135978201D01*
X141553872Y-135978201D02*
X141696729Y-135930582D01*
X141696729Y-135930582D02*
X141791967Y-135930582D01*
X141791967Y-135930582D02*
X141934824Y-135978201D01*
X141934824Y-135978201D02*
X141982443Y-136025820D01*
X142934824Y-136930582D02*
X142363396Y-136930582D01*
X142649110Y-136930582D02*
X142649110Y-135930582D01*
X142649110Y-135930582D02*
X142553872Y-136073439D01*
X142553872Y-136073439D02*
X142458634Y-136168677D01*
X142458634Y-136168677D02*
X142363396Y-136216296D01*
X143553872Y-135930582D02*
X143649110Y-135930582D01*
X143649110Y-135930582D02*
X143744348Y-135978201D01*
X143744348Y-135978201D02*
X143791967Y-136025820D01*
X143791967Y-136025820D02*
X143839586Y-136121058D01*
X143839586Y-136121058D02*
X143887205Y-136311534D01*
X143887205Y-136311534D02*
X143887205Y-136549629D01*
X143887205Y-136549629D02*
X143839586Y-136740105D01*
X143839586Y-136740105D02*
X143791967Y-136835343D01*
X143791967Y-136835343D02*
X143744348Y-136882963D01*
X143744348Y-136882963D02*
X143649110Y-136930582D01*
X143649110Y-136930582D02*
X143553872Y-136930582D01*
X143553872Y-136930582D02*
X143458634Y-136882963D01*
X143458634Y-136882963D02*
X143411015Y-136835343D01*
X143411015Y-136835343D02*
X143363396Y-136740105D01*
X143363396Y-136740105D02*
X143315777Y-136549629D01*
X143315777Y-136549629D02*
X143315777Y-136311534D01*
X143315777Y-136311534D02*
X143363396Y-136121058D01*
X143363396Y-136121058D02*
X143411015Y-136025820D01*
X143411015Y-136025820D02*
X143458634Y-135978201D01*
X143458634Y-135978201D02*
X143553872Y-135930582D01*
X180944819Y-45945094D02*
X179944819Y-45945094D01*
X179944819Y-45945094D02*
X179944819Y-45706999D01*
X179944819Y-45706999D02*
X179992438Y-45564142D01*
X179992438Y-45564142D02*
X180087676Y-45468904D01*
X180087676Y-45468904D02*
X180182914Y-45421285D01*
X180182914Y-45421285D02*
X180373390Y-45373666D01*
X180373390Y-45373666D02*
X180516247Y-45373666D01*
X180516247Y-45373666D02*
X180706723Y-45421285D01*
X180706723Y-45421285D02*
X180801961Y-45468904D01*
X180801961Y-45468904D02*
X180897200Y-45564142D01*
X180897200Y-45564142D02*
X180944819Y-45706999D01*
X180944819Y-45706999D02*
X180944819Y-45945094D01*
X179944819Y-45040332D02*
X179944819Y-44421285D01*
X179944819Y-44421285D02*
X180325771Y-44754618D01*
X180325771Y-44754618D02*
X180325771Y-44611761D01*
X180325771Y-44611761D02*
X180373390Y-44516523D01*
X180373390Y-44516523D02*
X180421009Y-44468904D01*
X180421009Y-44468904D02*
X180516247Y-44421285D01*
X180516247Y-44421285D02*
X180754342Y-44421285D01*
X180754342Y-44421285D02*
X180849580Y-44468904D01*
X180849580Y-44468904D02*
X180897200Y-44516523D01*
X180897200Y-44516523D02*
X180944819Y-44611761D01*
X180944819Y-44611761D02*
X180944819Y-44897475D01*
X180944819Y-44897475D02*
X180897200Y-44992713D01*
X180897200Y-44992713D02*
X180849580Y-45040332D01*
X118451333Y-51678819D02*
X118118000Y-51202628D01*
X117879905Y-51678819D02*
X117879905Y-50678819D01*
X117879905Y-50678819D02*
X118260857Y-50678819D01*
X118260857Y-50678819D02*
X118356095Y-50726438D01*
X118356095Y-50726438D02*
X118403714Y-50774057D01*
X118403714Y-50774057D02*
X118451333Y-50869295D01*
X118451333Y-50869295D02*
X118451333Y-51012152D01*
X118451333Y-51012152D02*
X118403714Y-51107390D01*
X118403714Y-51107390D02*
X118356095Y-51155009D01*
X118356095Y-51155009D02*
X118260857Y-51202628D01*
X118260857Y-51202628D02*
X117879905Y-51202628D01*
X119403714Y-51678819D02*
X118832286Y-51678819D01*
X119118000Y-51678819D02*
X119118000Y-50678819D01*
X119118000Y-50678819D02*
X119022762Y-50821676D01*
X119022762Y-50821676D02*
X118927524Y-50916914D01*
X118927524Y-50916914D02*
X118832286Y-50964533D01*
D14*
X198588219Y-62064780D02*
X199588219Y-61731447D01*
X199588219Y-61731447D02*
X198588219Y-61398114D01*
X199207266Y-61064780D02*
X199207266Y-60302876D01*
X199588219Y-60683828D02*
X198826314Y-60683828D01*
D12*
X184237333Y-51762819D02*
X183904000Y-51286628D01*
X183665905Y-51762819D02*
X183665905Y-50762819D01*
X183665905Y-50762819D02*
X184046857Y-50762819D01*
X184046857Y-50762819D02*
X184142095Y-50810438D01*
X184142095Y-50810438D02*
X184189714Y-50858057D01*
X184189714Y-50858057D02*
X184237333Y-50953295D01*
X184237333Y-50953295D02*
X184237333Y-51096152D01*
X184237333Y-51096152D02*
X184189714Y-51191390D01*
X184189714Y-51191390D02*
X184142095Y-51239009D01*
X184142095Y-51239009D02*
X184046857Y-51286628D01*
X184046857Y-51286628D02*
X183665905Y-51286628D01*
X185142095Y-50762819D02*
X184665905Y-50762819D01*
X184665905Y-50762819D02*
X184618286Y-51239009D01*
X184618286Y-51239009D02*
X184665905Y-51191390D01*
X184665905Y-51191390D02*
X184761143Y-51143771D01*
X184761143Y-51143771D02*
X184999238Y-51143771D01*
X184999238Y-51143771D02*
X185094476Y-51191390D01*
X185094476Y-51191390D02*
X185142095Y-51239009D01*
X185142095Y-51239009D02*
X185189714Y-51334247D01*
X185189714Y-51334247D02*
X185189714Y-51572342D01*
X185189714Y-51572342D02*
X185142095Y-51667580D01*
X185142095Y-51667580D02*
X185094476Y-51715200D01*
X185094476Y-51715200D02*
X184999238Y-51762819D01*
X184999238Y-51762819D02*
X184761143Y-51762819D01*
X184761143Y-51762819D02*
X184665905Y-51715200D01*
X184665905Y-51715200D02*
X184618286Y-51667580D01*
X187049580Y-58840666D02*
X187097200Y-58888285D01*
X187097200Y-58888285D02*
X187144819Y-59031142D01*
X187144819Y-59031142D02*
X187144819Y-59126380D01*
X187144819Y-59126380D02*
X187097200Y-59269237D01*
X187097200Y-59269237D02*
X187001961Y-59364475D01*
X187001961Y-59364475D02*
X186906723Y-59412094D01*
X186906723Y-59412094D02*
X186716247Y-59459713D01*
X186716247Y-59459713D02*
X186573390Y-59459713D01*
X186573390Y-59459713D02*
X186382914Y-59412094D01*
X186382914Y-59412094D02*
X186287676Y-59364475D01*
X186287676Y-59364475D02*
X186192438Y-59269237D01*
X186192438Y-59269237D02*
X186144819Y-59126380D01*
X186144819Y-59126380D02*
X186144819Y-59031142D01*
X186144819Y-59031142D02*
X186192438Y-58888285D01*
X186192438Y-58888285D02*
X186240057Y-58840666D01*
X186144819Y-58507332D02*
X186144819Y-57840666D01*
X186144819Y-57840666D02*
X187144819Y-58269237D01*
D14*
X198588219Y-121602380D02*
X199588219Y-121269047D01*
X199588219Y-121269047D02*
X198588219Y-120935714D01*
X199207266Y-120602380D02*
X199207266Y-119840476D01*
D12*
X184237333Y-131264819D02*
X183904000Y-130788628D01*
X183665905Y-131264819D02*
X183665905Y-130264819D01*
X183665905Y-130264819D02*
X184046857Y-130264819D01*
X184046857Y-130264819D02*
X184142095Y-130312438D01*
X184142095Y-130312438D02*
X184189714Y-130360057D01*
X184189714Y-130360057D02*
X184237333Y-130455295D01*
X184237333Y-130455295D02*
X184237333Y-130598152D01*
X184237333Y-130598152D02*
X184189714Y-130693390D01*
X184189714Y-130693390D02*
X184142095Y-130741009D01*
X184142095Y-130741009D02*
X184046857Y-130788628D01*
X184046857Y-130788628D02*
X183665905Y-130788628D01*
X185094476Y-130264819D02*
X184904000Y-130264819D01*
X184904000Y-130264819D02*
X184808762Y-130312438D01*
X184808762Y-130312438D02*
X184761143Y-130360057D01*
X184761143Y-130360057D02*
X184665905Y-130502914D01*
X184665905Y-130502914D02*
X184618286Y-130693390D01*
X184618286Y-130693390D02*
X184618286Y-131074342D01*
X184618286Y-131074342D02*
X184665905Y-131169580D01*
X184665905Y-131169580D02*
X184713524Y-131217200D01*
X184713524Y-131217200D02*
X184808762Y-131264819D01*
X184808762Y-131264819D02*
X184999238Y-131264819D01*
X184999238Y-131264819D02*
X185094476Y-131217200D01*
X185094476Y-131217200D02*
X185142095Y-131169580D01*
X185142095Y-131169580D02*
X185189714Y-131074342D01*
X185189714Y-131074342D02*
X185189714Y-130836247D01*
X185189714Y-130836247D02*
X185142095Y-130741009D01*
X185142095Y-130741009D02*
X185094476Y-130693390D01*
X185094476Y-130693390D02*
X184999238Y-130645771D01*
X184999238Y-130645771D02*
X184808762Y-130645771D01*
X184808762Y-130645771D02*
X184713524Y-130693390D01*
X184713524Y-130693390D02*
X184665905Y-130741009D01*
X184665905Y-130741009D02*
X184618286Y-130836247D01*
D15*
%TO.C,C3*%
X129382000Y-47832000D02*
X129382000Y-42592000D01*
X129382000Y-47832000D02*
X116142000Y-47832000D01*
X129382000Y-42592000D02*
X116142000Y-42592000D01*
X116142000Y-47832000D02*
X116142000Y-42592000D01*
D16*
%TO.C,D2*%
X114756000Y-94907440D02*
X109956000Y-94907440D01*
X109956000Y-94907440D02*
X109956000Y-125207440D01*
X114756000Y-125207440D02*
X114756000Y-94907440D01*
X109956000Y-125207440D02*
X114756000Y-125207440D01*
D14*
X109606000Y-97357440D02*
G75*
G03*
X109606000Y-97357440I-100000J0D01*
G01*
D15*
%TO.C,C2*%
X108166280Y-104937440D02*
X103926280Y-104937440D01*
X108166280Y-104937440D02*
X108166280Y-115177440D01*
X103926280Y-104937440D02*
X103926280Y-115177440D01*
X108166280Y-115177440D02*
X103926280Y-115177440D01*
%TO.C,C5*%
X145388301Y-53540440D02*
X145388301Y-57040440D01*
X147138301Y-55290440D02*
X143638301Y-55290440D01*
X153093301Y-72394442D02*
X117933301Y-72394442D01*
X153093301Y-72434442D02*
X117933301Y-72434442D01*
X153093301Y-72474442D02*
X117933301Y-72474442D01*
X153093301Y-72514442D02*
X117933301Y-72514442D01*
X153093301Y-72554442D02*
X117933301Y-72554442D01*
X153092301Y-72594442D02*
X117934301Y-72594442D01*
X153092301Y-72634442D02*
X117934301Y-72634442D01*
X153091301Y-72674442D02*
X117935301Y-72674442D01*
X153091301Y-72714442D02*
X117935301Y-72714442D01*
X153090301Y-72754442D02*
X117936301Y-72754442D01*
X153089301Y-72794442D02*
X117937301Y-72794442D01*
X153088301Y-72834442D02*
X117938301Y-72834442D01*
X153087301Y-72874442D02*
X117939301Y-72874442D01*
X153086301Y-72914442D02*
X117940301Y-72914442D01*
X153085301Y-72954442D02*
X117941301Y-72954442D01*
X153083301Y-72994442D02*
X117943301Y-72994442D01*
X153082301Y-73034442D02*
X117944301Y-73034442D01*
X153080301Y-73074442D02*
X117946301Y-73074442D01*
X153079301Y-73115442D02*
X117947301Y-73115442D01*
X153077301Y-73155442D02*
X117949301Y-73155442D01*
X153075301Y-73195442D02*
X117951301Y-73195442D01*
X153073301Y-73235442D02*
X117953301Y-73235442D01*
X153072301Y-73275442D02*
X117954301Y-73275442D01*
X153069301Y-73315442D02*
X117957301Y-73315442D01*
X153067301Y-73355442D02*
X117959301Y-73355442D01*
X153065301Y-73395442D02*
X117961301Y-73395442D01*
X153063301Y-73435442D02*
X117963301Y-73435442D01*
X153060301Y-73475442D02*
X117966301Y-73475442D01*
X153058301Y-73515442D02*
X117968301Y-73515442D01*
X153055301Y-73555442D02*
X117971301Y-73555442D01*
X153053301Y-73595442D02*
X117973301Y-73595442D01*
X153050301Y-73635442D02*
X117976301Y-73635442D01*
X153047301Y-73675442D02*
X117979301Y-73675442D01*
X153044301Y-73715442D02*
X117982301Y-73715442D01*
X153041301Y-73755442D02*
X117985301Y-73755442D01*
X153038301Y-73795442D02*
X117988301Y-73795442D01*
X153035301Y-73835442D02*
X117991301Y-73835442D01*
X153031301Y-73875442D02*
X117995301Y-73875442D01*
X153028301Y-73915442D02*
X117998301Y-73915442D01*
X153024301Y-73955442D02*
X118002301Y-73955442D01*
X153021301Y-73995442D02*
X118005301Y-73995442D01*
X153017301Y-74035442D02*
X118009301Y-74035442D01*
X153013301Y-74075442D02*
X118013301Y-74075442D01*
X153009301Y-74115442D02*
X118017301Y-74115442D01*
X153005301Y-74155442D02*
X118021301Y-74155442D01*
X153001301Y-74195442D02*
X118025301Y-74195442D01*
X152997301Y-74235442D02*
X118029301Y-74235442D01*
X152993301Y-74275442D02*
X118033301Y-74275442D01*
X152989301Y-74315442D02*
X118037301Y-74315442D01*
X152984301Y-74355442D02*
X118042301Y-74355442D01*
X152980301Y-74395442D02*
X118046301Y-74395442D01*
X152975301Y-74435442D02*
X118051301Y-74435442D01*
X152970301Y-74475442D02*
X118056301Y-74475442D01*
X152965301Y-74515442D02*
X118061301Y-74515442D01*
X152961301Y-74555442D02*
X118065301Y-74555442D01*
X152956301Y-74595442D02*
X118070301Y-74595442D01*
X152951301Y-74635442D02*
X118075301Y-74635442D01*
X152945301Y-74675442D02*
X118081301Y-74675442D01*
X152940301Y-74715442D02*
X118086301Y-74715442D01*
X152935301Y-74755442D02*
X118091301Y-74755442D01*
X152929301Y-74795442D02*
X118097301Y-74795442D01*
X152924301Y-74835442D02*
X118102301Y-74835442D01*
X152918301Y-74875442D02*
X118108301Y-74875442D01*
X152912301Y-74915442D02*
X118114301Y-74915442D01*
X152907301Y-74955442D02*
X118119301Y-74955442D01*
X152901301Y-74995442D02*
X118125301Y-74995442D01*
X152895301Y-75035442D02*
X118131301Y-75035442D01*
X152888301Y-75075442D02*
X118138301Y-75075442D01*
X152882301Y-75115442D02*
X118144301Y-75115442D01*
X152876301Y-75155442D02*
X137753301Y-75155442D01*
X133273301Y-75155442D02*
X118150301Y-75155442D01*
X152870301Y-75195442D02*
X137753301Y-75195442D01*
X133273301Y-75195442D02*
X118156301Y-75195442D01*
X152863301Y-75235442D02*
X137753301Y-75235442D01*
X133273301Y-75235442D02*
X118163301Y-75235442D01*
X152857301Y-75275442D02*
X137753301Y-75275442D01*
X133273301Y-75275442D02*
X118169301Y-75275442D01*
X152850301Y-75315442D02*
X137753301Y-75315442D01*
X133273301Y-75315442D02*
X118176301Y-75315442D01*
X152843301Y-75355442D02*
X137753301Y-75355442D01*
X133273301Y-75355442D02*
X118183301Y-75355442D01*
X152836301Y-75395442D02*
X137753301Y-75395442D01*
X133273301Y-75395442D02*
X118190301Y-75395442D01*
X152829301Y-75435442D02*
X137753301Y-75435442D01*
X133273301Y-75435442D02*
X118197301Y-75435442D01*
X152822301Y-75475442D02*
X137753301Y-75475442D01*
X133273301Y-75475442D02*
X118204301Y-75475442D01*
X152815301Y-75515442D02*
X137753301Y-75515442D01*
X133273301Y-75515442D02*
X118211301Y-75515442D01*
X152808301Y-75555442D02*
X137753301Y-75555442D01*
X133273301Y-75555442D02*
X118218301Y-75555442D01*
X152800301Y-75595442D02*
X137753301Y-75595442D01*
X133273301Y-75595442D02*
X118226301Y-75595442D01*
X152793301Y-75635442D02*
X137753301Y-75635442D01*
X133273301Y-75635442D02*
X118233301Y-75635442D01*
X152786301Y-75675442D02*
X137753301Y-75675442D01*
X133273301Y-75675442D02*
X118240301Y-75675442D01*
X152778301Y-75715442D02*
X137753301Y-75715442D01*
X133273301Y-75715442D02*
X118248301Y-75715442D01*
X152770301Y-75755442D02*
X137753301Y-75755442D01*
X133273301Y-75755442D02*
X118256301Y-75755442D01*
X152762301Y-75795442D02*
X137753301Y-75795442D01*
X133273301Y-75795442D02*
X118264301Y-75795442D01*
X152754301Y-75835442D02*
X137753301Y-75835442D01*
X133273301Y-75835442D02*
X118272301Y-75835442D01*
X152746301Y-75875442D02*
X137753301Y-75875442D01*
X133273301Y-75875442D02*
X118280301Y-75875442D01*
X152738301Y-75915442D02*
X137753301Y-75915442D01*
X133273301Y-75915442D02*
X118288301Y-75915442D01*
X152730301Y-75955442D02*
X137753301Y-75955442D01*
X133273301Y-75955442D02*
X118296301Y-75955442D01*
X152722301Y-75995442D02*
X137753301Y-75995442D01*
X133273301Y-75995442D02*
X118304301Y-75995442D01*
X152713301Y-76035442D02*
X137753301Y-76035442D01*
X133273301Y-76035442D02*
X118313301Y-76035442D01*
X152705301Y-76075442D02*
X137753301Y-76075442D01*
X133273301Y-76075442D02*
X118321301Y-76075442D01*
X152696301Y-76115442D02*
X137753301Y-76115442D01*
X133273301Y-76115442D02*
X118330301Y-76115442D01*
X152688301Y-76155442D02*
X137753301Y-76155442D01*
X133273301Y-76155442D02*
X118338301Y-76155442D01*
X152679301Y-76195442D02*
X137753301Y-76195442D01*
X133273301Y-76195442D02*
X118347301Y-76195442D01*
X152670301Y-76235442D02*
X137753301Y-76235442D01*
X133273301Y-76235442D02*
X118356301Y-76235442D01*
X152661301Y-76275442D02*
X137753301Y-76275442D01*
X133273301Y-76275442D02*
X118365301Y-76275442D01*
X152652301Y-76315442D02*
X137753301Y-76315442D01*
X133273301Y-76315442D02*
X118374301Y-76315442D01*
X152643301Y-76355442D02*
X137753301Y-76355442D01*
X133273301Y-76355442D02*
X118383301Y-76355442D01*
X152633301Y-76395442D02*
X137753301Y-76395442D01*
X133273301Y-76395442D02*
X118393301Y-76395442D01*
X152624301Y-76435442D02*
X137753301Y-76435442D01*
X133273301Y-76435442D02*
X118402301Y-76435442D01*
X152615301Y-76475442D02*
X137753301Y-76475442D01*
X133273301Y-76475442D02*
X118411301Y-76475442D01*
X152605301Y-76515442D02*
X137753301Y-76515442D01*
X133273301Y-76515442D02*
X118421301Y-76515442D01*
X152595301Y-76555442D02*
X137753301Y-76555442D01*
X133273301Y-76555442D02*
X118431301Y-76555442D01*
X152586301Y-76595442D02*
X137753301Y-76595442D01*
X133273301Y-76595442D02*
X118440301Y-76595442D01*
X152576301Y-76635442D02*
X137753301Y-76635442D01*
X133273301Y-76635442D02*
X118450301Y-76635442D01*
X152566301Y-76675442D02*
X137753301Y-76675442D01*
X133273301Y-76675442D02*
X118460301Y-76675442D01*
X152556301Y-76715442D02*
X137753301Y-76715442D01*
X133273301Y-76715442D02*
X118470301Y-76715442D01*
X152546301Y-76755442D02*
X137753301Y-76755442D01*
X133273301Y-76755442D02*
X118480301Y-76755442D01*
X152535301Y-76795442D02*
X137753301Y-76795442D01*
X133273301Y-76795442D02*
X118491301Y-76795442D01*
X152525301Y-76835442D02*
X137753301Y-76835442D01*
X133273301Y-76835442D02*
X118501301Y-76835442D01*
X152514301Y-76875442D02*
X137753301Y-76875442D01*
X133273301Y-76875442D02*
X118512301Y-76875442D01*
X152504301Y-76915442D02*
X137753301Y-76915442D01*
X133273301Y-76915442D02*
X118522301Y-76915442D01*
X152493301Y-76955442D02*
X137753301Y-76955442D01*
X133273301Y-76955442D02*
X118533301Y-76955442D01*
X152482301Y-76995442D02*
X137753301Y-76995442D01*
X133273301Y-76995442D02*
X118544301Y-76995442D01*
X152472301Y-77035442D02*
X137753301Y-77035442D01*
X133273301Y-77035442D02*
X118554301Y-77035442D01*
X152461301Y-77075442D02*
X137753301Y-77075442D01*
X133273301Y-77075442D02*
X118565301Y-77075442D01*
X152450301Y-77115442D02*
X137753301Y-77115442D01*
X133273301Y-77115442D02*
X118576301Y-77115442D01*
X152438301Y-77155442D02*
X137753301Y-77155442D01*
X133273301Y-77155442D02*
X118588301Y-77155442D01*
X152427301Y-77195442D02*
X137753301Y-77195442D01*
X133273301Y-77195442D02*
X118599301Y-77195442D01*
X152416301Y-77235442D02*
X137753301Y-77235442D01*
X133273301Y-77235442D02*
X118610301Y-77235442D01*
X152404301Y-77275442D02*
X137753301Y-77275442D01*
X133273301Y-77275442D02*
X118622301Y-77275442D01*
X152393301Y-77315442D02*
X137753301Y-77315442D01*
X133273301Y-77315442D02*
X118633301Y-77315442D01*
X152381301Y-77355442D02*
X137753301Y-77355442D01*
X133273301Y-77355442D02*
X118645301Y-77355442D01*
X152369301Y-77395442D02*
X137753301Y-77395442D01*
X133273301Y-77395442D02*
X118657301Y-77395442D01*
X152357301Y-77435442D02*
X137753301Y-77435442D01*
X133273301Y-77435442D02*
X118669301Y-77435442D01*
X152345301Y-77475442D02*
X137753301Y-77475442D01*
X133273301Y-77475442D02*
X118681301Y-77475442D01*
X152333301Y-77515442D02*
X137753301Y-77515442D01*
X133273301Y-77515442D02*
X118693301Y-77515442D01*
X152321301Y-77555442D02*
X137753301Y-77555442D01*
X133273301Y-77555442D02*
X118705301Y-77555442D01*
X152309301Y-77595442D02*
X137753301Y-77595442D01*
X133273301Y-77595442D02*
X118717301Y-77595442D01*
X152296301Y-77635442D02*
X137753301Y-77635442D01*
X133273301Y-77635442D02*
X118730301Y-77635442D01*
X152284301Y-77675442D02*
X137753301Y-77675442D01*
X133273301Y-77675442D02*
X118742301Y-77675442D01*
X152271301Y-77715442D02*
X137753301Y-77715442D01*
X133273301Y-77715442D02*
X118755301Y-77715442D01*
X152258301Y-77755442D02*
X137753301Y-77755442D01*
X133273301Y-77755442D02*
X118768301Y-77755442D01*
X152246301Y-77795442D02*
X137753301Y-77795442D01*
X133273301Y-77795442D02*
X118780301Y-77795442D01*
X152233301Y-77835442D02*
X137753301Y-77835442D01*
X133273301Y-77835442D02*
X118793301Y-77835442D01*
X152220301Y-77875442D02*
X137753301Y-77875442D01*
X133273301Y-77875442D02*
X118806301Y-77875442D01*
X152207301Y-77915442D02*
X137753301Y-77915442D01*
X133273301Y-77915442D02*
X118819301Y-77915442D01*
X152193301Y-77955442D02*
X137753301Y-77955442D01*
X133273301Y-77955442D02*
X118833301Y-77955442D01*
X152180301Y-77995442D02*
X137753301Y-77995442D01*
X133273301Y-77995442D02*
X118846301Y-77995442D01*
X152166301Y-78035442D02*
X137753301Y-78035442D01*
X133273301Y-78035442D02*
X118860301Y-78035442D01*
X152153301Y-78075442D02*
X137753301Y-78075442D01*
X133273301Y-78075442D02*
X118873301Y-78075442D01*
X152139301Y-78115442D02*
X137753301Y-78115442D01*
X133273301Y-78115442D02*
X118887301Y-78115442D01*
X152125301Y-78155442D02*
X137753301Y-78155442D01*
X133273301Y-78155442D02*
X118901301Y-78155442D01*
X152112301Y-78195442D02*
X137753301Y-78195442D01*
X133273301Y-78195442D02*
X118914301Y-78195442D01*
X152098301Y-78235442D02*
X137753301Y-78235442D01*
X133273301Y-78235442D02*
X118928301Y-78235442D01*
X152083301Y-78275442D02*
X137753301Y-78275442D01*
X133273301Y-78275442D02*
X118943301Y-78275442D01*
X152069301Y-78315442D02*
X137753301Y-78315442D01*
X133273301Y-78315442D02*
X118957301Y-78315442D01*
X152055301Y-78355442D02*
X137753301Y-78355442D01*
X133273301Y-78355442D02*
X118971301Y-78355442D01*
X152040301Y-78395442D02*
X137753301Y-78395442D01*
X133273301Y-78395442D02*
X118986301Y-78395442D01*
X152026301Y-78435442D02*
X137753301Y-78435442D01*
X133273301Y-78435442D02*
X119000301Y-78435442D01*
X152011301Y-78475442D02*
X137753301Y-78475442D01*
X133273301Y-78475442D02*
X119015301Y-78475442D01*
X151997301Y-78515442D02*
X137753301Y-78515442D01*
X133273301Y-78515442D02*
X119029301Y-78515442D01*
X151982301Y-78555442D02*
X137753301Y-78555442D01*
X133273301Y-78555442D02*
X119044301Y-78555442D01*
X151967301Y-78595442D02*
X137753301Y-78595442D01*
X133273301Y-78595442D02*
X119059301Y-78595442D01*
X151952301Y-78635442D02*
X137753301Y-78635442D01*
X133273301Y-78635442D02*
X119074301Y-78635442D01*
X151936301Y-78675442D02*
X137753301Y-78675442D01*
X133273301Y-78675442D02*
X119090301Y-78675442D01*
X151921301Y-78715442D02*
X137753301Y-78715442D01*
X133273301Y-78715442D02*
X119105301Y-78715442D01*
X151906301Y-78755442D02*
X137753301Y-78755442D01*
X133273301Y-78755442D02*
X119120301Y-78755442D01*
X151890301Y-78795442D02*
X137753301Y-78795442D01*
X133273301Y-78795442D02*
X119136301Y-78795442D01*
X151874301Y-78835442D02*
X137753301Y-78835442D01*
X133273301Y-78835442D02*
X119152301Y-78835442D01*
X151859301Y-78875442D02*
X137753301Y-78875442D01*
X133273301Y-78875442D02*
X119167301Y-78875442D01*
X151843301Y-78915442D02*
X137753301Y-78915442D01*
X133273301Y-78915442D02*
X119183301Y-78915442D01*
X151827301Y-78955442D02*
X137753301Y-78955442D01*
X133273301Y-78955442D02*
X119199301Y-78955442D01*
X151811301Y-78995442D02*
X137753301Y-78995442D01*
X133273301Y-78995442D02*
X119215301Y-78995442D01*
X151794301Y-79035442D02*
X137753301Y-79035442D01*
X133273301Y-79035442D02*
X119232301Y-79035442D01*
X151778301Y-79075442D02*
X137753301Y-79075442D01*
X133273301Y-79075442D02*
X119248301Y-79075442D01*
X151762301Y-79115442D02*
X137753301Y-79115442D01*
X133273301Y-79115442D02*
X119264301Y-79115442D01*
X151745301Y-79155442D02*
X137753301Y-79155442D01*
X133273301Y-79155442D02*
X119281301Y-79155442D01*
X151728301Y-79195442D02*
X137753301Y-79195442D01*
X133273301Y-79195442D02*
X119298301Y-79195442D01*
X151712301Y-79235442D02*
X137753301Y-79235442D01*
X133273301Y-79235442D02*
X119314301Y-79235442D01*
X151695301Y-79275442D02*
X137753301Y-79275442D01*
X133273301Y-79275442D02*
X119331301Y-79275442D01*
X151678301Y-79315442D02*
X137753301Y-79315442D01*
X133273301Y-79315442D02*
X119348301Y-79315442D01*
X151661301Y-79355442D02*
X137753301Y-79355442D01*
X133273301Y-79355442D02*
X119365301Y-79355442D01*
X151643301Y-79395442D02*
X137753301Y-79395442D01*
X133273301Y-79395442D02*
X119383301Y-79395442D01*
X151626301Y-79435442D02*
X137753301Y-79435442D01*
X133273301Y-79435442D02*
X119400301Y-79435442D01*
X151608301Y-79475442D02*
X137753301Y-79475442D01*
X133273301Y-79475442D02*
X119418301Y-79475442D01*
X151591301Y-79515442D02*
X137753301Y-79515442D01*
X133273301Y-79515442D02*
X119435301Y-79515442D01*
X151573301Y-79555442D02*
X137753301Y-79555442D01*
X133273301Y-79555442D02*
X119453301Y-79555442D01*
X151555301Y-79595442D02*
X137753301Y-79595442D01*
X133273301Y-79595442D02*
X119471301Y-79595442D01*
X151537301Y-79635442D02*
X119489301Y-79635442D01*
X151519301Y-79675442D02*
X119507301Y-79675442D01*
X151501301Y-79715442D02*
X119525301Y-79715442D01*
X151483301Y-79755442D02*
X119543301Y-79755442D01*
X151464301Y-79795442D02*
X119562301Y-79795442D01*
X151446301Y-79835442D02*
X119580301Y-79835442D01*
X151427301Y-79875442D02*
X119599301Y-79875442D01*
X151408301Y-79915442D02*
X119618301Y-79915442D01*
X151389301Y-79955442D02*
X119637301Y-79955442D01*
X151370301Y-79995442D02*
X119656301Y-79995442D01*
X151351301Y-80035442D02*
X119675301Y-80035442D01*
X151332301Y-80075442D02*
X119694301Y-80075442D01*
X151312301Y-80115442D02*
X119714301Y-80115442D01*
X151293301Y-80155442D02*
X119733301Y-80155442D01*
X151273301Y-80195442D02*
X119753301Y-80195442D01*
X151253301Y-80235442D02*
X119773301Y-80235442D01*
X151233301Y-80275442D02*
X119793301Y-80275442D01*
X151213301Y-80315442D02*
X119813301Y-80315442D01*
X151193301Y-80355442D02*
X119833301Y-80355442D01*
X151173301Y-80395442D02*
X119853301Y-80395442D01*
X151152301Y-80435442D02*
X119874301Y-80435442D01*
X151132301Y-80475442D02*
X119894301Y-80475442D01*
X151111301Y-80515442D02*
X119915301Y-80515442D01*
X151090301Y-80555442D02*
X119936301Y-80555442D01*
X151069301Y-80594442D02*
X119957301Y-80594442D01*
X151048301Y-80634442D02*
X119978301Y-80634442D01*
X151027301Y-80674442D02*
X119999301Y-80674442D01*
X151005301Y-80714442D02*
X120021301Y-80714442D01*
X150984301Y-80754442D02*
X120042301Y-80754442D01*
X150962301Y-80794442D02*
X120064301Y-80794442D01*
X150941301Y-80834442D02*
X120085301Y-80834442D01*
X150919301Y-80874442D02*
X120107301Y-80874442D01*
X150897301Y-80914442D02*
X120129301Y-80914442D01*
X150874301Y-80954442D02*
X120152301Y-80954442D01*
X150852301Y-80994442D02*
X120174301Y-80994442D01*
X150830301Y-81034442D02*
X120196301Y-81034442D01*
X150807301Y-81074442D02*
X120219301Y-81074442D01*
X150784301Y-81114442D02*
X120242301Y-81114442D01*
X150762301Y-81154442D02*
X120264301Y-81154442D01*
X150739301Y-81194442D02*
X120287301Y-81194442D01*
X150716301Y-81234442D02*
X120310301Y-81234442D01*
X150692301Y-81274442D02*
X120334301Y-81274442D01*
X150669301Y-81314442D02*
X120357301Y-81314442D01*
X150645301Y-81354442D02*
X120381301Y-81354442D01*
X150622301Y-81394442D02*
X120404301Y-81394442D01*
X150598301Y-81434442D02*
X120428301Y-81434442D01*
X150574301Y-81474442D02*
X120452301Y-81474442D01*
X150550301Y-81514442D02*
X120476301Y-81514442D01*
X150525301Y-81554442D02*
X120501301Y-81554442D01*
X150501301Y-81594442D02*
X120525301Y-81594442D01*
X150476301Y-81634442D02*
X120550301Y-81634442D01*
X150452301Y-81674442D02*
X120574301Y-81674442D01*
X150427301Y-81714442D02*
X120599301Y-81714442D01*
X150402301Y-81754442D02*
X120624301Y-81754442D01*
X150377301Y-81794442D02*
X120649301Y-81794442D01*
X150351301Y-81834442D02*
X120675301Y-81834442D01*
X150326301Y-81874442D02*
X120700301Y-81874442D01*
X150300301Y-81914442D02*
X120726301Y-81914442D01*
X150275301Y-81954442D02*
X120751301Y-81954442D01*
X150249301Y-81994442D02*
X120777301Y-81994442D01*
X150223301Y-82034442D02*
X120803301Y-82034442D01*
X150196301Y-82074442D02*
X120830301Y-82074442D01*
X150170301Y-82114442D02*
X120856301Y-82114442D01*
X150143301Y-82154442D02*
X120883301Y-82154442D01*
X150117301Y-82194442D02*
X120909301Y-82194442D01*
X150090301Y-82234442D02*
X120936301Y-82234442D01*
X150063301Y-82274442D02*
X120963301Y-82274442D01*
X150036301Y-82314442D02*
X120990301Y-82314442D01*
X150008301Y-82354442D02*
X121018301Y-82354442D01*
X149981301Y-82394442D02*
X121045301Y-82394442D01*
X149953301Y-82434442D02*
X121073301Y-82434442D01*
X149925301Y-82474442D02*
X121101301Y-82474442D01*
X149897301Y-82514442D02*
X121129301Y-82514442D01*
X149869301Y-82554442D02*
X121157301Y-82554442D01*
X149841301Y-82594442D02*
X121185301Y-82594442D01*
X149812301Y-82634442D02*
X121214301Y-82634442D01*
X149784301Y-82674442D02*
X121242301Y-82674442D01*
X149755301Y-82714442D02*
X121271301Y-82714442D01*
X149726301Y-82754442D02*
X121300301Y-82754442D01*
X149697301Y-82794442D02*
X121329301Y-82794442D01*
X149668301Y-82834442D02*
X121358301Y-82834442D01*
X149638301Y-82874442D02*
X121388301Y-82874442D01*
X149608301Y-82914442D02*
X121418301Y-82914442D01*
X149578301Y-82954442D02*
X121448301Y-82954442D01*
X149548301Y-82994442D02*
X121478301Y-82994442D01*
X149518301Y-83034442D02*
X121508301Y-83034442D01*
X149488301Y-83074442D02*
X121538301Y-83074442D01*
X149457301Y-83114442D02*
X121569301Y-83114442D01*
X149427301Y-83154442D02*
X121599301Y-83154442D01*
X149396301Y-83194442D02*
X121630301Y-83194442D01*
X149364301Y-83234442D02*
X121662301Y-83234442D01*
X149333301Y-83274442D02*
X121693301Y-83274442D01*
X149302301Y-83314442D02*
X121724301Y-83314442D01*
X149270301Y-83354442D02*
X121756301Y-83354442D01*
X149238301Y-83394442D02*
X121788301Y-83394442D01*
X149206301Y-83434442D02*
X121820301Y-83434442D01*
X149174301Y-83474442D02*
X121852301Y-83474442D01*
X149141301Y-83514442D02*
X121885301Y-83514442D01*
X149109301Y-83554442D02*
X121917301Y-83554442D01*
X149076301Y-83594442D02*
X121950301Y-83594442D01*
X149043301Y-83634442D02*
X121983301Y-83634442D01*
X149010301Y-83674442D02*
X122016301Y-83674442D01*
X148976301Y-83714442D02*
X122050301Y-83714442D01*
X148943301Y-83754442D02*
X122083301Y-83754442D01*
X148909301Y-83794442D02*
X122117301Y-83794442D01*
X148875301Y-83834442D02*
X122151301Y-83834442D01*
X148840301Y-83874442D02*
X122186301Y-83874442D01*
X148806301Y-83914442D02*
X122220301Y-83914442D01*
X148771301Y-83954442D02*
X122255301Y-83954442D01*
X148736301Y-83994442D02*
X122290301Y-83994442D01*
X148701301Y-84034442D02*
X122325301Y-84034442D01*
X148666301Y-84074442D02*
X122360301Y-84074442D01*
X148630301Y-84114442D02*
X122396301Y-84114442D01*
X148595301Y-84154442D02*
X122431301Y-84154442D01*
X148559301Y-84194442D02*
X122467301Y-84194442D01*
X148523301Y-84234442D02*
X122503301Y-84234442D01*
X148486301Y-84274442D02*
X122540301Y-84274442D01*
X148450301Y-84314442D02*
X122576301Y-84314442D01*
X148413301Y-84354442D02*
X122613301Y-84354442D01*
X148376301Y-84394442D02*
X122650301Y-84394442D01*
X148338301Y-84434442D02*
X122688301Y-84434442D01*
X148301301Y-84474442D02*
X122725301Y-84474442D01*
X148263301Y-84514442D02*
X122763301Y-84514442D01*
X148225301Y-84554442D02*
X122801301Y-84554442D01*
X148187301Y-84594442D02*
X122839301Y-84594442D01*
X148148301Y-84634442D02*
X122878301Y-84634442D01*
X148109301Y-84674442D02*
X122917301Y-84674442D01*
X148070301Y-84714442D02*
X122956301Y-84714442D01*
X148031301Y-84754442D02*
X122995301Y-84754442D01*
X147992301Y-84794442D02*
X123034301Y-84794442D01*
X147952301Y-84834442D02*
X123074301Y-84834442D01*
X147912301Y-84874442D02*
X123114301Y-84874442D01*
X147872301Y-84914442D02*
X123154301Y-84914442D01*
X147831301Y-84954442D02*
X123195301Y-84954442D01*
X147790301Y-84994442D02*
X123236301Y-84994442D01*
X147749301Y-85034442D02*
X123277301Y-85034442D01*
X147708301Y-85074442D02*
X123318301Y-85074442D01*
X147666301Y-85114442D02*
X123360301Y-85114442D01*
X147624301Y-85154442D02*
X123402301Y-85154442D01*
X147582301Y-85194442D02*
X123444301Y-85194442D01*
X147540301Y-85234442D02*
X123486301Y-85234442D01*
X147497301Y-85274442D02*
X123529301Y-85274442D01*
X147454301Y-85314442D02*
X123572301Y-85314442D01*
X147411301Y-85354442D02*
X123615301Y-85354442D01*
X147367301Y-85394442D02*
X123659301Y-85394442D01*
X147324301Y-85434442D02*
X123702301Y-85434442D01*
X147279301Y-85474442D02*
X123747301Y-85474442D01*
X147235301Y-85514442D02*
X123791301Y-85514442D01*
X147190301Y-85554442D02*
X123836301Y-85554442D01*
X147145301Y-85594442D02*
X123881301Y-85594442D01*
X147100301Y-85634442D02*
X123926301Y-85634442D01*
X147054301Y-85674442D02*
X123972301Y-85674442D01*
X147008301Y-85714442D02*
X124018301Y-85714442D01*
X146962301Y-85754442D02*
X124064301Y-85754442D01*
X146915301Y-85794442D02*
X124111301Y-85794442D01*
X146868301Y-85834442D02*
X124158301Y-85834442D01*
X146820301Y-85874442D02*
X124206301Y-85874442D01*
X146773301Y-85914442D02*
X124253301Y-85914442D01*
X146725301Y-85954442D02*
X124301301Y-85954442D01*
X146676301Y-85994442D02*
X124350301Y-85994442D01*
X146628301Y-86034442D02*
X124398301Y-86034442D01*
X146579301Y-86074442D02*
X124447301Y-86074442D01*
X146529301Y-86114442D02*
X124497301Y-86114442D01*
X146479301Y-86154442D02*
X124547301Y-86154442D01*
X146429301Y-86194442D02*
X124597301Y-86194442D01*
X146378301Y-86234442D02*
X124648301Y-86234442D01*
X146328301Y-86274442D02*
X124698301Y-86274442D01*
X146276301Y-86314442D02*
X124750301Y-86314442D01*
X146224301Y-86354442D02*
X124802301Y-86354442D01*
X146172301Y-86394442D02*
X124854301Y-86394442D01*
X146120301Y-86434442D02*
X124906301Y-86434442D01*
X146067301Y-86474442D02*
X124959301Y-86474442D01*
X146013301Y-86514442D02*
X125013301Y-86514442D01*
X145960301Y-86554442D02*
X125066301Y-86554442D01*
X145905301Y-86594442D02*
X125121301Y-86594442D01*
X145851301Y-86634442D02*
X125175301Y-86634442D01*
X145796301Y-86674442D02*
X125230301Y-86674442D01*
X145740301Y-86714442D02*
X125286301Y-86714442D01*
X145684301Y-86754442D02*
X125342301Y-86754442D01*
X145628301Y-86794442D02*
X125398301Y-86794442D01*
X145571301Y-86834442D02*
X125455301Y-86834442D01*
X145513301Y-86874442D02*
X125513301Y-86874442D01*
X145455301Y-86914442D02*
X125571301Y-86914442D01*
X145397301Y-86954442D02*
X125629301Y-86954442D01*
X145338301Y-86994442D02*
X125688301Y-86994442D01*
X145278301Y-87034442D02*
X125748301Y-87034442D01*
X145218301Y-87074442D02*
X125808301Y-87074442D01*
X145158301Y-87114442D02*
X125868301Y-87114442D01*
X145097301Y-87154442D02*
X125929301Y-87154442D01*
X145035301Y-87194442D02*
X125991301Y-87194442D01*
X144973301Y-87234442D02*
X126053301Y-87234442D01*
X144910301Y-87274442D02*
X126116301Y-87274442D01*
X144847301Y-87314442D02*
X126179301Y-87314442D01*
X144783301Y-87354442D02*
X126243301Y-87354442D01*
X144718301Y-87394442D02*
X126308301Y-87394442D01*
X144653301Y-87434442D02*
X126373301Y-87434442D01*
X144587301Y-87474442D02*
X126439301Y-87474442D01*
X144521301Y-87514442D02*
X126505301Y-87514442D01*
X144453301Y-87554442D02*
X126573301Y-87554442D01*
X144386301Y-87594442D02*
X126640301Y-87594442D01*
X144317301Y-87634442D02*
X126709301Y-87634442D01*
X144248301Y-87674442D02*
X126778301Y-87674442D01*
X144178301Y-87714442D02*
X126848301Y-87714442D01*
X144107301Y-87754442D02*
X126919301Y-87754442D01*
X144035301Y-87794442D02*
X126991301Y-87794442D01*
X143963301Y-87834442D02*
X127063301Y-87834442D01*
X143890301Y-87874442D02*
X127136301Y-87874442D01*
X143816301Y-87914442D02*
X127210301Y-87914442D01*
X143741301Y-87954442D02*
X127285301Y-87954442D01*
X143665301Y-87994442D02*
X127361301Y-87994442D01*
X143589301Y-88034442D02*
X127437301Y-88034442D01*
X143511301Y-88074442D02*
X127515301Y-88074442D01*
X143433301Y-88114442D02*
X127593301Y-88114442D01*
X143353301Y-88154442D02*
X127673301Y-88154442D01*
X143272301Y-88194442D02*
X127754301Y-88194442D01*
X143191301Y-88234442D02*
X127835301Y-88234442D01*
X143108301Y-88274442D02*
X127918301Y-88274442D01*
X143025301Y-88314442D02*
X128001301Y-88314442D01*
X142940301Y-88354442D02*
X128086301Y-88354442D01*
X142854301Y-88394442D02*
X128172301Y-88394442D01*
X142766301Y-88434442D02*
X128260301Y-88434442D01*
X142678301Y-88474442D02*
X128348301Y-88474442D01*
X142588301Y-88514442D02*
X128438301Y-88514442D01*
X142496301Y-88554442D02*
X128530301Y-88554442D01*
X142403301Y-88594442D02*
X128623301Y-88594442D01*
X142309301Y-88634442D02*
X128717301Y-88634442D01*
X142213301Y-88674442D02*
X128813301Y-88674442D01*
X142116301Y-88714442D02*
X128910301Y-88714442D01*
X142017301Y-88754442D02*
X129009301Y-88754442D01*
X141916301Y-88794442D02*
X129110301Y-88794442D01*
X141813301Y-88834442D02*
X129213301Y-88834442D01*
X141708301Y-88874442D02*
X129318301Y-88874442D01*
X141602301Y-88914442D02*
X129424301Y-88914442D01*
X141493301Y-88954442D02*
X129533301Y-88954442D01*
X141381301Y-88994442D02*
X129645301Y-88994442D01*
X141268301Y-89034442D02*
X129758301Y-89034442D01*
X141152301Y-89074442D02*
X129874301Y-89074442D01*
X141033301Y-89114442D02*
X129993301Y-89114442D01*
X140911301Y-89154442D02*
X130115301Y-89154442D01*
X140786301Y-89194442D02*
X130240301Y-89194442D01*
X140658301Y-89234442D02*
X130368301Y-89234442D01*
X140526301Y-89274442D02*
X130500301Y-89274442D01*
X140391301Y-89314442D02*
X130635301Y-89314442D01*
X140251301Y-89354442D02*
X130775301Y-89354442D01*
X140106301Y-89394442D02*
X130920301Y-89394442D01*
X139957301Y-89434442D02*
X131069301Y-89434442D01*
X139802301Y-89474442D02*
X131224301Y-89474442D01*
X139641301Y-89514442D02*
X131385301Y-89514442D01*
X139473301Y-89554442D02*
X131553301Y-89554442D01*
X139298301Y-89594442D02*
X131728301Y-89594442D01*
X139113301Y-89634442D02*
X131913301Y-89634442D01*
X138918301Y-89674442D02*
X132108301Y-89674442D01*
X138711301Y-89714442D02*
X132315301Y-89714442D01*
X138489301Y-89754442D02*
X132537301Y-89754442D01*
X138249301Y-89794442D02*
X132777301Y-89794442D01*
X137986301Y-89834442D02*
X133040301Y-89834442D01*
X137690301Y-89874442D02*
X133336301Y-89874442D01*
X137348301Y-89914442D02*
X133678301Y-89914442D01*
X136926301Y-89954442D02*
X134100301Y-89954442D01*
X136313301Y-89994442D02*
X134713301Y-89994442D01*
X153133301Y-72394442D02*
G75*
G03*
X153133301Y-72394442I-17620000J0D01*
G01*
%TO.C,J1-3*%
X99023180Y-102108000D02*
X99427040Y-102108000D01*
X101997520Y-102108000D02*
X102401380Y-102108000D01*
X102401380Y-102108000D02*
X102401380Y-95504000D01*
X99023180Y-95504000D02*
X99023180Y-102108000D01*
X99442280Y-95504000D02*
X99023180Y-95504000D01*
X102401380Y-95504000D02*
X101982280Y-95504000D01*
%TO.C,C9*%
X145063581Y-41092000D02*
X145063581Y-49332000D01*
X145063581Y-41092000D02*
X163303581Y-41092000D01*
X145063581Y-49332000D02*
X163303581Y-49332000D01*
X163303581Y-41092000D02*
X163303581Y-49332000D01*
%TO.C,J1-4*%
X99023180Y-124714000D02*
X99427040Y-124714000D01*
X101997520Y-124714000D02*
X102401380Y-124714000D01*
X102401380Y-124714000D02*
X102401380Y-118110000D01*
X99023180Y-118110000D02*
X99023180Y-124714000D01*
X99442280Y-118110000D02*
X99023180Y-118110000D01*
X102401380Y-118110000D02*
X101982280Y-118110000D01*
%TO.C,J2-2'1*%
X197612000Y-96685100D02*
X197612000Y-96281240D01*
X197612000Y-93710760D02*
X197612000Y-93306900D01*
X197612000Y-93306900D02*
X191008000Y-93306900D01*
X191008000Y-96685100D02*
X197612000Y-96685100D01*
X191008000Y-96266000D02*
X191008000Y-96685100D01*
X191008000Y-93306900D02*
X191008000Y-93726000D01*
%TO.C,C1*%
X108166280Y-66704941D02*
X103926280Y-66704941D01*
X108166280Y-66704941D02*
X108166280Y-76944941D01*
X103926280Y-66704941D02*
X103926280Y-76944941D01*
X108166280Y-76944941D02*
X103926280Y-76944941D01*
%TO.C,J1-1*%
X99023180Y-64008000D02*
X99427040Y-64008000D01*
X101997520Y-64008000D02*
X102401380Y-64008000D01*
X102401380Y-64008000D02*
X102401380Y-57404000D01*
X99023180Y-57404000D02*
X99023180Y-64008000D01*
X99442280Y-57404000D02*
X99023180Y-57404000D01*
X102401380Y-57404000D02*
X101982280Y-57404000D01*
%TO.C,C8*%
X182472301Y-91678939D02*
X182472301Y-95178939D01*
X184222301Y-93428939D02*
X180722301Y-93428939D01*
X190177301Y-110532941D02*
X155017301Y-110532941D01*
X190177301Y-110572941D02*
X155017301Y-110572941D01*
X190177301Y-110612941D02*
X155017301Y-110612941D01*
X190177301Y-110652941D02*
X155017301Y-110652941D01*
X190177301Y-110692941D02*
X155017301Y-110692941D01*
X190176301Y-110732941D02*
X155018301Y-110732941D01*
X190176301Y-110772941D02*
X155018301Y-110772941D01*
X190175301Y-110812941D02*
X155019301Y-110812941D01*
X190175301Y-110852941D02*
X155019301Y-110852941D01*
X190174301Y-110892941D02*
X155020301Y-110892941D01*
X190173301Y-110932941D02*
X155021301Y-110932941D01*
X190172301Y-110972941D02*
X155022301Y-110972941D01*
X190171301Y-111012941D02*
X155023301Y-111012941D01*
X190170301Y-111052941D02*
X155024301Y-111052941D01*
X190169301Y-111092941D02*
X155025301Y-111092941D01*
X190167301Y-111132941D02*
X155027301Y-111132941D01*
X190166301Y-111172941D02*
X155028301Y-111172941D01*
X190164301Y-111212941D02*
X155030301Y-111212941D01*
X190163301Y-111253941D02*
X155031301Y-111253941D01*
X190161301Y-111293941D02*
X155033301Y-111293941D01*
X190159301Y-111333941D02*
X155035301Y-111333941D01*
X190157301Y-111373941D02*
X155037301Y-111373941D01*
X190156301Y-111413941D02*
X155038301Y-111413941D01*
X190153301Y-111453941D02*
X155041301Y-111453941D01*
X190151301Y-111493941D02*
X155043301Y-111493941D01*
X190149301Y-111533941D02*
X155045301Y-111533941D01*
X190147301Y-111573941D02*
X155047301Y-111573941D01*
X190144301Y-111613941D02*
X155050301Y-111613941D01*
X190142301Y-111653941D02*
X155052301Y-111653941D01*
X190139301Y-111693941D02*
X155055301Y-111693941D01*
X190137301Y-111733941D02*
X155057301Y-111733941D01*
X190134301Y-111773941D02*
X155060301Y-111773941D01*
X190131301Y-111813941D02*
X155063301Y-111813941D01*
X190128301Y-111853941D02*
X155066301Y-111853941D01*
X190125301Y-111893941D02*
X155069301Y-111893941D01*
X190122301Y-111933941D02*
X155072301Y-111933941D01*
X190119301Y-111973941D02*
X155075301Y-111973941D01*
X190115301Y-112013941D02*
X155079301Y-112013941D01*
X190112301Y-112053941D02*
X155082301Y-112053941D01*
X190108301Y-112093941D02*
X155086301Y-112093941D01*
X190105301Y-112133941D02*
X155089301Y-112133941D01*
X190101301Y-112173941D02*
X155093301Y-112173941D01*
X190097301Y-112213941D02*
X155097301Y-112213941D01*
X190093301Y-112253941D02*
X155101301Y-112253941D01*
X190089301Y-112293941D02*
X155105301Y-112293941D01*
X190085301Y-112333941D02*
X155109301Y-112333941D01*
X190081301Y-112373941D02*
X155113301Y-112373941D01*
X190077301Y-112413941D02*
X155117301Y-112413941D01*
X190073301Y-112453941D02*
X155121301Y-112453941D01*
X190068301Y-112493941D02*
X155126301Y-112493941D01*
X190064301Y-112533941D02*
X155130301Y-112533941D01*
X190059301Y-112573941D02*
X155135301Y-112573941D01*
X190054301Y-112613941D02*
X155140301Y-112613941D01*
X190049301Y-112653941D02*
X155145301Y-112653941D01*
X190045301Y-112693941D02*
X155149301Y-112693941D01*
X190040301Y-112733941D02*
X155154301Y-112733941D01*
X190035301Y-112773941D02*
X155159301Y-112773941D01*
X190029301Y-112813941D02*
X155165301Y-112813941D01*
X190024301Y-112853941D02*
X155170301Y-112853941D01*
X190019301Y-112893941D02*
X155175301Y-112893941D01*
X190013301Y-112933941D02*
X155181301Y-112933941D01*
X190008301Y-112973941D02*
X155186301Y-112973941D01*
X190002301Y-113013941D02*
X155192301Y-113013941D01*
X189996301Y-113053941D02*
X155198301Y-113053941D01*
X189991301Y-113093941D02*
X155203301Y-113093941D01*
X189985301Y-113133941D02*
X155209301Y-113133941D01*
X189979301Y-113173941D02*
X155215301Y-113173941D01*
X189972301Y-113213941D02*
X155222301Y-113213941D01*
X189966301Y-113253941D02*
X155228301Y-113253941D01*
X189960301Y-113293941D02*
X174837301Y-113293941D01*
X170357301Y-113293941D02*
X155234301Y-113293941D01*
X189954301Y-113333941D02*
X174837301Y-113333941D01*
X170357301Y-113333941D02*
X155240301Y-113333941D01*
X189947301Y-113373941D02*
X174837301Y-113373941D01*
X170357301Y-113373941D02*
X155247301Y-113373941D01*
X189941301Y-113413941D02*
X174837301Y-113413941D01*
X170357301Y-113413941D02*
X155253301Y-113413941D01*
X189934301Y-113453941D02*
X174837301Y-113453941D01*
X170357301Y-113453941D02*
X155260301Y-113453941D01*
X189927301Y-113493941D02*
X174837301Y-113493941D01*
X170357301Y-113493941D02*
X155267301Y-113493941D01*
X189920301Y-113533941D02*
X174837301Y-113533941D01*
X170357301Y-113533941D02*
X155274301Y-113533941D01*
X189913301Y-113573941D02*
X174837301Y-113573941D01*
X170357301Y-113573941D02*
X155281301Y-113573941D01*
X189906301Y-113613941D02*
X174837301Y-113613941D01*
X170357301Y-113613941D02*
X155288301Y-113613941D01*
X189899301Y-113653941D02*
X174837301Y-113653941D01*
X170357301Y-113653941D02*
X155295301Y-113653941D01*
X189892301Y-113693941D02*
X174837301Y-113693941D01*
X170357301Y-113693941D02*
X155302301Y-113693941D01*
X189884301Y-113733941D02*
X174837301Y-113733941D01*
X170357301Y-113733941D02*
X155310301Y-113733941D01*
X189877301Y-113773941D02*
X174837301Y-113773941D01*
X170357301Y-113773941D02*
X155317301Y-113773941D01*
X189870301Y-113813941D02*
X174837301Y-113813941D01*
X170357301Y-113813941D02*
X155324301Y-113813941D01*
X189862301Y-113853941D02*
X174837301Y-113853941D01*
X170357301Y-113853941D02*
X155332301Y-113853941D01*
X189854301Y-113893941D02*
X174837301Y-113893941D01*
X170357301Y-113893941D02*
X155340301Y-113893941D01*
X189846301Y-113933941D02*
X174837301Y-113933941D01*
X170357301Y-113933941D02*
X155348301Y-113933941D01*
X189838301Y-113973941D02*
X174837301Y-113973941D01*
X170357301Y-113973941D02*
X155356301Y-113973941D01*
X189830301Y-114013941D02*
X174837301Y-114013941D01*
X170357301Y-114013941D02*
X155364301Y-114013941D01*
X189822301Y-114053941D02*
X174837301Y-114053941D01*
X170357301Y-114053941D02*
X155372301Y-114053941D01*
X189814301Y-114093941D02*
X174837301Y-114093941D01*
X170357301Y-114093941D02*
X155380301Y-114093941D01*
X189806301Y-114133941D02*
X174837301Y-114133941D01*
X170357301Y-114133941D02*
X155388301Y-114133941D01*
X189797301Y-114173941D02*
X174837301Y-114173941D01*
X170357301Y-114173941D02*
X155397301Y-114173941D01*
X189789301Y-114213941D02*
X174837301Y-114213941D01*
X170357301Y-114213941D02*
X155405301Y-114213941D01*
X189780301Y-114253941D02*
X174837301Y-114253941D01*
X170357301Y-114253941D02*
X155414301Y-114253941D01*
X189772301Y-114293941D02*
X174837301Y-114293941D01*
X170357301Y-114293941D02*
X155422301Y-114293941D01*
X189763301Y-114333941D02*
X174837301Y-114333941D01*
X170357301Y-114333941D02*
X155431301Y-114333941D01*
X189754301Y-114373941D02*
X174837301Y-114373941D01*
X170357301Y-114373941D02*
X155440301Y-114373941D01*
X189745301Y-114413941D02*
X174837301Y-114413941D01*
X170357301Y-114413941D02*
X155449301Y-114413941D01*
X189736301Y-114453941D02*
X174837301Y-114453941D01*
X170357301Y-114453941D02*
X155458301Y-114453941D01*
X189727301Y-114493941D02*
X174837301Y-114493941D01*
X170357301Y-114493941D02*
X155467301Y-114493941D01*
X189717301Y-114533941D02*
X174837301Y-114533941D01*
X170357301Y-114533941D02*
X155477301Y-114533941D01*
X189708301Y-114573941D02*
X174837301Y-114573941D01*
X170357301Y-114573941D02*
X155486301Y-114573941D01*
X189699301Y-114613941D02*
X174837301Y-114613941D01*
X170357301Y-114613941D02*
X155495301Y-114613941D01*
X189689301Y-114653941D02*
X174837301Y-114653941D01*
X170357301Y-114653941D02*
X155505301Y-114653941D01*
X189679301Y-114693941D02*
X174837301Y-114693941D01*
X170357301Y-114693941D02*
X155515301Y-114693941D01*
X189670301Y-114733941D02*
X174837301Y-114733941D01*
X170357301Y-114733941D02*
X155524301Y-114733941D01*
X189660301Y-114773941D02*
X174837301Y-114773941D01*
X170357301Y-114773941D02*
X155534301Y-114773941D01*
X189650301Y-114813941D02*
X174837301Y-114813941D01*
X170357301Y-114813941D02*
X155544301Y-114813941D01*
X189640301Y-114853941D02*
X174837301Y-114853941D01*
X170357301Y-114853941D02*
X155554301Y-114853941D01*
X189630301Y-114893941D02*
X174837301Y-114893941D01*
X170357301Y-114893941D02*
X155564301Y-114893941D01*
X189619301Y-114933941D02*
X174837301Y-114933941D01*
X170357301Y-114933941D02*
X155575301Y-114933941D01*
X189609301Y-114973941D02*
X174837301Y-114973941D01*
X170357301Y-114973941D02*
X155585301Y-114973941D01*
X189598301Y-115013941D02*
X174837301Y-115013941D01*
X170357301Y-115013941D02*
X155596301Y-115013941D01*
X189588301Y-115053941D02*
X174837301Y-115053941D01*
X170357301Y-115053941D02*
X155606301Y-115053941D01*
X189577301Y-115093941D02*
X174837301Y-115093941D01*
X170357301Y-115093941D02*
X155617301Y-115093941D01*
X189566301Y-115133941D02*
X174837301Y-115133941D01*
X170357301Y-115133941D02*
X155628301Y-115133941D01*
X189556301Y-115173941D02*
X174837301Y-115173941D01*
X170357301Y-115173941D02*
X155638301Y-115173941D01*
X189545301Y-115213941D02*
X174837301Y-115213941D01*
X170357301Y-115213941D02*
X155649301Y-115213941D01*
X189534301Y-115253941D02*
X174837301Y-115253941D01*
X170357301Y-115253941D02*
X155660301Y-115253941D01*
X189522301Y-115293941D02*
X174837301Y-115293941D01*
X170357301Y-115293941D02*
X155672301Y-115293941D01*
X189511301Y-115333941D02*
X174837301Y-115333941D01*
X170357301Y-115333941D02*
X155683301Y-115333941D01*
X189500301Y-115373941D02*
X174837301Y-115373941D01*
X170357301Y-115373941D02*
X155694301Y-115373941D01*
X189488301Y-115413941D02*
X174837301Y-115413941D01*
X170357301Y-115413941D02*
X155706301Y-115413941D01*
X189477301Y-115453941D02*
X174837301Y-115453941D01*
X170357301Y-115453941D02*
X155717301Y-115453941D01*
X189465301Y-115493941D02*
X174837301Y-115493941D01*
X170357301Y-115493941D02*
X155729301Y-115493941D01*
X189453301Y-115533941D02*
X174837301Y-115533941D01*
X170357301Y-115533941D02*
X155741301Y-115533941D01*
X189441301Y-115573941D02*
X174837301Y-115573941D01*
X170357301Y-115573941D02*
X155753301Y-115573941D01*
X189429301Y-115613941D02*
X174837301Y-115613941D01*
X170357301Y-115613941D02*
X155765301Y-115613941D01*
X189417301Y-115653941D02*
X174837301Y-115653941D01*
X170357301Y-115653941D02*
X155777301Y-115653941D01*
X189405301Y-115693941D02*
X174837301Y-115693941D01*
X170357301Y-115693941D02*
X155789301Y-115693941D01*
X189393301Y-115733941D02*
X174837301Y-115733941D01*
X170357301Y-115733941D02*
X155801301Y-115733941D01*
X189380301Y-115773941D02*
X174837301Y-115773941D01*
X170357301Y-115773941D02*
X155814301Y-115773941D01*
X189368301Y-115813941D02*
X174837301Y-115813941D01*
X170357301Y-115813941D02*
X155826301Y-115813941D01*
X189355301Y-115853941D02*
X174837301Y-115853941D01*
X170357301Y-115853941D02*
X155839301Y-115853941D01*
X189342301Y-115893941D02*
X174837301Y-115893941D01*
X170357301Y-115893941D02*
X155852301Y-115893941D01*
X189330301Y-115933941D02*
X174837301Y-115933941D01*
X170357301Y-115933941D02*
X155864301Y-115933941D01*
X189317301Y-115973941D02*
X174837301Y-115973941D01*
X170357301Y-115973941D02*
X155877301Y-115973941D01*
X189304301Y-116013941D02*
X174837301Y-116013941D01*
X170357301Y-116013941D02*
X155890301Y-116013941D01*
X189291301Y-116053941D02*
X174837301Y-116053941D01*
X170357301Y-116053941D02*
X155903301Y-116053941D01*
X189277301Y-116093941D02*
X174837301Y-116093941D01*
X170357301Y-116093941D02*
X155917301Y-116093941D01*
X189264301Y-116133941D02*
X174837301Y-116133941D01*
X170357301Y-116133941D02*
X155930301Y-116133941D01*
X189250301Y-116173941D02*
X174837301Y-116173941D01*
X170357301Y-116173941D02*
X155944301Y-116173941D01*
X189237301Y-116213941D02*
X174837301Y-116213941D01*
X170357301Y-116213941D02*
X155957301Y-116213941D01*
X189223301Y-116253941D02*
X174837301Y-116253941D01*
X170357301Y-116253941D02*
X155971301Y-116253941D01*
X189209301Y-116293941D02*
X174837301Y-116293941D01*
X170357301Y-116293941D02*
X155985301Y-116293941D01*
X189196301Y-116333941D02*
X174837301Y-116333941D01*
X170357301Y-116333941D02*
X155998301Y-116333941D01*
X189182301Y-116373941D02*
X174837301Y-116373941D01*
X170357301Y-116373941D02*
X156012301Y-116373941D01*
X189167301Y-116413941D02*
X174837301Y-116413941D01*
X170357301Y-116413941D02*
X156027301Y-116413941D01*
X189153301Y-116453941D02*
X174837301Y-116453941D01*
X170357301Y-116453941D02*
X156041301Y-116453941D01*
X189139301Y-116493941D02*
X174837301Y-116493941D01*
X170357301Y-116493941D02*
X156055301Y-116493941D01*
X189124301Y-116533941D02*
X174837301Y-116533941D01*
X170357301Y-116533941D02*
X156070301Y-116533941D01*
X189110301Y-116573941D02*
X174837301Y-116573941D01*
X170357301Y-116573941D02*
X156084301Y-116573941D01*
X189095301Y-116613941D02*
X174837301Y-116613941D01*
X170357301Y-116613941D02*
X156099301Y-116613941D01*
X189081301Y-116653941D02*
X174837301Y-116653941D01*
X170357301Y-116653941D02*
X156113301Y-116653941D01*
X189066301Y-116693941D02*
X174837301Y-116693941D01*
X170357301Y-116693941D02*
X156128301Y-116693941D01*
X189051301Y-116733941D02*
X174837301Y-116733941D01*
X170357301Y-116733941D02*
X156143301Y-116733941D01*
X189036301Y-116773941D02*
X174837301Y-116773941D01*
X170357301Y-116773941D02*
X156158301Y-116773941D01*
X189020301Y-116813941D02*
X174837301Y-116813941D01*
X170357301Y-116813941D02*
X156174301Y-116813941D01*
X189005301Y-116853941D02*
X174837301Y-116853941D01*
X170357301Y-116853941D02*
X156189301Y-116853941D01*
X188990301Y-116893941D02*
X174837301Y-116893941D01*
X170357301Y-116893941D02*
X156204301Y-116893941D01*
X188974301Y-116933941D02*
X174837301Y-116933941D01*
X170357301Y-116933941D02*
X156220301Y-116933941D01*
X188958301Y-116973941D02*
X174837301Y-116973941D01*
X170357301Y-116973941D02*
X156236301Y-116973941D01*
X188943301Y-117013941D02*
X174837301Y-117013941D01*
X170357301Y-117013941D02*
X156251301Y-117013941D01*
X188927301Y-117053941D02*
X174837301Y-117053941D01*
X170357301Y-117053941D02*
X156267301Y-117053941D01*
X188911301Y-117093941D02*
X174837301Y-117093941D01*
X170357301Y-117093941D02*
X156283301Y-117093941D01*
X188895301Y-117133941D02*
X174837301Y-117133941D01*
X170357301Y-117133941D02*
X156299301Y-117133941D01*
X188878301Y-117173941D02*
X174837301Y-117173941D01*
X170357301Y-117173941D02*
X156316301Y-117173941D01*
X188862301Y-117213941D02*
X174837301Y-117213941D01*
X170357301Y-117213941D02*
X156332301Y-117213941D01*
X188846301Y-117253941D02*
X174837301Y-117253941D01*
X170357301Y-117253941D02*
X156348301Y-117253941D01*
X188829301Y-117293941D02*
X174837301Y-117293941D01*
X170357301Y-117293941D02*
X156365301Y-117293941D01*
X188812301Y-117333941D02*
X174837301Y-117333941D01*
X170357301Y-117333941D02*
X156382301Y-117333941D01*
X188796301Y-117373941D02*
X174837301Y-117373941D01*
X170357301Y-117373941D02*
X156398301Y-117373941D01*
X188779301Y-117413941D02*
X174837301Y-117413941D01*
X170357301Y-117413941D02*
X156415301Y-117413941D01*
X188762301Y-117453941D02*
X174837301Y-117453941D01*
X170357301Y-117453941D02*
X156432301Y-117453941D01*
X188745301Y-117493941D02*
X174837301Y-117493941D01*
X170357301Y-117493941D02*
X156449301Y-117493941D01*
X188727301Y-117533941D02*
X174837301Y-117533941D01*
X170357301Y-117533941D02*
X156467301Y-117533941D01*
X188710301Y-117573941D02*
X174837301Y-117573941D01*
X170357301Y-117573941D02*
X156484301Y-117573941D01*
X188692301Y-117613941D02*
X174837301Y-117613941D01*
X170357301Y-117613941D02*
X156502301Y-117613941D01*
X188675301Y-117653941D02*
X174837301Y-117653941D01*
X170357301Y-117653941D02*
X156519301Y-117653941D01*
X188657301Y-117693941D02*
X174837301Y-117693941D01*
X170357301Y-117693941D02*
X156537301Y-117693941D01*
X188639301Y-117733941D02*
X174837301Y-117733941D01*
X170357301Y-117733941D02*
X156555301Y-117733941D01*
X188621301Y-117773941D02*
X156573301Y-117773941D01*
X188603301Y-117813941D02*
X156591301Y-117813941D01*
X188585301Y-117853941D02*
X156609301Y-117853941D01*
X188567301Y-117893941D02*
X156627301Y-117893941D01*
X188548301Y-117933941D02*
X156646301Y-117933941D01*
X188530301Y-117973941D02*
X156664301Y-117973941D01*
X188511301Y-118013941D02*
X156683301Y-118013941D01*
X188492301Y-118053941D02*
X156702301Y-118053941D01*
X188473301Y-118093941D02*
X156721301Y-118093941D01*
X188454301Y-118133941D02*
X156740301Y-118133941D01*
X188435301Y-118173941D02*
X156759301Y-118173941D01*
X188416301Y-118213941D02*
X156778301Y-118213941D01*
X188396301Y-118253941D02*
X156798301Y-118253941D01*
X188377301Y-118293941D02*
X156817301Y-118293941D01*
X188357301Y-118333941D02*
X156837301Y-118333941D01*
X188337301Y-118373941D02*
X156857301Y-118373941D01*
X188317301Y-118413941D02*
X156877301Y-118413941D01*
X188297301Y-118453941D02*
X156897301Y-118453941D01*
X188277301Y-118493941D02*
X156917301Y-118493941D01*
X188257301Y-118533941D02*
X156937301Y-118533941D01*
X188236301Y-118573941D02*
X156958301Y-118573941D01*
X188216301Y-118613941D02*
X156978301Y-118613941D01*
X188195301Y-118653941D02*
X156999301Y-118653941D01*
X188174301Y-118693941D02*
X157020301Y-118693941D01*
X188153301Y-118732941D02*
X157041301Y-118732941D01*
X188132301Y-118772941D02*
X157062301Y-118772941D01*
X188111301Y-118812941D02*
X157083301Y-118812941D01*
X188089301Y-118852941D02*
X157105301Y-118852941D01*
X188068301Y-118892941D02*
X157126301Y-118892941D01*
X188046301Y-118932941D02*
X157148301Y-118932941D01*
X188025301Y-118972941D02*
X157169301Y-118972941D01*
X188003301Y-119012941D02*
X157191301Y-119012941D01*
X187981301Y-119052941D02*
X157213301Y-119052941D01*
X187958301Y-119092941D02*
X157236301Y-119092941D01*
X187936301Y-119132941D02*
X157258301Y-119132941D01*
X187914301Y-119172941D02*
X157280301Y-119172941D01*
X187891301Y-119212941D02*
X157303301Y-119212941D01*
X187868301Y-119252941D02*
X157326301Y-119252941D01*
X187846301Y-119292941D02*
X157348301Y-119292941D01*
X187823301Y-119332941D02*
X157371301Y-119332941D01*
X187800301Y-119372941D02*
X157394301Y-119372941D01*
X187776301Y-119412941D02*
X157418301Y-119412941D01*
X187753301Y-119452941D02*
X157441301Y-119452941D01*
X187729301Y-119492941D02*
X157465301Y-119492941D01*
X187706301Y-119532941D02*
X157488301Y-119532941D01*
X187682301Y-119572941D02*
X157512301Y-119572941D01*
X187658301Y-119612941D02*
X157536301Y-119612941D01*
X187634301Y-119652941D02*
X157560301Y-119652941D01*
X187609301Y-119692941D02*
X157585301Y-119692941D01*
X187585301Y-119732941D02*
X157609301Y-119732941D01*
X187560301Y-119772941D02*
X157634301Y-119772941D01*
X187536301Y-119812941D02*
X157658301Y-119812941D01*
X187511301Y-119852941D02*
X157683301Y-119852941D01*
X187486301Y-119892941D02*
X157708301Y-119892941D01*
X187461301Y-119932941D02*
X157733301Y-119932941D01*
X187435301Y-119972941D02*
X157759301Y-119972941D01*
X187410301Y-120012941D02*
X157784301Y-120012941D01*
X187384301Y-120052941D02*
X157810301Y-120052941D01*
X187359301Y-120092941D02*
X157835301Y-120092941D01*
X187333301Y-120132941D02*
X157861301Y-120132941D01*
X187307301Y-120172941D02*
X157887301Y-120172941D01*
X187280301Y-120212941D02*
X157914301Y-120212941D01*
X187254301Y-120252941D02*
X157940301Y-120252941D01*
X187227301Y-120292941D02*
X157967301Y-120292941D01*
X187201301Y-120332941D02*
X157993301Y-120332941D01*
X187174301Y-120372941D02*
X158020301Y-120372941D01*
X187147301Y-120412941D02*
X158047301Y-120412941D01*
X187120301Y-120452941D02*
X158074301Y-120452941D01*
X187092301Y-120492941D02*
X158102301Y-120492941D01*
X187065301Y-120532941D02*
X158129301Y-120532941D01*
X187037301Y-120572941D02*
X158157301Y-120572941D01*
X187009301Y-120612941D02*
X158185301Y-120612941D01*
X186981301Y-120652941D02*
X158213301Y-120652941D01*
X186953301Y-120692941D02*
X158241301Y-120692941D01*
X186925301Y-120732941D02*
X158269301Y-120732941D01*
X186896301Y-120772941D02*
X158298301Y-120772941D01*
X186868301Y-120812941D02*
X158326301Y-120812941D01*
X186839301Y-120852941D02*
X158355301Y-120852941D01*
X186810301Y-120892941D02*
X158384301Y-120892941D01*
X186781301Y-120932941D02*
X158413301Y-120932941D01*
X186752301Y-120972941D02*
X158442301Y-120972941D01*
X186722301Y-121012941D02*
X158472301Y-121012941D01*
X186692301Y-121052941D02*
X158502301Y-121052941D01*
X186662301Y-121092941D02*
X158532301Y-121092941D01*
X186632301Y-121132941D02*
X158562301Y-121132941D01*
X186602301Y-121172941D02*
X158592301Y-121172941D01*
X186572301Y-121212941D02*
X158622301Y-121212941D01*
X186541301Y-121252941D02*
X158653301Y-121252941D01*
X186511301Y-121292941D02*
X158683301Y-121292941D01*
X186480301Y-121332941D02*
X158714301Y-121332941D01*
X186448301Y-121372941D02*
X158746301Y-121372941D01*
X186417301Y-121412941D02*
X158777301Y-121412941D01*
X186386301Y-121452941D02*
X158808301Y-121452941D01*
X186354301Y-121492941D02*
X158840301Y-121492941D01*
X186322301Y-121532941D02*
X158872301Y-121532941D01*
X186290301Y-121572941D02*
X158904301Y-121572941D01*
X186258301Y-121612941D02*
X158936301Y-121612941D01*
X186225301Y-121652941D02*
X158969301Y-121652941D01*
X186193301Y-121692941D02*
X159001301Y-121692941D01*
X186160301Y-121732941D02*
X159034301Y-121732941D01*
X186127301Y-121772941D02*
X159067301Y-121772941D01*
X186094301Y-121812941D02*
X159100301Y-121812941D01*
X186060301Y-121852941D02*
X159134301Y-121852941D01*
X186027301Y-121892941D02*
X159167301Y-121892941D01*
X185993301Y-121932941D02*
X159201301Y-121932941D01*
X185959301Y-121972941D02*
X159235301Y-121972941D01*
X185924301Y-122012941D02*
X159270301Y-122012941D01*
X185890301Y-122052941D02*
X159304301Y-122052941D01*
X185855301Y-122092941D02*
X159339301Y-122092941D01*
X185820301Y-122132941D02*
X159374301Y-122132941D01*
X185785301Y-122172941D02*
X159409301Y-122172941D01*
X185750301Y-122212941D02*
X159444301Y-122212941D01*
X185714301Y-122252941D02*
X159480301Y-122252941D01*
X185679301Y-122292941D02*
X159515301Y-122292941D01*
X185643301Y-122332941D02*
X159551301Y-122332941D01*
X185607301Y-122372941D02*
X159587301Y-122372941D01*
X185570301Y-122412941D02*
X159624301Y-122412941D01*
X185534301Y-122452941D02*
X159660301Y-122452941D01*
X185497301Y-122492941D02*
X159697301Y-122492941D01*
X185460301Y-122532941D02*
X159734301Y-122532941D01*
X185422301Y-122572941D02*
X159772301Y-122572941D01*
X185385301Y-122612941D02*
X159809301Y-122612941D01*
X185347301Y-122652941D02*
X159847301Y-122652941D01*
X185309301Y-122692941D02*
X159885301Y-122692941D01*
X185271301Y-122732941D02*
X159923301Y-122732941D01*
X185232301Y-122772941D02*
X159962301Y-122772941D01*
X185193301Y-122812941D02*
X160001301Y-122812941D01*
X185154301Y-122852941D02*
X160040301Y-122852941D01*
X185115301Y-122892941D02*
X160079301Y-122892941D01*
X185076301Y-122932941D02*
X160118301Y-122932941D01*
X185036301Y-122972941D02*
X160158301Y-122972941D01*
X184996301Y-123012941D02*
X160198301Y-123012941D01*
X184956301Y-123052941D02*
X160238301Y-123052941D01*
X184915301Y-123092941D02*
X160279301Y-123092941D01*
X184874301Y-123132941D02*
X160320301Y-123132941D01*
X184833301Y-123172941D02*
X160361301Y-123172941D01*
X184792301Y-123212941D02*
X160402301Y-123212941D01*
X184750301Y-123252941D02*
X160444301Y-123252941D01*
X184708301Y-123292941D02*
X160486301Y-123292941D01*
X184666301Y-123332941D02*
X160528301Y-123332941D01*
X184624301Y-123372941D02*
X160570301Y-123372941D01*
X184581301Y-123412941D02*
X160613301Y-123412941D01*
X184538301Y-123452941D02*
X160656301Y-123452941D01*
X184495301Y-123492941D02*
X160699301Y-123492941D01*
X184451301Y-123532941D02*
X160743301Y-123532941D01*
X184408301Y-123572941D02*
X160786301Y-123572941D01*
X184363301Y-123612941D02*
X160831301Y-123612941D01*
X184319301Y-123652941D02*
X160875301Y-123652941D01*
X184274301Y-123692941D02*
X160920301Y-123692941D01*
X184229301Y-123732941D02*
X160965301Y-123732941D01*
X184184301Y-123772941D02*
X161010301Y-123772941D01*
X184138301Y-123812941D02*
X161056301Y-123812941D01*
X184092301Y-123852941D02*
X161102301Y-123852941D01*
X184046301Y-123892941D02*
X161148301Y-123892941D01*
X183999301Y-123932941D02*
X161195301Y-123932941D01*
X183952301Y-123972941D02*
X161242301Y-123972941D01*
X183904301Y-124012941D02*
X161290301Y-124012941D01*
X183857301Y-124052941D02*
X161337301Y-124052941D01*
X183809301Y-124092941D02*
X161385301Y-124092941D01*
X183760301Y-124132941D02*
X161434301Y-124132941D01*
X183712301Y-124172941D02*
X161482301Y-124172941D01*
X183663301Y-124212941D02*
X161531301Y-124212941D01*
X183613301Y-124252941D02*
X161581301Y-124252941D01*
X183563301Y-124292941D02*
X161631301Y-124292941D01*
X183513301Y-124332941D02*
X161681301Y-124332941D01*
X183462301Y-124372941D02*
X161732301Y-124372941D01*
X183412301Y-124412941D02*
X161782301Y-124412941D01*
X183360301Y-124452941D02*
X161834301Y-124452941D01*
X183308301Y-124492941D02*
X161886301Y-124492941D01*
X183256301Y-124532941D02*
X161938301Y-124532941D01*
X183204301Y-124572941D02*
X161990301Y-124572941D01*
X183151301Y-124612941D02*
X162043301Y-124612941D01*
X183097301Y-124652941D02*
X162097301Y-124652941D01*
X183044301Y-124692941D02*
X162150301Y-124692941D01*
X182989301Y-124732941D02*
X162205301Y-124732941D01*
X182935301Y-124772941D02*
X162259301Y-124772941D01*
X182880301Y-124812941D02*
X162314301Y-124812941D01*
X182824301Y-124852941D02*
X162370301Y-124852941D01*
X182768301Y-124892941D02*
X162426301Y-124892941D01*
X182712301Y-124932941D02*
X162482301Y-124932941D01*
X182655301Y-124972941D02*
X162539301Y-124972941D01*
X182597301Y-125012941D02*
X162597301Y-125012941D01*
X182539301Y-125052941D02*
X162655301Y-125052941D01*
X182481301Y-125092941D02*
X162713301Y-125092941D01*
X182422301Y-125132941D02*
X162772301Y-125132941D01*
X182362301Y-125172941D02*
X162832301Y-125172941D01*
X182302301Y-125212941D02*
X162892301Y-125212941D01*
X182242301Y-125252941D02*
X162952301Y-125252941D01*
X182181301Y-125292941D02*
X163013301Y-125292941D01*
X182119301Y-125332941D02*
X163075301Y-125332941D01*
X182057301Y-125372941D02*
X163137301Y-125372941D01*
X181994301Y-125412941D02*
X163200301Y-125412941D01*
X181931301Y-125452941D02*
X163263301Y-125452941D01*
X181867301Y-125492941D02*
X163327301Y-125492941D01*
X181802301Y-125532941D02*
X163392301Y-125532941D01*
X181737301Y-125572941D02*
X163457301Y-125572941D01*
X181671301Y-125612941D02*
X163523301Y-125612941D01*
X181605301Y-125652941D02*
X163589301Y-125652941D01*
X181537301Y-125692941D02*
X163657301Y-125692941D01*
X181470301Y-125732941D02*
X163724301Y-125732941D01*
X181401301Y-125772941D02*
X163793301Y-125772941D01*
X181332301Y-125812941D02*
X163862301Y-125812941D01*
X181262301Y-125852941D02*
X163932301Y-125852941D01*
X181191301Y-125892941D02*
X164003301Y-125892941D01*
X181119301Y-125932941D02*
X164075301Y-125932941D01*
X181047301Y-125972941D02*
X164147301Y-125972941D01*
X180974301Y-126012941D02*
X164220301Y-126012941D01*
X180900301Y-126052941D02*
X164294301Y-126052941D01*
X180825301Y-126092941D02*
X164369301Y-126092941D01*
X180749301Y-126132941D02*
X164445301Y-126132941D01*
X180673301Y-126172941D02*
X164521301Y-126172941D01*
X180595301Y-126212941D02*
X164599301Y-126212941D01*
X180517301Y-126252941D02*
X164677301Y-126252941D01*
X180437301Y-126292941D02*
X164757301Y-126292941D01*
X180356301Y-126332941D02*
X164838301Y-126332941D01*
X180275301Y-126372941D02*
X164919301Y-126372941D01*
X180192301Y-126412941D02*
X165002301Y-126412941D01*
X180109301Y-126452941D02*
X165085301Y-126452941D01*
X180024301Y-126492941D02*
X165170301Y-126492941D01*
X179938301Y-126532941D02*
X165256301Y-126532941D01*
X179850301Y-126572941D02*
X165344301Y-126572941D01*
X179762301Y-126612941D02*
X165432301Y-126612941D01*
X179672301Y-126652941D02*
X165522301Y-126652941D01*
X179580301Y-126692941D02*
X165614301Y-126692941D01*
X179487301Y-126732941D02*
X165707301Y-126732941D01*
X179393301Y-126772941D02*
X165801301Y-126772941D01*
X179297301Y-126812941D02*
X165897301Y-126812941D01*
X179200301Y-126852941D02*
X165994301Y-126852941D01*
X179101301Y-126892941D02*
X166093301Y-126892941D01*
X179000301Y-126932941D02*
X166194301Y-126932941D01*
X178897301Y-126972941D02*
X166297301Y-126972941D01*
X178792301Y-127012941D02*
X166402301Y-127012941D01*
X178686301Y-127052941D02*
X166508301Y-127052941D01*
X178577301Y-127092941D02*
X166617301Y-127092941D01*
X178465301Y-127132941D02*
X166729301Y-127132941D01*
X178352301Y-127172941D02*
X166842301Y-127172941D01*
X178236301Y-127212941D02*
X166958301Y-127212941D01*
X178117301Y-127252941D02*
X167077301Y-127252941D01*
X177995301Y-127292941D02*
X167199301Y-127292941D01*
X177870301Y-127332941D02*
X167324301Y-127332941D01*
X177742301Y-127372941D02*
X167452301Y-127372941D01*
X177610301Y-127412941D02*
X167584301Y-127412941D01*
X177475301Y-127452941D02*
X167719301Y-127452941D01*
X177335301Y-127492941D02*
X167859301Y-127492941D01*
X177190301Y-127532941D02*
X168004301Y-127532941D01*
X177041301Y-127572941D02*
X168153301Y-127572941D01*
X176886301Y-127612941D02*
X168308301Y-127612941D01*
X176725301Y-127652941D02*
X168469301Y-127652941D01*
X176557301Y-127692941D02*
X168637301Y-127692941D01*
X176382301Y-127732941D02*
X168812301Y-127732941D01*
X176197301Y-127772941D02*
X168997301Y-127772941D01*
X176002301Y-127812941D02*
X169192301Y-127812941D01*
X175795301Y-127852941D02*
X169399301Y-127852941D01*
X175573301Y-127892941D02*
X169621301Y-127892941D01*
X175333301Y-127932941D02*
X169861301Y-127932941D01*
X175070301Y-127972941D02*
X170124301Y-127972941D01*
X174774301Y-128012941D02*
X170420301Y-128012941D01*
X174432301Y-128052941D02*
X170762301Y-128052941D01*
X174010301Y-128092941D02*
X171184301Y-128092941D01*
X173397301Y-128132941D02*
X171797301Y-128132941D01*
X190217301Y-110532941D02*
G75*
G03*
X190217301Y-110532941I-17620000J0D01*
G01*
%TO.C,R2*%
X114578000Y-128524000D02*
X115348000Y-128524000D01*
X115348000Y-127154000D02*
X115348000Y-129894000D01*
X115348000Y-129894000D02*
X121888000Y-129894000D01*
X121888000Y-127154000D02*
X115348000Y-127154000D01*
X121888000Y-129894000D02*
X121888000Y-127154000D01*
X122658000Y-128524000D02*
X121888000Y-128524000D01*
%TO.C,R4*%
X150143581Y-128524000D02*
X150913581Y-128524000D01*
X150913581Y-127154000D02*
X150913581Y-129894000D01*
X150913581Y-129894000D02*
X157453581Y-129894000D01*
X157453581Y-127154000D02*
X150913581Y-127154000D01*
X157453581Y-129894000D02*
X157453581Y-127154000D01*
X158223581Y-128524000D02*
X157453581Y-128524000D01*
%TO.C,D4*%
X174985000Y-139294763D02*
X178075000Y-139294763D01*
X176530462Y-133744764D02*
G75*
G03*
X174985170Y-139294762I-462J-2989999D01*
G01*
X178074830Y-139294763D02*
G75*
G03*
X176529538Y-133744763I-1544830J2560000D01*
G01*
X179030000Y-136734763D02*
G75*
G03*
X179030000Y-136734763I-2500000J0D01*
G01*
%TO.C,J2-1'1*%
X197651380Y-69850000D02*
X197247520Y-69850000D01*
X194677040Y-69850000D02*
X194273180Y-69850000D01*
X194273180Y-69850000D02*
X194273180Y-76454000D01*
X197651380Y-76454000D02*
X197651380Y-69850000D01*
X197232280Y-76454000D02*
X197651380Y-76454000D01*
X194273180Y-76454000D02*
X194692280Y-76454000D01*
%TO.C,J2-2*%
X197612000Y-88049100D02*
X197612000Y-87645240D01*
X197612000Y-85074760D02*
X197612000Y-84670900D01*
X197612000Y-84670900D02*
X191008000Y-84670900D01*
X191008000Y-88049100D02*
X197612000Y-88049100D01*
X191008000Y-87630000D02*
X191008000Y-88049100D01*
X191008000Y-84670900D02*
X191008000Y-85090000D01*
%TO.C,J2-3*%
X197651380Y-105664000D02*
X197247520Y-105664000D01*
X194677040Y-105664000D02*
X194273180Y-105664000D01*
X194273180Y-105664000D02*
X194273180Y-112268000D01*
X197651380Y-112268000D02*
X197651380Y-105664000D01*
X197232280Y-112268000D02*
X197651380Y-112268000D01*
X194273180Y-112268000D02*
X194692280Y-112268000D01*
%TO.C,C4*%
X129382000Y-139349763D02*
X129382000Y-134109763D01*
X129382000Y-139349763D02*
X116142000Y-139349763D01*
X129382000Y-134109763D02*
X116142000Y-134109763D01*
X116142000Y-139349763D02*
X116142000Y-134109763D01*
D16*
%TO.C,D1*%
X114756000Y-56674941D02*
X109956000Y-56674941D01*
X109956000Y-56674941D02*
X109956000Y-86974941D01*
X114756000Y-86974941D02*
X114756000Y-56674941D01*
X109956000Y-86974941D02*
X114756000Y-86974941D01*
D14*
X109606000Y-59124941D02*
G75*
G03*
X109606000Y-59124941I-100000J0D01*
G01*
D15*
%TO.C,J1-2*%
X99023180Y-86360000D02*
X99427040Y-86360000D01*
X101997520Y-86360000D02*
X102401380Y-86360000D01*
X102401380Y-86360000D02*
X102401380Y-79756000D01*
X99023180Y-79756000D02*
X99023180Y-86360000D01*
X99442280Y-79756000D02*
X99023180Y-79756000D01*
X102401380Y-79756000D02*
X101982280Y-79756000D01*
%TO.C,R3*%
X158223581Y-53594000D02*
X157453581Y-53594000D01*
X157453581Y-54964000D02*
X157453581Y-52224000D01*
X157453581Y-52224000D02*
X150913581Y-52224000D01*
X150913581Y-54964000D02*
X157453581Y-54964000D01*
X150913581Y-52224000D02*
X150913581Y-54964000D01*
X150143581Y-53594000D02*
X150913581Y-53594000D01*
%TO.C,C6*%
X145388301Y-91772939D02*
X145388301Y-95272939D01*
X147138301Y-93522939D02*
X143638301Y-93522939D01*
X153093301Y-110626941D02*
X117933301Y-110626941D01*
X153093301Y-110666941D02*
X117933301Y-110666941D01*
X153093301Y-110706941D02*
X117933301Y-110706941D01*
X153093301Y-110746941D02*
X117933301Y-110746941D01*
X153093301Y-110786941D02*
X117933301Y-110786941D01*
X153092301Y-110826941D02*
X117934301Y-110826941D01*
X153092301Y-110866941D02*
X117934301Y-110866941D01*
X153091301Y-110906941D02*
X117935301Y-110906941D01*
X153091301Y-110946941D02*
X117935301Y-110946941D01*
X153090301Y-110986941D02*
X117936301Y-110986941D01*
X153089301Y-111026941D02*
X117937301Y-111026941D01*
X153088301Y-111066941D02*
X117938301Y-111066941D01*
X153087301Y-111106941D02*
X117939301Y-111106941D01*
X153086301Y-111146941D02*
X117940301Y-111146941D01*
X153085301Y-111186941D02*
X117941301Y-111186941D01*
X153083301Y-111226941D02*
X117943301Y-111226941D01*
X153082301Y-111266941D02*
X117944301Y-111266941D01*
X153080301Y-111306941D02*
X117946301Y-111306941D01*
X153079301Y-111347941D02*
X117947301Y-111347941D01*
X153077301Y-111387941D02*
X117949301Y-111387941D01*
X153075301Y-111427941D02*
X117951301Y-111427941D01*
X153073301Y-111467941D02*
X117953301Y-111467941D01*
X153072301Y-111507941D02*
X117954301Y-111507941D01*
X153069301Y-111547941D02*
X117957301Y-111547941D01*
X153067301Y-111587941D02*
X117959301Y-111587941D01*
X153065301Y-111627941D02*
X117961301Y-111627941D01*
X153063301Y-111667941D02*
X117963301Y-111667941D01*
X153060301Y-111707941D02*
X117966301Y-111707941D01*
X153058301Y-111747941D02*
X117968301Y-111747941D01*
X153055301Y-111787941D02*
X117971301Y-111787941D01*
X153053301Y-111827941D02*
X117973301Y-111827941D01*
X153050301Y-111867941D02*
X117976301Y-111867941D01*
X153047301Y-111907941D02*
X117979301Y-111907941D01*
X153044301Y-111947941D02*
X117982301Y-111947941D01*
X153041301Y-111987941D02*
X117985301Y-111987941D01*
X153038301Y-112027941D02*
X117988301Y-112027941D01*
X153035301Y-112067941D02*
X117991301Y-112067941D01*
X153031301Y-112107941D02*
X117995301Y-112107941D01*
X153028301Y-112147941D02*
X117998301Y-112147941D01*
X153024301Y-112187941D02*
X118002301Y-112187941D01*
X153021301Y-112227941D02*
X118005301Y-112227941D01*
X153017301Y-112267941D02*
X118009301Y-112267941D01*
X153013301Y-112307941D02*
X118013301Y-112307941D01*
X153009301Y-112347941D02*
X118017301Y-112347941D01*
X153005301Y-112387941D02*
X118021301Y-112387941D01*
X153001301Y-112427941D02*
X118025301Y-112427941D01*
X152997301Y-112467941D02*
X118029301Y-112467941D01*
X152993301Y-112507941D02*
X118033301Y-112507941D01*
X152989301Y-112547941D02*
X118037301Y-112547941D01*
X152984301Y-112587941D02*
X118042301Y-112587941D01*
X152980301Y-112627941D02*
X118046301Y-112627941D01*
X152975301Y-112667941D02*
X118051301Y-112667941D01*
X152970301Y-112707941D02*
X118056301Y-112707941D01*
X152965301Y-112747941D02*
X118061301Y-112747941D01*
X152961301Y-112787941D02*
X118065301Y-112787941D01*
X152956301Y-112827941D02*
X118070301Y-112827941D01*
X152951301Y-112867941D02*
X118075301Y-112867941D01*
X152945301Y-112907941D02*
X118081301Y-112907941D01*
X152940301Y-112947941D02*
X118086301Y-112947941D01*
X152935301Y-112987941D02*
X118091301Y-112987941D01*
X152929301Y-113027941D02*
X118097301Y-113027941D01*
X152924301Y-113067941D02*
X118102301Y-113067941D01*
X152918301Y-113107941D02*
X118108301Y-113107941D01*
X152912301Y-113147941D02*
X118114301Y-113147941D01*
X152907301Y-113187941D02*
X118119301Y-113187941D01*
X152901301Y-113227941D02*
X118125301Y-113227941D01*
X152895301Y-113267941D02*
X118131301Y-113267941D01*
X152888301Y-113307941D02*
X118138301Y-113307941D01*
X152882301Y-113347941D02*
X118144301Y-113347941D01*
X152876301Y-113387941D02*
X137753301Y-113387941D01*
X133273301Y-113387941D02*
X118150301Y-113387941D01*
X152870301Y-113427941D02*
X137753301Y-113427941D01*
X133273301Y-113427941D02*
X118156301Y-113427941D01*
X152863301Y-113467941D02*
X137753301Y-113467941D01*
X133273301Y-113467941D02*
X118163301Y-113467941D01*
X152857301Y-113507941D02*
X137753301Y-113507941D01*
X133273301Y-113507941D02*
X118169301Y-113507941D01*
X152850301Y-113547941D02*
X137753301Y-113547941D01*
X133273301Y-113547941D02*
X118176301Y-113547941D01*
X152843301Y-113587941D02*
X137753301Y-113587941D01*
X133273301Y-113587941D02*
X118183301Y-113587941D01*
X152836301Y-113627941D02*
X137753301Y-113627941D01*
X133273301Y-113627941D02*
X118190301Y-113627941D01*
X152829301Y-113667941D02*
X137753301Y-113667941D01*
X133273301Y-113667941D02*
X118197301Y-113667941D01*
X152822301Y-113707941D02*
X137753301Y-113707941D01*
X133273301Y-113707941D02*
X118204301Y-113707941D01*
X152815301Y-113747941D02*
X137753301Y-113747941D01*
X133273301Y-113747941D02*
X118211301Y-113747941D01*
X152808301Y-113787941D02*
X137753301Y-113787941D01*
X133273301Y-113787941D02*
X118218301Y-113787941D01*
X152800301Y-113827941D02*
X137753301Y-113827941D01*
X133273301Y-113827941D02*
X118226301Y-113827941D01*
X152793301Y-113867941D02*
X137753301Y-113867941D01*
X133273301Y-113867941D02*
X118233301Y-113867941D01*
X152786301Y-113907941D02*
X137753301Y-113907941D01*
X133273301Y-113907941D02*
X118240301Y-113907941D01*
X152778301Y-113947941D02*
X137753301Y-113947941D01*
X133273301Y-113947941D02*
X118248301Y-113947941D01*
X152770301Y-113987941D02*
X137753301Y-113987941D01*
X133273301Y-113987941D02*
X118256301Y-113987941D01*
X152762301Y-114027941D02*
X137753301Y-114027941D01*
X133273301Y-114027941D02*
X118264301Y-114027941D01*
X152754301Y-114067941D02*
X137753301Y-114067941D01*
X133273301Y-114067941D02*
X118272301Y-114067941D01*
X152746301Y-114107941D02*
X137753301Y-114107941D01*
X133273301Y-114107941D02*
X118280301Y-114107941D01*
X152738301Y-114147941D02*
X137753301Y-114147941D01*
X133273301Y-114147941D02*
X118288301Y-114147941D01*
X152730301Y-114187941D02*
X137753301Y-114187941D01*
X133273301Y-114187941D02*
X118296301Y-114187941D01*
X152722301Y-114227941D02*
X137753301Y-114227941D01*
X133273301Y-114227941D02*
X118304301Y-114227941D01*
X152713301Y-114267941D02*
X137753301Y-114267941D01*
X133273301Y-114267941D02*
X118313301Y-114267941D01*
X152705301Y-114307941D02*
X137753301Y-114307941D01*
X133273301Y-114307941D02*
X118321301Y-114307941D01*
X152696301Y-114347941D02*
X137753301Y-114347941D01*
X133273301Y-114347941D02*
X118330301Y-114347941D01*
X152688301Y-114387941D02*
X137753301Y-114387941D01*
X133273301Y-114387941D02*
X118338301Y-114387941D01*
X152679301Y-114427941D02*
X137753301Y-114427941D01*
X133273301Y-114427941D02*
X118347301Y-114427941D01*
X152670301Y-114467941D02*
X137753301Y-114467941D01*
X133273301Y-114467941D02*
X118356301Y-114467941D01*
X152661301Y-114507941D02*
X137753301Y-114507941D01*
X133273301Y-114507941D02*
X118365301Y-114507941D01*
X152652301Y-114547941D02*
X137753301Y-114547941D01*
X133273301Y-114547941D02*
X118374301Y-114547941D01*
X152643301Y-114587941D02*
X137753301Y-114587941D01*
X133273301Y-114587941D02*
X118383301Y-114587941D01*
X152633301Y-114627941D02*
X137753301Y-114627941D01*
X133273301Y-114627941D02*
X118393301Y-114627941D01*
X152624301Y-114667941D02*
X137753301Y-114667941D01*
X133273301Y-114667941D02*
X118402301Y-114667941D01*
X152615301Y-114707941D02*
X137753301Y-114707941D01*
X133273301Y-114707941D02*
X118411301Y-114707941D01*
X152605301Y-114747941D02*
X137753301Y-114747941D01*
X133273301Y-114747941D02*
X118421301Y-114747941D01*
X152595301Y-114787941D02*
X137753301Y-114787941D01*
X133273301Y-114787941D02*
X118431301Y-114787941D01*
X152586301Y-114827941D02*
X137753301Y-114827941D01*
X133273301Y-114827941D02*
X118440301Y-114827941D01*
X152576301Y-114867941D02*
X137753301Y-114867941D01*
X133273301Y-114867941D02*
X118450301Y-114867941D01*
X152566301Y-114907941D02*
X137753301Y-114907941D01*
X133273301Y-114907941D02*
X118460301Y-114907941D01*
X152556301Y-114947941D02*
X137753301Y-114947941D01*
X133273301Y-114947941D02*
X118470301Y-114947941D01*
X152546301Y-114987941D02*
X137753301Y-114987941D01*
X133273301Y-114987941D02*
X118480301Y-114987941D01*
X152535301Y-115027941D02*
X137753301Y-115027941D01*
X133273301Y-115027941D02*
X118491301Y-115027941D01*
X152525301Y-115067941D02*
X137753301Y-115067941D01*
X133273301Y-115067941D02*
X118501301Y-115067941D01*
X152514301Y-115107941D02*
X137753301Y-115107941D01*
X133273301Y-115107941D02*
X118512301Y-115107941D01*
X152504301Y-115147941D02*
X137753301Y-115147941D01*
X133273301Y-115147941D02*
X118522301Y-115147941D01*
X152493301Y-115187941D02*
X137753301Y-115187941D01*
X133273301Y-115187941D02*
X118533301Y-115187941D01*
X152482301Y-115227941D02*
X137753301Y-115227941D01*
X133273301Y-115227941D02*
X118544301Y-115227941D01*
X152472301Y-115267941D02*
X137753301Y-115267941D01*
X133273301Y-115267941D02*
X118554301Y-115267941D01*
X152461301Y-115307941D02*
X137753301Y-115307941D01*
X133273301Y-115307941D02*
X118565301Y-115307941D01*
X152450301Y-115347941D02*
X137753301Y-115347941D01*
X133273301Y-115347941D02*
X118576301Y-115347941D01*
X152438301Y-115387941D02*
X137753301Y-115387941D01*
X133273301Y-115387941D02*
X118588301Y-115387941D01*
X152427301Y-115427941D02*
X137753301Y-115427941D01*
X133273301Y-115427941D02*
X118599301Y-115427941D01*
X152416301Y-115467941D02*
X137753301Y-115467941D01*
X133273301Y-115467941D02*
X118610301Y-115467941D01*
X152404301Y-115507941D02*
X137753301Y-115507941D01*
X133273301Y-115507941D02*
X118622301Y-115507941D01*
X152393301Y-115547941D02*
X137753301Y-115547941D01*
X133273301Y-115547941D02*
X118633301Y-115547941D01*
X152381301Y-115587941D02*
X137753301Y-115587941D01*
X133273301Y-115587941D02*
X118645301Y-115587941D01*
X152369301Y-115627941D02*
X137753301Y-115627941D01*
X133273301Y-115627941D02*
X118657301Y-115627941D01*
X152357301Y-115667941D02*
X137753301Y-115667941D01*
X133273301Y-115667941D02*
X118669301Y-115667941D01*
X152345301Y-115707941D02*
X137753301Y-115707941D01*
X133273301Y-115707941D02*
X118681301Y-115707941D01*
X152333301Y-115747941D02*
X137753301Y-115747941D01*
X133273301Y-115747941D02*
X118693301Y-115747941D01*
X152321301Y-115787941D02*
X137753301Y-115787941D01*
X133273301Y-115787941D02*
X118705301Y-115787941D01*
X152309301Y-115827941D02*
X137753301Y-115827941D01*
X133273301Y-115827941D02*
X118717301Y-115827941D01*
X152296301Y-115867941D02*
X137753301Y-115867941D01*
X133273301Y-115867941D02*
X118730301Y-115867941D01*
X152284301Y-115907941D02*
X137753301Y-115907941D01*
X133273301Y-115907941D02*
X118742301Y-115907941D01*
X152271301Y-115947941D02*
X137753301Y-115947941D01*
X133273301Y-115947941D02*
X118755301Y-115947941D01*
X152258301Y-115987941D02*
X137753301Y-115987941D01*
X133273301Y-115987941D02*
X118768301Y-115987941D01*
X152246301Y-116027941D02*
X137753301Y-116027941D01*
X133273301Y-116027941D02*
X118780301Y-116027941D01*
X152233301Y-116067941D02*
X137753301Y-116067941D01*
X133273301Y-116067941D02*
X118793301Y-116067941D01*
X152220301Y-116107941D02*
X137753301Y-116107941D01*
X133273301Y-116107941D02*
X118806301Y-116107941D01*
X152207301Y-116147941D02*
X137753301Y-116147941D01*
X133273301Y-116147941D02*
X118819301Y-116147941D01*
X152193301Y-116187941D02*
X137753301Y-116187941D01*
X133273301Y-116187941D02*
X118833301Y-116187941D01*
X152180301Y-116227941D02*
X137753301Y-116227941D01*
X133273301Y-116227941D02*
X118846301Y-116227941D01*
X152166301Y-116267941D02*
X137753301Y-116267941D01*
X133273301Y-116267941D02*
X118860301Y-116267941D01*
X152153301Y-116307941D02*
X137753301Y-116307941D01*
X133273301Y-116307941D02*
X118873301Y-116307941D01*
X152139301Y-116347941D02*
X137753301Y-116347941D01*
X133273301Y-116347941D02*
X118887301Y-116347941D01*
X152125301Y-116387941D02*
X137753301Y-116387941D01*
X133273301Y-116387941D02*
X118901301Y-116387941D01*
X152112301Y-116427941D02*
X137753301Y-116427941D01*
X133273301Y-116427941D02*
X118914301Y-116427941D01*
X152098301Y-116467941D02*
X137753301Y-116467941D01*
X133273301Y-116467941D02*
X118928301Y-116467941D01*
X152083301Y-116507941D02*
X137753301Y-116507941D01*
X133273301Y-116507941D02*
X118943301Y-116507941D01*
X152069301Y-116547941D02*
X137753301Y-116547941D01*
X133273301Y-116547941D02*
X118957301Y-116547941D01*
X152055301Y-116587941D02*
X137753301Y-116587941D01*
X133273301Y-116587941D02*
X118971301Y-116587941D01*
X152040301Y-116627941D02*
X137753301Y-116627941D01*
X133273301Y-116627941D02*
X118986301Y-116627941D01*
X152026301Y-116667941D02*
X137753301Y-116667941D01*
X133273301Y-116667941D02*
X119000301Y-116667941D01*
X152011301Y-116707941D02*
X137753301Y-116707941D01*
X133273301Y-116707941D02*
X119015301Y-116707941D01*
X151997301Y-116747941D02*
X137753301Y-116747941D01*
X133273301Y-116747941D02*
X119029301Y-116747941D01*
X151982301Y-116787941D02*
X137753301Y-116787941D01*
X133273301Y-116787941D02*
X119044301Y-116787941D01*
X151967301Y-116827941D02*
X137753301Y-116827941D01*
X133273301Y-116827941D02*
X119059301Y-116827941D01*
X151952301Y-116867941D02*
X137753301Y-116867941D01*
X133273301Y-116867941D02*
X119074301Y-116867941D01*
X151936301Y-116907941D02*
X137753301Y-116907941D01*
X133273301Y-116907941D02*
X119090301Y-116907941D01*
X151921301Y-116947941D02*
X137753301Y-116947941D01*
X133273301Y-116947941D02*
X119105301Y-116947941D01*
X151906301Y-116987941D02*
X137753301Y-116987941D01*
X133273301Y-116987941D02*
X119120301Y-116987941D01*
X151890301Y-117027941D02*
X137753301Y-117027941D01*
X133273301Y-117027941D02*
X119136301Y-117027941D01*
X151874301Y-117067941D02*
X137753301Y-117067941D01*
X133273301Y-117067941D02*
X119152301Y-117067941D01*
X151859301Y-117107941D02*
X137753301Y-117107941D01*
X133273301Y-117107941D02*
X119167301Y-117107941D01*
X151843301Y-117147941D02*
X137753301Y-117147941D01*
X133273301Y-117147941D02*
X119183301Y-117147941D01*
X151827301Y-117187941D02*
X137753301Y-117187941D01*
X133273301Y-117187941D02*
X119199301Y-117187941D01*
X151811301Y-117227941D02*
X137753301Y-117227941D01*
X133273301Y-117227941D02*
X119215301Y-117227941D01*
X151794301Y-117267941D02*
X137753301Y-117267941D01*
X133273301Y-117267941D02*
X119232301Y-117267941D01*
X151778301Y-117307941D02*
X137753301Y-117307941D01*
X133273301Y-117307941D02*
X119248301Y-117307941D01*
X151762301Y-117347941D02*
X137753301Y-117347941D01*
X133273301Y-117347941D02*
X119264301Y-117347941D01*
X151745301Y-117387941D02*
X137753301Y-117387941D01*
X133273301Y-117387941D02*
X119281301Y-117387941D01*
X151728301Y-117427941D02*
X137753301Y-117427941D01*
X133273301Y-117427941D02*
X119298301Y-117427941D01*
X151712301Y-117467941D02*
X137753301Y-117467941D01*
X133273301Y-117467941D02*
X119314301Y-117467941D01*
X151695301Y-117507941D02*
X137753301Y-117507941D01*
X133273301Y-117507941D02*
X119331301Y-117507941D01*
X151678301Y-117547941D02*
X137753301Y-117547941D01*
X133273301Y-117547941D02*
X119348301Y-117547941D01*
X151661301Y-117587941D02*
X137753301Y-117587941D01*
X133273301Y-117587941D02*
X119365301Y-117587941D01*
X151643301Y-117627941D02*
X137753301Y-117627941D01*
X133273301Y-117627941D02*
X119383301Y-117627941D01*
X151626301Y-117667941D02*
X137753301Y-117667941D01*
X133273301Y-117667941D02*
X119400301Y-117667941D01*
X151608301Y-117707941D02*
X137753301Y-117707941D01*
X133273301Y-117707941D02*
X119418301Y-117707941D01*
X151591301Y-117747941D02*
X137753301Y-117747941D01*
X133273301Y-117747941D02*
X119435301Y-117747941D01*
X151573301Y-117787941D02*
X137753301Y-117787941D01*
X133273301Y-117787941D02*
X119453301Y-117787941D01*
X151555301Y-117827941D02*
X137753301Y-117827941D01*
X133273301Y-117827941D02*
X119471301Y-117827941D01*
X151537301Y-117867941D02*
X119489301Y-117867941D01*
X151519301Y-117907941D02*
X119507301Y-117907941D01*
X151501301Y-117947941D02*
X119525301Y-117947941D01*
X151483301Y-117987941D02*
X119543301Y-117987941D01*
X151464301Y-118027941D02*
X119562301Y-118027941D01*
X151446301Y-118067941D02*
X119580301Y-118067941D01*
X151427301Y-118107941D02*
X119599301Y-118107941D01*
X151408301Y-118147941D02*
X119618301Y-118147941D01*
X151389301Y-118187941D02*
X119637301Y-118187941D01*
X151370301Y-118227941D02*
X119656301Y-118227941D01*
X151351301Y-118267941D02*
X119675301Y-118267941D01*
X151332301Y-118307941D02*
X119694301Y-118307941D01*
X151312301Y-118347941D02*
X119714301Y-118347941D01*
X151293301Y-118387941D02*
X119733301Y-118387941D01*
X151273301Y-118427941D02*
X119753301Y-118427941D01*
X151253301Y-118467941D02*
X119773301Y-118467941D01*
X151233301Y-118507941D02*
X119793301Y-118507941D01*
X151213301Y-118547941D02*
X119813301Y-118547941D01*
X151193301Y-118587941D02*
X119833301Y-118587941D01*
X151173301Y-118627941D02*
X119853301Y-118627941D01*
X151152301Y-118667941D02*
X119874301Y-118667941D01*
X151132301Y-118707941D02*
X119894301Y-118707941D01*
X151111301Y-118747941D02*
X119915301Y-118747941D01*
X151090301Y-118787941D02*
X119936301Y-118787941D01*
X151069301Y-118826941D02*
X119957301Y-118826941D01*
X151048301Y-118866941D02*
X119978301Y-118866941D01*
X151027301Y-118906941D02*
X119999301Y-118906941D01*
X151005301Y-118946941D02*
X120021301Y-118946941D01*
X150984301Y-118986941D02*
X120042301Y-118986941D01*
X150962301Y-119026941D02*
X120064301Y-119026941D01*
X150941301Y-119066941D02*
X120085301Y-119066941D01*
X150919301Y-119106941D02*
X120107301Y-119106941D01*
X150897301Y-119146941D02*
X120129301Y-119146941D01*
X150874301Y-119186941D02*
X120152301Y-119186941D01*
X150852301Y-119226941D02*
X120174301Y-119226941D01*
X150830301Y-119266941D02*
X120196301Y-119266941D01*
X150807301Y-119306941D02*
X120219301Y-119306941D01*
X150784301Y-119346941D02*
X120242301Y-119346941D01*
X150762301Y-119386941D02*
X120264301Y-119386941D01*
X150739301Y-119426941D02*
X120287301Y-119426941D01*
X150716301Y-119466941D02*
X120310301Y-119466941D01*
X150692301Y-119506941D02*
X120334301Y-119506941D01*
X150669301Y-119546941D02*
X120357301Y-119546941D01*
X150645301Y-119586941D02*
X120381301Y-119586941D01*
X150622301Y-119626941D02*
X120404301Y-119626941D01*
X150598301Y-119666941D02*
X120428301Y-119666941D01*
X150574301Y-119706941D02*
X120452301Y-119706941D01*
X150550301Y-119746941D02*
X120476301Y-119746941D01*
X150525301Y-119786941D02*
X120501301Y-119786941D01*
X150501301Y-119826941D02*
X120525301Y-119826941D01*
X150476301Y-119866941D02*
X120550301Y-119866941D01*
X150452301Y-119906941D02*
X120574301Y-119906941D01*
X150427301Y-119946941D02*
X120599301Y-119946941D01*
X150402301Y-119986941D02*
X120624301Y-119986941D01*
X150377301Y-120026941D02*
X120649301Y-120026941D01*
X150351301Y-120066941D02*
X120675301Y-120066941D01*
X150326301Y-120106941D02*
X120700301Y-120106941D01*
X150300301Y-120146941D02*
X120726301Y-120146941D01*
X150275301Y-120186941D02*
X120751301Y-120186941D01*
X150249301Y-120226941D02*
X120777301Y-120226941D01*
X150223301Y-120266941D02*
X120803301Y-120266941D01*
X150196301Y-120306941D02*
X120830301Y-120306941D01*
X150170301Y-120346941D02*
X120856301Y-120346941D01*
X150143301Y-120386941D02*
X120883301Y-120386941D01*
X150117301Y-120426941D02*
X120909301Y-120426941D01*
X150090301Y-120466941D02*
X120936301Y-120466941D01*
X150063301Y-120506941D02*
X120963301Y-120506941D01*
X150036301Y-120546941D02*
X120990301Y-120546941D01*
X150008301Y-120586941D02*
X121018301Y-120586941D01*
X149981301Y-120626941D02*
X121045301Y-120626941D01*
X149953301Y-120666941D02*
X121073301Y-120666941D01*
X149925301Y-120706941D02*
X121101301Y-120706941D01*
X149897301Y-120746941D02*
X121129301Y-120746941D01*
X149869301Y-120786941D02*
X121157301Y-120786941D01*
X149841301Y-120826941D02*
X121185301Y-120826941D01*
X149812301Y-120866941D02*
X121214301Y-120866941D01*
X149784301Y-120906941D02*
X121242301Y-120906941D01*
X149755301Y-120946941D02*
X121271301Y-120946941D01*
X149726301Y-120986941D02*
X121300301Y-120986941D01*
X149697301Y-121026941D02*
X121329301Y-121026941D01*
X149668301Y-121066941D02*
X121358301Y-121066941D01*
X149638301Y-121106941D02*
X121388301Y-121106941D01*
X149608301Y-121146941D02*
X121418301Y-121146941D01*
X149578301Y-121186941D02*
X121448301Y-121186941D01*
X149548301Y-121226941D02*
X121478301Y-121226941D01*
X149518301Y-121266941D02*
X121508301Y-121266941D01*
X149488301Y-121306941D02*
X121538301Y-121306941D01*
X149457301Y-121346941D02*
X121569301Y-121346941D01*
X149427301Y-121386941D02*
X121599301Y-121386941D01*
X149396301Y-121426941D02*
X121630301Y-121426941D01*
X149364301Y-121466941D02*
X121662301Y-121466941D01*
X149333301Y-121506941D02*
X121693301Y-121506941D01*
X149302301Y-121546941D02*
X121724301Y-121546941D01*
X149270301Y-121586941D02*
X121756301Y-121586941D01*
X149238301Y-121626941D02*
X121788301Y-121626941D01*
X149206301Y-121666941D02*
X121820301Y-121666941D01*
X149174301Y-121706941D02*
X121852301Y-121706941D01*
X149141301Y-121746941D02*
X121885301Y-121746941D01*
X149109301Y-121786941D02*
X121917301Y-121786941D01*
X149076301Y-121826941D02*
X121950301Y-121826941D01*
X149043301Y-121866941D02*
X121983301Y-121866941D01*
X149010301Y-121906941D02*
X122016301Y-121906941D01*
X148976301Y-121946941D02*
X122050301Y-121946941D01*
X148943301Y-121986941D02*
X122083301Y-121986941D01*
X148909301Y-122026941D02*
X122117301Y-122026941D01*
X148875301Y-122066941D02*
X122151301Y-122066941D01*
X148840301Y-122106941D02*
X122186301Y-122106941D01*
X148806301Y-122146941D02*
X122220301Y-122146941D01*
X148771301Y-122186941D02*
X122255301Y-122186941D01*
X148736301Y-122226941D02*
X122290301Y-122226941D01*
X148701301Y-122266941D02*
X122325301Y-122266941D01*
X148666301Y-122306941D02*
X122360301Y-122306941D01*
X148630301Y-122346941D02*
X122396301Y-122346941D01*
X148595301Y-122386941D02*
X122431301Y-122386941D01*
X148559301Y-122426941D02*
X122467301Y-122426941D01*
X148523301Y-122466941D02*
X122503301Y-122466941D01*
X148486301Y-122506941D02*
X122540301Y-122506941D01*
X148450301Y-122546941D02*
X122576301Y-122546941D01*
X148413301Y-122586941D02*
X122613301Y-122586941D01*
X148376301Y-122626941D02*
X122650301Y-122626941D01*
X148338301Y-122666941D02*
X122688301Y-122666941D01*
X148301301Y-122706941D02*
X122725301Y-122706941D01*
X148263301Y-122746941D02*
X122763301Y-122746941D01*
X148225301Y-122786941D02*
X122801301Y-122786941D01*
X148187301Y-122826941D02*
X122839301Y-122826941D01*
X148148301Y-122866941D02*
X122878301Y-122866941D01*
X148109301Y-122906941D02*
X122917301Y-122906941D01*
X148070301Y-122946941D02*
X122956301Y-122946941D01*
X148031301Y-122986941D02*
X122995301Y-122986941D01*
X147992301Y-123026941D02*
X123034301Y-123026941D01*
X147952301Y-123066941D02*
X123074301Y-123066941D01*
X147912301Y-123106941D02*
X123114301Y-123106941D01*
X147872301Y-123146941D02*
X123154301Y-123146941D01*
X147831301Y-123186941D02*
X123195301Y-123186941D01*
X147790301Y-123226941D02*
X123236301Y-123226941D01*
X147749301Y-123266941D02*
X123277301Y-123266941D01*
X147708301Y-123306941D02*
X123318301Y-123306941D01*
X147666301Y-123346941D02*
X123360301Y-123346941D01*
X147624301Y-123386941D02*
X123402301Y-123386941D01*
X147582301Y-123426941D02*
X123444301Y-123426941D01*
X147540301Y-123466941D02*
X123486301Y-123466941D01*
X147497301Y-123506941D02*
X123529301Y-123506941D01*
X147454301Y-123546941D02*
X123572301Y-123546941D01*
X147411301Y-123586941D02*
X123615301Y-123586941D01*
X147367301Y-123626941D02*
X123659301Y-123626941D01*
X147324301Y-123666941D02*
X123702301Y-123666941D01*
X147279301Y-123706941D02*
X123747301Y-123706941D01*
X147235301Y-123746941D02*
X123791301Y-123746941D01*
X147190301Y-123786941D02*
X123836301Y-123786941D01*
X147145301Y-123826941D02*
X123881301Y-123826941D01*
X147100301Y-123866941D02*
X123926301Y-123866941D01*
X147054301Y-123906941D02*
X123972301Y-123906941D01*
X147008301Y-123946941D02*
X124018301Y-123946941D01*
X146962301Y-123986941D02*
X124064301Y-123986941D01*
X146915301Y-124026941D02*
X124111301Y-124026941D01*
X146868301Y-124066941D02*
X124158301Y-124066941D01*
X146820301Y-124106941D02*
X124206301Y-124106941D01*
X146773301Y-124146941D02*
X124253301Y-124146941D01*
X146725301Y-124186941D02*
X124301301Y-124186941D01*
X146676301Y-124226941D02*
X124350301Y-124226941D01*
X146628301Y-124266941D02*
X124398301Y-124266941D01*
X146579301Y-124306941D02*
X124447301Y-124306941D01*
X146529301Y-124346941D02*
X124497301Y-124346941D01*
X146479301Y-124386941D02*
X124547301Y-124386941D01*
X146429301Y-124426941D02*
X124597301Y-124426941D01*
X146378301Y-124466941D02*
X124648301Y-124466941D01*
X146328301Y-124506941D02*
X124698301Y-124506941D01*
X146276301Y-124546941D02*
X124750301Y-124546941D01*
X146224301Y-124586941D02*
X124802301Y-124586941D01*
X146172301Y-124626941D02*
X124854301Y-124626941D01*
X146120301Y-124666941D02*
X124906301Y-124666941D01*
X146067301Y-124706941D02*
X124959301Y-124706941D01*
X146013301Y-124746941D02*
X125013301Y-124746941D01*
X145960301Y-124786941D02*
X125066301Y-124786941D01*
X145905301Y-124826941D02*
X125121301Y-124826941D01*
X145851301Y-124866941D02*
X125175301Y-124866941D01*
X145796301Y-124906941D02*
X125230301Y-124906941D01*
X145740301Y-124946941D02*
X125286301Y-124946941D01*
X145684301Y-124986941D02*
X125342301Y-124986941D01*
X145628301Y-125026941D02*
X125398301Y-125026941D01*
X145571301Y-125066941D02*
X125455301Y-125066941D01*
X145513301Y-125106941D02*
X125513301Y-125106941D01*
X145455301Y-125146941D02*
X125571301Y-125146941D01*
X145397301Y-125186941D02*
X125629301Y-125186941D01*
X145338301Y-125226941D02*
X125688301Y-125226941D01*
X145278301Y-125266941D02*
X125748301Y-125266941D01*
X145218301Y-125306941D02*
X125808301Y-125306941D01*
X145158301Y-125346941D02*
X125868301Y-125346941D01*
X145097301Y-125386941D02*
X125929301Y-125386941D01*
X145035301Y-125426941D02*
X125991301Y-125426941D01*
X144973301Y-125466941D02*
X126053301Y-125466941D01*
X144910301Y-125506941D02*
X126116301Y-125506941D01*
X144847301Y-125546941D02*
X126179301Y-125546941D01*
X144783301Y-125586941D02*
X126243301Y-125586941D01*
X144718301Y-125626941D02*
X126308301Y-125626941D01*
X144653301Y-125666941D02*
X126373301Y-125666941D01*
X144587301Y-125706941D02*
X126439301Y-125706941D01*
X144521301Y-125746941D02*
X126505301Y-125746941D01*
X144453301Y-125786941D02*
X126573301Y-125786941D01*
X144386301Y-125826941D02*
X126640301Y-125826941D01*
X144317301Y-125866941D02*
X126709301Y-125866941D01*
X144248301Y-125906941D02*
X126778301Y-125906941D01*
X144178301Y-125946941D02*
X126848301Y-125946941D01*
X144107301Y-125986941D02*
X126919301Y-125986941D01*
X144035301Y-126026941D02*
X126991301Y-126026941D01*
X143963301Y-126066941D02*
X127063301Y-126066941D01*
X143890301Y-126106941D02*
X127136301Y-126106941D01*
X143816301Y-126146941D02*
X127210301Y-126146941D01*
X143741301Y-126186941D02*
X127285301Y-126186941D01*
X143665301Y-126226941D02*
X127361301Y-126226941D01*
X143589301Y-126266941D02*
X127437301Y-126266941D01*
X143511301Y-126306941D02*
X127515301Y-126306941D01*
X143433301Y-126346941D02*
X127593301Y-126346941D01*
X143353301Y-126386941D02*
X127673301Y-126386941D01*
X143272301Y-126426941D02*
X127754301Y-126426941D01*
X143191301Y-126466941D02*
X127835301Y-126466941D01*
X143108301Y-126506941D02*
X127918301Y-126506941D01*
X143025301Y-126546941D02*
X128001301Y-126546941D01*
X142940301Y-126586941D02*
X128086301Y-126586941D01*
X142854301Y-126626941D02*
X128172301Y-126626941D01*
X142766301Y-126666941D02*
X128260301Y-126666941D01*
X142678301Y-126706941D02*
X128348301Y-126706941D01*
X142588301Y-126746941D02*
X128438301Y-126746941D01*
X142496301Y-126786941D02*
X128530301Y-126786941D01*
X142403301Y-126826941D02*
X128623301Y-126826941D01*
X142309301Y-126866941D02*
X128717301Y-126866941D01*
X142213301Y-126906941D02*
X128813301Y-126906941D01*
X142116301Y-126946941D02*
X128910301Y-126946941D01*
X142017301Y-126986941D02*
X129009301Y-126986941D01*
X141916301Y-127026941D02*
X129110301Y-127026941D01*
X141813301Y-127066941D02*
X129213301Y-127066941D01*
X141708301Y-127106941D02*
X129318301Y-127106941D01*
X141602301Y-127146941D02*
X129424301Y-127146941D01*
X141493301Y-127186941D02*
X129533301Y-127186941D01*
X141381301Y-127226941D02*
X129645301Y-127226941D01*
X141268301Y-127266941D02*
X129758301Y-127266941D01*
X141152301Y-127306941D02*
X129874301Y-127306941D01*
X141033301Y-127346941D02*
X129993301Y-127346941D01*
X140911301Y-127386941D02*
X130115301Y-127386941D01*
X140786301Y-127426941D02*
X130240301Y-127426941D01*
X140658301Y-127466941D02*
X130368301Y-127466941D01*
X140526301Y-127506941D02*
X130500301Y-127506941D01*
X140391301Y-127546941D02*
X130635301Y-127546941D01*
X140251301Y-127586941D02*
X130775301Y-127586941D01*
X140106301Y-127626941D02*
X130920301Y-127626941D01*
X139957301Y-127666941D02*
X131069301Y-127666941D01*
X139802301Y-127706941D02*
X131224301Y-127706941D01*
X139641301Y-127746941D02*
X131385301Y-127746941D01*
X139473301Y-127786941D02*
X131553301Y-127786941D01*
X139298301Y-127826941D02*
X131728301Y-127826941D01*
X139113301Y-127866941D02*
X131913301Y-127866941D01*
X138918301Y-127906941D02*
X132108301Y-127906941D01*
X138711301Y-127946941D02*
X132315301Y-127946941D01*
X138489301Y-127986941D02*
X132537301Y-127986941D01*
X138249301Y-128026941D02*
X132777301Y-128026941D01*
X137986301Y-128066941D02*
X133040301Y-128066941D01*
X137690301Y-128106941D02*
X133336301Y-128106941D01*
X137348301Y-128146941D02*
X133678301Y-128146941D01*
X136926301Y-128186941D02*
X134100301Y-128186941D01*
X136313301Y-128226941D02*
X134713301Y-128226941D01*
X153133301Y-110626941D02*
G75*
G03*
X153133301Y-110626941I-17620000J0D01*
G01*
%TO.C,C10*%
X163303581Y-140849763D02*
X163303581Y-132609763D01*
X163303581Y-140849763D02*
X145063581Y-140849763D01*
X163303581Y-132609763D02*
X145063581Y-132609763D01*
X145063581Y-140849763D02*
X145063581Y-132609763D01*
%TO.C,D3*%
X178075000Y-42647000D02*
X174985000Y-42647000D01*
X176529538Y-48196999D02*
G75*
G03*
X178074830Y-42647001I462J2989999D01*
G01*
X174985170Y-42647000D02*
G75*
G03*
X176530462Y-48197000I1544830J-2560000D01*
G01*
X179030000Y-45207000D02*
G75*
G03*
X179030000Y-45207000I-2500000J0D01*
G01*
%TO.C,R1*%
X114578000Y-53594000D02*
X115348000Y-53594000D01*
X115348000Y-52224000D02*
X115348000Y-54964000D01*
X115348000Y-54964000D02*
X121888000Y-54964000D01*
X121888000Y-52224000D02*
X115348000Y-52224000D01*
X121888000Y-54964000D02*
X121888000Y-52224000D01*
X122658000Y-53594000D02*
X121888000Y-53594000D01*
%TO.C,J2-1*%
X197651380Y-58166000D02*
X197247520Y-58166000D01*
X194677040Y-58166000D02*
X194273180Y-58166000D01*
X194273180Y-58166000D02*
X194273180Y-64770000D01*
X197651380Y-64770000D02*
X197651380Y-58166000D01*
X197232280Y-64770000D02*
X197651380Y-64770000D01*
X194273180Y-64770000D02*
X194692280Y-64770000D01*
%TO.C,R5*%
X172490000Y-51308000D02*
X173260000Y-51308000D01*
X173260000Y-49938000D02*
X173260000Y-52678000D01*
X173260000Y-52678000D02*
X179800000Y-52678000D01*
X179800000Y-49938000D02*
X173260000Y-49938000D01*
X179800000Y-52678000D02*
X179800000Y-49938000D01*
X180570000Y-51308000D02*
X179800000Y-51308000D01*
%TO.C,C7*%
X182675501Y-53578939D02*
X182675501Y-57078939D01*
X184425501Y-55328939D02*
X180925501Y-55328939D01*
X190380501Y-72432941D02*
X155220501Y-72432941D01*
X190380501Y-72472941D02*
X155220501Y-72472941D01*
X190380501Y-72512941D02*
X155220501Y-72512941D01*
X190380501Y-72552941D02*
X155220501Y-72552941D01*
X190380501Y-72592941D02*
X155220501Y-72592941D01*
X190379501Y-72632941D02*
X155221501Y-72632941D01*
X190379501Y-72672941D02*
X155221501Y-72672941D01*
X190378501Y-72712941D02*
X155222501Y-72712941D01*
X190378501Y-72752941D02*
X155222501Y-72752941D01*
X190377501Y-72792941D02*
X155223501Y-72792941D01*
X190376501Y-72832941D02*
X155224501Y-72832941D01*
X190375501Y-72872941D02*
X155225501Y-72872941D01*
X190374501Y-72912941D02*
X155226501Y-72912941D01*
X190373501Y-72952941D02*
X155227501Y-72952941D01*
X190372501Y-72992941D02*
X155228501Y-72992941D01*
X190370501Y-73032941D02*
X155230501Y-73032941D01*
X190369501Y-73072941D02*
X155231501Y-73072941D01*
X190367501Y-73112941D02*
X155233501Y-73112941D01*
X190366501Y-73153941D02*
X155234501Y-73153941D01*
X190364501Y-73193941D02*
X155236501Y-73193941D01*
X190362501Y-73233941D02*
X155238501Y-73233941D01*
X190360501Y-73273941D02*
X155240501Y-73273941D01*
X190359501Y-73313941D02*
X155241501Y-73313941D01*
X190356501Y-73353941D02*
X155244501Y-73353941D01*
X190354501Y-73393941D02*
X155246501Y-73393941D01*
X190352501Y-73433941D02*
X155248501Y-73433941D01*
X190350501Y-73473941D02*
X155250501Y-73473941D01*
X190347501Y-73513941D02*
X155253501Y-73513941D01*
X190345501Y-73553941D02*
X155255501Y-73553941D01*
X190342501Y-73593941D02*
X155258501Y-73593941D01*
X190340501Y-73633941D02*
X155260501Y-73633941D01*
X190337501Y-73673941D02*
X155263501Y-73673941D01*
X190334501Y-73713941D02*
X155266501Y-73713941D01*
X190331501Y-73753941D02*
X155269501Y-73753941D01*
X190328501Y-73793941D02*
X155272501Y-73793941D01*
X190325501Y-73833941D02*
X155275501Y-73833941D01*
X190322501Y-73873941D02*
X155278501Y-73873941D01*
X190318501Y-73913941D02*
X155282501Y-73913941D01*
X190315501Y-73953941D02*
X155285501Y-73953941D01*
X190311501Y-73993941D02*
X155289501Y-73993941D01*
X190308501Y-74033941D02*
X155292501Y-74033941D01*
X190304501Y-74073941D02*
X155296501Y-74073941D01*
X190300501Y-74113941D02*
X155300501Y-74113941D01*
X190296501Y-74153941D02*
X155304501Y-74153941D01*
X190292501Y-74193941D02*
X155308501Y-74193941D01*
X190288501Y-74233941D02*
X155312501Y-74233941D01*
X190284501Y-74273941D02*
X155316501Y-74273941D01*
X190280501Y-74313941D02*
X155320501Y-74313941D01*
X190276501Y-74353941D02*
X155324501Y-74353941D01*
X190271501Y-74393941D02*
X155329501Y-74393941D01*
X190267501Y-74433941D02*
X155333501Y-74433941D01*
X190262501Y-74473941D02*
X155338501Y-74473941D01*
X190257501Y-74513941D02*
X155343501Y-74513941D01*
X190252501Y-74553941D02*
X155348501Y-74553941D01*
X190248501Y-74593941D02*
X155352501Y-74593941D01*
X190243501Y-74633941D02*
X155357501Y-74633941D01*
X190238501Y-74673941D02*
X155362501Y-74673941D01*
X190232501Y-74713941D02*
X155368501Y-74713941D01*
X190227501Y-74753941D02*
X155373501Y-74753941D01*
X190222501Y-74793941D02*
X155378501Y-74793941D01*
X190216501Y-74833941D02*
X155384501Y-74833941D01*
X190211501Y-74873941D02*
X155389501Y-74873941D01*
X190205501Y-74913941D02*
X155395501Y-74913941D01*
X190199501Y-74953941D02*
X155401501Y-74953941D01*
X190194501Y-74993941D02*
X155406501Y-74993941D01*
X190188501Y-75033941D02*
X155412501Y-75033941D01*
X190182501Y-75073941D02*
X155418501Y-75073941D01*
X190175501Y-75113941D02*
X155425501Y-75113941D01*
X190169501Y-75153941D02*
X155431501Y-75153941D01*
X190163501Y-75193941D02*
X175040501Y-75193941D01*
X170560501Y-75193941D02*
X155437501Y-75193941D01*
X190157501Y-75233941D02*
X175040501Y-75233941D01*
X170560501Y-75233941D02*
X155443501Y-75233941D01*
X190150501Y-75273941D02*
X175040501Y-75273941D01*
X170560501Y-75273941D02*
X155450501Y-75273941D01*
X190144501Y-75313941D02*
X175040501Y-75313941D01*
X170560501Y-75313941D02*
X155456501Y-75313941D01*
X190137501Y-75353941D02*
X175040501Y-75353941D01*
X170560501Y-75353941D02*
X155463501Y-75353941D01*
X190130501Y-75393941D02*
X175040501Y-75393941D01*
X170560501Y-75393941D02*
X155470501Y-75393941D01*
X190123501Y-75433941D02*
X175040501Y-75433941D01*
X170560501Y-75433941D02*
X155477501Y-75433941D01*
X190116501Y-75473941D02*
X175040501Y-75473941D01*
X170560501Y-75473941D02*
X155484501Y-75473941D01*
X190109501Y-75513941D02*
X175040501Y-75513941D01*
X170560501Y-75513941D02*
X155491501Y-75513941D01*
X190102501Y-75553941D02*
X175040501Y-75553941D01*
X170560501Y-75553941D02*
X155498501Y-75553941D01*
X190095501Y-75593941D02*
X175040501Y-75593941D01*
X170560501Y-75593941D02*
X155505501Y-75593941D01*
X190087501Y-75633941D02*
X175040501Y-75633941D01*
X170560501Y-75633941D02*
X155513501Y-75633941D01*
X190080501Y-75673941D02*
X175040501Y-75673941D01*
X170560501Y-75673941D02*
X155520501Y-75673941D01*
X190073501Y-75713941D02*
X175040501Y-75713941D01*
X170560501Y-75713941D02*
X155527501Y-75713941D01*
X190065501Y-75753941D02*
X175040501Y-75753941D01*
X170560501Y-75753941D02*
X155535501Y-75753941D01*
X190057501Y-75793941D02*
X175040501Y-75793941D01*
X170560501Y-75793941D02*
X155543501Y-75793941D01*
X190049501Y-75833941D02*
X175040501Y-75833941D01*
X170560501Y-75833941D02*
X155551501Y-75833941D01*
X190041501Y-75873941D02*
X175040501Y-75873941D01*
X170560501Y-75873941D02*
X155559501Y-75873941D01*
X190033501Y-75913941D02*
X175040501Y-75913941D01*
X170560501Y-75913941D02*
X155567501Y-75913941D01*
X190025501Y-75953941D02*
X175040501Y-75953941D01*
X170560501Y-75953941D02*
X155575501Y-75953941D01*
X190017501Y-75993941D02*
X175040501Y-75993941D01*
X170560501Y-75993941D02*
X155583501Y-75993941D01*
X190009501Y-76033941D02*
X175040501Y-76033941D01*
X170560501Y-76033941D02*
X155591501Y-76033941D01*
X190000501Y-76073941D02*
X175040501Y-76073941D01*
X170560501Y-76073941D02*
X155600501Y-76073941D01*
X189992501Y-76113941D02*
X175040501Y-76113941D01*
X170560501Y-76113941D02*
X155608501Y-76113941D01*
X189983501Y-76153941D02*
X175040501Y-76153941D01*
X170560501Y-76153941D02*
X155617501Y-76153941D01*
X189975501Y-76193941D02*
X175040501Y-76193941D01*
X170560501Y-76193941D02*
X155625501Y-76193941D01*
X189966501Y-76233941D02*
X175040501Y-76233941D01*
X170560501Y-76233941D02*
X155634501Y-76233941D01*
X189957501Y-76273941D02*
X175040501Y-76273941D01*
X170560501Y-76273941D02*
X155643501Y-76273941D01*
X189948501Y-76313941D02*
X175040501Y-76313941D01*
X170560501Y-76313941D02*
X155652501Y-76313941D01*
X189939501Y-76353941D02*
X175040501Y-76353941D01*
X170560501Y-76353941D02*
X155661501Y-76353941D01*
X189930501Y-76393941D02*
X175040501Y-76393941D01*
X170560501Y-76393941D02*
X155670501Y-76393941D01*
X189920501Y-76433941D02*
X175040501Y-76433941D01*
X170560501Y-76433941D02*
X155680501Y-76433941D01*
X189911501Y-76473941D02*
X175040501Y-76473941D01*
X170560501Y-76473941D02*
X155689501Y-76473941D01*
X189902501Y-76513941D02*
X175040501Y-76513941D01*
X170560501Y-76513941D02*
X155698501Y-76513941D01*
X189892501Y-76553941D02*
X175040501Y-76553941D01*
X170560501Y-76553941D02*
X155708501Y-76553941D01*
X189882501Y-76593941D02*
X175040501Y-76593941D01*
X170560501Y-76593941D02*
X155718501Y-76593941D01*
X189873501Y-76633941D02*
X175040501Y-76633941D01*
X170560501Y-76633941D02*
X155727501Y-76633941D01*
X189863501Y-76673941D02*
X175040501Y-76673941D01*
X170560501Y-76673941D02*
X155737501Y-76673941D01*
X189853501Y-76713941D02*
X175040501Y-76713941D01*
X170560501Y-76713941D02*
X155747501Y-76713941D01*
X189843501Y-76753941D02*
X175040501Y-76753941D01*
X170560501Y-76753941D02*
X155757501Y-76753941D01*
X189833501Y-76793941D02*
X175040501Y-76793941D01*
X170560501Y-76793941D02*
X155767501Y-76793941D01*
X189822501Y-76833941D02*
X175040501Y-76833941D01*
X170560501Y-76833941D02*
X155778501Y-76833941D01*
X189812501Y-76873941D02*
X175040501Y-76873941D01*
X170560501Y-76873941D02*
X155788501Y-76873941D01*
X189801501Y-76913941D02*
X175040501Y-76913941D01*
X170560501Y-76913941D02*
X155799501Y-76913941D01*
X189791501Y-76953941D02*
X175040501Y-76953941D01*
X170560501Y-76953941D02*
X155809501Y-76953941D01*
X189780501Y-76993941D02*
X175040501Y-76993941D01*
X170560501Y-76993941D02*
X155820501Y-76993941D01*
X189769501Y-77033941D02*
X175040501Y-77033941D01*
X170560501Y-77033941D02*
X155831501Y-77033941D01*
X189759501Y-77073941D02*
X175040501Y-77073941D01*
X170560501Y-77073941D02*
X155841501Y-77073941D01*
X189748501Y-77113941D02*
X175040501Y-77113941D01*
X170560501Y-77113941D02*
X155852501Y-77113941D01*
X189737501Y-77153941D02*
X175040501Y-77153941D01*
X170560501Y-77153941D02*
X155863501Y-77153941D01*
X189725501Y-77193941D02*
X175040501Y-77193941D01*
X170560501Y-77193941D02*
X155875501Y-77193941D01*
X189714501Y-77233941D02*
X175040501Y-77233941D01*
X170560501Y-77233941D02*
X155886501Y-77233941D01*
X189703501Y-77273941D02*
X175040501Y-77273941D01*
X170560501Y-77273941D02*
X155897501Y-77273941D01*
X189691501Y-77313941D02*
X175040501Y-77313941D01*
X170560501Y-77313941D02*
X155909501Y-77313941D01*
X189680501Y-77353941D02*
X175040501Y-77353941D01*
X170560501Y-77353941D02*
X155920501Y-77353941D01*
X189668501Y-77393941D02*
X175040501Y-77393941D01*
X170560501Y-77393941D02*
X155932501Y-77393941D01*
X189656501Y-77433941D02*
X175040501Y-77433941D01*
X170560501Y-77433941D02*
X155944501Y-77433941D01*
X189644501Y-77473941D02*
X175040501Y-77473941D01*
X170560501Y-77473941D02*
X155956501Y-77473941D01*
X189632501Y-77513941D02*
X175040501Y-77513941D01*
X170560501Y-77513941D02*
X155968501Y-77513941D01*
X189620501Y-77553941D02*
X175040501Y-77553941D01*
X170560501Y-77553941D02*
X155980501Y-77553941D01*
X189608501Y-77593941D02*
X175040501Y-77593941D01*
X170560501Y-77593941D02*
X155992501Y-77593941D01*
X189596501Y-77633941D02*
X175040501Y-77633941D01*
X170560501Y-77633941D02*
X156004501Y-77633941D01*
X189583501Y-77673941D02*
X175040501Y-77673941D01*
X170560501Y-77673941D02*
X156017501Y-77673941D01*
X189571501Y-77713941D02*
X175040501Y-77713941D01*
X170560501Y-77713941D02*
X156029501Y-77713941D01*
X189558501Y-77753941D02*
X175040501Y-77753941D01*
X170560501Y-77753941D02*
X156042501Y-77753941D01*
X189545501Y-77793941D02*
X175040501Y-77793941D01*
X170560501Y-77793941D02*
X156055501Y-77793941D01*
X189533501Y-77833941D02*
X175040501Y-77833941D01*
X170560501Y-77833941D02*
X156067501Y-77833941D01*
X189520501Y-77873941D02*
X175040501Y-77873941D01*
X170560501Y-77873941D02*
X156080501Y-77873941D01*
X189507501Y-77913941D02*
X175040501Y-77913941D01*
X170560501Y-77913941D02*
X156093501Y-77913941D01*
X189494501Y-77953941D02*
X175040501Y-77953941D01*
X170560501Y-77953941D02*
X156106501Y-77953941D01*
X189480501Y-77993941D02*
X175040501Y-77993941D01*
X170560501Y-77993941D02*
X156120501Y-77993941D01*
X189467501Y-78033941D02*
X175040501Y-78033941D01*
X170560501Y-78033941D02*
X156133501Y-78033941D01*
X189453501Y-78073941D02*
X175040501Y-78073941D01*
X170560501Y-78073941D02*
X156147501Y-78073941D01*
X189440501Y-78113941D02*
X175040501Y-78113941D01*
X170560501Y-78113941D02*
X156160501Y-78113941D01*
X189426501Y-78153941D02*
X175040501Y-78153941D01*
X170560501Y-78153941D02*
X156174501Y-78153941D01*
X189412501Y-78193941D02*
X175040501Y-78193941D01*
X170560501Y-78193941D02*
X156188501Y-78193941D01*
X189399501Y-78233941D02*
X175040501Y-78233941D01*
X170560501Y-78233941D02*
X156201501Y-78233941D01*
X189385501Y-78273941D02*
X175040501Y-78273941D01*
X170560501Y-78273941D02*
X156215501Y-78273941D01*
X189370501Y-78313941D02*
X175040501Y-78313941D01*
X170560501Y-78313941D02*
X156230501Y-78313941D01*
X189356501Y-78353941D02*
X175040501Y-78353941D01*
X170560501Y-78353941D02*
X156244501Y-78353941D01*
X189342501Y-78393941D02*
X175040501Y-78393941D01*
X170560501Y-78393941D02*
X156258501Y-78393941D01*
X189327501Y-78433941D02*
X175040501Y-78433941D01*
X170560501Y-78433941D02*
X156273501Y-78433941D01*
X189313501Y-78473941D02*
X175040501Y-78473941D01*
X170560501Y-78473941D02*
X156287501Y-78473941D01*
X189298501Y-78513941D02*
X175040501Y-78513941D01*
X170560501Y-78513941D02*
X156302501Y-78513941D01*
X189284501Y-78553941D02*
X175040501Y-78553941D01*
X170560501Y-78553941D02*
X156316501Y-78553941D01*
X189269501Y-78593941D02*
X175040501Y-78593941D01*
X170560501Y-78593941D02*
X156331501Y-78593941D01*
X189254501Y-78633941D02*
X175040501Y-78633941D01*
X170560501Y-78633941D02*
X156346501Y-78633941D01*
X189239501Y-78673941D02*
X175040501Y-78673941D01*
X170560501Y-78673941D02*
X156361501Y-78673941D01*
X189223501Y-78713941D02*
X175040501Y-78713941D01*
X170560501Y-78713941D02*
X156377501Y-78713941D01*
X189208501Y-78753941D02*
X175040501Y-78753941D01*
X170560501Y-78753941D02*
X156392501Y-78753941D01*
X189193501Y-78793941D02*
X175040501Y-78793941D01*
X170560501Y-78793941D02*
X156407501Y-78793941D01*
X189177501Y-78833941D02*
X175040501Y-78833941D01*
X170560501Y-78833941D02*
X156423501Y-78833941D01*
X189161501Y-78873941D02*
X175040501Y-78873941D01*
X170560501Y-78873941D02*
X156439501Y-78873941D01*
X189146501Y-78913941D02*
X175040501Y-78913941D01*
X170560501Y-78913941D02*
X156454501Y-78913941D01*
X189130501Y-78953941D02*
X175040501Y-78953941D01*
X170560501Y-78953941D02*
X156470501Y-78953941D01*
X189114501Y-78993941D02*
X175040501Y-78993941D01*
X170560501Y-78993941D02*
X156486501Y-78993941D01*
X189098501Y-79033941D02*
X175040501Y-79033941D01*
X170560501Y-79033941D02*
X156502501Y-79033941D01*
X189081501Y-79073941D02*
X175040501Y-79073941D01*
X170560501Y-79073941D02*
X156519501Y-79073941D01*
X189065501Y-79113941D02*
X175040501Y-79113941D01*
X170560501Y-79113941D02*
X156535501Y-79113941D01*
X189049501Y-79153941D02*
X175040501Y-79153941D01*
X170560501Y-79153941D02*
X156551501Y-79153941D01*
X189032501Y-79193941D02*
X175040501Y-79193941D01*
X170560501Y-79193941D02*
X156568501Y-79193941D01*
X189015501Y-79233941D02*
X175040501Y-79233941D01*
X170560501Y-79233941D02*
X156585501Y-79233941D01*
X188999501Y-79273941D02*
X175040501Y-79273941D01*
X170560501Y-79273941D02*
X156601501Y-79273941D01*
X188982501Y-79313941D02*
X175040501Y-79313941D01*
X170560501Y-79313941D02*
X156618501Y-79313941D01*
X188965501Y-79353941D02*
X175040501Y-79353941D01*
X170560501Y-79353941D02*
X156635501Y-79353941D01*
X188948501Y-79393941D02*
X175040501Y-79393941D01*
X170560501Y-79393941D02*
X156652501Y-79393941D01*
X188930501Y-79433941D02*
X175040501Y-79433941D01*
X170560501Y-79433941D02*
X156670501Y-79433941D01*
X188913501Y-79473941D02*
X175040501Y-79473941D01*
X170560501Y-79473941D02*
X156687501Y-79473941D01*
X188895501Y-79513941D02*
X175040501Y-79513941D01*
X170560501Y-79513941D02*
X156705501Y-79513941D01*
X188878501Y-79553941D02*
X175040501Y-79553941D01*
X170560501Y-79553941D02*
X156722501Y-79553941D01*
X188860501Y-79593941D02*
X175040501Y-79593941D01*
X170560501Y-79593941D02*
X156740501Y-79593941D01*
X188842501Y-79633941D02*
X175040501Y-79633941D01*
X170560501Y-79633941D02*
X156758501Y-79633941D01*
X188824501Y-79673941D02*
X156776501Y-79673941D01*
X188806501Y-79713941D02*
X156794501Y-79713941D01*
X188788501Y-79753941D02*
X156812501Y-79753941D01*
X188770501Y-79793941D02*
X156830501Y-79793941D01*
X188751501Y-79833941D02*
X156849501Y-79833941D01*
X188733501Y-79873941D02*
X156867501Y-79873941D01*
X188714501Y-79913941D02*
X156886501Y-79913941D01*
X188695501Y-79953941D02*
X156905501Y-79953941D01*
X188676501Y-79993941D02*
X156924501Y-79993941D01*
X188657501Y-80033941D02*
X156943501Y-80033941D01*
X188638501Y-80073941D02*
X156962501Y-80073941D01*
X188619501Y-80113941D02*
X156981501Y-80113941D01*
X188599501Y-80153941D02*
X157001501Y-80153941D01*
X188580501Y-80193941D02*
X157020501Y-80193941D01*
X188560501Y-80233941D02*
X157040501Y-80233941D01*
X188540501Y-80273941D02*
X157060501Y-80273941D01*
X188520501Y-80313941D02*
X157080501Y-80313941D01*
X188500501Y-80353941D02*
X157100501Y-80353941D01*
X188480501Y-80393941D02*
X157120501Y-80393941D01*
X188460501Y-80433941D02*
X157140501Y-80433941D01*
X188439501Y-80473941D02*
X157161501Y-80473941D01*
X188419501Y-80513941D02*
X157181501Y-80513941D01*
X188398501Y-80553941D02*
X157202501Y-80553941D01*
X188377501Y-80593941D02*
X157223501Y-80593941D01*
X188356501Y-80632941D02*
X157244501Y-80632941D01*
X188335501Y-80672941D02*
X157265501Y-80672941D01*
X188314501Y-80712941D02*
X157286501Y-80712941D01*
X188292501Y-80752941D02*
X157308501Y-80752941D01*
X188271501Y-80792941D02*
X157329501Y-80792941D01*
X188249501Y-80832941D02*
X157351501Y-80832941D01*
X188228501Y-80872941D02*
X157372501Y-80872941D01*
X188206501Y-80912941D02*
X157394501Y-80912941D01*
X188184501Y-80952941D02*
X157416501Y-80952941D01*
X188161501Y-80992941D02*
X157439501Y-80992941D01*
X188139501Y-81032941D02*
X157461501Y-81032941D01*
X188117501Y-81072941D02*
X157483501Y-81072941D01*
X188094501Y-81112941D02*
X157506501Y-81112941D01*
X188071501Y-81152941D02*
X157529501Y-81152941D01*
X188049501Y-81192941D02*
X157551501Y-81192941D01*
X188026501Y-81232941D02*
X157574501Y-81232941D01*
X188003501Y-81272941D02*
X157597501Y-81272941D01*
X187979501Y-81312941D02*
X157621501Y-81312941D01*
X187956501Y-81352941D02*
X157644501Y-81352941D01*
X187932501Y-81392941D02*
X157668501Y-81392941D01*
X187909501Y-81432941D02*
X157691501Y-81432941D01*
X187885501Y-81472941D02*
X157715501Y-81472941D01*
X187861501Y-81512941D02*
X157739501Y-81512941D01*
X187837501Y-81552941D02*
X157763501Y-81552941D01*
X187812501Y-81592941D02*
X157788501Y-81592941D01*
X187788501Y-81632941D02*
X157812501Y-81632941D01*
X187763501Y-81672941D02*
X157837501Y-81672941D01*
X187739501Y-81712941D02*
X157861501Y-81712941D01*
X187714501Y-81752941D02*
X157886501Y-81752941D01*
X187689501Y-81792941D02*
X157911501Y-81792941D01*
X187664501Y-81832941D02*
X157936501Y-81832941D01*
X187638501Y-81872941D02*
X157962501Y-81872941D01*
X187613501Y-81912941D02*
X157987501Y-81912941D01*
X187587501Y-81952941D02*
X158013501Y-81952941D01*
X187562501Y-81992941D02*
X158038501Y-81992941D01*
X187536501Y-82032941D02*
X158064501Y-82032941D01*
X187510501Y-82072941D02*
X158090501Y-82072941D01*
X187483501Y-82112941D02*
X158117501Y-82112941D01*
X187457501Y-82152941D02*
X158143501Y-82152941D01*
X187430501Y-82192941D02*
X158170501Y-82192941D01*
X187404501Y-82232941D02*
X158196501Y-82232941D01*
X187377501Y-82272941D02*
X158223501Y-82272941D01*
X187350501Y-82312941D02*
X158250501Y-82312941D01*
X187323501Y-82352941D02*
X158277501Y-82352941D01*
X187295501Y-82392941D02*
X158305501Y-82392941D01*
X187268501Y-82432941D02*
X158332501Y-82432941D01*
X187240501Y-82472941D02*
X158360501Y-82472941D01*
X187212501Y-82512941D02*
X158388501Y-82512941D01*
X187184501Y-82552941D02*
X158416501Y-82552941D01*
X187156501Y-82592941D02*
X158444501Y-82592941D01*
X187128501Y-82632941D02*
X158472501Y-82632941D01*
X187099501Y-82672941D02*
X158501501Y-82672941D01*
X187071501Y-82712941D02*
X158529501Y-82712941D01*
X187042501Y-82752941D02*
X158558501Y-82752941D01*
X187013501Y-82792941D02*
X158587501Y-82792941D01*
X186984501Y-82832941D02*
X158616501Y-82832941D01*
X186955501Y-82872941D02*
X158645501Y-82872941D01*
X186925501Y-82912941D02*
X158675501Y-82912941D01*
X186895501Y-82952941D02*
X158705501Y-82952941D01*
X186865501Y-82992941D02*
X158735501Y-82992941D01*
X186835501Y-83032941D02*
X158765501Y-83032941D01*
X186805501Y-83072941D02*
X158795501Y-83072941D01*
X186775501Y-83112941D02*
X158825501Y-83112941D01*
X186744501Y-83152941D02*
X158856501Y-83152941D01*
X186714501Y-83192941D02*
X158886501Y-83192941D01*
X186683501Y-83232941D02*
X158917501Y-83232941D01*
X186651501Y-83272941D02*
X158949501Y-83272941D01*
X186620501Y-83312941D02*
X158980501Y-83312941D01*
X186589501Y-83352941D02*
X159011501Y-83352941D01*
X186557501Y-83392941D02*
X159043501Y-83392941D01*
X186525501Y-83432941D02*
X159075501Y-83432941D01*
X186493501Y-83472941D02*
X159107501Y-83472941D01*
X186461501Y-83512941D02*
X159139501Y-83512941D01*
X186428501Y-83552941D02*
X159172501Y-83552941D01*
X186396501Y-83592941D02*
X159204501Y-83592941D01*
X186363501Y-83632941D02*
X159237501Y-83632941D01*
X186330501Y-83672941D02*
X159270501Y-83672941D01*
X186297501Y-83712941D02*
X159303501Y-83712941D01*
X186263501Y-83752941D02*
X159337501Y-83752941D01*
X186230501Y-83792941D02*
X159370501Y-83792941D01*
X186196501Y-83832941D02*
X159404501Y-83832941D01*
X186162501Y-83872941D02*
X159438501Y-83872941D01*
X186127501Y-83912941D02*
X159473501Y-83912941D01*
X186093501Y-83952941D02*
X159507501Y-83952941D01*
X186058501Y-83992941D02*
X159542501Y-83992941D01*
X186023501Y-84032941D02*
X159577501Y-84032941D01*
X185988501Y-84072941D02*
X159612501Y-84072941D01*
X185953501Y-84112941D02*
X159647501Y-84112941D01*
X185917501Y-84152941D02*
X159683501Y-84152941D01*
X185882501Y-84192941D02*
X159718501Y-84192941D01*
X185846501Y-84232941D02*
X159754501Y-84232941D01*
X185810501Y-84272941D02*
X159790501Y-84272941D01*
X185773501Y-84312941D02*
X159827501Y-84312941D01*
X185737501Y-84352941D02*
X159863501Y-84352941D01*
X185700501Y-84392941D02*
X159900501Y-84392941D01*
X185663501Y-84432941D02*
X159937501Y-84432941D01*
X185625501Y-84472941D02*
X159975501Y-84472941D01*
X185588501Y-84512941D02*
X160012501Y-84512941D01*
X185550501Y-84552941D02*
X160050501Y-84552941D01*
X185512501Y-84592941D02*
X160088501Y-84592941D01*
X185474501Y-84632941D02*
X160126501Y-84632941D01*
X185435501Y-84672941D02*
X160165501Y-84672941D01*
X185396501Y-84712941D02*
X160204501Y-84712941D01*
X185357501Y-84752941D02*
X160243501Y-84752941D01*
X185318501Y-84792941D02*
X160282501Y-84792941D01*
X185279501Y-84832941D02*
X160321501Y-84832941D01*
X185239501Y-84872941D02*
X160361501Y-84872941D01*
X185199501Y-84912941D02*
X160401501Y-84912941D01*
X185159501Y-84952941D02*
X160441501Y-84952941D01*
X185118501Y-84992941D02*
X160482501Y-84992941D01*
X185077501Y-85032941D02*
X160523501Y-85032941D01*
X185036501Y-85072941D02*
X160564501Y-85072941D01*
X184995501Y-85112941D02*
X160605501Y-85112941D01*
X184953501Y-85152941D02*
X160647501Y-85152941D01*
X184911501Y-85192941D02*
X160689501Y-85192941D01*
X184869501Y-85232941D02*
X160731501Y-85232941D01*
X184827501Y-85272941D02*
X160773501Y-85272941D01*
X184784501Y-85312941D02*
X160816501Y-85312941D01*
X184741501Y-85352941D02*
X160859501Y-85352941D01*
X184698501Y-85392941D02*
X160902501Y-85392941D01*
X184654501Y-85432941D02*
X160946501Y-85432941D01*
X184611501Y-85472941D02*
X160989501Y-85472941D01*
X184566501Y-85512941D02*
X161034501Y-85512941D01*
X184522501Y-85552941D02*
X161078501Y-85552941D01*
X184477501Y-85592941D02*
X161123501Y-85592941D01*
X184432501Y-85632941D02*
X161168501Y-85632941D01*
X184387501Y-85672941D02*
X161213501Y-85672941D01*
X184341501Y-85712941D02*
X161259501Y-85712941D01*
X184295501Y-85752941D02*
X161305501Y-85752941D01*
X184249501Y-85792941D02*
X161351501Y-85792941D01*
X184202501Y-85832941D02*
X161398501Y-85832941D01*
X184155501Y-85872941D02*
X161445501Y-85872941D01*
X184107501Y-85912941D02*
X161493501Y-85912941D01*
X184060501Y-85952941D02*
X161540501Y-85952941D01*
X184012501Y-85992941D02*
X161588501Y-85992941D01*
X183963501Y-86032941D02*
X161637501Y-86032941D01*
X183915501Y-86072941D02*
X161685501Y-86072941D01*
X183866501Y-86112941D02*
X161734501Y-86112941D01*
X183816501Y-86152941D02*
X161784501Y-86152941D01*
X183766501Y-86192941D02*
X161834501Y-86192941D01*
X183716501Y-86232941D02*
X161884501Y-86232941D01*
X183665501Y-86272941D02*
X161935501Y-86272941D01*
X183615501Y-86312941D02*
X161985501Y-86312941D01*
X183563501Y-86352941D02*
X162037501Y-86352941D01*
X183511501Y-86392941D02*
X162089501Y-86392941D01*
X183459501Y-86432941D02*
X162141501Y-86432941D01*
X183407501Y-86472941D02*
X162193501Y-86472941D01*
X183354501Y-86512941D02*
X162246501Y-86512941D01*
X183300501Y-86552941D02*
X162300501Y-86552941D01*
X183247501Y-86592941D02*
X162353501Y-86592941D01*
X183192501Y-86632941D02*
X162408501Y-86632941D01*
X183138501Y-86672941D02*
X162462501Y-86672941D01*
X183083501Y-86712941D02*
X162517501Y-86712941D01*
X183027501Y-86752941D02*
X162573501Y-86752941D01*
X182971501Y-86792941D02*
X162629501Y-86792941D01*
X182915501Y-86832941D02*
X162685501Y-86832941D01*
X182858501Y-86872941D02*
X162742501Y-86872941D01*
X182800501Y-86912941D02*
X162800501Y-86912941D01*
X182742501Y-86952941D02*
X162858501Y-86952941D01*
X182684501Y-86992941D02*
X162916501Y-86992941D01*
X182625501Y-87032941D02*
X162975501Y-87032941D01*
X182565501Y-87072941D02*
X163035501Y-87072941D01*
X182505501Y-87112941D02*
X163095501Y-87112941D01*
X182445501Y-87152941D02*
X163155501Y-87152941D01*
X182384501Y-87192941D02*
X163216501Y-87192941D01*
X182322501Y-87232941D02*
X163278501Y-87232941D01*
X182260501Y-87272941D02*
X163340501Y-87272941D01*
X182197501Y-87312941D02*
X163403501Y-87312941D01*
X182134501Y-87352941D02*
X163466501Y-87352941D01*
X182070501Y-87392941D02*
X163530501Y-87392941D01*
X182005501Y-87432941D02*
X163595501Y-87432941D01*
X181940501Y-87472941D02*
X163660501Y-87472941D01*
X181874501Y-87512941D02*
X163726501Y-87512941D01*
X181808501Y-87552941D02*
X163792501Y-87552941D01*
X181740501Y-87592941D02*
X163860501Y-87592941D01*
X181673501Y-87632941D02*
X163927501Y-87632941D01*
X181604501Y-87672941D02*
X163996501Y-87672941D01*
X181535501Y-87712941D02*
X164065501Y-87712941D01*
X181465501Y-87752941D02*
X164135501Y-87752941D01*
X181394501Y-87792941D02*
X164206501Y-87792941D01*
X181322501Y-87832941D02*
X164278501Y-87832941D01*
X181250501Y-87872941D02*
X164350501Y-87872941D01*
X181177501Y-87912941D02*
X164423501Y-87912941D01*
X181103501Y-87952941D02*
X164497501Y-87952941D01*
X181028501Y-87992941D02*
X164572501Y-87992941D01*
X180952501Y-88032941D02*
X164648501Y-88032941D01*
X180876501Y-88072941D02*
X164724501Y-88072941D01*
X180798501Y-88112941D02*
X164802501Y-88112941D01*
X180720501Y-88152941D02*
X164880501Y-88152941D01*
X180640501Y-88192941D02*
X164960501Y-88192941D01*
X180559501Y-88232941D02*
X165041501Y-88232941D01*
X180478501Y-88272941D02*
X165122501Y-88272941D01*
X180395501Y-88312941D02*
X165205501Y-88312941D01*
X180312501Y-88352941D02*
X165288501Y-88352941D01*
X180227501Y-88392941D02*
X165373501Y-88392941D01*
X180141501Y-88432941D02*
X165459501Y-88432941D01*
X180053501Y-88472941D02*
X165547501Y-88472941D01*
X179965501Y-88512941D02*
X165635501Y-88512941D01*
X179875501Y-88552941D02*
X165725501Y-88552941D01*
X179783501Y-88592941D02*
X165817501Y-88592941D01*
X179690501Y-88632941D02*
X165910501Y-88632941D01*
X179596501Y-88672941D02*
X166004501Y-88672941D01*
X179500501Y-88712941D02*
X166100501Y-88712941D01*
X179403501Y-88752941D02*
X166197501Y-88752941D01*
X179304501Y-88792941D02*
X166296501Y-88792941D01*
X179203501Y-88832941D02*
X166397501Y-88832941D01*
X179100501Y-88872941D02*
X166500501Y-88872941D01*
X178995501Y-88912941D02*
X166605501Y-88912941D01*
X178889501Y-88952941D02*
X166711501Y-88952941D01*
X178780501Y-88992941D02*
X166820501Y-88992941D01*
X178668501Y-89032941D02*
X166932501Y-89032941D01*
X178555501Y-89072941D02*
X167045501Y-89072941D01*
X178439501Y-89112941D02*
X167161501Y-89112941D01*
X178320501Y-89152941D02*
X167280501Y-89152941D01*
X178198501Y-89192941D02*
X167402501Y-89192941D01*
X178073501Y-89232941D02*
X167527501Y-89232941D01*
X177945501Y-89272941D02*
X167655501Y-89272941D01*
X177813501Y-89312941D02*
X167787501Y-89312941D01*
X177678501Y-89352941D02*
X167922501Y-89352941D01*
X177538501Y-89392941D02*
X168062501Y-89392941D01*
X177393501Y-89432941D02*
X168207501Y-89432941D01*
X177244501Y-89472941D02*
X168356501Y-89472941D01*
X177089501Y-89512941D02*
X168511501Y-89512941D01*
X176928501Y-89552941D02*
X168672501Y-89552941D01*
X176760501Y-89592941D02*
X168840501Y-89592941D01*
X176585501Y-89632941D02*
X169015501Y-89632941D01*
X176400501Y-89672941D02*
X169200501Y-89672941D01*
X176205501Y-89712941D02*
X169395501Y-89712941D01*
X175998501Y-89752941D02*
X169602501Y-89752941D01*
X175776501Y-89792941D02*
X169824501Y-89792941D01*
X175536501Y-89832941D02*
X170064501Y-89832941D01*
X175273501Y-89872941D02*
X170327501Y-89872941D01*
X174977501Y-89912941D02*
X170623501Y-89912941D01*
X174635501Y-89952941D02*
X170965501Y-89952941D01*
X174213501Y-89992941D02*
X171387501Y-89992941D01*
X173600501Y-90032941D02*
X172000501Y-90032941D01*
X190420501Y-72432941D02*
G75*
G03*
X190420501Y-72432941I-17620000J0D01*
G01*
%TO.C,J2-4'1*%
X197651380Y-117348000D02*
X197247520Y-117348000D01*
X194677040Y-117348000D02*
X194273180Y-117348000D01*
X194273180Y-117348000D02*
X194273180Y-123952000D01*
X197651380Y-123952000D02*
X197651380Y-117348000D01*
X197232280Y-123952000D02*
X197651380Y-123952000D01*
X194273180Y-123952000D02*
X194692280Y-123952000D01*
%TO.C,R6*%
X180570000Y-130810000D02*
X179800000Y-130810000D01*
X179800000Y-132180000D02*
X179800000Y-129440000D01*
X179800000Y-129440000D02*
X173260000Y-129440000D01*
X173260000Y-132180000D02*
X179800000Y-132180000D01*
X173260000Y-129440000D02*
X173260000Y-132180000D01*
X172490000Y-130810000D02*
X173260000Y-130810000D01*
%TD*%
M02*
