%TF.GenerationSoftware,KiCad,Pcbnew,7.0.6-0*%
%TF.CreationDate,2023-08-21T15:57:04+02:00*%
%TF.ProjectId,Q17-PSU,5131372d-5053-4552-9e6b-696361645f70,1.0*%
%TF.SameCoordinates,Original*%
%TF.FileFunction,Soldermask,Bot*%
%TF.FilePolarity,Negative*%
%FSLAX46Y46*%
G04 Gerber Fmt 4.6, Leading zero omitted, Abs format (unit mm)*
G04 Created by KiCad (PCBNEW 7.0.6-0) date 2023-08-21 15:57:04*
%MOMM*%
%LPD*%
G01*
G04 APERTURE LIST*
%ADD10C,2.000000*%
%ADD11R,2.270000X2.270000*%
%ADD12C,2.270000*%
%ADD13R,4.000000X4.000000*%
%ADD14C,4.000000*%
%ADD15C,2.500000*%
%ADD16C,2.400000*%
%ADD17C,0.900000*%
%ADD18C,8.600000*%
%ADD19C,1.600000*%
%ADD20O,1.600000X1.600000*%
%ADD21R,1.800000X1.800000*%
%ADD22C,1.800000*%
G04 APERTURE END LIST*
D10*
%TO.C,C3*%
X127762000Y-45212000D03*
X117762000Y-45212000D03*
%TD*%
D11*
%TO.C,D2*%
X111506000Y-97557440D03*
D12*
X111506000Y-107557440D03*
X111506000Y-115057440D03*
X111506000Y-122557440D03*
%TD*%
D10*
%TO.C,C2*%
X106046280Y-106307440D03*
X106046280Y-113807440D03*
%TD*%
D13*
%TO.C,C5*%
X135513301Y-67394442D03*
D14*
X135513301Y-77394442D03*
%TD*%
D15*
%TO.C,J1-3*%
X100712280Y-101346000D03*
X100712280Y-96266000D03*
%TD*%
D16*
%TO.C,C9*%
X146683581Y-45212000D03*
X161683581Y-45212000D03*
%TD*%
D15*
%TO.C,J1-4*%
X100712280Y-123952000D03*
X100712280Y-118872000D03*
%TD*%
D17*
%TO.C,#GROUND01*%
X150953000Y-90926419D03*
X151897581Y-88646000D03*
X151897581Y-93206838D03*
X154178000Y-87701419D03*
D18*
X154178000Y-90926419D03*
D17*
X154178000Y-94151419D03*
X156458419Y-88646000D03*
X156458419Y-93206838D03*
X157403000Y-90926419D03*
%TD*%
D15*
%TO.C,J2-2'1*%
X196850000Y-94996000D03*
X191770000Y-94996000D03*
%TD*%
D10*
%TO.C,C1*%
X106046280Y-68074941D03*
X106046280Y-75574941D03*
%TD*%
D15*
%TO.C,J1-1*%
X100712280Y-63246000D03*
X100712280Y-58166000D03*
%TD*%
D17*
%TO.C,REF\u002A\u002A*%
X191569280Y-136729763D03*
X192513861Y-134449344D03*
X192513861Y-139010182D03*
X194794280Y-133504763D03*
D18*
X194794280Y-136729763D03*
D17*
X194794280Y-139954763D03*
X197074699Y-134449344D03*
X197074699Y-139010182D03*
X198019280Y-136729763D03*
%TD*%
D13*
%TO.C,C8*%
X172597301Y-105532941D03*
D14*
X172597301Y-115532941D03*
%TD*%
D19*
%TO.C,R2*%
X113538000Y-128524000D03*
D20*
X123698000Y-128524000D03*
%TD*%
D19*
%TO.C,R4*%
X149103581Y-128524000D03*
D20*
X159263581Y-128524000D03*
%TD*%
D21*
%TO.C,D4*%
X176530000Y-138004763D03*
D22*
X176530000Y-135464763D03*
%TD*%
D15*
%TO.C,J2-1'1*%
X195962280Y-70612000D03*
X195962280Y-75692000D03*
%TD*%
%TO.C,J2-2*%
X196850000Y-86360000D03*
X191770000Y-86360000D03*
%TD*%
%TO.C,J2-3*%
X195962280Y-106426000D03*
X195962280Y-111506000D03*
%TD*%
D10*
%TO.C,C4*%
X127762000Y-136729763D03*
X117762000Y-136729763D03*
%TD*%
D11*
%TO.C,D1*%
X111506000Y-59324941D03*
D12*
X111506000Y-69324941D03*
X111506000Y-76824941D03*
X111506000Y-84324941D03*
%TD*%
D15*
%TO.C,J1-2*%
X100712280Y-85598000D03*
X100712280Y-80518000D03*
%TD*%
D19*
%TO.C,R3*%
X159263581Y-53594000D03*
D20*
X149103581Y-53594000D03*
%TD*%
D17*
%TO.C,REF\u002A\u002A*%
X191569280Y-45238963D03*
X192513861Y-42958544D03*
X192513861Y-47519382D03*
X194794280Y-42013963D03*
D18*
X194794280Y-45238963D03*
D17*
X194794280Y-48463963D03*
X197074699Y-42958544D03*
X197074699Y-47519382D03*
X198019280Y-45238963D03*
%TD*%
D13*
%TO.C,C6*%
X135513301Y-105626941D03*
D14*
X135513301Y-115626941D03*
%TD*%
D16*
%TO.C,C10*%
X161683581Y-136729763D03*
X146683581Y-136729763D03*
%TD*%
D21*
%TO.C,D3*%
X176530000Y-43937000D03*
D22*
X176530000Y-46477000D03*
%TD*%
D17*
%TO.C,REF\u002A\u002A*%
X100084061Y-45233382D03*
X101028642Y-42952963D03*
X101028642Y-47513801D03*
X103309061Y-42008382D03*
D18*
X103309061Y-45233382D03*
D17*
X103309061Y-48458382D03*
X105589480Y-42952963D03*
X105589480Y-47513801D03*
X106534061Y-45233382D03*
%TD*%
D19*
%TO.C,R1*%
X113538000Y-53594000D03*
D20*
X123698000Y-53594000D03*
%TD*%
D15*
%TO.C,J2-1*%
X195962280Y-58928000D03*
X195962280Y-64008000D03*
%TD*%
D19*
%TO.C,R5*%
X171450000Y-51308000D03*
D20*
X181610000Y-51308000D03*
%TD*%
D13*
%TO.C,C7*%
X172800501Y-67432941D03*
D14*
X172800501Y-77432941D03*
%TD*%
D15*
%TO.C,J2-4'1*%
X195962280Y-118110000D03*
X195962280Y-123190000D03*
%TD*%
D17*
%TO.C,REF\u002A\u002A*%
X100078480Y-136729763D03*
X101023061Y-134449344D03*
X101023061Y-139010182D03*
X103303480Y-133504763D03*
D18*
X103303480Y-136729763D03*
D17*
X103303480Y-139954763D03*
X105583899Y-134449344D03*
X105583899Y-139010182D03*
X106528480Y-136729763D03*
%TD*%
D19*
%TO.C,R6*%
X181610000Y-130810000D03*
D20*
X171450000Y-130810000D03*
%TD*%
M02*
