%TF.GenerationSoftware,KiCad,Pcbnew,8.0.3*%
%TF.CreationDate,2024-07-01T09:31:08+02:00*%
%TF.ProjectId,Q17-Mini,5131372d-4d69-46e6-992e-6b696361645f,3.0.1*%
%TF.SameCoordinates,Original*%
%TF.FileFunction,Soldermask,Bot*%
%TF.FilePolarity,Negative*%
%FSLAX46Y46*%
G04 Gerber Fmt 4.6, Leading zero omitted, Abs format (unit mm)*
G04 Created by KiCad (PCBNEW 8.0.3) date 2024-07-01 09:31:08*
%MOMM*%
%LPD*%
G01*
G04 APERTURE LIST*
G04 Aperture macros list*
%AMRoundRect*
0 Rectangle with rounded corners*
0 $1 Rounding radius*
0 $2 $3 $4 $5 $6 $7 $8 $9 X,Y pos of 4 corners*
0 Add a 4 corners polygon primitive as box body*
4,1,4,$2,$3,$4,$5,$6,$7,$8,$9,$2,$3,0*
0 Add four circle primitives for the rounded corners*
1,1,$1+$1,$2,$3*
1,1,$1+$1,$4,$5*
1,1,$1+$1,$6,$7*
1,1,$1+$1,$8,$9*
0 Add four rect primitives between the rounded corners*
20,1,$1+$1,$2,$3,$4,$5,0*
20,1,$1+$1,$4,$5,$6,$7,0*
20,1,$1+$1,$6,$7,$8,$9,0*
20,1,$1+$1,$8,$9,$2,$3,0*%
G04 Aperture macros list end*
%ADD10R,2.000000X1.905000*%
%ADD11O,2.000000X1.905000*%
%ADD12C,2.500000*%
%ADD13C,1.600000*%
%ADD14O,1.600000X1.600000*%
%ADD15R,1.800000X1.800000*%
%ADD16C,1.800000*%
%ADD17R,2.400000X2.400000*%
%ADD18C,2.400000*%
%ADD19C,2.000000*%
%ADD20C,3.600000*%
%ADD21C,5.600000*%
%ADD22R,2.000000X2.000000*%
%ADD23R,1.600000X1.600000*%
%ADD24R,1.300000X1.050000*%
%ADD25O,1.300000X1.050000*%
%ADD26O,2.400000X2.400000*%
%ADD27R,1.500000X1.500000*%
%ADD28C,1.500000*%
%ADD29R,4.500000X2.500000*%
%ADD30O,4.500000X2.500000*%
%ADD31R,1.050000X1.300000*%
%ADD32O,1.050000X1.300000*%
%ADD33C,3.000000*%
%ADD34R,1.000000X1.000000*%
%ADD35R,2.600000X2.600000*%
%ADD36RoundRect,0.375000X-0.625000X0.375000X-0.625000X-0.375000X0.625000X-0.375000X0.625000X0.375000X0*%
%ADD37O,2.000000X1.500000*%
%ADD38C,2.600000*%
%ADD39RoundRect,0.150000X0.850000X0.150000X-0.850000X0.150000X-0.850000X-0.150000X0.850000X-0.150000X0*%
%ADD40R,1.560000X0.650000*%
%ADD41RoundRect,0.150000X0.825000X0.150000X-0.825000X0.150000X-0.825000X-0.150000X0.825000X-0.150000X0*%
G04 APERTURE END LIST*
D10*
%TO.C,Q13*%
X177104495Y-67140037D03*
D11*
X177104495Y-64600037D03*
X177104495Y-62060037D03*
%TD*%
D12*
%TO.C,J3-3*%
X159384495Y-113241037D03*
X154304495Y-113241037D03*
%TD*%
D13*
%TO.C,R19*%
X108077745Y-58250037D03*
D14*
X118237745Y-58250037D03*
%TD*%
D15*
%TO.C,D4*%
X130114495Y-122385037D03*
D16*
X127574495Y-122385037D03*
%TD*%
D17*
%TO.C,C16*%
X164905495Y-102700037D03*
D18*
X172405495Y-102700037D03*
%TD*%
D19*
%TO.C,R12*%
X180279495Y-96985037D03*
X180279495Y-109685037D03*
%TD*%
D10*
%TO.C,Q14*%
X175834495Y-118575037D03*
D11*
X175834495Y-121115037D03*
X175834495Y-123655037D03*
%TD*%
D13*
%TO.C,C12*%
X154879495Y-119925037D03*
X154879495Y-124925037D03*
%TD*%
%TO.C,R6*%
X125669495Y-83127712D03*
D14*
X135829495Y-83127712D03*
%TD*%
D20*
%TO.C,H3*%
X191188820Y-126440889D03*
D21*
X191188820Y-126440889D03*
%TD*%
D13*
%TO.C,R23*%
X130114495Y-102700037D03*
D14*
X140274495Y-102700037D03*
%TD*%
D13*
%TO.C,R21*%
X123764495Y-128735037D03*
D14*
X123764495Y-118575037D03*
%TD*%
D13*
%TO.C,R40*%
X108524495Y-71585037D03*
D14*
X108524495Y-61425037D03*
%TD*%
D13*
%TO.C,R8*%
X185994495Y-123190000D03*
D14*
X185994495Y-113030000D03*
%TD*%
D13*
%TO.C,C11*%
X155514495Y-62020037D03*
X155514495Y-57020037D03*
%TD*%
D22*
%TO.C,C6*%
X117877172Y-113495037D03*
D19*
X112877172Y-113495037D03*
%TD*%
D23*
%TO.C,D2*%
X112969495Y-62735037D03*
D14*
X112969495Y-70355037D03*
%TD*%
D15*
%TO.C,D1*%
X128209495Y-61425037D03*
D16*
X128209495Y-58885037D03*
%TD*%
D18*
%TO.C,C17*%
X135899790Y-106497272D03*
X135899790Y-121497272D03*
%TD*%
D19*
%TO.C,C1*%
X133632943Y-77928513D03*
X139004495Y-77928513D03*
%TD*%
D23*
%TO.C,D3*%
X111699495Y-120480037D03*
D14*
X111699495Y-128100037D03*
%TD*%
D13*
%TO.C,R2*%
X130114495Y-65870037D03*
D14*
X119954495Y-65870037D03*
%TD*%
D20*
%TO.C,H1*%
X103463294Y-58647028D03*
D21*
X103463294Y-58647028D03*
%TD*%
D17*
%TO.C,C14*%
X161309495Y-122385037D03*
D18*
X166309495Y-122385037D03*
%TD*%
D23*
%TO.C,D6*%
X172024495Y-64600037D03*
D14*
X172024495Y-56980037D03*
%TD*%
D22*
%TO.C,C3*%
X108604495Y-77935037D03*
D19*
X113604495Y-77935037D03*
%TD*%
D12*
%TO.C,J3-2*%
X149164495Y-116670037D03*
X149164495Y-111590037D03*
%TD*%
%TO.C,J2-1*%
X148529495Y-106510037D03*
X143449495Y-106510037D03*
%TD*%
D13*
%TO.C,R30*%
X177104495Y-114130037D03*
D14*
X166944495Y-114130037D03*
%TD*%
D10*
%TO.C,Q4*%
X104079495Y-119845037D03*
D11*
X104079495Y-117305037D03*
X104079495Y-114765037D03*
%TD*%
D24*
%TO.C,Q9*%
X137099495Y-72855037D03*
D25*
X137099495Y-70315037D03*
X137099495Y-67775037D03*
%TD*%
D18*
%TO.C,R27*%
X139244311Y-83127712D03*
D26*
X151944311Y-83127712D03*
%TD*%
D27*
%TO.C,Q7*%
X122494360Y-77300037D03*
D28*
X122494360Y-79840037D03*
X122494360Y-82380037D03*
%TD*%
D13*
%TO.C,R18*%
X114239495Y-95715037D03*
D14*
X114239495Y-85555037D03*
%TD*%
D19*
%TO.C,C10*%
X151244923Y-77935037D03*
X145873371Y-77935037D03*
%TD*%
D13*
%TO.C,R29*%
X175834495Y-71585037D03*
D14*
X165674495Y-71585037D03*
%TD*%
D29*
%TO.C,Q15*%
X188595000Y-76835000D03*
D30*
X188595000Y-82285000D03*
X188595000Y-87735000D03*
%TD*%
D27*
%TO.C,Q3*%
X119954495Y-128100037D03*
D28*
X119954495Y-125560037D03*
X119954495Y-123020037D03*
%TD*%
D29*
%TO.C,Q16*%
X188595000Y-97752220D03*
D30*
X188595000Y-103202220D03*
X188595000Y-108652220D03*
%TD*%
D18*
%TO.C,R28*%
X157673495Y-96350037D03*
D26*
X157673495Y-109050037D03*
%TD*%
D18*
%TO.C,C7*%
X118864495Y-91270037D03*
X141364495Y-91270037D03*
%TD*%
D13*
%TO.C,C8*%
X114874495Y-122779843D03*
X114874495Y-127779843D03*
%TD*%
%TO.C,R16*%
X123129495Y-99271037D03*
D14*
X112969495Y-99271037D03*
%TD*%
D13*
%TO.C,C5*%
X104079495Y-98255037D03*
X109079495Y-98255037D03*
%TD*%
D31*
%TO.C,Q111*%
X141544495Y-63330037D03*
D32*
X139004495Y-63330037D03*
X136464495Y-63330037D03*
%TD*%
D13*
%TO.C,R24*%
X139639495Y-70315037D03*
D14*
X149799495Y-70315037D03*
%TD*%
D17*
%TO.C,C13*%
X166309495Y-62060037D03*
D18*
X161309495Y-62060037D03*
%TD*%
D27*
%TO.C,Q2*%
X121859495Y-57610037D03*
D28*
X121859495Y-60150037D03*
X121859495Y-62690037D03*
%TD*%
D13*
%TO.C,C4*%
X103444495Y-77935037D03*
X103444495Y-82935037D03*
%TD*%
D20*
%TO.C,H2*%
X191175082Y-58697768D03*
D21*
X191175082Y-58697768D03*
%TD*%
D13*
%TO.C,R4*%
X128209495Y-69680037D03*
D14*
X128209495Y-79840037D03*
%TD*%
D13*
%TO.C,R9*%
X174564495Y-128100037D03*
D14*
X184724495Y-128100037D03*
%TD*%
D18*
%TO.C,R31*%
X142164495Y-98994079D03*
D26*
X126924495Y-98994079D03*
%TD*%
D13*
%TO.C,C9*%
X116144495Y-67735037D03*
X116144495Y-62735037D03*
%TD*%
%TO.C,R1*%
X118049495Y-83650037D03*
D14*
X118049495Y-73490037D03*
%TD*%
D10*
%TO.C,Q6*%
X190698000Y-115570000D03*
D11*
X190698000Y-118110000D03*
X190698000Y-120650000D03*
%TD*%
D33*
%TO.C,L1*%
X150415807Y-87457846D03*
X150415807Y-101457846D03*
%TD*%
D12*
%TO.C,J2-2*%
X142814495Y-116670037D03*
X142814495Y-111590037D03*
%TD*%
D18*
%TO.C,R26*%
X157673495Y-76030037D03*
D26*
X157673495Y-88730037D03*
%TD*%
D13*
%TO.C,R20*%
X138369495Y-128100037D03*
D14*
X128209495Y-128100037D03*
%TD*%
D13*
%TO.C,R14*%
X184089495Y-66672737D03*
D14*
X184089495Y-76832737D03*
%TD*%
D13*
%TO.C,R15*%
X184277000Y-106299000D03*
D14*
X184277000Y-96139000D03*
%TD*%
D13*
%TO.C,R41*%
X108524495Y-117940037D03*
D14*
X108524495Y-128100037D03*
%TD*%
D10*
%TO.C,Q5*%
X190698000Y-64516000D03*
D11*
X190698000Y-67056000D03*
X190698000Y-69596000D03*
%TD*%
D13*
%TO.C,R7*%
X180914495Y-60155037D03*
D14*
X180914495Y-70315037D03*
%TD*%
D27*
%TO.C,Q10*%
X146497495Y-57615037D03*
D28*
X146497495Y-60155037D03*
X146497495Y-62695037D03*
%TD*%
D13*
%TO.C,R13*%
X182184495Y-112225037D03*
D14*
X182184495Y-122385037D03*
%TD*%
D27*
%TO.C,Q12*%
X146899495Y-123020037D03*
D28*
X146899495Y-125560037D03*
X146899495Y-128100037D03*
%TD*%
D13*
%TO.C,R25*%
X133289495Y-124925037D03*
D14*
X143449495Y-124925037D03*
%TD*%
D17*
%TO.C,C15*%
X172405495Y-83015037D03*
D18*
X164905495Y-83015037D03*
%TD*%
D13*
%TO.C,R10*%
X176469495Y-56980037D03*
D14*
X186629495Y-56980037D03*
%TD*%
D20*
%TO.C,H4*%
X103475185Y-126428054D03*
D21*
X103475185Y-126428054D03*
%TD*%
D31*
%TO.C,Q11*%
X136394495Y-61044037D03*
D32*
X138934495Y-61044037D03*
X141474495Y-61044037D03*
%TD*%
D27*
%TO.C,Q8*%
X122494495Y-74125037D03*
D28*
X122494495Y-71585037D03*
X122494495Y-69045037D03*
%TD*%
D10*
%TO.C,Q1*%
X104079495Y-70315037D03*
D11*
X104079495Y-67775037D03*
X104079495Y-65235037D03*
%TD*%
D13*
%TO.C,R3*%
X133289495Y-56980037D03*
D14*
X133289495Y-67140037D03*
%TD*%
D19*
%TO.C,R11*%
X180279495Y-76030037D03*
X180279495Y-88730037D03*
%TD*%
D34*
%TO.C,J4*%
X145989495Y-109939037D03*
%TD*%
D35*
%TO.C,J1*%
X105984495Y-103335037D03*
D36*
X107596495Y-104585037D03*
D37*
X107596495Y-107085037D03*
D38*
X105984495Y-108335037D03*
%TD*%
D22*
%TO.C,C2*%
X126324538Y-109711651D03*
D19*
X126324538Y-114711651D03*
%TD*%
D23*
%TO.C,U1'*%
X102657426Y-94445037D03*
D14*
X105197426Y-94445037D03*
X107737426Y-94445037D03*
X110277426Y-94445037D03*
X110277426Y-86825037D03*
X107737426Y-86825037D03*
X105197426Y-86825037D03*
X102657426Y-86825037D03*
%TD*%
D23*
%TO.C,D5*%
X172690981Y-124535037D03*
D14*
X172690981Y-116915037D03*
%TD*%
D12*
%TO.C,J3-1*%
X159451495Y-71839037D03*
X154371495Y-71839037D03*
%TD*%
D13*
%TO.C,R17*%
X123129495Y-103970037D03*
D14*
X112969495Y-103970037D03*
%TD*%
D39*
%TO.C,U2*%
X147894495Y-65240037D03*
X147894495Y-66190037D03*
X147894495Y-67140037D03*
X144846495Y-67140037D03*
X144846495Y-66190037D03*
X144846495Y-65240037D03*
%TD*%
D40*
%TO.C,Q7'*%
X114319495Y-73175037D03*
X114319495Y-74125037D03*
X114319495Y-75075037D03*
X111619495Y-75075037D03*
X111619495Y-73175037D03*
%TD*%
D41*
%TO.C,U1*%
X108617921Y-88645134D03*
X108617921Y-89915134D03*
X108617921Y-91185134D03*
X108617921Y-92455134D03*
X103667921Y-92455134D03*
X103667921Y-91185134D03*
X103667921Y-89915134D03*
X103667921Y-88645134D03*
%TD*%
M02*
