M48
; DRILL file {KiCad 8.0.3} date 2024-07-01T09:31:10+0200
; FORMAT={-:-/ absolute / inch / decimal}
; #@! TF.CreationDate,2024-07-01T09:31:10+02:00
; #@! TF.GenerationSoftware,Kicad,Pcbnew,8.0.3
; #@! TF.FileFunction,Plated,1,2,PTH
FMAT,2
INCH
; #@! TA.AperFunction,Plated,PTH,ViaDrill
T1C0.0157
; #@! TA.AperFunction,Plated,PTH,ComponentDrill
T2C0.0256
; #@! TA.AperFunction,Plated,PTH,ComponentDrill
T3C0.0295
; #@! TA.AperFunction,Plated,PTH,ComponentDrill
T4C0.0315
; #@! TA.AperFunction,Plated,PTH,ComponentDrill
T5C0.0354
; #@! TA.AperFunction,Plated,PTH,ComponentDrill
T6C0.0394
; #@! TA.AperFunction,Plated,PTH,ComponentDrill
T7C0.0433
; #@! TA.AperFunction,Plated,PTH,ComponentDrill
T8C0.0472
; #@! TA.AperFunction,Plated,PTH,ComponentDrill
T9C0.0512
; #@! TA.AperFunction,Plated,PTH,ComponentDrill
T10C0.0591
; #@! TA.AperFunction,Plated,PTH,ComponentDrill
T11C0.1260
%
G90
G05
T1
X5.6226Y-2.6059
X5.6726Y-2.7683
T2
X5.7476Y-4.3283
T3
X5.3699Y-2.4033
X5.3726Y-2.4933
X5.3976Y-2.6683
X5.3976Y-2.7683
X5.3976Y-2.8683
X5.4699Y-2.4033
X5.4726Y-2.4933
X5.5699Y-2.4033
X5.5726Y-2.4933
T4
X4.0416Y-3.4183
X4.0416Y-3.7183
X4.0726Y-3.0683
X4.0726Y-3.2652
X4.0976Y-3.8683
X4.1416Y-3.4183
X4.1416Y-3.7183
X4.2416Y-3.4183
X4.2416Y-3.7183
X4.255Y-2.2933
X4.2726Y-2.4183
X4.2726Y-2.8183
X4.2726Y-4.6433
X4.2726Y-5.0433
X4.2945Y-3.8683
X4.3416Y-3.4183
X4.3416Y-3.7183
X4.3976Y-4.7433
X4.3976Y-5.0433
X4.4476Y-2.4699
X4.4476Y-3.9083
X4.4476Y-4.0933
X4.4976Y-3.3683
X4.4976Y-3.7683
X4.5226Y-4.8339
X4.5226Y-5.0307
X4.5726Y-2.4699
X4.5726Y-2.6667
X4.6476Y-2.8933
X4.6476Y-3.2933
X4.655Y-2.2933
X4.7226Y-2.5933
X4.7226Y-4.8433
X4.7226Y-4.9433
X4.7226Y-5.0433
X4.7976Y-2.2681
X4.7976Y-2.3681
X4.7976Y-2.4681
X4.8226Y-3.0433
X4.8226Y-3.1433
X4.8226Y-3.2433
X4.8226Y-2.7183
X4.8226Y-2.8183
X4.8226Y-2.9183
X4.8476Y-3.9083
X4.8476Y-4.0933
X4.8726Y-4.6683
X4.8726Y-5.0683
X4.9476Y-3.2727
X5.0476Y-2.7433
X5.0476Y-3.1433
X5.0476Y-5.0433
X5.1226Y-2.5933
X5.1226Y-4.0433
X5.2476Y-2.2433
X5.2476Y-2.6433
X5.2476Y-4.9183
X5.4476Y-5.0433
X5.4976Y-2.7683
X5.5226Y-4.0433
X5.6476Y-4.9183
X5.7676Y-2.2683
X5.7676Y-2.3683
X5.7676Y-2.4683
X5.7834Y-4.8433
X5.7834Y-4.9433
X5.7834Y-5.0433
X5.8976Y-2.7683
X6.0976Y-4.7215
X6.0976Y-4.9183
X6.1226Y-2.2449
X6.1226Y-2.4417
X6.5226Y-2.8183
X6.5726Y-4.4933
X6.7726Y-2.2433
X6.7726Y-2.5433
X6.7989Y-4.603
X6.7989Y-4.903
X6.8726Y-5.0433
X6.9226Y-2.8183
X6.9476Y-2.2433
X6.9726Y-4.4933
X7.1226Y-2.3683
X7.1226Y-2.7683
X7.1726Y-4.4183
X7.1726Y-4.8183
X7.2476Y-2.6249
X7.2476Y-3.0249
X7.255Y-3.785
X7.255Y-4.185
X7.2726Y-5.0433
X7.3226Y-4.45
X7.3226Y-4.85
X7.3476Y-2.2433
T5
X4.4476Y-2.7699
X5.0226Y-4.8183
X5.0476Y-2.3183
X5.0476Y-2.4183
X5.1226Y-4.8183
X5.3476Y-3.2727
T6
X4.2361Y-4.1175
X4.2361Y-4.2159
X4.2758Y-3.0683
X4.444Y-4.4683
X4.4726Y-3.0683
X4.6408Y-4.4683
X4.9734Y-4.3194
X4.9734Y-4.5162
X7.0976Y-2.9933
X7.0976Y-3.4933
X7.0976Y-3.8183
X7.0976Y-4.3183
T7
X4.0976Y-2.5683
X4.0976Y-2.6683
X4.0976Y-2.7683
X4.0976Y-4.5183
X4.0976Y-4.6183
X4.0976Y-4.7183
X6.9226Y-4.6683
X6.9226Y-4.7683
X6.9226Y-4.8683
X6.9726Y-2.4433
X6.9726Y-2.5433
X6.9726Y-2.6433
X7.5078Y-2.54
X7.5078Y-2.64
X7.5078Y-2.74
X7.5078Y-4.55
X7.5078Y-4.65
X7.5078Y-4.75
T8
X4.6797Y-3.5933
X4.997Y-3.8974
X5.3504Y-4.1928
X5.3504Y-4.7834
X5.4821Y-3.2727
X5.5655Y-3.5933
X5.597Y-3.8974
X5.9219Y-3.4432
X5.9219Y-3.9944
X5.9821Y-3.2727
X6.2076Y-2.9933
X6.2076Y-3.4933
X6.2076Y-3.7933
X6.2076Y-4.2933
X6.3508Y-2.4433
X6.3508Y-4.8183
X6.4923Y-3.2683
X6.4923Y-4.0433
X6.5476Y-2.4433
X6.5476Y-4.8183
X6.7876Y-3.2683
X6.7876Y-4.0433
T9
X4.1726Y-4.0683
X4.1726Y-4.2652
T10
X7.425Y-3.025
X7.425Y-3.2396
X7.425Y-3.4541
X7.425Y-3.8485
X7.425Y-4.0631
X7.425Y-4.2776
T6
G00X5.2572Y-3.0681
M15
G01X5.2651Y-3.0681
M16
G05
G00X5.4687Y-3.0681
M15
G01X5.4766Y-3.0681
M16
G05
G00X5.6226Y-4.4032
M15
G01X5.6226Y-4.3835
M16
G05
G00X5.6226Y-4.6032
M15
G01X5.6226Y-4.5835
M16
G05
G00X5.6575Y-4.1933
M15
G01X5.6378Y-4.1933
M16
G05
G00X5.747Y-3.0683
M15
G01X5.7391Y-3.0683
M16
G05
G00X5.8575Y-4.1933
M15
G01X5.8378Y-4.1933
M16
G05
G00X5.8726Y-4.4032
M15
G01X5.8726Y-4.3835
M16
G05
G00X5.8726Y-4.6032
M15
G01X5.8726Y-4.5835
M16
G05
G00X5.9585Y-3.0683
M15
G01X5.9506Y-3.0683
M16
G05
G00X6.0848Y-4.4583
M15
G01X6.0651Y-4.4583
M16
G05
G00X6.0875Y-2.8283
M15
G01X6.0678Y-2.8283
M16
G05
G00X6.2848Y-4.4583
M15
G01X6.2651Y-4.4583
M16
G05
G00X6.2875Y-2.8283
M15
G01X6.2678Y-2.8283
M16
G05
T11
G00X4.0773Y-2.3089
M15
G01X4.0694Y-2.3089
M16
G05
G00X4.0738Y-4.9814
M15
G01X4.0738Y-4.9735
M16
G05
G00X7.5266Y-2.3149
M15
G01X7.5266Y-2.307
M16
G05
G00X7.5232Y-4.978
M15
G01X7.5311Y-4.978
M16
G05
M30
