%TF.GenerationSoftware,KiCad,Pcbnew,8.0.3*%
%TF.CreationDate,2024-07-01T09:31:08+02:00*%
%TF.ProjectId,Q17-Mini,5131372d-4d69-46e6-992e-6b696361645f,3.0.1*%
%TF.SameCoordinates,Original*%
%TF.FileFunction,Legend,Bot*%
%TF.FilePolarity,Positive*%
%FSLAX46Y46*%
G04 Gerber Fmt 4.6, Leading zero omitted, Abs format (unit mm)*
G04 Created by KiCad (PCBNEW 8.0.3) date 2024-07-01 09:31:08*
%MOMM*%
%LPD*%
G01*
G04 APERTURE LIST*
%ADD10C,0.150000*%
%ADD11C,0.300000*%
%ADD12C,0.250000*%
%ADD13C,0.200000*%
%ADD14C,0.120000*%
G04 APERTURE END LIST*
D10*
X149714552Y-124988608D02*
X149666933Y-124893370D01*
X149666933Y-124893370D02*
X149571695Y-124798132D01*
X149571695Y-124798132D02*
X149428837Y-124655275D01*
X149428837Y-124655275D02*
X149381218Y-124560037D01*
X149381218Y-124560037D02*
X149381218Y-124464799D01*
X149619314Y-124512418D02*
X149571695Y-124417180D01*
X149571695Y-124417180D02*
X149476456Y-124321942D01*
X149476456Y-124321942D02*
X149285980Y-124274323D01*
X149285980Y-124274323D02*
X148952647Y-124274323D01*
X148952647Y-124274323D02*
X148762171Y-124321942D01*
X148762171Y-124321942D02*
X148666933Y-124417180D01*
X148666933Y-124417180D02*
X148619314Y-124512418D01*
X148619314Y-124512418D02*
X148619314Y-124702894D01*
X148619314Y-124702894D02*
X148666933Y-124798132D01*
X148666933Y-124798132D02*
X148762171Y-124893370D01*
X148762171Y-124893370D02*
X148952647Y-124940989D01*
X148952647Y-124940989D02*
X149285980Y-124940989D01*
X149285980Y-124940989D02*
X149476456Y-124893370D01*
X149476456Y-124893370D02*
X149571695Y-124798132D01*
X149571695Y-124798132D02*
X149619314Y-124702894D01*
X149619314Y-124702894D02*
X149619314Y-124512418D01*
X149619314Y-125893370D02*
X149619314Y-125321942D01*
X149619314Y-125607656D02*
X148619314Y-125607656D01*
X148619314Y-125607656D02*
X148762171Y-125512418D01*
X148762171Y-125512418D02*
X148857409Y-125417180D01*
X148857409Y-125417180D02*
X148905028Y-125321942D01*
X148714552Y-126274323D02*
X148666933Y-126321942D01*
X148666933Y-126321942D02*
X148619314Y-126417180D01*
X148619314Y-126417180D02*
X148619314Y-126655275D01*
X148619314Y-126655275D02*
X148666933Y-126750513D01*
X148666933Y-126750513D02*
X148714552Y-126798132D01*
X148714552Y-126798132D02*
X148809790Y-126845751D01*
X148809790Y-126845751D02*
X148905028Y-126845751D01*
X148905028Y-126845751D02*
X149047885Y-126798132D01*
X149047885Y-126798132D02*
X149619314Y-126226704D01*
X149619314Y-126226704D02*
X149619314Y-126845751D01*
X193275552Y-81808608D02*
X193227933Y-81713370D01*
X193227933Y-81713370D02*
X193132695Y-81618132D01*
X193132695Y-81618132D02*
X192989837Y-81475275D01*
X192989837Y-81475275D02*
X192942218Y-81380037D01*
X192942218Y-81380037D02*
X192942218Y-81284799D01*
X193180314Y-81332418D02*
X193132695Y-81237180D01*
X193132695Y-81237180D02*
X193037456Y-81141942D01*
X193037456Y-81141942D02*
X192846980Y-81094323D01*
X192846980Y-81094323D02*
X192513647Y-81094323D01*
X192513647Y-81094323D02*
X192323171Y-81141942D01*
X192323171Y-81141942D02*
X192227933Y-81237180D01*
X192227933Y-81237180D02*
X192180314Y-81332418D01*
X192180314Y-81332418D02*
X192180314Y-81522894D01*
X192180314Y-81522894D02*
X192227933Y-81618132D01*
X192227933Y-81618132D02*
X192323171Y-81713370D01*
X192323171Y-81713370D02*
X192513647Y-81760989D01*
X192513647Y-81760989D02*
X192846980Y-81760989D01*
X192846980Y-81760989D02*
X193037456Y-81713370D01*
X193037456Y-81713370D02*
X193132695Y-81618132D01*
X193132695Y-81618132D02*
X193180314Y-81522894D01*
X193180314Y-81522894D02*
X193180314Y-81332418D01*
X193180314Y-82713370D02*
X193180314Y-82141942D01*
X193180314Y-82427656D02*
X192180314Y-82427656D01*
X192180314Y-82427656D02*
X192323171Y-82332418D01*
X192323171Y-82332418D02*
X192418409Y-82237180D01*
X192418409Y-82237180D02*
X192466028Y-82141942D01*
X192180314Y-83618132D02*
X192180314Y-83141942D01*
X192180314Y-83141942D02*
X192656504Y-83094323D01*
X192656504Y-83094323D02*
X192608885Y-83141942D01*
X192608885Y-83141942D02*
X192561266Y-83237180D01*
X192561266Y-83237180D02*
X192561266Y-83475275D01*
X192561266Y-83475275D02*
X192608885Y-83570513D01*
X192608885Y-83570513D02*
X192656504Y-83618132D01*
X192656504Y-83618132D02*
X192751742Y-83665751D01*
X192751742Y-83665751D02*
X192989837Y-83665751D01*
X192989837Y-83665751D02*
X193085075Y-83618132D01*
X193085075Y-83618132D02*
X193132695Y-83570513D01*
X193132695Y-83570513D02*
X193180314Y-83475275D01*
X193180314Y-83475275D02*
X193180314Y-83237180D01*
X193180314Y-83237180D02*
X193132695Y-83141942D01*
X193132695Y-83141942D02*
X193085075Y-83094323D01*
D11*
X146739737Y-115272893D02*
X146811166Y-115415751D01*
X146811166Y-115415751D02*
X146811166Y-115630036D01*
X146811166Y-115630036D02*
X146739737Y-115844322D01*
X146739737Y-115844322D02*
X146596880Y-115987179D01*
X146596880Y-115987179D02*
X146454023Y-116058608D01*
X146454023Y-116058608D02*
X146168309Y-116130036D01*
X146168309Y-116130036D02*
X145954023Y-116130036D01*
X145954023Y-116130036D02*
X145668309Y-116058608D01*
X145668309Y-116058608D02*
X145525452Y-115987179D01*
X145525452Y-115987179D02*
X145382595Y-115844322D01*
X145382595Y-115844322D02*
X145311166Y-115630036D01*
X145311166Y-115630036D02*
X145311166Y-115487179D01*
X145311166Y-115487179D02*
X145382595Y-115272893D01*
X145382595Y-115272893D02*
X145454023Y-115201465D01*
X145454023Y-115201465D02*
X145954023Y-115201465D01*
X145954023Y-115201465D02*
X145954023Y-115487179D01*
X145311166Y-114558608D02*
X146811166Y-114558608D01*
X146811166Y-114558608D02*
X145311166Y-113701465D01*
X145311166Y-113701465D02*
X146811166Y-113701465D01*
X145311166Y-112987179D02*
X146811166Y-112987179D01*
X146811166Y-112987179D02*
X146811166Y-112630036D01*
X146811166Y-112630036D02*
X146739737Y-112415750D01*
X146739737Y-112415750D02*
X146596880Y-112272893D01*
X146596880Y-112272893D02*
X146454023Y-112201464D01*
X146454023Y-112201464D02*
X146168309Y-112130036D01*
X146168309Y-112130036D02*
X145954023Y-112130036D01*
X145954023Y-112130036D02*
X145668309Y-112201464D01*
X145668309Y-112201464D02*
X145525452Y-112272893D01*
X145525452Y-112272893D02*
X145382595Y-112415750D01*
X145382595Y-112415750D02*
X145311166Y-112630036D01*
X145311166Y-112630036D02*
X145311166Y-112987179D01*
X150483294Y-90529146D02*
X150483294Y-91672004D01*
X151054722Y-94243432D02*
X151054722Y-93529146D01*
X151054722Y-93529146D02*
X149554722Y-93529146D01*
X151054722Y-95529147D02*
X151054722Y-94672004D01*
X151054722Y-95100575D02*
X149554722Y-95100575D01*
X149554722Y-95100575D02*
X149769008Y-94957718D01*
X149769008Y-94957718D02*
X149911865Y-94814861D01*
X149911865Y-94814861D02*
X149983294Y-94672004D01*
X150483294Y-97314860D02*
X150483294Y-98457718D01*
D10*
X102216552Y-67679798D02*
X102168933Y-67584560D01*
X102168933Y-67584560D02*
X102073695Y-67489322D01*
X102073695Y-67489322D02*
X101930837Y-67346465D01*
X101930837Y-67346465D02*
X101883218Y-67251227D01*
X101883218Y-67251227D02*
X101883218Y-67155989D01*
X102121314Y-67203608D02*
X102073695Y-67108370D01*
X102073695Y-67108370D02*
X101978456Y-67013132D01*
X101978456Y-67013132D02*
X101787980Y-66965513D01*
X101787980Y-66965513D02*
X101454647Y-66965513D01*
X101454647Y-66965513D02*
X101264171Y-67013132D01*
X101264171Y-67013132D02*
X101168933Y-67108370D01*
X101168933Y-67108370D02*
X101121314Y-67203608D01*
X101121314Y-67203608D02*
X101121314Y-67394084D01*
X101121314Y-67394084D02*
X101168933Y-67489322D01*
X101168933Y-67489322D02*
X101264171Y-67584560D01*
X101264171Y-67584560D02*
X101454647Y-67632179D01*
X101454647Y-67632179D02*
X101787980Y-67632179D01*
X101787980Y-67632179D02*
X101978456Y-67584560D01*
X101978456Y-67584560D02*
X102073695Y-67489322D01*
X102073695Y-67489322D02*
X102121314Y-67394084D01*
X102121314Y-67394084D02*
X102121314Y-67203608D01*
X102121314Y-68584560D02*
X102121314Y-68013132D01*
X102121314Y-68298846D02*
X101121314Y-68298846D01*
X101121314Y-68298846D02*
X101264171Y-68203608D01*
X101264171Y-68203608D02*
X101359409Y-68108370D01*
X101359409Y-68108370D02*
X101407028Y-68013132D01*
X135898046Y-64567663D02*
X136583761Y-64567663D01*
X137698046Y-64567663D02*
X138383761Y-64567663D01*
X139498046Y-64567663D02*
X140183761Y-64567663D01*
X141298046Y-64567663D02*
X141983761Y-64567663D01*
D11*
X157578065Y-115213365D02*
X157078065Y-116713365D01*
X157078065Y-116713365D02*
X156578065Y-115213365D01*
X156078066Y-116141937D02*
X154935209Y-116141937D01*
X158213065Y-68223365D02*
X157713065Y-69723365D01*
X157713065Y-69723365D02*
X157213065Y-68223365D01*
X156713066Y-69151937D02*
X155570209Y-69151937D01*
X156141637Y-69723365D02*
X156141637Y-68580508D01*
D12*
X110287726Y-88633012D02*
X110382964Y-88823488D01*
X110382964Y-88823488D02*
X110573440Y-88918726D01*
X110573440Y-88918726D02*
X110763916Y-88823488D01*
X110763916Y-88823488D02*
X110859154Y-88633012D01*
X110859154Y-88633012D02*
X110763916Y-88442536D01*
X110763916Y-88442536D02*
X110573440Y-88347297D01*
X110573440Y-88347297D02*
X110382964Y-88442536D01*
X110382964Y-88442536D02*
X110287726Y-88633012D01*
D10*
X121290195Y-68542179D02*
X121290195Y-69227894D01*
X121290195Y-70342179D02*
X121290195Y-71027894D01*
X121290195Y-72142179D02*
X121290195Y-72827894D01*
X121290195Y-73942179D02*
X121290195Y-74627894D01*
X179154069Y-120547511D02*
X179106450Y-120452273D01*
X179106450Y-120452273D02*
X179011212Y-120357035D01*
X179011212Y-120357035D02*
X178868354Y-120214178D01*
X178868354Y-120214178D02*
X178820735Y-120118940D01*
X178820735Y-120118940D02*
X178820735Y-120023702D01*
X179058831Y-120071321D02*
X179011212Y-119976083D01*
X179011212Y-119976083D02*
X178915973Y-119880845D01*
X178915973Y-119880845D02*
X178725497Y-119833226D01*
X178725497Y-119833226D02*
X178392164Y-119833226D01*
X178392164Y-119833226D02*
X178201688Y-119880845D01*
X178201688Y-119880845D02*
X178106450Y-119976083D01*
X178106450Y-119976083D02*
X178058831Y-120071321D01*
X178058831Y-120071321D02*
X178058831Y-120261797D01*
X178058831Y-120261797D02*
X178106450Y-120357035D01*
X178106450Y-120357035D02*
X178201688Y-120452273D01*
X178201688Y-120452273D02*
X178392164Y-120499892D01*
X178392164Y-120499892D02*
X178725497Y-120499892D01*
X178725497Y-120499892D02*
X178915973Y-120452273D01*
X178915973Y-120452273D02*
X179011212Y-120357035D01*
X179011212Y-120357035D02*
X179058831Y-120261797D01*
X179058831Y-120261797D02*
X179058831Y-120071321D01*
X179058831Y-121452273D02*
X179058831Y-120880845D01*
X179058831Y-121166559D02*
X178058831Y-121166559D01*
X178058831Y-121166559D02*
X178201688Y-121071321D01*
X178201688Y-121071321D02*
X178296926Y-120976083D01*
X178296926Y-120976083D02*
X178344545Y-120880845D01*
X178392164Y-122309416D02*
X179058831Y-122309416D01*
X178011212Y-122071321D02*
X178725497Y-121833226D01*
X178725497Y-121833226D02*
X178725497Y-122452273D01*
X101962552Y-117209798D02*
X101914933Y-117114560D01*
X101914933Y-117114560D02*
X101819695Y-117019322D01*
X101819695Y-117019322D02*
X101676837Y-116876465D01*
X101676837Y-116876465D02*
X101629218Y-116781227D01*
X101629218Y-116781227D02*
X101629218Y-116685989D01*
X101867314Y-116733608D02*
X101819695Y-116638370D01*
X101819695Y-116638370D02*
X101724456Y-116543132D01*
X101724456Y-116543132D02*
X101533980Y-116495513D01*
X101533980Y-116495513D02*
X101200647Y-116495513D01*
X101200647Y-116495513D02*
X101010171Y-116543132D01*
X101010171Y-116543132D02*
X100914933Y-116638370D01*
X100914933Y-116638370D02*
X100867314Y-116733608D01*
X100867314Y-116733608D02*
X100867314Y-116924084D01*
X100867314Y-116924084D02*
X100914933Y-117019322D01*
X100914933Y-117019322D02*
X101010171Y-117114560D01*
X101010171Y-117114560D02*
X101200647Y-117162179D01*
X101200647Y-117162179D02*
X101533980Y-117162179D01*
X101533980Y-117162179D02*
X101724456Y-117114560D01*
X101724456Y-117114560D02*
X101819695Y-117019322D01*
X101819695Y-117019322D02*
X101867314Y-116924084D01*
X101867314Y-116924084D02*
X101867314Y-116733608D01*
X101200647Y-118019322D02*
X101867314Y-118019322D01*
X100819695Y-117781227D02*
X101533980Y-117543132D01*
X101533980Y-117543132D02*
X101533980Y-118162179D01*
X125203552Y-60059798D02*
X125155933Y-59964560D01*
X125155933Y-59964560D02*
X125060695Y-59869322D01*
X125060695Y-59869322D02*
X124917837Y-59726465D01*
X124917837Y-59726465D02*
X124870218Y-59631227D01*
X124870218Y-59631227D02*
X124870218Y-59535989D01*
X125108314Y-59583608D02*
X125060695Y-59488370D01*
X125060695Y-59488370D02*
X124965456Y-59393132D01*
X124965456Y-59393132D02*
X124774980Y-59345513D01*
X124774980Y-59345513D02*
X124441647Y-59345513D01*
X124441647Y-59345513D02*
X124251171Y-59393132D01*
X124251171Y-59393132D02*
X124155933Y-59488370D01*
X124155933Y-59488370D02*
X124108314Y-59583608D01*
X124108314Y-59583608D02*
X124108314Y-59774084D01*
X124108314Y-59774084D02*
X124155933Y-59869322D01*
X124155933Y-59869322D02*
X124251171Y-59964560D01*
X124251171Y-59964560D02*
X124441647Y-60012179D01*
X124441647Y-60012179D02*
X124774980Y-60012179D01*
X124774980Y-60012179D02*
X124965456Y-59964560D01*
X124965456Y-59964560D02*
X125060695Y-59869322D01*
X125060695Y-59869322D02*
X125108314Y-59774084D01*
X125108314Y-59774084D02*
X125108314Y-59583608D01*
X124203552Y-60393132D02*
X124155933Y-60440751D01*
X124155933Y-60440751D02*
X124108314Y-60535989D01*
X124108314Y-60535989D02*
X124108314Y-60774084D01*
X124108314Y-60774084D02*
X124155933Y-60869322D01*
X124155933Y-60869322D02*
X124203552Y-60916941D01*
X124203552Y-60916941D02*
X124298790Y-60964560D01*
X124298790Y-60964560D02*
X124394028Y-60964560D01*
X124394028Y-60964560D02*
X124536885Y-60916941D01*
X124536885Y-60916941D02*
X125108314Y-60345513D01*
X125108314Y-60345513D02*
X125108314Y-60964560D01*
X123679552Y-125464798D02*
X123631933Y-125369560D01*
X123631933Y-125369560D02*
X123536695Y-125274322D01*
X123536695Y-125274322D02*
X123393837Y-125131465D01*
X123393837Y-125131465D02*
X123346218Y-125036227D01*
X123346218Y-125036227D02*
X123346218Y-124940989D01*
X123584314Y-124988608D02*
X123536695Y-124893370D01*
X123536695Y-124893370D02*
X123441456Y-124798132D01*
X123441456Y-124798132D02*
X123250980Y-124750513D01*
X123250980Y-124750513D02*
X122917647Y-124750513D01*
X122917647Y-124750513D02*
X122727171Y-124798132D01*
X122727171Y-124798132D02*
X122631933Y-124893370D01*
X122631933Y-124893370D02*
X122584314Y-124988608D01*
X122584314Y-124988608D02*
X122584314Y-125179084D01*
X122584314Y-125179084D02*
X122631933Y-125274322D01*
X122631933Y-125274322D02*
X122727171Y-125369560D01*
X122727171Y-125369560D02*
X122917647Y-125417179D01*
X122917647Y-125417179D02*
X123250980Y-125417179D01*
X123250980Y-125417179D02*
X123441456Y-125369560D01*
X123441456Y-125369560D02*
X123536695Y-125274322D01*
X123536695Y-125274322D02*
X123584314Y-125179084D01*
X123584314Y-125179084D02*
X123584314Y-124988608D01*
X122584314Y-125750513D02*
X122584314Y-126369560D01*
X122584314Y-126369560D02*
X122965266Y-126036227D01*
X122965266Y-126036227D02*
X122965266Y-126179084D01*
X122965266Y-126179084D02*
X123012885Y-126274322D01*
X123012885Y-126274322D02*
X123060504Y-126321941D01*
X123060504Y-126321941D02*
X123155742Y-126369560D01*
X123155742Y-126369560D02*
X123393837Y-126369560D01*
X123393837Y-126369560D02*
X123489075Y-126321941D01*
X123489075Y-126321941D02*
X123536695Y-126274322D01*
X123536695Y-126274322D02*
X123584314Y-126179084D01*
X123584314Y-126179084D02*
X123584314Y-125893370D01*
X123584314Y-125893370D02*
X123536695Y-125798132D01*
X123536695Y-125798132D02*
X123489075Y-125750513D01*
X194037552Y-67044798D02*
X193989933Y-66949560D01*
X193989933Y-66949560D02*
X193894695Y-66854322D01*
X193894695Y-66854322D02*
X193751837Y-66711465D01*
X193751837Y-66711465D02*
X193704218Y-66616227D01*
X193704218Y-66616227D02*
X193704218Y-66520989D01*
X193942314Y-66568608D02*
X193894695Y-66473370D01*
X193894695Y-66473370D02*
X193799456Y-66378132D01*
X193799456Y-66378132D02*
X193608980Y-66330513D01*
X193608980Y-66330513D02*
X193275647Y-66330513D01*
X193275647Y-66330513D02*
X193085171Y-66378132D01*
X193085171Y-66378132D02*
X192989933Y-66473370D01*
X192989933Y-66473370D02*
X192942314Y-66568608D01*
X192942314Y-66568608D02*
X192942314Y-66759084D01*
X192942314Y-66759084D02*
X192989933Y-66854322D01*
X192989933Y-66854322D02*
X193085171Y-66949560D01*
X193085171Y-66949560D02*
X193275647Y-66997179D01*
X193275647Y-66997179D02*
X193608980Y-66997179D01*
X193608980Y-66997179D02*
X193799456Y-66949560D01*
X193799456Y-66949560D02*
X193894695Y-66854322D01*
X193894695Y-66854322D02*
X193942314Y-66759084D01*
X193942314Y-66759084D02*
X193942314Y-66568608D01*
X192942314Y-67901941D02*
X192942314Y-67425751D01*
X192942314Y-67425751D02*
X193418504Y-67378132D01*
X193418504Y-67378132D02*
X193370885Y-67425751D01*
X193370885Y-67425751D02*
X193323266Y-67520989D01*
X193323266Y-67520989D02*
X193323266Y-67759084D01*
X193323266Y-67759084D02*
X193370885Y-67854322D01*
X193370885Y-67854322D02*
X193418504Y-67901941D01*
X193418504Y-67901941D02*
X193513742Y-67949560D01*
X193513742Y-67949560D02*
X193751837Y-67949560D01*
X193751837Y-67949560D02*
X193847075Y-67901941D01*
X193847075Y-67901941D02*
X193894695Y-67854322D01*
X193894695Y-67854322D02*
X193942314Y-67759084D01*
X193942314Y-67759084D02*
X193942314Y-67520989D01*
X193942314Y-67520989D02*
X193894695Y-67425751D01*
X193894695Y-67425751D02*
X193847075Y-67378132D01*
X133250068Y-107330046D02*
X133121496Y-107377665D01*
X133121496Y-107377665D02*
X133078639Y-107425284D01*
X133078639Y-107425284D02*
X133035782Y-107520522D01*
X133035782Y-107520522D02*
X133035782Y-107663379D01*
X133035782Y-107663379D02*
X133078639Y-107758617D01*
X133078639Y-107758617D02*
X133121496Y-107806237D01*
X133121496Y-107806237D02*
X133207211Y-107853856D01*
X133207211Y-107853856D02*
X133550068Y-107853856D01*
X133550068Y-107853856D02*
X133550068Y-106853856D01*
X133550068Y-106853856D02*
X133250068Y-106853856D01*
X133250068Y-106853856D02*
X133164354Y-106901475D01*
X133164354Y-106901475D02*
X133121496Y-106949094D01*
X133121496Y-106949094D02*
X133078639Y-107044332D01*
X133078639Y-107044332D02*
X133078639Y-107139570D01*
X133078639Y-107139570D02*
X133121496Y-107234808D01*
X133121496Y-107234808D02*
X133164354Y-107282427D01*
X133164354Y-107282427D02*
X133250068Y-107330046D01*
X133250068Y-107330046D02*
X133550068Y-107330046D01*
X132521496Y-107853856D02*
X132607211Y-107806237D01*
X132607211Y-107806237D02*
X132650068Y-107758617D01*
X132650068Y-107758617D02*
X132692925Y-107663379D01*
X132692925Y-107663379D02*
X132692925Y-107377665D01*
X132692925Y-107377665D02*
X132650068Y-107282427D01*
X132650068Y-107282427D02*
X132607211Y-107234808D01*
X132607211Y-107234808D02*
X132521496Y-107187189D01*
X132521496Y-107187189D02*
X132392925Y-107187189D01*
X132392925Y-107187189D02*
X132307211Y-107234808D01*
X132307211Y-107234808D02*
X132264354Y-107282427D01*
X132264354Y-107282427D02*
X132221496Y-107377665D01*
X132221496Y-107377665D02*
X132221496Y-107663379D01*
X132221496Y-107663379D02*
X132264354Y-107758617D01*
X132264354Y-107758617D02*
X132307211Y-107806237D01*
X132307211Y-107806237D02*
X132392925Y-107853856D01*
X132392925Y-107853856D02*
X132521496Y-107853856D01*
X131450068Y-107853856D02*
X131450068Y-107330046D01*
X131450068Y-107330046D02*
X131492925Y-107234808D01*
X131492925Y-107234808D02*
X131578639Y-107187189D01*
X131578639Y-107187189D02*
X131750068Y-107187189D01*
X131750068Y-107187189D02*
X131835782Y-107234808D01*
X131450068Y-107806237D02*
X131535782Y-107853856D01*
X131535782Y-107853856D02*
X131750068Y-107853856D01*
X131750068Y-107853856D02*
X131835782Y-107806237D01*
X131835782Y-107806237D02*
X131878639Y-107710998D01*
X131878639Y-107710998D02*
X131878639Y-107615760D01*
X131878639Y-107615760D02*
X131835782Y-107520522D01*
X131835782Y-107520522D02*
X131750068Y-107472903D01*
X131750068Y-107472903D02*
X131535782Y-107472903D01*
X131535782Y-107472903D02*
X131450068Y-107425284D01*
X131021496Y-107853856D02*
X131021496Y-107187189D01*
X131021496Y-107377665D02*
X130978639Y-107282427D01*
X130978639Y-107282427D02*
X130935782Y-107234808D01*
X130935782Y-107234808D02*
X130850067Y-107187189D01*
X130850067Y-107187189D02*
X130764353Y-107187189D01*
X130078639Y-107853856D02*
X130078639Y-106853856D01*
X130078639Y-107806237D02*
X130164353Y-107853856D01*
X130164353Y-107853856D02*
X130335781Y-107853856D01*
X130335781Y-107853856D02*
X130421496Y-107806237D01*
X130421496Y-107806237D02*
X130464353Y-107758617D01*
X130464353Y-107758617D02*
X130507210Y-107663379D01*
X130507210Y-107663379D02*
X130507210Y-107377665D01*
X130507210Y-107377665D02*
X130464353Y-107282427D01*
X130464353Y-107282427D02*
X130421496Y-107234808D01*
X130421496Y-107234808D02*
X130335781Y-107187189D01*
X130335781Y-107187189D02*
X130164353Y-107187189D01*
X130164353Y-107187189D02*
X130078639Y-107234808D01*
X128964353Y-107187189D02*
X128964353Y-107853856D01*
X128964353Y-107282427D02*
X128921496Y-107234808D01*
X128921496Y-107234808D02*
X128835781Y-107187189D01*
X128835781Y-107187189D02*
X128707210Y-107187189D01*
X128707210Y-107187189D02*
X128621496Y-107234808D01*
X128621496Y-107234808D02*
X128578639Y-107330046D01*
X128578639Y-107330046D02*
X128578639Y-107853856D01*
X128021495Y-107853856D02*
X128107210Y-107806237D01*
X128107210Y-107806237D02*
X128150067Y-107758617D01*
X128150067Y-107758617D02*
X128192924Y-107663379D01*
X128192924Y-107663379D02*
X128192924Y-107377665D01*
X128192924Y-107377665D02*
X128150067Y-107282427D01*
X128150067Y-107282427D02*
X128107210Y-107234808D01*
X128107210Y-107234808D02*
X128021495Y-107187189D01*
X128021495Y-107187189D02*
X127892924Y-107187189D01*
X127892924Y-107187189D02*
X127807210Y-107234808D01*
X127807210Y-107234808D02*
X127764353Y-107282427D01*
X127764353Y-107282427D02*
X127721495Y-107377665D01*
X127721495Y-107377665D02*
X127721495Y-107663379D01*
X127721495Y-107663379D02*
X127764353Y-107758617D01*
X127764353Y-107758617D02*
X127807210Y-107806237D01*
X127807210Y-107806237D02*
X127892924Y-107853856D01*
X127892924Y-107853856D02*
X128021495Y-107853856D01*
X127464352Y-107187189D02*
X127121495Y-107187189D01*
X127335781Y-106853856D02*
X127335781Y-107710998D01*
X127335781Y-107710998D02*
X127292924Y-107806237D01*
X127292924Y-107806237D02*
X127207209Y-107853856D01*
X127207209Y-107853856D02*
X127121495Y-107853856D01*
X126135781Y-107187189D02*
X126135781Y-108187189D01*
X126135781Y-107234808D02*
X126050067Y-107187189D01*
X126050067Y-107187189D02*
X125878638Y-107187189D01*
X125878638Y-107187189D02*
X125792924Y-107234808D01*
X125792924Y-107234808D02*
X125750067Y-107282427D01*
X125750067Y-107282427D02*
X125707209Y-107377665D01*
X125707209Y-107377665D02*
X125707209Y-107663379D01*
X125707209Y-107663379D02*
X125750067Y-107758617D01*
X125750067Y-107758617D02*
X125792924Y-107806237D01*
X125792924Y-107806237D02*
X125878638Y-107853856D01*
X125878638Y-107853856D02*
X126050067Y-107853856D01*
X126050067Y-107853856D02*
X126135781Y-107806237D01*
X125321495Y-107853856D02*
X125321495Y-107187189D01*
X125321495Y-107377665D02*
X125278638Y-107282427D01*
X125278638Y-107282427D02*
X125235781Y-107234808D01*
X125235781Y-107234808D02*
X125150066Y-107187189D01*
X125150066Y-107187189D02*
X125064352Y-107187189D01*
X124635780Y-107853856D02*
X124721495Y-107806237D01*
X124721495Y-107806237D02*
X124764352Y-107758617D01*
X124764352Y-107758617D02*
X124807209Y-107663379D01*
X124807209Y-107663379D02*
X124807209Y-107377665D01*
X124807209Y-107377665D02*
X124764352Y-107282427D01*
X124764352Y-107282427D02*
X124721495Y-107234808D01*
X124721495Y-107234808D02*
X124635780Y-107187189D01*
X124635780Y-107187189D02*
X124507209Y-107187189D01*
X124507209Y-107187189D02*
X124421495Y-107234808D01*
X124421495Y-107234808D02*
X124378638Y-107282427D01*
X124378638Y-107282427D02*
X124335780Y-107377665D01*
X124335780Y-107377665D02*
X124335780Y-107663379D01*
X124335780Y-107663379D02*
X124378638Y-107758617D01*
X124378638Y-107758617D02*
X124421495Y-107806237D01*
X124421495Y-107806237D02*
X124507209Y-107853856D01*
X124507209Y-107853856D02*
X124635780Y-107853856D01*
X124078637Y-107187189D02*
X123735780Y-107187189D01*
X123950066Y-106853856D02*
X123950066Y-107710998D01*
X123950066Y-107710998D02*
X123907209Y-107806237D01*
X123907209Y-107806237D02*
X123821494Y-107853856D01*
X123821494Y-107853856D02*
X123735780Y-107853856D01*
X123092923Y-107806237D02*
X123178637Y-107853856D01*
X123178637Y-107853856D02*
X123350066Y-107853856D01*
X123350066Y-107853856D02*
X123435780Y-107806237D01*
X123435780Y-107806237D02*
X123478637Y-107710998D01*
X123478637Y-107710998D02*
X123478637Y-107330046D01*
X123478637Y-107330046D02*
X123435780Y-107234808D01*
X123435780Y-107234808D02*
X123350066Y-107187189D01*
X123350066Y-107187189D02*
X123178637Y-107187189D01*
X123178637Y-107187189D02*
X123092923Y-107234808D01*
X123092923Y-107234808D02*
X123050066Y-107330046D01*
X123050066Y-107330046D02*
X123050066Y-107425284D01*
X123050066Y-107425284D02*
X123478637Y-107520522D01*
X122278637Y-107806237D02*
X122364351Y-107853856D01*
X122364351Y-107853856D02*
X122535779Y-107853856D01*
X122535779Y-107853856D02*
X122621494Y-107806237D01*
X122621494Y-107806237D02*
X122664351Y-107758617D01*
X122664351Y-107758617D02*
X122707208Y-107663379D01*
X122707208Y-107663379D02*
X122707208Y-107377665D01*
X122707208Y-107377665D02*
X122664351Y-107282427D01*
X122664351Y-107282427D02*
X122621494Y-107234808D01*
X122621494Y-107234808D02*
X122535779Y-107187189D01*
X122535779Y-107187189D02*
X122364351Y-107187189D01*
X122364351Y-107187189D02*
X122278637Y-107234808D01*
X122021493Y-107187189D02*
X121678636Y-107187189D01*
X121892922Y-106853856D02*
X121892922Y-107710998D01*
X121892922Y-107710998D02*
X121850065Y-107806237D01*
X121850065Y-107806237D02*
X121764350Y-107853856D01*
X121764350Y-107853856D02*
X121678636Y-107853856D01*
X121035779Y-107806237D02*
X121121493Y-107853856D01*
X121121493Y-107853856D02*
X121292922Y-107853856D01*
X121292922Y-107853856D02*
X121378636Y-107806237D01*
X121378636Y-107806237D02*
X121421493Y-107710998D01*
X121421493Y-107710998D02*
X121421493Y-107330046D01*
X121421493Y-107330046D02*
X121378636Y-107234808D01*
X121378636Y-107234808D02*
X121292922Y-107187189D01*
X121292922Y-107187189D02*
X121121493Y-107187189D01*
X121121493Y-107187189D02*
X121035779Y-107234808D01*
X121035779Y-107234808D02*
X120992922Y-107330046D01*
X120992922Y-107330046D02*
X120992922Y-107425284D01*
X120992922Y-107425284D02*
X121421493Y-107520522D01*
X120221493Y-107853856D02*
X120221493Y-106853856D01*
X120221493Y-107806237D02*
X120307207Y-107853856D01*
X120307207Y-107853856D02*
X120478635Y-107853856D01*
X120478635Y-107853856D02*
X120564350Y-107806237D01*
X120564350Y-107806237D02*
X120607207Y-107758617D01*
X120607207Y-107758617D02*
X120650064Y-107663379D01*
X120650064Y-107663379D02*
X120650064Y-107377665D01*
X120650064Y-107377665D02*
X120607207Y-107282427D01*
X120607207Y-107282427D02*
X120564350Y-107234808D01*
X120564350Y-107234808D02*
X120478635Y-107187189D01*
X120478635Y-107187189D02*
X120307207Y-107187189D01*
X120307207Y-107187189D02*
X120221493Y-107234808D01*
X118721493Y-107853856D02*
X118721493Y-107330046D01*
X118721493Y-107330046D02*
X118764350Y-107234808D01*
X118764350Y-107234808D02*
X118850064Y-107187189D01*
X118850064Y-107187189D02*
X119021493Y-107187189D01*
X119021493Y-107187189D02*
X119107207Y-107234808D01*
X118721493Y-107806237D02*
X118807207Y-107853856D01*
X118807207Y-107853856D02*
X119021493Y-107853856D01*
X119021493Y-107853856D02*
X119107207Y-107806237D01*
X119107207Y-107806237D02*
X119150064Y-107710998D01*
X119150064Y-107710998D02*
X119150064Y-107615760D01*
X119150064Y-107615760D02*
X119107207Y-107520522D01*
X119107207Y-107520522D02*
X119021493Y-107472903D01*
X119021493Y-107472903D02*
X118807207Y-107472903D01*
X118807207Y-107472903D02*
X118721493Y-107425284D01*
X117907207Y-107187189D02*
X117907207Y-107996713D01*
X117907207Y-107996713D02*
X117950064Y-108091951D01*
X117950064Y-108091951D02*
X117992921Y-108139570D01*
X117992921Y-108139570D02*
X118078635Y-108187189D01*
X118078635Y-108187189D02*
X118207207Y-108187189D01*
X118207207Y-108187189D02*
X118292921Y-108139570D01*
X117907207Y-107806237D02*
X117992921Y-107853856D01*
X117992921Y-107853856D02*
X118164349Y-107853856D01*
X118164349Y-107853856D02*
X118250064Y-107806237D01*
X118250064Y-107806237D02*
X118292921Y-107758617D01*
X118292921Y-107758617D02*
X118335778Y-107663379D01*
X118335778Y-107663379D02*
X118335778Y-107377665D01*
X118335778Y-107377665D02*
X118292921Y-107282427D01*
X118292921Y-107282427D02*
X118250064Y-107234808D01*
X118250064Y-107234808D02*
X118164349Y-107187189D01*
X118164349Y-107187189D02*
X117992921Y-107187189D01*
X117992921Y-107187189D02*
X117907207Y-107234808D01*
X117092921Y-107853856D02*
X117092921Y-107330046D01*
X117092921Y-107330046D02*
X117135778Y-107234808D01*
X117135778Y-107234808D02*
X117221492Y-107187189D01*
X117221492Y-107187189D02*
X117392921Y-107187189D01*
X117392921Y-107187189D02*
X117478635Y-107234808D01*
X117092921Y-107806237D02*
X117178635Y-107853856D01*
X117178635Y-107853856D02*
X117392921Y-107853856D01*
X117392921Y-107853856D02*
X117478635Y-107806237D01*
X117478635Y-107806237D02*
X117521492Y-107710998D01*
X117521492Y-107710998D02*
X117521492Y-107615760D01*
X117521492Y-107615760D02*
X117478635Y-107520522D01*
X117478635Y-107520522D02*
X117392921Y-107472903D01*
X117392921Y-107472903D02*
X117178635Y-107472903D01*
X117178635Y-107472903D02*
X117092921Y-107425284D01*
X116664349Y-107853856D02*
X116664349Y-107187189D01*
X116664349Y-106853856D02*
X116707206Y-106901475D01*
X116707206Y-106901475D02*
X116664349Y-106949094D01*
X116664349Y-106949094D02*
X116621492Y-106901475D01*
X116621492Y-106901475D02*
X116664349Y-106853856D01*
X116664349Y-106853856D02*
X116664349Y-106949094D01*
X116235778Y-107187189D02*
X116235778Y-107853856D01*
X116235778Y-107282427D02*
X116192921Y-107234808D01*
X116192921Y-107234808D02*
X116107206Y-107187189D01*
X116107206Y-107187189D02*
X115978635Y-107187189D01*
X115978635Y-107187189D02*
X115892921Y-107234808D01*
X115892921Y-107234808D02*
X115850064Y-107330046D01*
X115850064Y-107330046D02*
X115850064Y-107853856D01*
X115464349Y-107806237D02*
X115378635Y-107853856D01*
X115378635Y-107853856D02*
X115207206Y-107853856D01*
X115207206Y-107853856D02*
X115121492Y-107806237D01*
X115121492Y-107806237D02*
X115078635Y-107710998D01*
X115078635Y-107710998D02*
X115078635Y-107663379D01*
X115078635Y-107663379D02*
X115121492Y-107568141D01*
X115121492Y-107568141D02*
X115207206Y-107520522D01*
X115207206Y-107520522D02*
X115335778Y-107520522D01*
X115335778Y-107520522D02*
X115421492Y-107472903D01*
X115421492Y-107472903D02*
X115464349Y-107377665D01*
X115464349Y-107377665D02*
X115464349Y-107330046D01*
X115464349Y-107330046D02*
X115421492Y-107234808D01*
X115421492Y-107234808D02*
X115335778Y-107187189D01*
X115335778Y-107187189D02*
X115207206Y-107187189D01*
X115207206Y-107187189D02*
X115121492Y-107234808D01*
X114821492Y-107187189D02*
X114478635Y-107187189D01*
X114692921Y-106853856D02*
X114692921Y-107710998D01*
X114692921Y-107710998D02*
X114650064Y-107806237D01*
X114650064Y-107806237D02*
X114564349Y-107853856D01*
X114564349Y-107853856D02*
X114478635Y-107853856D01*
X113492921Y-107853856D02*
X113492921Y-106853856D01*
X113492921Y-106853856D02*
X113278635Y-106853856D01*
X113278635Y-106853856D02*
X113150064Y-106901475D01*
X113150064Y-106901475D02*
X113064349Y-106996713D01*
X113064349Y-106996713D02*
X113021492Y-107091951D01*
X113021492Y-107091951D02*
X112978635Y-107282427D01*
X112978635Y-107282427D02*
X112978635Y-107425284D01*
X112978635Y-107425284D02*
X113021492Y-107615760D01*
X113021492Y-107615760D02*
X113064349Y-107710998D01*
X113064349Y-107710998D02*
X113150064Y-107806237D01*
X113150064Y-107806237D02*
X113278635Y-107853856D01*
X113278635Y-107853856D02*
X113492921Y-107853856D01*
X112078635Y-107758617D02*
X112121492Y-107806237D01*
X112121492Y-107806237D02*
X112250064Y-107853856D01*
X112250064Y-107853856D02*
X112335778Y-107853856D01*
X112335778Y-107853856D02*
X112464349Y-107806237D01*
X112464349Y-107806237D02*
X112550064Y-107710998D01*
X112550064Y-107710998D02*
X112592921Y-107615760D01*
X112592921Y-107615760D02*
X112635778Y-107425284D01*
X112635778Y-107425284D02*
X112635778Y-107282427D01*
X112635778Y-107282427D02*
X112592921Y-107091951D01*
X112592921Y-107091951D02*
X112550064Y-106996713D01*
X112550064Y-106996713D02*
X112464349Y-106901475D01*
X112464349Y-106901475D02*
X112335778Y-106853856D01*
X112335778Y-106853856D02*
X112250064Y-106853856D01*
X112250064Y-106853856D02*
X112121492Y-106901475D01*
X112121492Y-106901475D02*
X112078635Y-106949094D01*
X111692921Y-107758617D02*
X111650064Y-107806237D01*
X111650064Y-107806237D02*
X111692921Y-107853856D01*
X111692921Y-107853856D02*
X111735778Y-107806237D01*
X111735778Y-107806237D02*
X111692921Y-107758617D01*
X111692921Y-107758617D02*
X111692921Y-107853856D01*
X135490552Y-70346798D02*
X135442933Y-70251560D01*
X135442933Y-70251560D02*
X135347695Y-70156322D01*
X135347695Y-70156322D02*
X135204837Y-70013465D01*
X135204837Y-70013465D02*
X135157218Y-69918227D01*
X135157218Y-69918227D02*
X135157218Y-69822989D01*
X135395314Y-69870608D02*
X135347695Y-69775370D01*
X135347695Y-69775370D02*
X135252456Y-69680132D01*
X135252456Y-69680132D02*
X135061980Y-69632513D01*
X135061980Y-69632513D02*
X134728647Y-69632513D01*
X134728647Y-69632513D02*
X134538171Y-69680132D01*
X134538171Y-69680132D02*
X134442933Y-69775370D01*
X134442933Y-69775370D02*
X134395314Y-69870608D01*
X134395314Y-69870608D02*
X134395314Y-70061084D01*
X134395314Y-70061084D02*
X134442933Y-70156322D01*
X134442933Y-70156322D02*
X134538171Y-70251560D01*
X134538171Y-70251560D02*
X134728647Y-70299179D01*
X134728647Y-70299179D02*
X135061980Y-70299179D01*
X135061980Y-70299179D02*
X135252456Y-70251560D01*
X135252456Y-70251560D02*
X135347695Y-70156322D01*
X135347695Y-70156322D02*
X135395314Y-70061084D01*
X135395314Y-70061084D02*
X135395314Y-69870608D01*
X135395314Y-70775370D02*
X135395314Y-70965846D01*
X135395314Y-70965846D02*
X135347695Y-71061084D01*
X135347695Y-71061084D02*
X135300075Y-71108703D01*
X135300075Y-71108703D02*
X135157218Y-71203941D01*
X135157218Y-71203941D02*
X134966742Y-71251560D01*
X134966742Y-71251560D02*
X134585790Y-71251560D01*
X134585790Y-71251560D02*
X134490552Y-71203941D01*
X134490552Y-71203941D02*
X134442933Y-71156322D01*
X134442933Y-71156322D02*
X134395314Y-71061084D01*
X134395314Y-71061084D02*
X134395314Y-70870608D01*
X134395314Y-70870608D02*
X134442933Y-70775370D01*
X134442933Y-70775370D02*
X134490552Y-70727751D01*
X134490552Y-70727751D02*
X134585790Y-70680132D01*
X134585790Y-70680132D02*
X134823885Y-70680132D01*
X134823885Y-70680132D02*
X134919123Y-70727751D01*
X134919123Y-70727751D02*
X134966742Y-70775370D01*
X134966742Y-70775370D02*
X135014361Y-70870608D01*
X135014361Y-70870608D02*
X135014361Y-71061084D01*
X135014361Y-71061084D02*
X134966742Y-71156322D01*
X134966742Y-71156322D02*
X134919123Y-71203941D01*
X134919123Y-71203941D02*
X134823885Y-71251560D01*
X133678639Y-111076954D02*
X133678639Y-111886477D01*
X133678639Y-111886477D02*
X133635782Y-111981715D01*
X133635782Y-111981715D02*
X133592925Y-112029335D01*
X133592925Y-112029335D02*
X133507210Y-112076954D01*
X133507210Y-112076954D02*
X133335782Y-112076954D01*
X133335782Y-112076954D02*
X133250067Y-112029335D01*
X133250067Y-112029335D02*
X133207210Y-111981715D01*
X133207210Y-111981715D02*
X133164353Y-111886477D01*
X133164353Y-111886477D02*
X133164353Y-111076954D01*
X132778639Y-112029335D02*
X132692925Y-112076954D01*
X132692925Y-112076954D02*
X132521496Y-112076954D01*
X132521496Y-112076954D02*
X132435782Y-112029335D01*
X132435782Y-112029335D02*
X132392925Y-111934096D01*
X132392925Y-111934096D02*
X132392925Y-111886477D01*
X132392925Y-111886477D02*
X132435782Y-111791239D01*
X132435782Y-111791239D02*
X132521496Y-111743620D01*
X132521496Y-111743620D02*
X132650068Y-111743620D01*
X132650068Y-111743620D02*
X132735782Y-111696001D01*
X132735782Y-111696001D02*
X132778639Y-111600763D01*
X132778639Y-111600763D02*
X132778639Y-111553144D01*
X132778639Y-111553144D02*
X132735782Y-111457906D01*
X132735782Y-111457906D02*
X132650068Y-111410287D01*
X132650068Y-111410287D02*
X132521496Y-111410287D01*
X132521496Y-111410287D02*
X132435782Y-111457906D01*
X131664354Y-112029335D02*
X131750068Y-112076954D01*
X131750068Y-112076954D02*
X131921497Y-112076954D01*
X131921497Y-112076954D02*
X132007211Y-112029335D01*
X132007211Y-112029335D02*
X132050068Y-111934096D01*
X132050068Y-111934096D02*
X132050068Y-111553144D01*
X132050068Y-111553144D02*
X132007211Y-111457906D01*
X132007211Y-111457906D02*
X131921497Y-111410287D01*
X131921497Y-111410287D02*
X131750068Y-111410287D01*
X131750068Y-111410287D02*
X131664354Y-111457906D01*
X131664354Y-111457906D02*
X131621497Y-111553144D01*
X131621497Y-111553144D02*
X131621497Y-111648382D01*
X131621497Y-111648382D02*
X132050068Y-111743620D01*
X130164354Y-112076954D02*
X130164354Y-111553144D01*
X130164354Y-111553144D02*
X130207211Y-111457906D01*
X130207211Y-111457906D02*
X130292925Y-111410287D01*
X130292925Y-111410287D02*
X130464354Y-111410287D01*
X130464354Y-111410287D02*
X130550068Y-111457906D01*
X130164354Y-112029335D02*
X130250068Y-112076954D01*
X130250068Y-112076954D02*
X130464354Y-112076954D01*
X130464354Y-112076954D02*
X130550068Y-112029335D01*
X130550068Y-112029335D02*
X130592925Y-111934096D01*
X130592925Y-111934096D02*
X130592925Y-111838858D01*
X130592925Y-111838858D02*
X130550068Y-111743620D01*
X130550068Y-111743620D02*
X130464354Y-111696001D01*
X130464354Y-111696001D02*
X130250068Y-111696001D01*
X130250068Y-111696001D02*
X130164354Y-111648382D01*
X129092925Y-112029335D02*
X128964354Y-112076954D01*
X128964354Y-112076954D02*
X128750068Y-112076954D01*
X128750068Y-112076954D02*
X128664354Y-112029335D01*
X128664354Y-112029335D02*
X128621496Y-111981715D01*
X128621496Y-111981715D02*
X128578639Y-111886477D01*
X128578639Y-111886477D02*
X128578639Y-111791239D01*
X128578639Y-111791239D02*
X128621496Y-111696001D01*
X128621496Y-111696001D02*
X128664354Y-111648382D01*
X128664354Y-111648382D02*
X128750068Y-111600763D01*
X128750068Y-111600763D02*
X128921496Y-111553144D01*
X128921496Y-111553144D02*
X129007211Y-111505525D01*
X129007211Y-111505525D02*
X129050068Y-111457906D01*
X129050068Y-111457906D02*
X129092925Y-111362668D01*
X129092925Y-111362668D02*
X129092925Y-111267430D01*
X129092925Y-111267430D02*
X129050068Y-111172192D01*
X129050068Y-111172192D02*
X129007211Y-111124573D01*
X129007211Y-111124573D02*
X128921496Y-111076954D01*
X128921496Y-111076954D02*
X128707211Y-111076954D01*
X128707211Y-111076954D02*
X128578639Y-111124573D01*
X128192925Y-111410287D02*
X128192925Y-112410287D01*
X128192925Y-111457906D02*
X128107211Y-111410287D01*
X128107211Y-111410287D02*
X127935782Y-111410287D01*
X127935782Y-111410287D02*
X127850068Y-111457906D01*
X127850068Y-111457906D02*
X127807211Y-111505525D01*
X127807211Y-111505525D02*
X127764353Y-111600763D01*
X127764353Y-111600763D02*
X127764353Y-111886477D01*
X127764353Y-111886477D02*
X127807211Y-111981715D01*
X127807211Y-111981715D02*
X127850068Y-112029335D01*
X127850068Y-112029335D02*
X127935782Y-112076954D01*
X127935782Y-112076954D02*
X128107211Y-112076954D01*
X128107211Y-112076954D02*
X128192925Y-112029335D01*
X127035782Y-112029335D02*
X127121496Y-112076954D01*
X127121496Y-112076954D02*
X127292925Y-112076954D01*
X127292925Y-112076954D02*
X127378639Y-112029335D01*
X127378639Y-112029335D02*
X127421496Y-111934096D01*
X127421496Y-111934096D02*
X127421496Y-111553144D01*
X127421496Y-111553144D02*
X127378639Y-111457906D01*
X127378639Y-111457906D02*
X127292925Y-111410287D01*
X127292925Y-111410287D02*
X127121496Y-111410287D01*
X127121496Y-111410287D02*
X127035782Y-111457906D01*
X127035782Y-111457906D02*
X126992925Y-111553144D01*
X126992925Y-111553144D02*
X126992925Y-111648382D01*
X126992925Y-111648382D02*
X127421496Y-111743620D01*
X126221496Y-112076954D02*
X126221496Y-111553144D01*
X126221496Y-111553144D02*
X126264353Y-111457906D01*
X126264353Y-111457906D02*
X126350067Y-111410287D01*
X126350067Y-111410287D02*
X126521496Y-111410287D01*
X126521496Y-111410287D02*
X126607210Y-111457906D01*
X126221496Y-112029335D02*
X126307210Y-112076954D01*
X126307210Y-112076954D02*
X126521496Y-112076954D01*
X126521496Y-112076954D02*
X126607210Y-112029335D01*
X126607210Y-112029335D02*
X126650067Y-111934096D01*
X126650067Y-111934096D02*
X126650067Y-111838858D01*
X126650067Y-111838858D02*
X126607210Y-111743620D01*
X126607210Y-111743620D02*
X126521496Y-111696001D01*
X126521496Y-111696001D02*
X126307210Y-111696001D01*
X126307210Y-111696001D02*
X126221496Y-111648382D01*
X125792924Y-112076954D02*
X125792924Y-111076954D01*
X125707210Y-111696001D02*
X125450067Y-112076954D01*
X125450067Y-111410287D02*
X125792924Y-111791239D01*
X124721496Y-112029335D02*
X124807210Y-112076954D01*
X124807210Y-112076954D02*
X124978639Y-112076954D01*
X124978639Y-112076954D02*
X125064353Y-112029335D01*
X125064353Y-112029335D02*
X125107210Y-111934096D01*
X125107210Y-111934096D02*
X125107210Y-111553144D01*
X125107210Y-111553144D02*
X125064353Y-111457906D01*
X125064353Y-111457906D02*
X124978639Y-111410287D01*
X124978639Y-111410287D02*
X124807210Y-111410287D01*
X124807210Y-111410287D02*
X124721496Y-111457906D01*
X124721496Y-111457906D02*
X124678639Y-111553144D01*
X124678639Y-111553144D02*
X124678639Y-111648382D01*
X124678639Y-111648382D02*
X125107210Y-111743620D01*
X124292924Y-112076954D02*
X124292924Y-111410287D01*
X124292924Y-111600763D02*
X124250067Y-111505525D01*
X124250067Y-111505525D02*
X124207210Y-111457906D01*
X124207210Y-111457906D02*
X124121495Y-111410287D01*
X124121495Y-111410287D02*
X124035781Y-111410287D01*
X123050067Y-112076954D02*
X123050067Y-111076954D01*
X123050067Y-111076954D02*
X122707210Y-111076954D01*
X122707210Y-111076954D02*
X122621495Y-111124573D01*
X122621495Y-111124573D02*
X122578638Y-111172192D01*
X122578638Y-111172192D02*
X122535781Y-111267430D01*
X122535781Y-111267430D02*
X122535781Y-111410287D01*
X122535781Y-111410287D02*
X122578638Y-111505525D01*
X122578638Y-111505525D02*
X122621495Y-111553144D01*
X122621495Y-111553144D02*
X122707210Y-111600763D01*
X122707210Y-111600763D02*
X123050067Y-111600763D01*
X122150067Y-112076954D02*
X122150067Y-111410287D01*
X122150067Y-111600763D02*
X122107210Y-111505525D01*
X122107210Y-111505525D02*
X122064353Y-111457906D01*
X122064353Y-111457906D02*
X121978638Y-111410287D01*
X121978638Y-111410287D02*
X121892924Y-111410287D01*
X121464352Y-112076954D02*
X121550067Y-112029335D01*
X121550067Y-112029335D02*
X121592924Y-111981715D01*
X121592924Y-111981715D02*
X121635781Y-111886477D01*
X121635781Y-111886477D02*
X121635781Y-111600763D01*
X121635781Y-111600763D02*
X121592924Y-111505525D01*
X121592924Y-111505525D02*
X121550067Y-111457906D01*
X121550067Y-111457906D02*
X121464352Y-111410287D01*
X121464352Y-111410287D02*
X121335781Y-111410287D01*
X121335781Y-111410287D02*
X121250067Y-111457906D01*
X121250067Y-111457906D02*
X121207210Y-111505525D01*
X121207210Y-111505525D02*
X121164352Y-111600763D01*
X121164352Y-111600763D02*
X121164352Y-111886477D01*
X121164352Y-111886477D02*
X121207210Y-111981715D01*
X121207210Y-111981715D02*
X121250067Y-112029335D01*
X121250067Y-112029335D02*
X121335781Y-112076954D01*
X121335781Y-112076954D02*
X121464352Y-112076954D01*
X120907209Y-111410287D02*
X120564352Y-111410287D01*
X120778638Y-111076954D02*
X120778638Y-111934096D01*
X120778638Y-111934096D02*
X120735781Y-112029335D01*
X120735781Y-112029335D02*
X120650066Y-112076954D01*
X120650066Y-112076954D02*
X120564352Y-112076954D01*
X119921495Y-112029335D02*
X120007209Y-112076954D01*
X120007209Y-112076954D02*
X120178638Y-112076954D01*
X120178638Y-112076954D02*
X120264352Y-112029335D01*
X120264352Y-112029335D02*
X120307209Y-111934096D01*
X120307209Y-111934096D02*
X120307209Y-111553144D01*
X120307209Y-111553144D02*
X120264352Y-111457906D01*
X120264352Y-111457906D02*
X120178638Y-111410287D01*
X120178638Y-111410287D02*
X120007209Y-111410287D01*
X120007209Y-111410287D02*
X119921495Y-111457906D01*
X119921495Y-111457906D02*
X119878638Y-111553144D01*
X119878638Y-111553144D02*
X119878638Y-111648382D01*
X119878638Y-111648382D02*
X120307209Y-111743620D01*
X119107209Y-112029335D02*
X119192923Y-112076954D01*
X119192923Y-112076954D02*
X119364351Y-112076954D01*
X119364351Y-112076954D02*
X119450066Y-112029335D01*
X119450066Y-112029335D02*
X119492923Y-111981715D01*
X119492923Y-111981715D02*
X119535780Y-111886477D01*
X119535780Y-111886477D02*
X119535780Y-111600763D01*
X119535780Y-111600763D02*
X119492923Y-111505525D01*
X119492923Y-111505525D02*
X119450066Y-111457906D01*
X119450066Y-111457906D02*
X119364351Y-111410287D01*
X119364351Y-111410287D02*
X119192923Y-111410287D01*
X119192923Y-111410287D02*
X119107209Y-111457906D01*
X118850065Y-111410287D02*
X118507208Y-111410287D01*
X118721494Y-111076954D02*
X118721494Y-111934096D01*
X118721494Y-111934096D02*
X118678637Y-112029335D01*
X118678637Y-112029335D02*
X118592922Y-112076954D01*
X118592922Y-112076954D02*
X118507208Y-112076954D01*
X118207208Y-112076954D02*
X118207208Y-111410287D01*
X118207208Y-111076954D02*
X118250065Y-111124573D01*
X118250065Y-111124573D02*
X118207208Y-111172192D01*
X118207208Y-111172192D02*
X118164351Y-111124573D01*
X118164351Y-111124573D02*
X118207208Y-111076954D01*
X118207208Y-111076954D02*
X118207208Y-111172192D01*
X117650065Y-112076954D02*
X117735780Y-112029335D01*
X117735780Y-112029335D02*
X117778637Y-111981715D01*
X117778637Y-111981715D02*
X117821494Y-111886477D01*
X117821494Y-111886477D02*
X117821494Y-111600763D01*
X117821494Y-111600763D02*
X117778637Y-111505525D01*
X117778637Y-111505525D02*
X117735780Y-111457906D01*
X117735780Y-111457906D02*
X117650065Y-111410287D01*
X117650065Y-111410287D02*
X117521494Y-111410287D01*
X117521494Y-111410287D02*
X117435780Y-111457906D01*
X117435780Y-111457906D02*
X117392923Y-111505525D01*
X117392923Y-111505525D02*
X117350065Y-111600763D01*
X117350065Y-111600763D02*
X117350065Y-111886477D01*
X117350065Y-111886477D02*
X117392923Y-111981715D01*
X117392923Y-111981715D02*
X117435780Y-112029335D01*
X117435780Y-112029335D02*
X117521494Y-112076954D01*
X117521494Y-112076954D02*
X117650065Y-112076954D01*
X116964351Y-111410287D02*
X116964351Y-112076954D01*
X116964351Y-111505525D02*
X116921494Y-111457906D01*
X116921494Y-111457906D02*
X116835779Y-111410287D01*
X116835779Y-111410287D02*
X116707208Y-111410287D01*
X116707208Y-111410287D02*
X116621494Y-111457906D01*
X116621494Y-111457906D02*
X116578637Y-111553144D01*
X116578637Y-111553144D02*
X116578637Y-112076954D01*
X115164351Y-111553144D02*
X115035779Y-111600763D01*
X115035779Y-111600763D02*
X114992922Y-111648382D01*
X114992922Y-111648382D02*
X114950065Y-111743620D01*
X114950065Y-111743620D02*
X114950065Y-111886477D01*
X114950065Y-111886477D02*
X114992922Y-111981715D01*
X114992922Y-111981715D02*
X115035779Y-112029335D01*
X115035779Y-112029335D02*
X115121494Y-112076954D01*
X115121494Y-112076954D02*
X115464351Y-112076954D01*
X115464351Y-112076954D02*
X115464351Y-111076954D01*
X115464351Y-111076954D02*
X115164351Y-111076954D01*
X115164351Y-111076954D02*
X115078637Y-111124573D01*
X115078637Y-111124573D02*
X115035779Y-111172192D01*
X115035779Y-111172192D02*
X114992922Y-111267430D01*
X114992922Y-111267430D02*
X114992922Y-111362668D01*
X114992922Y-111362668D02*
X115035779Y-111457906D01*
X115035779Y-111457906D02*
X115078637Y-111505525D01*
X115078637Y-111505525D02*
X115164351Y-111553144D01*
X115164351Y-111553144D02*
X115464351Y-111553144D01*
X114435779Y-112076954D02*
X114521494Y-112029335D01*
X114521494Y-112029335D02*
X114564351Y-111981715D01*
X114564351Y-111981715D02*
X114607208Y-111886477D01*
X114607208Y-111886477D02*
X114607208Y-111600763D01*
X114607208Y-111600763D02*
X114564351Y-111505525D01*
X114564351Y-111505525D02*
X114521494Y-111457906D01*
X114521494Y-111457906D02*
X114435779Y-111410287D01*
X114435779Y-111410287D02*
X114307208Y-111410287D01*
X114307208Y-111410287D02*
X114221494Y-111457906D01*
X114221494Y-111457906D02*
X114178637Y-111505525D01*
X114178637Y-111505525D02*
X114135779Y-111600763D01*
X114135779Y-111600763D02*
X114135779Y-111886477D01*
X114135779Y-111886477D02*
X114178637Y-111981715D01*
X114178637Y-111981715D02*
X114221494Y-112029335D01*
X114221494Y-112029335D02*
X114307208Y-112076954D01*
X114307208Y-112076954D02*
X114435779Y-112076954D01*
X113364351Y-112076954D02*
X113364351Y-111553144D01*
X113364351Y-111553144D02*
X113407208Y-111457906D01*
X113407208Y-111457906D02*
X113492922Y-111410287D01*
X113492922Y-111410287D02*
X113664351Y-111410287D01*
X113664351Y-111410287D02*
X113750065Y-111457906D01*
X113364351Y-112029335D02*
X113450065Y-112076954D01*
X113450065Y-112076954D02*
X113664351Y-112076954D01*
X113664351Y-112076954D02*
X113750065Y-112029335D01*
X113750065Y-112029335D02*
X113792922Y-111934096D01*
X113792922Y-111934096D02*
X113792922Y-111838858D01*
X113792922Y-111838858D02*
X113750065Y-111743620D01*
X113750065Y-111743620D02*
X113664351Y-111696001D01*
X113664351Y-111696001D02*
X113450065Y-111696001D01*
X113450065Y-111696001D02*
X113364351Y-111648382D01*
X112935779Y-112076954D02*
X112935779Y-111410287D01*
X112935779Y-111600763D02*
X112892922Y-111505525D01*
X112892922Y-111505525D02*
X112850065Y-111457906D01*
X112850065Y-111457906D02*
X112764350Y-111410287D01*
X112764350Y-111410287D02*
X112678636Y-111410287D01*
X111992922Y-112076954D02*
X111992922Y-111076954D01*
X111992922Y-112029335D02*
X112078636Y-112076954D01*
X112078636Y-112076954D02*
X112250064Y-112076954D01*
X112250064Y-112076954D02*
X112335779Y-112029335D01*
X112335779Y-112029335D02*
X112378636Y-111981715D01*
X112378636Y-111981715D02*
X112421493Y-111886477D01*
X112421493Y-111886477D02*
X112421493Y-111600763D01*
X112421493Y-111600763D02*
X112378636Y-111505525D01*
X112378636Y-111505525D02*
X112335779Y-111457906D01*
X112335779Y-111457906D02*
X112250064Y-111410287D01*
X112250064Y-111410287D02*
X112078636Y-111410287D01*
X112078636Y-111410287D02*
X111992922Y-111457906D01*
X111564350Y-111981715D02*
X111521493Y-112029335D01*
X111521493Y-112029335D02*
X111564350Y-112076954D01*
X111564350Y-112076954D02*
X111607207Y-112029335D01*
X111607207Y-112029335D02*
X111564350Y-111981715D01*
X111564350Y-111981715D02*
X111564350Y-112076954D01*
X139512332Y-59080218D02*
X139607570Y-59032599D01*
X139607570Y-59032599D02*
X139702808Y-58937361D01*
X139702808Y-58937361D02*
X139845665Y-58794503D01*
X139845665Y-58794503D02*
X139940903Y-58746884D01*
X139940903Y-58746884D02*
X140036141Y-58746884D01*
X139988522Y-58984980D02*
X140083760Y-58937361D01*
X140083760Y-58937361D02*
X140178998Y-58842122D01*
X140178998Y-58842122D02*
X140226617Y-58651646D01*
X140226617Y-58651646D02*
X140226617Y-58318313D01*
X140226617Y-58318313D02*
X140178998Y-58127837D01*
X140178998Y-58127837D02*
X140083760Y-58032599D01*
X140083760Y-58032599D02*
X139988522Y-57984980D01*
X139988522Y-57984980D02*
X139798046Y-57984980D01*
X139798046Y-57984980D02*
X139702808Y-58032599D01*
X139702808Y-58032599D02*
X139607570Y-58127837D01*
X139607570Y-58127837D02*
X139559951Y-58318313D01*
X139559951Y-58318313D02*
X139559951Y-58651646D01*
X139559951Y-58651646D02*
X139607570Y-58842122D01*
X139607570Y-58842122D02*
X139702808Y-58937361D01*
X139702808Y-58937361D02*
X139798046Y-58984980D01*
X139798046Y-58984980D02*
X139988522Y-58984980D01*
X138607570Y-58984980D02*
X139178998Y-58984980D01*
X138893284Y-58984980D02*
X138893284Y-57984980D01*
X138893284Y-57984980D02*
X138988522Y-58127837D01*
X138988522Y-58127837D02*
X139083760Y-58223075D01*
X139083760Y-58223075D02*
X139178998Y-58270694D01*
X137655189Y-58984980D02*
X138226617Y-58984980D01*
X137940903Y-58984980D02*
X137940903Y-57984980D01*
X137940903Y-57984980D02*
X138036141Y-58127837D01*
X138036141Y-58127837D02*
X138131379Y-58223075D01*
X138131379Y-58223075D02*
X138226617Y-58270694D01*
X178567195Y-61639175D02*
X178567195Y-62324890D01*
X178567195Y-63439175D02*
X178567195Y-64124890D01*
X178567195Y-65239175D02*
X178567195Y-65924890D01*
X178567195Y-67039175D02*
X178567195Y-67724890D01*
X192151795Y-70110286D02*
X192151795Y-69424572D01*
X192151795Y-68310286D02*
X192151795Y-67624572D01*
X192151795Y-66510286D02*
X192151795Y-65824572D01*
X192151795Y-64710286D02*
X192151795Y-64024572D01*
X149587552Y-59456608D02*
X149539933Y-59361370D01*
X149539933Y-59361370D02*
X149444695Y-59266132D01*
X149444695Y-59266132D02*
X149301837Y-59123275D01*
X149301837Y-59123275D02*
X149254218Y-59028037D01*
X149254218Y-59028037D02*
X149254218Y-58932799D01*
X149492314Y-58980418D02*
X149444695Y-58885180D01*
X149444695Y-58885180D02*
X149349456Y-58789942D01*
X149349456Y-58789942D02*
X149158980Y-58742323D01*
X149158980Y-58742323D02*
X148825647Y-58742323D01*
X148825647Y-58742323D02*
X148635171Y-58789942D01*
X148635171Y-58789942D02*
X148539933Y-58885180D01*
X148539933Y-58885180D02*
X148492314Y-58980418D01*
X148492314Y-58980418D02*
X148492314Y-59170894D01*
X148492314Y-59170894D02*
X148539933Y-59266132D01*
X148539933Y-59266132D02*
X148635171Y-59361370D01*
X148635171Y-59361370D02*
X148825647Y-59408989D01*
X148825647Y-59408989D02*
X149158980Y-59408989D01*
X149158980Y-59408989D02*
X149349456Y-59361370D01*
X149349456Y-59361370D02*
X149444695Y-59266132D01*
X149444695Y-59266132D02*
X149492314Y-59170894D01*
X149492314Y-59170894D02*
X149492314Y-58980418D01*
X149492314Y-60361370D02*
X149492314Y-59789942D01*
X149492314Y-60075656D02*
X148492314Y-60075656D01*
X148492314Y-60075656D02*
X148635171Y-59980418D01*
X148635171Y-59980418D02*
X148730409Y-59885180D01*
X148730409Y-59885180D02*
X148778028Y-59789942D01*
X148492314Y-60980418D02*
X148492314Y-61075656D01*
X148492314Y-61075656D02*
X148539933Y-61170894D01*
X148539933Y-61170894D02*
X148587552Y-61218513D01*
X148587552Y-61218513D02*
X148682790Y-61266132D01*
X148682790Y-61266132D02*
X148873266Y-61313751D01*
X148873266Y-61313751D02*
X149111361Y-61313751D01*
X149111361Y-61313751D02*
X149301837Y-61266132D01*
X149301837Y-61266132D02*
X149397075Y-61218513D01*
X149397075Y-61218513D02*
X149444695Y-61170894D01*
X149444695Y-61170894D02*
X149492314Y-61075656D01*
X149492314Y-61075656D02*
X149492314Y-60980418D01*
X149492314Y-60980418D02*
X149444695Y-60885180D01*
X149444695Y-60885180D02*
X149397075Y-60837561D01*
X149397075Y-60837561D02*
X149301837Y-60789942D01*
X149301837Y-60789942D02*
X149111361Y-60742323D01*
X149111361Y-60742323D02*
X148873266Y-60742323D01*
X148873266Y-60742323D02*
X148682790Y-60789942D01*
X148682790Y-60789942D02*
X148587552Y-60837561D01*
X148587552Y-60837561D02*
X148539933Y-60885180D01*
X148539933Y-60885180D02*
X148492314Y-60980418D01*
X135898046Y-59700954D02*
X136583761Y-59700954D01*
X137698046Y-59700954D02*
X138383761Y-59700954D01*
X139498046Y-59700954D02*
X140183761Y-59700954D01*
X141298046Y-59700954D02*
X141983761Y-59700954D01*
X180575552Y-64237604D02*
X180527933Y-64142366D01*
X180527933Y-64142366D02*
X180432695Y-64047128D01*
X180432695Y-64047128D02*
X180289837Y-63904271D01*
X180289837Y-63904271D02*
X180242218Y-63809033D01*
X180242218Y-63809033D02*
X180242218Y-63713795D01*
X180480314Y-63761414D02*
X180432695Y-63666176D01*
X180432695Y-63666176D02*
X180337456Y-63570938D01*
X180337456Y-63570938D02*
X180146980Y-63523319D01*
X180146980Y-63523319D02*
X179813647Y-63523319D01*
X179813647Y-63523319D02*
X179623171Y-63570938D01*
X179623171Y-63570938D02*
X179527933Y-63666176D01*
X179527933Y-63666176D02*
X179480314Y-63761414D01*
X179480314Y-63761414D02*
X179480314Y-63951890D01*
X179480314Y-63951890D02*
X179527933Y-64047128D01*
X179527933Y-64047128D02*
X179623171Y-64142366D01*
X179623171Y-64142366D02*
X179813647Y-64189985D01*
X179813647Y-64189985D02*
X180146980Y-64189985D01*
X180146980Y-64189985D02*
X180337456Y-64142366D01*
X180337456Y-64142366D02*
X180432695Y-64047128D01*
X180432695Y-64047128D02*
X180480314Y-63951890D01*
X180480314Y-63951890D02*
X180480314Y-63761414D01*
X180480314Y-65142366D02*
X180480314Y-64570938D01*
X180480314Y-64856652D02*
X179480314Y-64856652D01*
X179480314Y-64856652D02*
X179623171Y-64761414D01*
X179623171Y-64761414D02*
X179718409Y-64666176D01*
X179718409Y-64666176D02*
X179766028Y-64570938D01*
X179480314Y-65475700D02*
X179480314Y-66094747D01*
X179480314Y-66094747D02*
X179861266Y-65761414D01*
X179861266Y-65761414D02*
X179861266Y-65904271D01*
X179861266Y-65904271D02*
X179908885Y-65999509D01*
X179908885Y-65999509D02*
X179956504Y-66047128D01*
X179956504Y-66047128D02*
X180051742Y-66094747D01*
X180051742Y-66094747D02*
X180289837Y-66094747D01*
X180289837Y-66094747D02*
X180385075Y-66047128D01*
X180385075Y-66047128D02*
X180432695Y-65999509D01*
X180432695Y-65999509D02*
X180480314Y-65904271D01*
X180480314Y-65904271D02*
X180480314Y-65618557D01*
X180480314Y-65618557D02*
X180432695Y-65523319D01*
X180432695Y-65523319D02*
X180385075Y-65475700D01*
X176997953Y-90579940D02*
X177426525Y-90579940D01*
X177426525Y-90579940D02*
X177426525Y-89579940D01*
X176226525Y-90579940D02*
X176740811Y-90579940D01*
X176483668Y-90579940D02*
X176483668Y-89579940D01*
X176483668Y-89579940D02*
X176569382Y-89722797D01*
X176569382Y-89722797D02*
X176655097Y-89818035D01*
X176655097Y-89818035D02*
X176740811Y-89865654D01*
X175155097Y-90484701D02*
X175112240Y-90532321D01*
X175112240Y-90532321D02*
X175155097Y-90579940D01*
X175155097Y-90579940D02*
X175197954Y-90532321D01*
X175197954Y-90532321D02*
X175155097Y-90484701D01*
X175155097Y-90484701D02*
X175155097Y-90579940D01*
X175155097Y-89960892D02*
X175112240Y-90008511D01*
X175112240Y-90008511D02*
X175155097Y-90056130D01*
X175155097Y-90056130D02*
X175197954Y-90008511D01*
X175197954Y-90008511D02*
X175155097Y-89960892D01*
X175155097Y-89960892D02*
X175155097Y-90056130D01*
X173569383Y-90579940D02*
X174083669Y-90579940D01*
X173826526Y-90579940D02*
X173826526Y-89579940D01*
X173826526Y-89579940D02*
X173912240Y-89722797D01*
X173912240Y-89722797D02*
X173997955Y-89818035D01*
X173997955Y-89818035D02*
X174083669Y-89865654D01*
X173183669Y-90484701D02*
X173140812Y-90532321D01*
X173140812Y-90532321D02*
X173183669Y-90579940D01*
X173183669Y-90579940D02*
X173226526Y-90532321D01*
X173226526Y-90532321D02*
X173183669Y-90484701D01*
X173183669Y-90484701D02*
X173183669Y-90579940D01*
X172797955Y-89675178D02*
X172755098Y-89627559D01*
X172755098Y-89627559D02*
X172669384Y-89579940D01*
X172669384Y-89579940D02*
X172455098Y-89579940D01*
X172455098Y-89579940D02*
X172369384Y-89627559D01*
X172369384Y-89627559D02*
X172326526Y-89675178D01*
X172326526Y-89675178D02*
X172283669Y-89770416D01*
X172283669Y-89770416D02*
X172283669Y-89865654D01*
X172283669Y-89865654D02*
X172326526Y-90008511D01*
X172326526Y-90008511D02*
X172840812Y-90579940D01*
X172840812Y-90579940D02*
X172283669Y-90579940D01*
X170826527Y-89913273D02*
X170826527Y-90579940D01*
X171212241Y-89913273D02*
X171212241Y-90437082D01*
X171212241Y-90437082D02*
X171169384Y-90532321D01*
X171169384Y-90532321D02*
X171083669Y-90579940D01*
X171083669Y-90579940D02*
X170955098Y-90579940D01*
X170955098Y-90579940D02*
X170869384Y-90532321D01*
X170869384Y-90532321D02*
X170826527Y-90484701D01*
X170397955Y-90579940D02*
X170397955Y-89579940D01*
X170397955Y-90056130D02*
X169883669Y-90056130D01*
X169883669Y-90579940D02*
X169883669Y-89579940D01*
X176955096Y-92189884D02*
X177469382Y-92189884D01*
X177212239Y-92189884D02*
X177212239Y-91189884D01*
X177212239Y-91189884D02*
X177297953Y-91332741D01*
X177297953Y-91332741D02*
X177383668Y-91427979D01*
X177383668Y-91427979D02*
X177469382Y-91475598D01*
X176526525Y-92189884D02*
X176355096Y-92189884D01*
X176355096Y-92189884D02*
X176269382Y-92142265D01*
X176269382Y-92142265D02*
X176226525Y-92094645D01*
X176226525Y-92094645D02*
X176140810Y-91951788D01*
X176140810Y-91951788D02*
X176097953Y-91761312D01*
X176097953Y-91761312D02*
X176097953Y-91380360D01*
X176097953Y-91380360D02*
X176140810Y-91285122D01*
X176140810Y-91285122D02*
X176183668Y-91237503D01*
X176183668Y-91237503D02*
X176269382Y-91189884D01*
X176269382Y-91189884D02*
X176440810Y-91189884D01*
X176440810Y-91189884D02*
X176526525Y-91237503D01*
X176526525Y-91237503D02*
X176569382Y-91285122D01*
X176569382Y-91285122D02*
X176612239Y-91380360D01*
X176612239Y-91380360D02*
X176612239Y-91618455D01*
X176612239Y-91618455D02*
X176569382Y-91713693D01*
X176569382Y-91713693D02*
X176526525Y-91761312D01*
X176526525Y-91761312D02*
X176440810Y-91808931D01*
X176440810Y-91808931D02*
X176269382Y-91808931D01*
X176269382Y-91808931D02*
X176183668Y-91761312D01*
X176183668Y-91761312D02*
X176140810Y-91713693D01*
X176140810Y-91713693D02*
X176097953Y-91618455D01*
X175712239Y-92094645D02*
X175669382Y-92142265D01*
X175669382Y-92142265D02*
X175712239Y-92189884D01*
X175712239Y-92189884D02*
X175755096Y-92142265D01*
X175755096Y-92142265D02*
X175712239Y-92094645D01*
X175712239Y-92094645D02*
X175712239Y-92189884D01*
X174855096Y-91189884D02*
X175283668Y-91189884D01*
X175283668Y-91189884D02*
X175326525Y-91666074D01*
X175326525Y-91666074D02*
X175283668Y-91618455D01*
X175283668Y-91618455D02*
X175197954Y-91570836D01*
X175197954Y-91570836D02*
X174983668Y-91570836D01*
X174983668Y-91570836D02*
X174897954Y-91618455D01*
X174897954Y-91618455D02*
X174855096Y-91666074D01*
X174855096Y-91666074D02*
X174812239Y-91761312D01*
X174812239Y-91761312D02*
X174812239Y-91999407D01*
X174812239Y-91999407D02*
X174855096Y-92094645D01*
X174855096Y-92094645D02*
X174897954Y-92142265D01*
X174897954Y-92142265D02*
X174983668Y-92189884D01*
X174983668Y-92189884D02*
X175197954Y-92189884D01*
X175197954Y-92189884D02*
X175283668Y-92142265D01*
X175283668Y-92142265D02*
X175326525Y-92094645D01*
X173869382Y-91523217D02*
X173526525Y-91523217D01*
X173740811Y-91189884D02*
X173740811Y-92047026D01*
X173740811Y-92047026D02*
X173697954Y-92142265D01*
X173697954Y-92142265D02*
X173612239Y-92189884D01*
X173612239Y-92189884D02*
X173526525Y-92189884D01*
X172840811Y-91523217D02*
X172840811Y-92189884D01*
X173226525Y-91523217D02*
X173226525Y-92047026D01*
X173226525Y-92047026D02*
X173183668Y-92142265D01*
X173183668Y-92142265D02*
X173097953Y-92189884D01*
X173097953Y-92189884D02*
X172969382Y-92189884D01*
X172969382Y-92189884D02*
X172883668Y-92142265D01*
X172883668Y-92142265D02*
X172840811Y-92094645D01*
X172412239Y-92189884D02*
X172412239Y-91523217D01*
X172412239Y-91713693D02*
X172369382Y-91618455D01*
X172369382Y-91618455D02*
X172326525Y-91570836D01*
X172326525Y-91570836D02*
X172240810Y-91523217D01*
X172240810Y-91523217D02*
X172155096Y-91523217D01*
X171855096Y-91523217D02*
X171855096Y-92189884D01*
X171855096Y-91618455D02*
X171812239Y-91570836D01*
X171812239Y-91570836D02*
X171726524Y-91523217D01*
X171726524Y-91523217D02*
X171597953Y-91523217D01*
X171597953Y-91523217D02*
X171512239Y-91570836D01*
X171512239Y-91570836D02*
X171469382Y-91666074D01*
X171469382Y-91666074D02*
X171469382Y-92189884D01*
X171083667Y-92142265D02*
X170997953Y-92189884D01*
X170997953Y-92189884D02*
X170826524Y-92189884D01*
X170826524Y-92189884D02*
X170740810Y-92142265D01*
X170740810Y-92142265D02*
X170697953Y-92047026D01*
X170697953Y-92047026D02*
X170697953Y-91999407D01*
X170697953Y-91999407D02*
X170740810Y-91904169D01*
X170740810Y-91904169D02*
X170826524Y-91856550D01*
X170826524Y-91856550D02*
X170955096Y-91856550D01*
X170955096Y-91856550D02*
X171040810Y-91808931D01*
X171040810Y-91808931D02*
X171083667Y-91713693D01*
X171083667Y-91713693D02*
X171083667Y-91666074D01*
X171083667Y-91666074D02*
X171040810Y-91570836D01*
X171040810Y-91570836D02*
X170955096Y-91523217D01*
X170955096Y-91523217D02*
X170826524Y-91523217D01*
X170826524Y-91523217D02*
X170740810Y-91570836D01*
X169497953Y-92189884D02*
X169583668Y-92142265D01*
X169583668Y-92142265D02*
X169626525Y-92094645D01*
X169626525Y-92094645D02*
X169669382Y-91999407D01*
X169669382Y-91999407D02*
X169669382Y-91713693D01*
X169669382Y-91713693D02*
X169626525Y-91618455D01*
X169626525Y-91618455D02*
X169583668Y-91570836D01*
X169583668Y-91570836D02*
X169497953Y-91523217D01*
X169497953Y-91523217D02*
X169369382Y-91523217D01*
X169369382Y-91523217D02*
X169283668Y-91570836D01*
X169283668Y-91570836D02*
X169240811Y-91618455D01*
X169240811Y-91618455D02*
X169197953Y-91713693D01*
X169197953Y-91713693D02*
X169197953Y-91999407D01*
X169197953Y-91999407D02*
X169240811Y-92094645D01*
X169240811Y-92094645D02*
X169283668Y-92142265D01*
X169283668Y-92142265D02*
X169369382Y-92189884D01*
X169369382Y-92189884D02*
X169497953Y-92189884D01*
X168940810Y-91523217D02*
X168597953Y-91523217D01*
X168812239Y-92189884D02*
X168812239Y-91332741D01*
X168812239Y-91332741D02*
X168769382Y-91237503D01*
X168769382Y-91237503D02*
X168683667Y-91189884D01*
X168683667Y-91189884D02*
X168597953Y-91189884D01*
X167226525Y-92189884D02*
X167226525Y-91666074D01*
X167226525Y-91666074D02*
X167269382Y-91570836D01*
X167269382Y-91570836D02*
X167355096Y-91523217D01*
X167355096Y-91523217D02*
X167526525Y-91523217D01*
X167526525Y-91523217D02*
X167612239Y-91570836D01*
X167226525Y-92142265D02*
X167312239Y-92189884D01*
X167312239Y-92189884D02*
X167526525Y-92189884D01*
X167526525Y-92189884D02*
X167612239Y-92142265D01*
X167612239Y-92142265D02*
X167655096Y-92047026D01*
X167655096Y-92047026D02*
X167655096Y-91951788D01*
X167655096Y-91951788D02*
X167612239Y-91856550D01*
X167612239Y-91856550D02*
X167526525Y-91808931D01*
X167526525Y-91808931D02*
X167312239Y-91808931D01*
X167312239Y-91808931D02*
X167226525Y-91761312D01*
X165640810Y-92189884D02*
X166155096Y-92189884D01*
X165897953Y-92189884D02*
X165897953Y-91189884D01*
X165897953Y-91189884D02*
X165983667Y-91332741D01*
X165983667Y-91332741D02*
X166069382Y-91427979D01*
X166069382Y-91427979D02*
X166155096Y-91475598D01*
X165255096Y-92189884D02*
X165255096Y-91523217D01*
X165255096Y-91618455D02*
X165212239Y-91570836D01*
X165212239Y-91570836D02*
X165126524Y-91523217D01*
X165126524Y-91523217D02*
X164997953Y-91523217D01*
X164997953Y-91523217D02*
X164912239Y-91570836D01*
X164912239Y-91570836D02*
X164869382Y-91666074D01*
X164869382Y-91666074D02*
X164869382Y-92189884D01*
X164869382Y-91666074D02*
X164826524Y-91570836D01*
X164826524Y-91570836D02*
X164740810Y-91523217D01*
X164740810Y-91523217D02*
X164612239Y-91523217D01*
X164612239Y-91523217D02*
X164526524Y-91570836D01*
X164526524Y-91570836D02*
X164483667Y-91666074D01*
X164483667Y-91666074D02*
X164483667Y-92189884D01*
X164055096Y-92189884D02*
X164055096Y-91523217D01*
X164055096Y-91618455D02*
X164012239Y-91570836D01*
X164012239Y-91570836D02*
X163926524Y-91523217D01*
X163926524Y-91523217D02*
X163797953Y-91523217D01*
X163797953Y-91523217D02*
X163712239Y-91570836D01*
X163712239Y-91570836D02*
X163669382Y-91666074D01*
X163669382Y-91666074D02*
X163669382Y-92189884D01*
X163669382Y-91666074D02*
X163626524Y-91570836D01*
X163626524Y-91570836D02*
X163540810Y-91523217D01*
X163540810Y-91523217D02*
X163412239Y-91523217D01*
X163412239Y-91523217D02*
X163326524Y-91570836D01*
X163326524Y-91570836D02*
X163283667Y-91666074D01*
X163283667Y-91666074D02*
X163283667Y-92189884D01*
X161783668Y-92189884D02*
X161783668Y-91189884D01*
X161783668Y-92142265D02*
X161869382Y-92189884D01*
X161869382Y-92189884D02*
X162040810Y-92189884D01*
X162040810Y-92189884D02*
X162126525Y-92142265D01*
X162126525Y-92142265D02*
X162169382Y-92094645D01*
X162169382Y-92094645D02*
X162212239Y-91999407D01*
X162212239Y-91999407D02*
X162212239Y-91713693D01*
X162212239Y-91713693D02*
X162169382Y-91618455D01*
X162169382Y-91618455D02*
X162126525Y-91570836D01*
X162126525Y-91570836D02*
X162040810Y-91523217D01*
X162040810Y-91523217D02*
X161869382Y-91523217D01*
X161869382Y-91523217D02*
X161783668Y-91570836D01*
X161355096Y-92189884D02*
X161355096Y-91523217D01*
X161355096Y-91189884D02*
X161397953Y-91237503D01*
X161397953Y-91237503D02*
X161355096Y-91285122D01*
X161355096Y-91285122D02*
X161312239Y-91237503D01*
X161312239Y-91237503D02*
X161355096Y-91189884D01*
X161355096Y-91189884D02*
X161355096Y-91285122D01*
X160540811Y-92189884D02*
X160540811Y-91666074D01*
X160540811Y-91666074D02*
X160583668Y-91570836D01*
X160583668Y-91570836D02*
X160669382Y-91523217D01*
X160669382Y-91523217D02*
X160840811Y-91523217D01*
X160840811Y-91523217D02*
X160926525Y-91570836D01*
X160540811Y-92142265D02*
X160626525Y-92189884D01*
X160626525Y-92189884D02*
X160840811Y-92189884D01*
X160840811Y-92189884D02*
X160926525Y-92142265D01*
X160926525Y-92142265D02*
X160969382Y-92047026D01*
X160969382Y-92047026D02*
X160969382Y-91951788D01*
X160969382Y-91951788D02*
X160926525Y-91856550D01*
X160926525Y-91856550D02*
X160840811Y-91808931D01*
X160840811Y-91808931D02*
X160626525Y-91808931D01*
X160626525Y-91808931D02*
X160540811Y-91761312D01*
X160112239Y-92189884D02*
X160112239Y-91523217D01*
X160112239Y-91618455D02*
X160069382Y-91570836D01*
X160069382Y-91570836D02*
X159983667Y-91523217D01*
X159983667Y-91523217D02*
X159855096Y-91523217D01*
X159855096Y-91523217D02*
X159769382Y-91570836D01*
X159769382Y-91570836D02*
X159726525Y-91666074D01*
X159726525Y-91666074D02*
X159726525Y-92189884D01*
X159726525Y-91666074D02*
X159683667Y-91570836D01*
X159683667Y-91570836D02*
X159597953Y-91523217D01*
X159597953Y-91523217D02*
X159469382Y-91523217D01*
X159469382Y-91523217D02*
X159383667Y-91570836D01*
X159383667Y-91570836D02*
X159340810Y-91666074D01*
X159340810Y-91666074D02*
X159340810Y-92189884D01*
X158569382Y-92142265D02*
X158655096Y-92189884D01*
X158655096Y-92189884D02*
X158826525Y-92189884D01*
X158826525Y-92189884D02*
X158912239Y-92142265D01*
X158912239Y-92142265D02*
X158955096Y-92047026D01*
X158955096Y-92047026D02*
X158955096Y-91666074D01*
X158955096Y-91666074D02*
X158912239Y-91570836D01*
X158912239Y-91570836D02*
X158826525Y-91523217D01*
X158826525Y-91523217D02*
X158655096Y-91523217D01*
X158655096Y-91523217D02*
X158569382Y-91570836D01*
X158569382Y-91570836D02*
X158526525Y-91666074D01*
X158526525Y-91666074D02*
X158526525Y-91761312D01*
X158526525Y-91761312D02*
X158955096Y-91856550D01*
X158269381Y-91523217D02*
X157926524Y-91523217D01*
X158140810Y-91189884D02*
X158140810Y-92047026D01*
X158140810Y-92047026D02*
X158097953Y-92142265D01*
X158097953Y-92142265D02*
X158012238Y-92189884D01*
X158012238Y-92189884D02*
X157926524Y-92189884D01*
X157283667Y-92142265D02*
X157369381Y-92189884D01*
X157369381Y-92189884D02*
X157540810Y-92189884D01*
X157540810Y-92189884D02*
X157626524Y-92142265D01*
X157626524Y-92142265D02*
X157669381Y-92047026D01*
X157669381Y-92047026D02*
X157669381Y-91666074D01*
X157669381Y-91666074D02*
X157626524Y-91570836D01*
X157626524Y-91570836D02*
X157540810Y-91523217D01*
X157540810Y-91523217D02*
X157369381Y-91523217D01*
X157369381Y-91523217D02*
X157283667Y-91570836D01*
X157283667Y-91570836D02*
X157240810Y-91666074D01*
X157240810Y-91666074D02*
X157240810Y-91761312D01*
X157240810Y-91761312D02*
X157669381Y-91856550D01*
X156855095Y-92189884D02*
X156855095Y-91523217D01*
X156855095Y-91713693D02*
X156812238Y-91618455D01*
X156812238Y-91618455D02*
X156769381Y-91570836D01*
X156769381Y-91570836D02*
X156683666Y-91523217D01*
X156683666Y-91523217D02*
X156597952Y-91523217D01*
X177040811Y-93752209D02*
X177126525Y-93799828D01*
X177126525Y-93799828D02*
X177297953Y-93799828D01*
X177297953Y-93799828D02*
X177383668Y-93752209D01*
X177383668Y-93752209D02*
X177426525Y-93704589D01*
X177426525Y-93704589D02*
X177469382Y-93609351D01*
X177469382Y-93609351D02*
X177469382Y-93323637D01*
X177469382Y-93323637D02*
X177426525Y-93228399D01*
X177426525Y-93228399D02*
X177383668Y-93180780D01*
X177383668Y-93180780D02*
X177297953Y-93133161D01*
X177297953Y-93133161D02*
X177126525Y-93133161D01*
X177126525Y-93133161D02*
X177040811Y-93180780D01*
X176526524Y-93799828D02*
X176612239Y-93752209D01*
X176612239Y-93752209D02*
X176655096Y-93704589D01*
X176655096Y-93704589D02*
X176697953Y-93609351D01*
X176697953Y-93609351D02*
X176697953Y-93323637D01*
X176697953Y-93323637D02*
X176655096Y-93228399D01*
X176655096Y-93228399D02*
X176612239Y-93180780D01*
X176612239Y-93180780D02*
X176526524Y-93133161D01*
X176526524Y-93133161D02*
X176397953Y-93133161D01*
X176397953Y-93133161D02*
X176312239Y-93180780D01*
X176312239Y-93180780D02*
X176269382Y-93228399D01*
X176269382Y-93228399D02*
X176226524Y-93323637D01*
X176226524Y-93323637D02*
X176226524Y-93609351D01*
X176226524Y-93609351D02*
X176269382Y-93704589D01*
X176269382Y-93704589D02*
X176312239Y-93752209D01*
X176312239Y-93752209D02*
X176397953Y-93799828D01*
X176397953Y-93799828D02*
X176526524Y-93799828D01*
X175840810Y-93133161D02*
X175840810Y-94133161D01*
X175840810Y-93180780D02*
X175755096Y-93133161D01*
X175755096Y-93133161D02*
X175583667Y-93133161D01*
X175583667Y-93133161D02*
X175497953Y-93180780D01*
X175497953Y-93180780D02*
X175455096Y-93228399D01*
X175455096Y-93228399D02*
X175412238Y-93323637D01*
X175412238Y-93323637D02*
X175412238Y-93609351D01*
X175412238Y-93609351D02*
X175455096Y-93704589D01*
X175455096Y-93704589D02*
X175497953Y-93752209D01*
X175497953Y-93752209D02*
X175583667Y-93799828D01*
X175583667Y-93799828D02*
X175755096Y-93799828D01*
X175755096Y-93799828D02*
X175840810Y-93752209D01*
X175026524Y-93133161D02*
X175026524Y-94133161D01*
X175026524Y-93180780D02*
X174940810Y-93133161D01*
X174940810Y-93133161D02*
X174769381Y-93133161D01*
X174769381Y-93133161D02*
X174683667Y-93180780D01*
X174683667Y-93180780D02*
X174640810Y-93228399D01*
X174640810Y-93228399D02*
X174597952Y-93323637D01*
X174597952Y-93323637D02*
X174597952Y-93609351D01*
X174597952Y-93609351D02*
X174640810Y-93704589D01*
X174640810Y-93704589D02*
X174683667Y-93752209D01*
X174683667Y-93752209D02*
X174769381Y-93799828D01*
X174769381Y-93799828D02*
X174940810Y-93799828D01*
X174940810Y-93799828D02*
X175026524Y-93752209D01*
X173869381Y-93752209D02*
X173955095Y-93799828D01*
X173955095Y-93799828D02*
X174126524Y-93799828D01*
X174126524Y-93799828D02*
X174212238Y-93752209D01*
X174212238Y-93752209D02*
X174255095Y-93656970D01*
X174255095Y-93656970D02*
X174255095Y-93276018D01*
X174255095Y-93276018D02*
X174212238Y-93180780D01*
X174212238Y-93180780D02*
X174126524Y-93133161D01*
X174126524Y-93133161D02*
X173955095Y-93133161D01*
X173955095Y-93133161D02*
X173869381Y-93180780D01*
X173869381Y-93180780D02*
X173826524Y-93276018D01*
X173826524Y-93276018D02*
X173826524Y-93371256D01*
X173826524Y-93371256D02*
X174255095Y-93466494D01*
X173440809Y-93799828D02*
X173440809Y-93133161D01*
X173440809Y-93323637D02*
X173397952Y-93228399D01*
X173397952Y-93228399D02*
X173355095Y-93180780D01*
X173355095Y-93180780D02*
X173269380Y-93133161D01*
X173269380Y-93133161D02*
X173183666Y-93133161D01*
X172197952Y-93799828D02*
X172197952Y-93133161D01*
X172197952Y-92799828D02*
X172240809Y-92847447D01*
X172240809Y-92847447D02*
X172197952Y-92895066D01*
X172197952Y-92895066D02*
X172155095Y-92847447D01*
X172155095Y-92847447D02*
X172197952Y-92799828D01*
X172197952Y-92799828D02*
X172197952Y-92895066D01*
X171769381Y-93133161D02*
X171769381Y-93799828D01*
X171769381Y-93228399D02*
X171726524Y-93180780D01*
X171726524Y-93180780D02*
X171640809Y-93133161D01*
X171640809Y-93133161D02*
X171512238Y-93133161D01*
X171512238Y-93133161D02*
X171426524Y-93180780D01*
X171426524Y-93180780D02*
X171383667Y-93276018D01*
X171383667Y-93276018D02*
X171383667Y-93799828D01*
X170997952Y-93752209D02*
X170912238Y-93799828D01*
X170912238Y-93799828D02*
X170740809Y-93799828D01*
X170740809Y-93799828D02*
X170655095Y-93752209D01*
X170655095Y-93752209D02*
X170612238Y-93656970D01*
X170612238Y-93656970D02*
X170612238Y-93609351D01*
X170612238Y-93609351D02*
X170655095Y-93514113D01*
X170655095Y-93514113D02*
X170740809Y-93466494D01*
X170740809Y-93466494D02*
X170869381Y-93466494D01*
X170869381Y-93466494D02*
X170955095Y-93418875D01*
X170955095Y-93418875D02*
X170997952Y-93323637D01*
X170997952Y-93323637D02*
X170997952Y-93276018D01*
X170997952Y-93276018D02*
X170955095Y-93180780D01*
X170955095Y-93180780D02*
X170869381Y-93133161D01*
X170869381Y-93133161D02*
X170740809Y-93133161D01*
X170740809Y-93133161D02*
X170655095Y-93180780D01*
X169840810Y-93133161D02*
X169840810Y-93799828D01*
X170226524Y-93133161D02*
X170226524Y-93656970D01*
X170226524Y-93656970D02*
X170183667Y-93752209D01*
X170183667Y-93752209D02*
X170097952Y-93799828D01*
X170097952Y-93799828D02*
X169969381Y-93799828D01*
X169969381Y-93799828D02*
X169883667Y-93752209D01*
X169883667Y-93752209D02*
X169840810Y-93704589D01*
X169283666Y-93799828D02*
X169369381Y-93752209D01*
X169369381Y-93752209D02*
X169412238Y-93656970D01*
X169412238Y-93656970D02*
X169412238Y-92799828D01*
X168555095Y-93799828D02*
X168555095Y-93276018D01*
X168555095Y-93276018D02*
X168597952Y-93180780D01*
X168597952Y-93180780D02*
X168683666Y-93133161D01*
X168683666Y-93133161D02*
X168855095Y-93133161D01*
X168855095Y-93133161D02*
X168940809Y-93180780D01*
X168555095Y-93752209D02*
X168640809Y-93799828D01*
X168640809Y-93799828D02*
X168855095Y-93799828D01*
X168855095Y-93799828D02*
X168940809Y-93752209D01*
X168940809Y-93752209D02*
X168983666Y-93656970D01*
X168983666Y-93656970D02*
X168983666Y-93561732D01*
X168983666Y-93561732D02*
X168940809Y-93466494D01*
X168940809Y-93466494D02*
X168855095Y-93418875D01*
X168855095Y-93418875D02*
X168640809Y-93418875D01*
X168640809Y-93418875D02*
X168555095Y-93371256D01*
X168255094Y-93133161D02*
X167912237Y-93133161D01*
X168126523Y-92799828D02*
X168126523Y-93656970D01*
X168126523Y-93656970D02*
X168083666Y-93752209D01*
X168083666Y-93752209D02*
X167997951Y-93799828D01*
X167997951Y-93799828D02*
X167912237Y-93799828D01*
X167269380Y-93752209D02*
X167355094Y-93799828D01*
X167355094Y-93799828D02*
X167526523Y-93799828D01*
X167526523Y-93799828D02*
X167612237Y-93752209D01*
X167612237Y-93752209D02*
X167655094Y-93656970D01*
X167655094Y-93656970D02*
X167655094Y-93276018D01*
X167655094Y-93276018D02*
X167612237Y-93180780D01*
X167612237Y-93180780D02*
X167526523Y-93133161D01*
X167526523Y-93133161D02*
X167355094Y-93133161D01*
X167355094Y-93133161D02*
X167269380Y-93180780D01*
X167269380Y-93180780D02*
X167226523Y-93276018D01*
X167226523Y-93276018D02*
X167226523Y-93371256D01*
X167226523Y-93371256D02*
X167655094Y-93466494D01*
X166455094Y-93799828D02*
X166455094Y-92799828D01*
X166455094Y-93752209D02*
X166540808Y-93799828D01*
X166540808Y-93799828D02*
X166712236Y-93799828D01*
X166712236Y-93799828D02*
X166797951Y-93752209D01*
X166797951Y-93752209D02*
X166840808Y-93704589D01*
X166840808Y-93704589D02*
X166883665Y-93609351D01*
X166883665Y-93609351D02*
X166883665Y-93323637D01*
X166883665Y-93323637D02*
X166840808Y-93228399D01*
X166840808Y-93228399D02*
X166797951Y-93180780D01*
X166797951Y-93180780D02*
X166712236Y-93133161D01*
X166712236Y-93133161D02*
X166540808Y-93133161D01*
X166540808Y-93133161D02*
X166455094Y-93180780D01*
X165426522Y-93133161D02*
X165255094Y-93799828D01*
X165255094Y-93799828D02*
X165083665Y-93323637D01*
X165083665Y-93323637D02*
X164912236Y-93799828D01*
X164912236Y-93799828D02*
X164740808Y-93133161D01*
X164397951Y-93799828D02*
X164397951Y-93133161D01*
X164397951Y-92799828D02*
X164440808Y-92847447D01*
X164440808Y-92847447D02*
X164397951Y-92895066D01*
X164397951Y-92895066D02*
X164355094Y-92847447D01*
X164355094Y-92847447D02*
X164397951Y-92799828D01*
X164397951Y-92799828D02*
X164397951Y-92895066D01*
X163969380Y-93799828D02*
X163969380Y-93133161D01*
X163969380Y-93323637D02*
X163926523Y-93228399D01*
X163926523Y-93228399D02*
X163883666Y-93180780D01*
X163883666Y-93180780D02*
X163797951Y-93133161D01*
X163797951Y-93133161D02*
X163712237Y-93133161D01*
X163069380Y-93752209D02*
X163155094Y-93799828D01*
X163155094Y-93799828D02*
X163326523Y-93799828D01*
X163326523Y-93799828D02*
X163412237Y-93752209D01*
X163412237Y-93752209D02*
X163455094Y-93656970D01*
X163455094Y-93656970D02*
X163455094Y-93276018D01*
X163455094Y-93276018D02*
X163412237Y-93180780D01*
X163412237Y-93180780D02*
X163326523Y-93133161D01*
X163326523Y-93133161D02*
X163155094Y-93133161D01*
X163155094Y-93133161D02*
X163069380Y-93180780D01*
X163069380Y-93180780D02*
X163026523Y-93276018D01*
X163026523Y-93276018D02*
X163026523Y-93371256D01*
X163026523Y-93371256D02*
X163455094Y-93466494D01*
X162040808Y-93133161D02*
X161869380Y-93799828D01*
X161869380Y-93799828D02*
X161697951Y-93323637D01*
X161697951Y-93323637D02*
X161526522Y-93799828D01*
X161526522Y-93799828D02*
X161355094Y-93133161D01*
X160883665Y-93799828D02*
X160969380Y-93752209D01*
X160969380Y-93752209D02*
X161012237Y-93704589D01*
X161012237Y-93704589D02*
X161055094Y-93609351D01*
X161055094Y-93609351D02*
X161055094Y-93323637D01*
X161055094Y-93323637D02*
X161012237Y-93228399D01*
X161012237Y-93228399D02*
X160969380Y-93180780D01*
X160969380Y-93180780D02*
X160883665Y-93133161D01*
X160883665Y-93133161D02*
X160755094Y-93133161D01*
X160755094Y-93133161D02*
X160669380Y-93180780D01*
X160669380Y-93180780D02*
X160626523Y-93228399D01*
X160626523Y-93228399D02*
X160583665Y-93323637D01*
X160583665Y-93323637D02*
X160583665Y-93609351D01*
X160583665Y-93609351D02*
X160626523Y-93704589D01*
X160626523Y-93704589D02*
X160669380Y-93752209D01*
X160669380Y-93752209D02*
X160755094Y-93799828D01*
X160755094Y-93799828D02*
X160883665Y-93799828D01*
X159812237Y-93133161D02*
X159812237Y-93799828D01*
X160197951Y-93133161D02*
X160197951Y-93656970D01*
X160197951Y-93656970D02*
X160155094Y-93752209D01*
X160155094Y-93752209D02*
X160069379Y-93799828D01*
X160069379Y-93799828D02*
X159940808Y-93799828D01*
X159940808Y-93799828D02*
X159855094Y-93752209D01*
X159855094Y-93752209D02*
X159812237Y-93704589D01*
X159383665Y-93133161D02*
X159383665Y-93799828D01*
X159383665Y-93228399D02*
X159340808Y-93180780D01*
X159340808Y-93180780D02*
X159255093Y-93133161D01*
X159255093Y-93133161D02*
X159126522Y-93133161D01*
X159126522Y-93133161D02*
X159040808Y-93180780D01*
X159040808Y-93180780D02*
X158997951Y-93276018D01*
X158997951Y-93276018D02*
X158997951Y-93799828D01*
X158183665Y-93799828D02*
X158183665Y-92799828D01*
X158183665Y-93752209D02*
X158269379Y-93799828D01*
X158269379Y-93799828D02*
X158440807Y-93799828D01*
X158440807Y-93799828D02*
X158526522Y-93752209D01*
X158526522Y-93752209D02*
X158569379Y-93704589D01*
X158569379Y-93704589D02*
X158612236Y-93609351D01*
X158612236Y-93609351D02*
X158612236Y-93323637D01*
X158612236Y-93323637D02*
X158569379Y-93228399D01*
X158569379Y-93228399D02*
X158526522Y-93180780D01*
X158526522Y-93180780D02*
X158440807Y-93133161D01*
X158440807Y-93133161D02*
X158269379Y-93133161D01*
X158269379Y-93133161D02*
X158183665Y-93180780D01*
X177040811Y-95409772D02*
X177040811Y-94885962D01*
X177040811Y-94885962D02*
X177083668Y-94790724D01*
X177083668Y-94790724D02*
X177169382Y-94743105D01*
X177169382Y-94743105D02*
X177340811Y-94743105D01*
X177340811Y-94743105D02*
X177426525Y-94790724D01*
X177040811Y-95362153D02*
X177126525Y-95409772D01*
X177126525Y-95409772D02*
X177340811Y-95409772D01*
X177340811Y-95409772D02*
X177426525Y-95362153D01*
X177426525Y-95362153D02*
X177469382Y-95266914D01*
X177469382Y-95266914D02*
X177469382Y-95171676D01*
X177469382Y-95171676D02*
X177426525Y-95076438D01*
X177426525Y-95076438D02*
X177340811Y-95028819D01*
X177340811Y-95028819D02*
X177126525Y-95028819D01*
X177126525Y-95028819D02*
X177040811Y-94981200D01*
X176612239Y-95409772D02*
X176612239Y-94743105D01*
X176612239Y-94933581D02*
X176569382Y-94838343D01*
X176569382Y-94838343D02*
X176526525Y-94790724D01*
X176526525Y-94790724D02*
X176440810Y-94743105D01*
X176440810Y-94743105D02*
X176355096Y-94743105D01*
X175926524Y-95409772D02*
X176012239Y-95362153D01*
X176012239Y-95362153D02*
X176055096Y-95314533D01*
X176055096Y-95314533D02*
X176097953Y-95219295D01*
X176097953Y-95219295D02*
X176097953Y-94933581D01*
X176097953Y-94933581D02*
X176055096Y-94838343D01*
X176055096Y-94838343D02*
X176012239Y-94790724D01*
X176012239Y-94790724D02*
X175926524Y-94743105D01*
X175926524Y-94743105D02*
X175797953Y-94743105D01*
X175797953Y-94743105D02*
X175712239Y-94790724D01*
X175712239Y-94790724D02*
X175669382Y-94838343D01*
X175669382Y-94838343D02*
X175626524Y-94933581D01*
X175626524Y-94933581D02*
X175626524Y-95219295D01*
X175626524Y-95219295D02*
X175669382Y-95314533D01*
X175669382Y-95314533D02*
X175712239Y-95362153D01*
X175712239Y-95362153D02*
X175797953Y-95409772D01*
X175797953Y-95409772D02*
X175926524Y-95409772D01*
X174855096Y-94743105D02*
X174855096Y-95409772D01*
X175240810Y-94743105D02*
X175240810Y-95266914D01*
X175240810Y-95266914D02*
X175197953Y-95362153D01*
X175197953Y-95362153D02*
X175112238Y-95409772D01*
X175112238Y-95409772D02*
X174983667Y-95409772D01*
X174983667Y-95409772D02*
X174897953Y-95362153D01*
X174897953Y-95362153D02*
X174855096Y-95314533D01*
X174426524Y-94743105D02*
X174426524Y-95409772D01*
X174426524Y-94838343D02*
X174383667Y-94790724D01*
X174383667Y-94790724D02*
X174297952Y-94743105D01*
X174297952Y-94743105D02*
X174169381Y-94743105D01*
X174169381Y-94743105D02*
X174083667Y-94790724D01*
X174083667Y-94790724D02*
X174040810Y-94885962D01*
X174040810Y-94885962D02*
X174040810Y-95409772D01*
X173226524Y-95409772D02*
X173226524Y-94409772D01*
X173226524Y-95362153D02*
X173312238Y-95409772D01*
X173312238Y-95409772D02*
X173483666Y-95409772D01*
X173483666Y-95409772D02*
X173569381Y-95362153D01*
X173569381Y-95362153D02*
X173612238Y-95314533D01*
X173612238Y-95314533D02*
X173655095Y-95219295D01*
X173655095Y-95219295D02*
X173655095Y-94933581D01*
X173655095Y-94933581D02*
X173612238Y-94838343D01*
X173612238Y-94838343D02*
X173569381Y-94790724D01*
X173569381Y-94790724D02*
X173483666Y-94743105D01*
X173483666Y-94743105D02*
X173312238Y-94743105D01*
X173312238Y-94743105D02*
X173226524Y-94790724D01*
X171726524Y-95409772D02*
X171726524Y-94885962D01*
X171726524Y-94885962D02*
X171769381Y-94790724D01*
X171769381Y-94790724D02*
X171855095Y-94743105D01*
X171855095Y-94743105D02*
X172026524Y-94743105D01*
X172026524Y-94743105D02*
X172112238Y-94790724D01*
X171726524Y-95362153D02*
X171812238Y-95409772D01*
X171812238Y-95409772D02*
X172026524Y-95409772D01*
X172026524Y-95409772D02*
X172112238Y-95362153D01*
X172112238Y-95362153D02*
X172155095Y-95266914D01*
X172155095Y-95266914D02*
X172155095Y-95171676D01*
X172155095Y-95171676D02*
X172112238Y-95076438D01*
X172112238Y-95076438D02*
X172026524Y-95028819D01*
X172026524Y-95028819D02*
X171812238Y-95028819D01*
X171812238Y-95028819D02*
X171726524Y-94981200D01*
X170483666Y-94838343D02*
X170569381Y-94790724D01*
X170569381Y-94790724D02*
X170612238Y-94743105D01*
X170612238Y-94743105D02*
X170655095Y-94647867D01*
X170655095Y-94647867D02*
X170655095Y-94600248D01*
X170655095Y-94600248D02*
X170612238Y-94505010D01*
X170612238Y-94505010D02*
X170569381Y-94457391D01*
X170569381Y-94457391D02*
X170483666Y-94409772D01*
X170483666Y-94409772D02*
X170312238Y-94409772D01*
X170312238Y-94409772D02*
X170226524Y-94457391D01*
X170226524Y-94457391D02*
X170183666Y-94505010D01*
X170183666Y-94505010D02*
X170140809Y-94600248D01*
X170140809Y-94600248D02*
X170140809Y-94647867D01*
X170140809Y-94647867D02*
X170183666Y-94743105D01*
X170183666Y-94743105D02*
X170226524Y-94790724D01*
X170226524Y-94790724D02*
X170312238Y-94838343D01*
X170312238Y-94838343D02*
X170483666Y-94838343D01*
X170483666Y-94838343D02*
X170569381Y-94885962D01*
X170569381Y-94885962D02*
X170612238Y-94933581D01*
X170612238Y-94933581D02*
X170655095Y-95028819D01*
X170655095Y-95028819D02*
X170655095Y-95219295D01*
X170655095Y-95219295D02*
X170612238Y-95314533D01*
X170612238Y-95314533D02*
X170569381Y-95362153D01*
X170569381Y-95362153D02*
X170483666Y-95409772D01*
X170483666Y-95409772D02*
X170312238Y-95409772D01*
X170312238Y-95409772D02*
X170226524Y-95362153D01*
X170226524Y-95362153D02*
X170183666Y-95314533D01*
X170183666Y-95314533D02*
X170140809Y-95219295D01*
X170140809Y-95219295D02*
X170140809Y-95028819D01*
X170140809Y-95028819D02*
X170183666Y-94933581D01*
X170183666Y-94933581D02*
X170226524Y-94885962D01*
X170226524Y-94885962D02*
X170312238Y-94838343D01*
X169755095Y-95409772D02*
X169755095Y-94743105D01*
X169755095Y-94838343D02*
X169712238Y-94790724D01*
X169712238Y-94790724D02*
X169626523Y-94743105D01*
X169626523Y-94743105D02*
X169497952Y-94743105D01*
X169497952Y-94743105D02*
X169412238Y-94790724D01*
X169412238Y-94790724D02*
X169369381Y-94885962D01*
X169369381Y-94885962D02*
X169369381Y-95409772D01*
X169369381Y-94885962D02*
X169326523Y-94790724D01*
X169326523Y-94790724D02*
X169240809Y-94743105D01*
X169240809Y-94743105D02*
X169112238Y-94743105D01*
X169112238Y-94743105D02*
X169026523Y-94790724D01*
X169026523Y-94790724D02*
X168983666Y-94885962D01*
X168983666Y-94885962D02*
X168983666Y-95409772D01*
X168555095Y-95409772D02*
X168555095Y-94743105D01*
X168555095Y-94838343D02*
X168512238Y-94790724D01*
X168512238Y-94790724D02*
X168426523Y-94743105D01*
X168426523Y-94743105D02*
X168297952Y-94743105D01*
X168297952Y-94743105D02*
X168212238Y-94790724D01*
X168212238Y-94790724D02*
X168169381Y-94885962D01*
X168169381Y-94885962D02*
X168169381Y-95409772D01*
X168169381Y-94885962D02*
X168126523Y-94790724D01*
X168126523Y-94790724D02*
X168040809Y-94743105D01*
X168040809Y-94743105D02*
X167912238Y-94743105D01*
X167912238Y-94743105D02*
X167826523Y-94790724D01*
X167826523Y-94790724D02*
X167783666Y-94885962D01*
X167783666Y-94885962D02*
X167783666Y-95409772D01*
X166797952Y-94743105D02*
X166455095Y-94743105D01*
X166669381Y-94409772D02*
X166669381Y-95266914D01*
X166669381Y-95266914D02*
X166626524Y-95362153D01*
X166626524Y-95362153D02*
X166540809Y-95409772D01*
X166540809Y-95409772D02*
X166455095Y-95409772D01*
X165769381Y-94743105D02*
X165769381Y-95409772D01*
X166155095Y-94743105D02*
X166155095Y-95266914D01*
X166155095Y-95266914D02*
X166112238Y-95362153D01*
X166112238Y-95362153D02*
X166026523Y-95409772D01*
X166026523Y-95409772D02*
X165897952Y-95409772D01*
X165897952Y-95409772D02*
X165812238Y-95362153D01*
X165812238Y-95362153D02*
X165769381Y-95314533D01*
X165340809Y-95409772D02*
X165340809Y-94409772D01*
X165340809Y-94790724D02*
X165255095Y-94743105D01*
X165255095Y-94743105D02*
X165083666Y-94743105D01*
X165083666Y-94743105D02*
X164997952Y-94790724D01*
X164997952Y-94790724D02*
X164955095Y-94838343D01*
X164955095Y-94838343D02*
X164912237Y-94933581D01*
X164912237Y-94933581D02*
X164912237Y-95219295D01*
X164912237Y-95219295D02*
X164955095Y-95314533D01*
X164955095Y-95314533D02*
X164997952Y-95362153D01*
X164997952Y-95362153D02*
X165083666Y-95409772D01*
X165083666Y-95409772D02*
X165255095Y-95409772D01*
X165255095Y-95409772D02*
X165340809Y-95362153D01*
X164183666Y-95362153D02*
X164269380Y-95409772D01*
X164269380Y-95409772D02*
X164440809Y-95409772D01*
X164440809Y-95409772D02*
X164526523Y-95362153D01*
X164526523Y-95362153D02*
X164569380Y-95266914D01*
X164569380Y-95266914D02*
X164569380Y-94885962D01*
X164569380Y-94885962D02*
X164526523Y-94790724D01*
X164526523Y-94790724D02*
X164440809Y-94743105D01*
X164440809Y-94743105D02*
X164269380Y-94743105D01*
X164269380Y-94743105D02*
X164183666Y-94790724D01*
X164183666Y-94790724D02*
X164140809Y-94885962D01*
X164140809Y-94885962D02*
X164140809Y-94981200D01*
X164140809Y-94981200D02*
X164569380Y-95076438D01*
X163755094Y-95314533D02*
X163712237Y-95362153D01*
X163712237Y-95362153D02*
X163755094Y-95409772D01*
X163755094Y-95409772D02*
X163797951Y-95362153D01*
X163797951Y-95362153D02*
X163755094Y-95314533D01*
X163755094Y-95314533D02*
X163755094Y-95409772D01*
X148171290Y-128602894D02*
X148171290Y-127917180D01*
X148171290Y-126802894D02*
X148171290Y-126117180D01*
X148171290Y-125002894D02*
X148171290Y-124317180D01*
X148171290Y-123202894D02*
X148171290Y-122517180D01*
X120758552Y-79744798D02*
X120710933Y-79649560D01*
X120710933Y-79649560D02*
X120615695Y-79554322D01*
X120615695Y-79554322D02*
X120472837Y-79411465D01*
X120472837Y-79411465D02*
X120425218Y-79316227D01*
X120425218Y-79316227D02*
X120425218Y-79220989D01*
X120663314Y-79268608D02*
X120615695Y-79173370D01*
X120615695Y-79173370D02*
X120520456Y-79078132D01*
X120520456Y-79078132D02*
X120329980Y-79030513D01*
X120329980Y-79030513D02*
X119996647Y-79030513D01*
X119996647Y-79030513D02*
X119806171Y-79078132D01*
X119806171Y-79078132D02*
X119710933Y-79173370D01*
X119710933Y-79173370D02*
X119663314Y-79268608D01*
X119663314Y-79268608D02*
X119663314Y-79459084D01*
X119663314Y-79459084D02*
X119710933Y-79554322D01*
X119710933Y-79554322D02*
X119806171Y-79649560D01*
X119806171Y-79649560D02*
X119996647Y-79697179D01*
X119996647Y-79697179D02*
X120329980Y-79697179D01*
X120329980Y-79697179D02*
X120520456Y-79649560D01*
X120520456Y-79649560D02*
X120615695Y-79554322D01*
X120615695Y-79554322D02*
X120663314Y-79459084D01*
X120663314Y-79459084D02*
X120663314Y-79268608D01*
X119663314Y-80030513D02*
X119663314Y-80697179D01*
X119663314Y-80697179D02*
X120663314Y-80268608D01*
X123195195Y-57112179D02*
X123195195Y-57797894D01*
X123195195Y-58912179D02*
X123195195Y-59597894D01*
X123195195Y-60712179D02*
X123195195Y-61397894D01*
X123195195Y-62512179D02*
X123195195Y-63197894D01*
X180873066Y-106329856D02*
X180873066Y-105329856D01*
X180444495Y-105663189D02*
X180444495Y-106329856D01*
X180444495Y-105758427D02*
X180401638Y-105710808D01*
X180401638Y-105710808D02*
X180315923Y-105663189D01*
X180315923Y-105663189D02*
X180187352Y-105663189D01*
X180187352Y-105663189D02*
X180101638Y-105710808D01*
X180101638Y-105710808D02*
X180058781Y-105806046D01*
X180058781Y-105806046D02*
X180058781Y-106329856D01*
X179673066Y-106282237D02*
X179587352Y-106329856D01*
X179587352Y-106329856D02*
X179415923Y-106329856D01*
X179415923Y-106329856D02*
X179330209Y-106282237D01*
X179330209Y-106282237D02*
X179287352Y-106186998D01*
X179287352Y-106186998D02*
X179287352Y-106139379D01*
X179287352Y-106139379D02*
X179330209Y-106044141D01*
X179330209Y-106044141D02*
X179415923Y-105996522D01*
X179415923Y-105996522D02*
X179544495Y-105996522D01*
X179544495Y-105996522D02*
X179630209Y-105948903D01*
X179630209Y-105948903D02*
X179673066Y-105853665D01*
X179673066Y-105853665D02*
X179673066Y-105806046D01*
X179673066Y-105806046D02*
X179630209Y-105710808D01*
X179630209Y-105710808D02*
X179544495Y-105663189D01*
X179544495Y-105663189D02*
X179415923Y-105663189D01*
X179415923Y-105663189D02*
X179330209Y-105710808D01*
X178901638Y-105663189D02*
X178901638Y-106663189D01*
X178901638Y-105710808D02*
X178815924Y-105663189D01*
X178815924Y-105663189D02*
X178644495Y-105663189D01*
X178644495Y-105663189D02*
X178558781Y-105710808D01*
X178558781Y-105710808D02*
X178515924Y-105758427D01*
X178515924Y-105758427D02*
X178473066Y-105853665D01*
X178473066Y-105853665D02*
X178473066Y-106139379D01*
X178473066Y-106139379D02*
X178515924Y-106234617D01*
X178515924Y-106234617D02*
X178558781Y-106282237D01*
X178558781Y-106282237D02*
X178644495Y-106329856D01*
X178644495Y-106329856D02*
X178815924Y-106329856D01*
X178815924Y-106329856D02*
X178901638Y-106282237D01*
X178087352Y-106329856D02*
X178087352Y-105663189D01*
X178087352Y-105329856D02*
X178130209Y-105377475D01*
X178130209Y-105377475D02*
X178087352Y-105425094D01*
X178087352Y-105425094D02*
X178044495Y-105377475D01*
X178044495Y-105377475D02*
X178087352Y-105329856D01*
X178087352Y-105329856D02*
X178087352Y-105425094D01*
X177658781Y-106329856D02*
X177658781Y-105663189D01*
X177658781Y-105853665D02*
X177615924Y-105758427D01*
X177615924Y-105758427D02*
X177573067Y-105710808D01*
X177573067Y-105710808D02*
X177487352Y-105663189D01*
X177487352Y-105663189D02*
X177401638Y-105663189D01*
X176758781Y-106282237D02*
X176844495Y-106329856D01*
X176844495Y-106329856D02*
X177015924Y-106329856D01*
X177015924Y-106329856D02*
X177101638Y-106282237D01*
X177101638Y-106282237D02*
X177144495Y-106186998D01*
X177144495Y-106186998D02*
X177144495Y-105806046D01*
X177144495Y-105806046D02*
X177101638Y-105710808D01*
X177101638Y-105710808D02*
X177015924Y-105663189D01*
X177015924Y-105663189D02*
X176844495Y-105663189D01*
X176844495Y-105663189D02*
X176758781Y-105710808D01*
X176758781Y-105710808D02*
X176715924Y-105806046D01*
X176715924Y-105806046D02*
X176715924Y-105901284D01*
X176715924Y-105901284D02*
X177144495Y-105996522D01*
X175944495Y-106329856D02*
X175944495Y-105329856D01*
X175944495Y-106282237D02*
X176030209Y-106329856D01*
X176030209Y-106329856D02*
X176201637Y-106329856D01*
X176201637Y-106329856D02*
X176287352Y-106282237D01*
X176287352Y-106282237D02*
X176330209Y-106234617D01*
X176330209Y-106234617D02*
X176373066Y-106139379D01*
X176373066Y-106139379D02*
X176373066Y-105853665D01*
X176373066Y-105853665D02*
X176330209Y-105758427D01*
X176330209Y-105758427D02*
X176287352Y-105710808D01*
X176287352Y-105710808D02*
X176201637Y-105663189D01*
X176201637Y-105663189D02*
X176030209Y-105663189D01*
X176030209Y-105663189D02*
X175944495Y-105710808D01*
X174830209Y-106329856D02*
X174830209Y-105329856D01*
X174830209Y-105710808D02*
X174744495Y-105663189D01*
X174744495Y-105663189D02*
X174573066Y-105663189D01*
X174573066Y-105663189D02*
X174487352Y-105710808D01*
X174487352Y-105710808D02*
X174444495Y-105758427D01*
X174444495Y-105758427D02*
X174401637Y-105853665D01*
X174401637Y-105853665D02*
X174401637Y-106139379D01*
X174401637Y-106139379D02*
X174444495Y-106234617D01*
X174444495Y-106234617D02*
X174487352Y-106282237D01*
X174487352Y-106282237D02*
X174573066Y-106329856D01*
X174573066Y-106329856D02*
X174744495Y-106329856D01*
X174744495Y-106329856D02*
X174830209Y-106282237D01*
X174101637Y-105663189D02*
X173887351Y-106329856D01*
X173673066Y-105663189D02*
X173887351Y-106329856D01*
X173887351Y-106329856D02*
X173973066Y-106567951D01*
X173973066Y-106567951D02*
X174015923Y-106615570D01*
X174015923Y-106615570D02*
X174101637Y-106663189D01*
X172773066Y-105329856D02*
X172258781Y-105329856D01*
X172515923Y-106329856D02*
X172515923Y-105329856D01*
X171958781Y-106329856D02*
X171958781Y-105663189D01*
X171958781Y-105329856D02*
X172001638Y-105377475D01*
X172001638Y-105377475D02*
X171958781Y-105425094D01*
X171958781Y-105425094D02*
X171915924Y-105377475D01*
X171915924Y-105377475D02*
X171958781Y-105329856D01*
X171958781Y-105329856D02*
X171958781Y-105425094D01*
X171530210Y-106329856D02*
X171530210Y-105329856D01*
X171530210Y-105710808D02*
X171444496Y-105663189D01*
X171444496Y-105663189D02*
X171273067Y-105663189D01*
X171273067Y-105663189D02*
X171187353Y-105710808D01*
X171187353Y-105710808D02*
X171144496Y-105758427D01*
X171144496Y-105758427D02*
X171101638Y-105853665D01*
X171101638Y-105853665D02*
X171101638Y-106139379D01*
X171101638Y-106139379D02*
X171144496Y-106234617D01*
X171144496Y-106234617D02*
X171187353Y-106282237D01*
X171187353Y-106282237D02*
X171273067Y-106329856D01*
X171273067Y-106329856D02*
X171444496Y-106329856D01*
X171444496Y-106329856D02*
X171530210Y-106282237D01*
X170373067Y-106282237D02*
X170458781Y-106329856D01*
X170458781Y-106329856D02*
X170630210Y-106329856D01*
X170630210Y-106329856D02*
X170715924Y-106282237D01*
X170715924Y-106282237D02*
X170758781Y-106186998D01*
X170758781Y-106186998D02*
X170758781Y-105806046D01*
X170758781Y-105806046D02*
X170715924Y-105710808D01*
X170715924Y-105710808D02*
X170630210Y-105663189D01*
X170630210Y-105663189D02*
X170458781Y-105663189D01*
X170458781Y-105663189D02*
X170373067Y-105710808D01*
X170373067Y-105710808D02*
X170330210Y-105806046D01*
X170330210Y-105806046D02*
X170330210Y-105901284D01*
X170330210Y-105901284D02*
X170758781Y-105996522D01*
X169944495Y-106329856D02*
X169944495Y-105663189D01*
X169944495Y-105853665D02*
X169901638Y-105758427D01*
X169901638Y-105758427D02*
X169858781Y-105710808D01*
X169858781Y-105710808D02*
X169773066Y-105663189D01*
X169773066Y-105663189D02*
X169687352Y-105663189D01*
X169387352Y-106329856D02*
X169387352Y-105663189D01*
X169387352Y-105329856D02*
X169430209Y-105377475D01*
X169430209Y-105377475D02*
X169387352Y-105425094D01*
X169387352Y-105425094D02*
X169344495Y-105377475D01*
X169344495Y-105377475D02*
X169387352Y-105329856D01*
X169387352Y-105329856D02*
X169387352Y-105425094D01*
X168573067Y-105663189D02*
X168573067Y-106329856D01*
X168958781Y-105663189D02*
X168958781Y-106186998D01*
X168958781Y-106186998D02*
X168915924Y-106282237D01*
X168915924Y-106282237D02*
X168830209Y-106329856D01*
X168830209Y-106329856D02*
X168701638Y-106329856D01*
X168701638Y-106329856D02*
X168615924Y-106282237D01*
X168615924Y-106282237D02*
X168573067Y-106234617D01*
X167587352Y-105329856D02*
X167287352Y-106329856D01*
X167287352Y-106329856D02*
X166987352Y-105329856D01*
X166687352Y-106329856D02*
X166687352Y-105663189D01*
X166687352Y-105329856D02*
X166730209Y-105377475D01*
X166730209Y-105377475D02*
X166687352Y-105425094D01*
X166687352Y-105425094D02*
X166644495Y-105377475D01*
X166644495Y-105377475D02*
X166687352Y-105329856D01*
X166687352Y-105329856D02*
X166687352Y-105425094D01*
X165873067Y-106282237D02*
X165958781Y-106329856D01*
X165958781Y-106329856D02*
X166130209Y-106329856D01*
X166130209Y-106329856D02*
X166215924Y-106282237D01*
X166215924Y-106282237D02*
X166258781Y-106234617D01*
X166258781Y-106234617D02*
X166301638Y-106139379D01*
X166301638Y-106139379D02*
X166301638Y-105853665D01*
X166301638Y-105853665D02*
X166258781Y-105758427D01*
X166258781Y-105758427D02*
X166215924Y-105710808D01*
X166215924Y-105710808D02*
X166130209Y-105663189D01*
X166130209Y-105663189D02*
X165958781Y-105663189D01*
X165958781Y-105663189D02*
X165873067Y-105710808D01*
X165358780Y-106329856D02*
X165444495Y-106282237D01*
X165444495Y-106282237D02*
X165487352Y-106234617D01*
X165487352Y-106234617D02*
X165530209Y-106139379D01*
X165530209Y-106139379D02*
X165530209Y-105853665D01*
X165530209Y-105853665D02*
X165487352Y-105758427D01*
X165487352Y-105758427D02*
X165444495Y-105710808D01*
X165444495Y-105710808D02*
X165358780Y-105663189D01*
X165358780Y-105663189D02*
X165230209Y-105663189D01*
X165230209Y-105663189D02*
X165144495Y-105710808D01*
X165144495Y-105710808D02*
X165101638Y-105758427D01*
X165101638Y-105758427D02*
X165058780Y-105853665D01*
X165058780Y-105853665D02*
X165058780Y-106139379D01*
X165058780Y-106139379D02*
X165101638Y-106234617D01*
X165101638Y-106234617D02*
X165144495Y-106282237D01*
X165144495Y-106282237D02*
X165230209Y-106329856D01*
X165230209Y-106329856D02*
X165358780Y-106329856D01*
X164544494Y-106329856D02*
X164630209Y-106282237D01*
X164630209Y-106282237D02*
X164673066Y-106186998D01*
X164673066Y-106186998D02*
X164673066Y-105329856D01*
X164158780Y-105329856D02*
X164244494Y-105520332D01*
X163815923Y-106282237D02*
X163730209Y-106329856D01*
X163730209Y-106329856D02*
X163558780Y-106329856D01*
X163558780Y-106329856D02*
X163473066Y-106282237D01*
X163473066Y-106282237D02*
X163430209Y-106186998D01*
X163430209Y-106186998D02*
X163430209Y-106139379D01*
X163430209Y-106139379D02*
X163473066Y-106044141D01*
X163473066Y-106044141D02*
X163558780Y-105996522D01*
X163558780Y-105996522D02*
X163687352Y-105996522D01*
X163687352Y-105996522D02*
X163773066Y-105948903D01*
X163773066Y-105948903D02*
X163815923Y-105853665D01*
X163815923Y-105853665D02*
X163815923Y-105806046D01*
X163815923Y-105806046D02*
X163773066Y-105710808D01*
X163773066Y-105710808D02*
X163687352Y-105663189D01*
X163687352Y-105663189D02*
X163558780Y-105663189D01*
X163558780Y-105663189D02*
X163473066Y-105710808D01*
X161973067Y-106282237D02*
X162058781Y-106329856D01*
X162058781Y-106329856D02*
X162230209Y-106329856D01*
X162230209Y-106329856D02*
X162315924Y-106282237D01*
X162315924Y-106282237D02*
X162358781Y-106234617D01*
X162358781Y-106234617D02*
X162401638Y-106139379D01*
X162401638Y-106139379D02*
X162401638Y-105853665D01*
X162401638Y-105853665D02*
X162358781Y-105758427D01*
X162358781Y-105758427D02*
X162315924Y-105710808D01*
X162315924Y-105710808D02*
X162230209Y-105663189D01*
X162230209Y-105663189D02*
X162058781Y-105663189D01*
X162058781Y-105663189D02*
X161973067Y-105710808D01*
X161587352Y-106329856D02*
X161587352Y-105663189D01*
X161587352Y-105329856D02*
X161630209Y-105377475D01*
X161630209Y-105377475D02*
X161587352Y-105425094D01*
X161587352Y-105425094D02*
X161544495Y-105377475D01*
X161544495Y-105377475D02*
X161587352Y-105329856D01*
X161587352Y-105329856D02*
X161587352Y-105425094D01*
X161158781Y-106329856D02*
X161158781Y-105663189D01*
X161158781Y-105853665D02*
X161115924Y-105758427D01*
X161115924Y-105758427D02*
X161073067Y-105710808D01*
X161073067Y-105710808D02*
X160987352Y-105663189D01*
X160987352Y-105663189D02*
X160901638Y-105663189D01*
X160215924Y-106282237D02*
X160301638Y-106329856D01*
X160301638Y-106329856D02*
X160473066Y-106329856D01*
X160473066Y-106329856D02*
X160558781Y-106282237D01*
X160558781Y-106282237D02*
X160601638Y-106234617D01*
X160601638Y-106234617D02*
X160644495Y-106139379D01*
X160644495Y-106139379D02*
X160644495Y-105853665D01*
X160644495Y-105853665D02*
X160601638Y-105758427D01*
X160601638Y-105758427D02*
X160558781Y-105710808D01*
X160558781Y-105710808D02*
X160473066Y-105663189D01*
X160473066Y-105663189D02*
X160301638Y-105663189D01*
X160301638Y-105663189D02*
X160215924Y-105710808D01*
X159444495Y-105663189D02*
X159444495Y-106329856D01*
X159830209Y-105663189D02*
X159830209Y-106186998D01*
X159830209Y-106186998D02*
X159787352Y-106282237D01*
X159787352Y-106282237D02*
X159701637Y-106329856D01*
X159701637Y-106329856D02*
X159573066Y-106329856D01*
X159573066Y-106329856D02*
X159487352Y-106282237D01*
X159487352Y-106282237D02*
X159444495Y-106234617D01*
X159015923Y-106329856D02*
X159015923Y-105663189D01*
X159015923Y-105329856D02*
X159058780Y-105377475D01*
X159058780Y-105377475D02*
X159015923Y-105425094D01*
X159015923Y-105425094D02*
X158973066Y-105377475D01*
X158973066Y-105377475D02*
X159015923Y-105329856D01*
X159015923Y-105329856D02*
X159015923Y-105425094D01*
X158715923Y-105663189D02*
X158373066Y-105663189D01*
X158587352Y-105329856D02*
X158587352Y-106186998D01*
X158587352Y-106186998D02*
X158544495Y-106282237D01*
X158544495Y-106282237D02*
X158458780Y-106329856D01*
X158458780Y-106329856D02*
X158373066Y-106329856D01*
X157001638Y-106329856D02*
X157001638Y-105329856D01*
X157001638Y-106282237D02*
X157087352Y-106329856D01*
X157087352Y-106329856D02*
X157258780Y-106329856D01*
X157258780Y-106329856D02*
X157344495Y-106282237D01*
X157344495Y-106282237D02*
X157387352Y-106234617D01*
X157387352Y-106234617D02*
X157430209Y-106139379D01*
X157430209Y-106139379D02*
X157430209Y-105853665D01*
X157430209Y-105853665D02*
X157387352Y-105758427D01*
X157387352Y-105758427D02*
X157344495Y-105710808D01*
X157344495Y-105710808D02*
X157258780Y-105663189D01*
X157258780Y-105663189D02*
X157087352Y-105663189D01*
X157087352Y-105663189D02*
X157001638Y-105710808D01*
X156230209Y-106282237D02*
X156315923Y-106329856D01*
X156315923Y-106329856D02*
X156487352Y-106329856D01*
X156487352Y-106329856D02*
X156573066Y-106282237D01*
X156573066Y-106282237D02*
X156615923Y-106186998D01*
X156615923Y-106186998D02*
X156615923Y-105806046D01*
X156615923Y-105806046D02*
X156573066Y-105710808D01*
X156573066Y-105710808D02*
X156487352Y-105663189D01*
X156487352Y-105663189D02*
X156315923Y-105663189D01*
X156315923Y-105663189D02*
X156230209Y-105710808D01*
X156230209Y-105710808D02*
X156187352Y-105806046D01*
X156187352Y-105806046D02*
X156187352Y-105901284D01*
X156187352Y-105901284D02*
X156615923Y-105996522D01*
X155844494Y-106282237D02*
X155758780Y-106329856D01*
X155758780Y-106329856D02*
X155587351Y-106329856D01*
X155587351Y-106329856D02*
X155501637Y-106282237D01*
X155501637Y-106282237D02*
X155458780Y-106186998D01*
X155458780Y-106186998D02*
X155458780Y-106139379D01*
X155458780Y-106139379D02*
X155501637Y-106044141D01*
X155501637Y-106044141D02*
X155587351Y-105996522D01*
X155587351Y-105996522D02*
X155715923Y-105996522D01*
X155715923Y-105996522D02*
X155801637Y-105948903D01*
X155801637Y-105948903D02*
X155844494Y-105853665D01*
X155844494Y-105853665D02*
X155844494Y-105806046D01*
X155844494Y-105806046D02*
X155801637Y-105710808D01*
X155801637Y-105710808D02*
X155715923Y-105663189D01*
X155715923Y-105663189D02*
X155587351Y-105663189D01*
X155587351Y-105663189D02*
X155501637Y-105710808D01*
X155073066Y-106329856D02*
X155073066Y-105663189D01*
X155073066Y-105329856D02*
X155115923Y-105377475D01*
X155115923Y-105377475D02*
X155073066Y-105425094D01*
X155073066Y-105425094D02*
X155030209Y-105377475D01*
X155030209Y-105377475D02*
X155073066Y-105329856D01*
X155073066Y-105329856D02*
X155073066Y-105425094D01*
X154258781Y-105663189D02*
X154258781Y-106472713D01*
X154258781Y-106472713D02*
X154301638Y-106567951D01*
X154301638Y-106567951D02*
X154344495Y-106615570D01*
X154344495Y-106615570D02*
X154430209Y-106663189D01*
X154430209Y-106663189D02*
X154558781Y-106663189D01*
X154558781Y-106663189D02*
X154644495Y-106615570D01*
X154258781Y-106282237D02*
X154344495Y-106329856D01*
X154344495Y-106329856D02*
X154515923Y-106329856D01*
X154515923Y-106329856D02*
X154601638Y-106282237D01*
X154601638Y-106282237D02*
X154644495Y-106234617D01*
X154644495Y-106234617D02*
X154687352Y-106139379D01*
X154687352Y-106139379D02*
X154687352Y-105853665D01*
X154687352Y-105853665D02*
X154644495Y-105758427D01*
X154644495Y-105758427D02*
X154601638Y-105710808D01*
X154601638Y-105710808D02*
X154515923Y-105663189D01*
X154515923Y-105663189D02*
X154344495Y-105663189D01*
X154344495Y-105663189D02*
X154258781Y-105710808D01*
X153830209Y-105663189D02*
X153830209Y-106329856D01*
X153830209Y-105758427D02*
X153787352Y-105710808D01*
X153787352Y-105710808D02*
X153701637Y-105663189D01*
X153701637Y-105663189D02*
X153573066Y-105663189D01*
X153573066Y-105663189D02*
X153487352Y-105710808D01*
X153487352Y-105710808D02*
X153444495Y-105806046D01*
X153444495Y-105806046D02*
X153444495Y-106329856D01*
X153015923Y-106234617D02*
X152973066Y-106282237D01*
X152973066Y-106282237D02*
X153015923Y-106329856D01*
X153015923Y-106329856D02*
X153058780Y-106282237D01*
X153058780Y-106282237D02*
X153015923Y-106234617D01*
X153015923Y-106234617D02*
X153015923Y-106329856D01*
X103495208Y-102886451D02*
X103580923Y-102843594D01*
X103580923Y-102843594D02*
X103709494Y-102843594D01*
X103709494Y-102843594D02*
X103838065Y-102886451D01*
X103838065Y-102886451D02*
X103923780Y-102972165D01*
X103923780Y-102972165D02*
X103966637Y-103057879D01*
X103966637Y-103057879D02*
X104009494Y-103229308D01*
X104009494Y-103229308D02*
X104009494Y-103357879D01*
X104009494Y-103357879D02*
X103966637Y-103529308D01*
X103966637Y-103529308D02*
X103923780Y-103615022D01*
X103923780Y-103615022D02*
X103838065Y-103700737D01*
X103838065Y-103700737D02*
X103709494Y-103743594D01*
X103709494Y-103743594D02*
X103623780Y-103743594D01*
X103623780Y-103743594D02*
X103495208Y-103700737D01*
X103495208Y-103700737D02*
X103452351Y-103657879D01*
X103452351Y-103657879D02*
X103452351Y-103357879D01*
X103452351Y-103357879D02*
X103623780Y-103357879D01*
X103066637Y-103743594D02*
X103066637Y-102843594D01*
X103066637Y-102843594D02*
X102552351Y-103743594D01*
X102552351Y-103743594D02*
X102552351Y-102843594D01*
X102123780Y-103743594D02*
X102123780Y-102843594D01*
X102123780Y-102843594D02*
X101909494Y-102843594D01*
X101909494Y-102843594D02*
X101780923Y-102886451D01*
X101780923Y-102886451D02*
X101695208Y-102972165D01*
X101695208Y-102972165D02*
X101652351Y-103057879D01*
X101652351Y-103057879D02*
X101609494Y-103229308D01*
X101609494Y-103229308D02*
X101609494Y-103357879D01*
X101609494Y-103357879D02*
X101652351Y-103529308D01*
X101652351Y-103529308D02*
X101695208Y-103615022D01*
X101695208Y-103615022D02*
X101780923Y-103700737D01*
X101780923Y-103700737D02*
X101909494Y-103743594D01*
X101909494Y-103743594D02*
X102123780Y-103743594D01*
X103966637Y-108748607D02*
X103966637Y-107848607D01*
X103538066Y-108748607D02*
X103538066Y-107848607D01*
X103538066Y-107848607D02*
X103023780Y-108748607D01*
X103023780Y-108748607D02*
X103023780Y-107848607D01*
X102595209Y-108748607D02*
X102595209Y-107848607D01*
X102595209Y-107848607D02*
X102252352Y-107848607D01*
X102252352Y-107848607D02*
X102166637Y-107891464D01*
X102166637Y-107891464D02*
X102123780Y-107934321D01*
X102123780Y-107934321D02*
X102080923Y-108020035D01*
X102080923Y-108020035D02*
X102080923Y-108148607D01*
X102080923Y-108148607D02*
X102123780Y-108234321D01*
X102123780Y-108234321D02*
X102166637Y-108277178D01*
X102166637Y-108277178D02*
X102252352Y-108320035D01*
X102252352Y-108320035D02*
X102595209Y-108320035D01*
X101695209Y-107848607D02*
X101695209Y-108577178D01*
X101695209Y-108577178D02*
X101652352Y-108662892D01*
X101652352Y-108662892D02*
X101609495Y-108705750D01*
X101609495Y-108705750D02*
X101523780Y-108748607D01*
X101523780Y-108748607D02*
X101352352Y-108748607D01*
X101352352Y-108748607D02*
X101266637Y-108705750D01*
X101266637Y-108705750D02*
X101223780Y-108662892D01*
X101223780Y-108662892D02*
X101180923Y-108577178D01*
X101180923Y-108577178D02*
X101180923Y-107848607D01*
X100880923Y-107848607D02*
X100366638Y-107848607D01*
X100623780Y-108748607D02*
X100623780Y-107848607D01*
X120758552Y-71616798D02*
X120710933Y-71521560D01*
X120710933Y-71521560D02*
X120615695Y-71426322D01*
X120615695Y-71426322D02*
X120472837Y-71283465D01*
X120472837Y-71283465D02*
X120425218Y-71188227D01*
X120425218Y-71188227D02*
X120425218Y-71092989D01*
X120663314Y-71140608D02*
X120615695Y-71045370D01*
X120615695Y-71045370D02*
X120520456Y-70950132D01*
X120520456Y-70950132D02*
X120329980Y-70902513D01*
X120329980Y-70902513D02*
X119996647Y-70902513D01*
X119996647Y-70902513D02*
X119806171Y-70950132D01*
X119806171Y-70950132D02*
X119710933Y-71045370D01*
X119710933Y-71045370D02*
X119663314Y-71140608D01*
X119663314Y-71140608D02*
X119663314Y-71331084D01*
X119663314Y-71331084D02*
X119710933Y-71426322D01*
X119710933Y-71426322D02*
X119806171Y-71521560D01*
X119806171Y-71521560D02*
X119996647Y-71569179D01*
X119996647Y-71569179D02*
X120329980Y-71569179D01*
X120329980Y-71569179D02*
X120520456Y-71521560D01*
X120520456Y-71521560D02*
X120615695Y-71426322D01*
X120615695Y-71426322D02*
X120663314Y-71331084D01*
X120663314Y-71331084D02*
X120663314Y-71140608D01*
X120091885Y-72140608D02*
X120044266Y-72045370D01*
X120044266Y-72045370D02*
X119996647Y-71997751D01*
X119996647Y-71997751D02*
X119901409Y-71950132D01*
X119901409Y-71950132D02*
X119853790Y-71950132D01*
X119853790Y-71950132D02*
X119758552Y-71997751D01*
X119758552Y-71997751D02*
X119710933Y-72045370D01*
X119710933Y-72045370D02*
X119663314Y-72140608D01*
X119663314Y-72140608D02*
X119663314Y-72331084D01*
X119663314Y-72331084D02*
X119710933Y-72426322D01*
X119710933Y-72426322D02*
X119758552Y-72473941D01*
X119758552Y-72473941D02*
X119853790Y-72521560D01*
X119853790Y-72521560D02*
X119901409Y-72521560D01*
X119901409Y-72521560D02*
X119996647Y-72473941D01*
X119996647Y-72473941D02*
X120044266Y-72426322D01*
X120044266Y-72426322D02*
X120091885Y-72331084D01*
X120091885Y-72331084D02*
X120091885Y-72140608D01*
X120091885Y-72140608D02*
X120139504Y-72045370D01*
X120139504Y-72045370D02*
X120187123Y-71997751D01*
X120187123Y-71997751D02*
X120282361Y-71950132D01*
X120282361Y-71950132D02*
X120472837Y-71950132D01*
X120472837Y-71950132D02*
X120568075Y-71997751D01*
X120568075Y-71997751D02*
X120615695Y-72045370D01*
X120615695Y-72045370D02*
X120663314Y-72140608D01*
X120663314Y-72140608D02*
X120663314Y-72331084D01*
X120663314Y-72331084D02*
X120615695Y-72426322D01*
X120615695Y-72426322D02*
X120568075Y-72473941D01*
X120568075Y-72473941D02*
X120472837Y-72521560D01*
X120472837Y-72521560D02*
X120282361Y-72521560D01*
X120282361Y-72521560D02*
X120187123Y-72473941D01*
X120187123Y-72473941D02*
X120139504Y-72426322D01*
X120139504Y-72426322D02*
X120091885Y-72331084D01*
X136600638Y-96677856D02*
X136600638Y-95677856D01*
X136600638Y-95677856D02*
X136257781Y-95677856D01*
X136257781Y-95677856D02*
X136172066Y-95725475D01*
X136172066Y-95725475D02*
X136129209Y-95773094D01*
X136129209Y-95773094D02*
X136086352Y-95868332D01*
X136086352Y-95868332D02*
X136086352Y-96011189D01*
X136086352Y-96011189D02*
X136129209Y-96106427D01*
X136129209Y-96106427D02*
X136172066Y-96154046D01*
X136172066Y-96154046D02*
X136257781Y-96201665D01*
X136257781Y-96201665D02*
X136600638Y-96201665D01*
X135186352Y-96582617D02*
X135229209Y-96630237D01*
X135229209Y-96630237D02*
X135357781Y-96677856D01*
X135357781Y-96677856D02*
X135443495Y-96677856D01*
X135443495Y-96677856D02*
X135572066Y-96630237D01*
X135572066Y-96630237D02*
X135657781Y-96534998D01*
X135657781Y-96534998D02*
X135700638Y-96439760D01*
X135700638Y-96439760D02*
X135743495Y-96249284D01*
X135743495Y-96249284D02*
X135743495Y-96106427D01*
X135743495Y-96106427D02*
X135700638Y-95915951D01*
X135700638Y-95915951D02*
X135657781Y-95820713D01*
X135657781Y-95820713D02*
X135572066Y-95725475D01*
X135572066Y-95725475D02*
X135443495Y-95677856D01*
X135443495Y-95677856D02*
X135357781Y-95677856D01*
X135357781Y-95677856D02*
X135229209Y-95725475D01*
X135229209Y-95725475D02*
X135186352Y-95773094D01*
X134500638Y-96154046D02*
X134372066Y-96201665D01*
X134372066Y-96201665D02*
X134329209Y-96249284D01*
X134329209Y-96249284D02*
X134286352Y-96344522D01*
X134286352Y-96344522D02*
X134286352Y-96487379D01*
X134286352Y-96487379D02*
X134329209Y-96582617D01*
X134329209Y-96582617D02*
X134372066Y-96630237D01*
X134372066Y-96630237D02*
X134457781Y-96677856D01*
X134457781Y-96677856D02*
X134800638Y-96677856D01*
X134800638Y-96677856D02*
X134800638Y-95677856D01*
X134800638Y-95677856D02*
X134500638Y-95677856D01*
X134500638Y-95677856D02*
X134414924Y-95725475D01*
X134414924Y-95725475D02*
X134372066Y-95773094D01*
X134372066Y-95773094D02*
X134329209Y-95868332D01*
X134329209Y-95868332D02*
X134329209Y-95963570D01*
X134329209Y-95963570D02*
X134372066Y-96058808D01*
X134372066Y-96058808D02*
X134414924Y-96106427D01*
X134414924Y-96106427D02*
X134500638Y-96154046D01*
X134500638Y-96154046D02*
X134800638Y-96154046D01*
X132829210Y-96677856D02*
X132829210Y-95677856D01*
X132829210Y-96630237D02*
X132914924Y-96677856D01*
X132914924Y-96677856D02*
X133086352Y-96677856D01*
X133086352Y-96677856D02*
X133172067Y-96630237D01*
X133172067Y-96630237D02*
X133214924Y-96582617D01*
X133214924Y-96582617D02*
X133257781Y-96487379D01*
X133257781Y-96487379D02*
X133257781Y-96201665D01*
X133257781Y-96201665D02*
X133214924Y-96106427D01*
X133214924Y-96106427D02*
X133172067Y-96058808D01*
X133172067Y-96058808D02*
X133086352Y-96011189D01*
X133086352Y-96011189D02*
X132914924Y-96011189D01*
X132914924Y-96011189D02*
X132829210Y-96058808D01*
X132057781Y-96630237D02*
X132143495Y-96677856D01*
X132143495Y-96677856D02*
X132314924Y-96677856D01*
X132314924Y-96677856D02*
X132400638Y-96630237D01*
X132400638Y-96630237D02*
X132443495Y-96534998D01*
X132443495Y-96534998D02*
X132443495Y-96154046D01*
X132443495Y-96154046D02*
X132400638Y-96058808D01*
X132400638Y-96058808D02*
X132314924Y-96011189D01*
X132314924Y-96011189D02*
X132143495Y-96011189D01*
X132143495Y-96011189D02*
X132057781Y-96058808D01*
X132057781Y-96058808D02*
X132014924Y-96154046D01*
X132014924Y-96154046D02*
X132014924Y-96249284D01*
X132014924Y-96249284D02*
X132443495Y-96344522D01*
X131672066Y-96630237D02*
X131586352Y-96677856D01*
X131586352Y-96677856D02*
X131414923Y-96677856D01*
X131414923Y-96677856D02*
X131329209Y-96630237D01*
X131329209Y-96630237D02*
X131286352Y-96534998D01*
X131286352Y-96534998D02*
X131286352Y-96487379D01*
X131286352Y-96487379D02*
X131329209Y-96392141D01*
X131329209Y-96392141D02*
X131414923Y-96344522D01*
X131414923Y-96344522D02*
X131543495Y-96344522D01*
X131543495Y-96344522D02*
X131629209Y-96296903D01*
X131629209Y-96296903D02*
X131672066Y-96201665D01*
X131672066Y-96201665D02*
X131672066Y-96154046D01*
X131672066Y-96154046D02*
X131629209Y-96058808D01*
X131629209Y-96058808D02*
X131543495Y-96011189D01*
X131543495Y-96011189D02*
X131414923Y-96011189D01*
X131414923Y-96011189D02*
X131329209Y-96058808D01*
X130900638Y-96677856D02*
X130900638Y-96011189D01*
X130900638Y-95677856D02*
X130943495Y-95725475D01*
X130943495Y-95725475D02*
X130900638Y-95773094D01*
X130900638Y-95773094D02*
X130857781Y-95725475D01*
X130857781Y-95725475D02*
X130900638Y-95677856D01*
X130900638Y-95677856D02*
X130900638Y-95773094D01*
X130086353Y-96011189D02*
X130086353Y-96820713D01*
X130086353Y-96820713D02*
X130129210Y-96915951D01*
X130129210Y-96915951D02*
X130172067Y-96963570D01*
X130172067Y-96963570D02*
X130257781Y-97011189D01*
X130257781Y-97011189D02*
X130386353Y-97011189D01*
X130386353Y-97011189D02*
X130472067Y-96963570D01*
X130086353Y-96630237D02*
X130172067Y-96677856D01*
X130172067Y-96677856D02*
X130343495Y-96677856D01*
X130343495Y-96677856D02*
X130429210Y-96630237D01*
X130429210Y-96630237D02*
X130472067Y-96582617D01*
X130472067Y-96582617D02*
X130514924Y-96487379D01*
X130514924Y-96487379D02*
X130514924Y-96201665D01*
X130514924Y-96201665D02*
X130472067Y-96106427D01*
X130472067Y-96106427D02*
X130429210Y-96058808D01*
X130429210Y-96058808D02*
X130343495Y-96011189D01*
X130343495Y-96011189D02*
X130172067Y-96011189D01*
X130172067Y-96011189D02*
X130086353Y-96058808D01*
X129657781Y-96011189D02*
X129657781Y-96677856D01*
X129657781Y-96106427D02*
X129614924Y-96058808D01*
X129614924Y-96058808D02*
X129529209Y-96011189D01*
X129529209Y-96011189D02*
X129400638Y-96011189D01*
X129400638Y-96011189D02*
X129314924Y-96058808D01*
X129314924Y-96058808D02*
X129272067Y-96154046D01*
X129272067Y-96154046D02*
X129272067Y-96677856D01*
X128157781Y-96677856D02*
X128157781Y-95677856D01*
X128157781Y-96058808D02*
X128072067Y-96011189D01*
X128072067Y-96011189D02*
X127900638Y-96011189D01*
X127900638Y-96011189D02*
X127814924Y-96058808D01*
X127814924Y-96058808D02*
X127772067Y-96106427D01*
X127772067Y-96106427D02*
X127729209Y-96201665D01*
X127729209Y-96201665D02*
X127729209Y-96487379D01*
X127729209Y-96487379D02*
X127772067Y-96582617D01*
X127772067Y-96582617D02*
X127814924Y-96630237D01*
X127814924Y-96630237D02*
X127900638Y-96677856D01*
X127900638Y-96677856D02*
X128072067Y-96677856D01*
X128072067Y-96677856D02*
X128157781Y-96630237D01*
X127429209Y-96011189D02*
X127214923Y-96677856D01*
X127000638Y-96011189D02*
X127214923Y-96677856D01*
X127214923Y-96677856D02*
X127300638Y-96915951D01*
X127300638Y-96915951D02*
X127343495Y-96963570D01*
X127343495Y-96963570D02*
X127429209Y-97011189D01*
X126014924Y-96630237D02*
X125886353Y-96677856D01*
X125886353Y-96677856D02*
X125672067Y-96677856D01*
X125672067Y-96677856D02*
X125586353Y-96630237D01*
X125586353Y-96630237D02*
X125543495Y-96582617D01*
X125543495Y-96582617D02*
X125500638Y-96487379D01*
X125500638Y-96487379D02*
X125500638Y-96392141D01*
X125500638Y-96392141D02*
X125543495Y-96296903D01*
X125543495Y-96296903D02*
X125586353Y-96249284D01*
X125586353Y-96249284D02*
X125672067Y-96201665D01*
X125672067Y-96201665D02*
X125843495Y-96154046D01*
X125843495Y-96154046D02*
X125929210Y-96106427D01*
X125929210Y-96106427D02*
X125972067Y-96058808D01*
X125972067Y-96058808D02*
X126014924Y-95963570D01*
X126014924Y-95963570D02*
X126014924Y-95868332D01*
X126014924Y-95868332D02*
X125972067Y-95773094D01*
X125972067Y-95773094D02*
X125929210Y-95725475D01*
X125929210Y-95725475D02*
X125843495Y-95677856D01*
X125843495Y-95677856D02*
X125629210Y-95677856D01*
X125629210Y-95677856D02*
X125500638Y-95725475D01*
X125243495Y-96011189D02*
X124900638Y-96011189D01*
X125114924Y-95677856D02*
X125114924Y-96534998D01*
X125114924Y-96534998D02*
X125072067Y-96630237D01*
X125072067Y-96630237D02*
X124986352Y-96677856D01*
X124986352Y-96677856D02*
X124900638Y-96677856D01*
X124257781Y-96630237D02*
X124343495Y-96677856D01*
X124343495Y-96677856D02*
X124514924Y-96677856D01*
X124514924Y-96677856D02*
X124600638Y-96630237D01*
X124600638Y-96630237D02*
X124643495Y-96534998D01*
X124643495Y-96534998D02*
X124643495Y-96154046D01*
X124643495Y-96154046D02*
X124600638Y-96058808D01*
X124600638Y-96058808D02*
X124514924Y-96011189D01*
X124514924Y-96011189D02*
X124343495Y-96011189D01*
X124343495Y-96011189D02*
X124257781Y-96058808D01*
X124257781Y-96058808D02*
X124214924Y-96154046D01*
X124214924Y-96154046D02*
X124214924Y-96249284D01*
X124214924Y-96249284D02*
X124643495Y-96344522D01*
X123957780Y-96011189D02*
X123614923Y-96011189D01*
X123829209Y-96677856D02*
X123829209Y-95820713D01*
X123829209Y-95820713D02*
X123786352Y-95725475D01*
X123786352Y-95725475D02*
X123700637Y-95677856D01*
X123700637Y-95677856D02*
X123614923Y-95677856D01*
X122072066Y-96201665D02*
X122114923Y-96154046D01*
X122114923Y-96154046D02*
X122200637Y-96106427D01*
X122200637Y-96106427D02*
X122286352Y-96106427D01*
X122286352Y-96106427D02*
X122372066Y-96154046D01*
X122372066Y-96154046D02*
X122414923Y-96201665D01*
X122414923Y-96201665D02*
X122457780Y-96296903D01*
X122457780Y-96296903D02*
X122457780Y-96392141D01*
X122457780Y-96392141D02*
X122414923Y-96487379D01*
X122414923Y-96487379D02*
X122372066Y-96534998D01*
X122372066Y-96534998D02*
X122286352Y-96582617D01*
X122286352Y-96582617D02*
X122200637Y-96582617D01*
X122200637Y-96582617D02*
X122114923Y-96534998D01*
X122114923Y-96534998D02*
X122072066Y-96487379D01*
X122072066Y-96106427D02*
X122072066Y-96487379D01*
X122072066Y-96487379D02*
X122029209Y-96534998D01*
X122029209Y-96534998D02*
X121986352Y-96534998D01*
X121986352Y-96534998D02*
X121900637Y-96487379D01*
X121900637Y-96487379D02*
X121857780Y-96392141D01*
X121857780Y-96392141D02*
X121857780Y-96154046D01*
X121857780Y-96154046D02*
X121943495Y-96011189D01*
X121943495Y-96011189D02*
X122072066Y-95915951D01*
X122072066Y-95915951D02*
X122243495Y-95868332D01*
X122243495Y-95868332D02*
X122414923Y-95915951D01*
X122414923Y-95915951D02*
X122543495Y-96011189D01*
X122543495Y-96011189D02*
X122629209Y-96154046D01*
X122629209Y-96154046D02*
X122672066Y-96344522D01*
X122672066Y-96344522D02*
X122629209Y-96534998D01*
X122629209Y-96534998D02*
X122543495Y-96677856D01*
X122543495Y-96677856D02*
X122414923Y-96773094D01*
X122414923Y-96773094D02*
X122243495Y-96820713D01*
X122243495Y-96820713D02*
X122072066Y-96773094D01*
X122072066Y-96773094D02*
X121943495Y-96677856D01*
X120829209Y-95773094D02*
X120786352Y-95725475D01*
X120786352Y-95725475D02*
X120700638Y-95677856D01*
X120700638Y-95677856D02*
X120486352Y-95677856D01*
X120486352Y-95677856D02*
X120400638Y-95725475D01*
X120400638Y-95725475D02*
X120357780Y-95773094D01*
X120357780Y-95773094D02*
X120314923Y-95868332D01*
X120314923Y-95868332D02*
X120314923Y-95963570D01*
X120314923Y-95963570D02*
X120357780Y-96106427D01*
X120357780Y-96106427D02*
X120872066Y-96677856D01*
X120872066Y-96677856D02*
X120314923Y-96677856D01*
X119757780Y-95677856D02*
X119672066Y-95677856D01*
X119672066Y-95677856D02*
X119586352Y-95725475D01*
X119586352Y-95725475D02*
X119543495Y-95773094D01*
X119543495Y-95773094D02*
X119500637Y-95868332D01*
X119500637Y-95868332D02*
X119457780Y-96058808D01*
X119457780Y-96058808D02*
X119457780Y-96296903D01*
X119457780Y-96296903D02*
X119500637Y-96487379D01*
X119500637Y-96487379D02*
X119543495Y-96582617D01*
X119543495Y-96582617D02*
X119586352Y-96630237D01*
X119586352Y-96630237D02*
X119672066Y-96677856D01*
X119672066Y-96677856D02*
X119757780Y-96677856D01*
X119757780Y-96677856D02*
X119843495Y-96630237D01*
X119843495Y-96630237D02*
X119886352Y-96582617D01*
X119886352Y-96582617D02*
X119929209Y-96487379D01*
X119929209Y-96487379D02*
X119972066Y-96296903D01*
X119972066Y-96296903D02*
X119972066Y-96058808D01*
X119972066Y-96058808D02*
X119929209Y-95868332D01*
X119929209Y-95868332D02*
X119886352Y-95773094D01*
X119886352Y-95773094D02*
X119843495Y-95725475D01*
X119843495Y-95725475D02*
X119757780Y-95677856D01*
X119114923Y-95773094D02*
X119072066Y-95725475D01*
X119072066Y-95725475D02*
X118986352Y-95677856D01*
X118986352Y-95677856D02*
X118772066Y-95677856D01*
X118772066Y-95677856D02*
X118686352Y-95725475D01*
X118686352Y-95725475D02*
X118643494Y-95773094D01*
X118643494Y-95773094D02*
X118600637Y-95868332D01*
X118600637Y-95868332D02*
X118600637Y-95963570D01*
X118600637Y-95963570D02*
X118643494Y-96106427D01*
X118643494Y-96106427D02*
X119157780Y-96677856D01*
X119157780Y-96677856D02*
X118600637Y-96677856D01*
X117829209Y-96011189D02*
X117829209Y-96677856D01*
X118043494Y-95630237D02*
X118257780Y-96344522D01*
X118257780Y-96344522D02*
X117700637Y-96344522D01*
X177419795Y-124161796D02*
X177419795Y-123476082D01*
X177419795Y-122361796D02*
X177419795Y-121676082D01*
X177419795Y-120561796D02*
X177419795Y-119876082D01*
X177419795Y-118761796D02*
X177419795Y-118076082D01*
X121290195Y-76797179D02*
X121290195Y-77482894D01*
X121290195Y-78597179D02*
X121290195Y-79282894D01*
X121290195Y-80397179D02*
X121290195Y-81082894D01*
X121290195Y-82197179D02*
X121290195Y-82882894D01*
X191643795Y-109977894D02*
X191643795Y-109292180D01*
X191643795Y-108177894D02*
X191643795Y-107492180D01*
X191643795Y-106377894D02*
X191643795Y-105692180D01*
X191643795Y-104577894D02*
X191643795Y-103892180D01*
X191643795Y-102777894D02*
X191643795Y-102092180D01*
X191643795Y-100977894D02*
X191643795Y-100292180D01*
X191643795Y-99177894D02*
X191643795Y-98492180D01*
X191643795Y-97377894D02*
X191643795Y-96692180D01*
X147701795Y-63197894D02*
X147701795Y-62512180D01*
X147701795Y-61397894D02*
X147701795Y-60712180D01*
X147701795Y-59597894D02*
X147701795Y-58912180D01*
X147701795Y-57797894D02*
X147701795Y-57112180D01*
X193529552Y-102636608D02*
X193481933Y-102541370D01*
X193481933Y-102541370D02*
X193386695Y-102446132D01*
X193386695Y-102446132D02*
X193243837Y-102303275D01*
X193243837Y-102303275D02*
X193196218Y-102208037D01*
X193196218Y-102208037D02*
X193196218Y-102112799D01*
X193434314Y-102160418D02*
X193386695Y-102065180D01*
X193386695Y-102065180D02*
X193291456Y-101969942D01*
X193291456Y-101969942D02*
X193100980Y-101922323D01*
X193100980Y-101922323D02*
X192767647Y-101922323D01*
X192767647Y-101922323D02*
X192577171Y-101969942D01*
X192577171Y-101969942D02*
X192481933Y-102065180D01*
X192481933Y-102065180D02*
X192434314Y-102160418D01*
X192434314Y-102160418D02*
X192434314Y-102350894D01*
X192434314Y-102350894D02*
X192481933Y-102446132D01*
X192481933Y-102446132D02*
X192577171Y-102541370D01*
X192577171Y-102541370D02*
X192767647Y-102588989D01*
X192767647Y-102588989D02*
X193100980Y-102588989D01*
X193100980Y-102588989D02*
X193291456Y-102541370D01*
X193291456Y-102541370D02*
X193386695Y-102446132D01*
X193386695Y-102446132D02*
X193434314Y-102350894D01*
X193434314Y-102350894D02*
X193434314Y-102160418D01*
X193434314Y-103541370D02*
X193434314Y-102969942D01*
X193434314Y-103255656D02*
X192434314Y-103255656D01*
X192434314Y-103255656D02*
X192577171Y-103160418D01*
X192577171Y-103160418D02*
X192672409Y-103065180D01*
X192672409Y-103065180D02*
X192720028Y-102969942D01*
X192434314Y-104398513D02*
X192434314Y-104208037D01*
X192434314Y-104208037D02*
X192481933Y-104112799D01*
X192481933Y-104112799D02*
X192529552Y-104065180D01*
X192529552Y-104065180D02*
X192672409Y-103969942D01*
X192672409Y-103969942D02*
X192862885Y-103922323D01*
X192862885Y-103922323D02*
X193243837Y-103922323D01*
X193243837Y-103922323D02*
X193339075Y-103969942D01*
X193339075Y-103969942D02*
X193386695Y-104017561D01*
X193386695Y-104017561D02*
X193434314Y-104112799D01*
X193434314Y-104112799D02*
X193434314Y-104303275D01*
X193434314Y-104303275D02*
X193386695Y-104398513D01*
X193386695Y-104398513D02*
X193339075Y-104446132D01*
X193339075Y-104446132D02*
X193243837Y-104493751D01*
X193243837Y-104493751D02*
X193005742Y-104493751D01*
X193005742Y-104493751D02*
X192910504Y-104446132D01*
X192910504Y-104446132D02*
X192862885Y-104398513D01*
X192862885Y-104398513D02*
X192815266Y-104303275D01*
X192815266Y-104303275D02*
X192815266Y-104112799D01*
X192815266Y-104112799D02*
X192862885Y-104017561D01*
X192862885Y-104017561D02*
X192910504Y-103969942D01*
X192910504Y-103969942D02*
X193005742Y-103922323D01*
X194037552Y-117971798D02*
X193989933Y-117876560D01*
X193989933Y-117876560D02*
X193894695Y-117781322D01*
X193894695Y-117781322D02*
X193751837Y-117638465D01*
X193751837Y-117638465D02*
X193704218Y-117543227D01*
X193704218Y-117543227D02*
X193704218Y-117447989D01*
X193942314Y-117495608D02*
X193894695Y-117400370D01*
X193894695Y-117400370D02*
X193799456Y-117305132D01*
X193799456Y-117305132D02*
X193608980Y-117257513D01*
X193608980Y-117257513D02*
X193275647Y-117257513D01*
X193275647Y-117257513D02*
X193085171Y-117305132D01*
X193085171Y-117305132D02*
X192989933Y-117400370D01*
X192989933Y-117400370D02*
X192942314Y-117495608D01*
X192942314Y-117495608D02*
X192942314Y-117686084D01*
X192942314Y-117686084D02*
X192989933Y-117781322D01*
X192989933Y-117781322D02*
X193085171Y-117876560D01*
X193085171Y-117876560D02*
X193275647Y-117924179D01*
X193275647Y-117924179D02*
X193608980Y-117924179D01*
X193608980Y-117924179D02*
X193799456Y-117876560D01*
X193799456Y-117876560D02*
X193894695Y-117781322D01*
X193894695Y-117781322D02*
X193942314Y-117686084D01*
X193942314Y-117686084D02*
X193942314Y-117495608D01*
X192942314Y-118781322D02*
X192942314Y-118590846D01*
X192942314Y-118590846D02*
X192989933Y-118495608D01*
X192989933Y-118495608D02*
X193037552Y-118447989D01*
X193037552Y-118447989D02*
X193180409Y-118352751D01*
X193180409Y-118352751D02*
X193370885Y-118305132D01*
X193370885Y-118305132D02*
X193751837Y-118305132D01*
X193751837Y-118305132D02*
X193847075Y-118352751D01*
X193847075Y-118352751D02*
X193894695Y-118400370D01*
X193894695Y-118400370D02*
X193942314Y-118495608D01*
X193942314Y-118495608D02*
X193942314Y-118686084D01*
X193942314Y-118686084D02*
X193894695Y-118781322D01*
X193894695Y-118781322D02*
X193847075Y-118828941D01*
X193847075Y-118828941D02*
X193751837Y-118876560D01*
X193751837Y-118876560D02*
X193513742Y-118876560D01*
X193513742Y-118876560D02*
X193418504Y-118828941D01*
X193418504Y-118828941D02*
X193370885Y-118781322D01*
X193370885Y-118781322D02*
X193323266Y-118686084D01*
X193323266Y-118686084D02*
X193323266Y-118495608D01*
X193323266Y-118495608D02*
X193370885Y-118400370D01*
X193370885Y-118400370D02*
X193418504Y-118352751D01*
X193418504Y-118352751D02*
X193513742Y-118305132D01*
X135895195Y-67272179D02*
X135895195Y-67957894D01*
X135895195Y-69072179D02*
X135895195Y-69757894D01*
X135895195Y-70872179D02*
X135895195Y-71557894D01*
X135895195Y-72672179D02*
X135895195Y-73357894D01*
X102621195Y-64732179D02*
X102621195Y-65417894D01*
X102621195Y-66532179D02*
X102621195Y-67217894D01*
X102621195Y-68332179D02*
X102621195Y-69017894D01*
X102621195Y-70132179D02*
X102621195Y-70817894D01*
X102489795Y-120601894D02*
X102489795Y-119916180D01*
X102489795Y-118801894D02*
X102489795Y-118116180D01*
X102489795Y-117001894D02*
X102489795Y-116316180D01*
X102489795Y-115201894D02*
X102489795Y-114516180D01*
D13*
X138662112Y-91627017D02*
X138614493Y-91674637D01*
X138614493Y-91674637D02*
X138662112Y-91722256D01*
X138662112Y-91722256D02*
X138709731Y-91674637D01*
X138709731Y-91674637D02*
X138662112Y-91627017D01*
X138662112Y-91627017D02*
X138662112Y-91722256D01*
X137424017Y-91627017D02*
X137376398Y-91674637D01*
X137376398Y-91674637D02*
X137424017Y-91722256D01*
X137424017Y-91722256D02*
X137471636Y-91674637D01*
X137471636Y-91674637D02*
X137424017Y-91627017D01*
X137424017Y-91627017D02*
X137424017Y-91722256D01*
X136185922Y-91627017D02*
X136138303Y-91674637D01*
X136138303Y-91674637D02*
X136185922Y-91722256D01*
X136185922Y-91722256D02*
X136233541Y-91674637D01*
X136233541Y-91674637D02*
X136185922Y-91627017D01*
X136185922Y-91627017D02*
X136185922Y-91722256D01*
X134947827Y-91627017D02*
X134900208Y-91674637D01*
X134900208Y-91674637D02*
X134947827Y-91722256D01*
X134947827Y-91722256D02*
X134995446Y-91674637D01*
X134995446Y-91674637D02*
X134947827Y-91627017D01*
X134947827Y-91627017D02*
X134947827Y-91722256D01*
X133709732Y-91627017D02*
X133662113Y-91674637D01*
X133662113Y-91674637D02*
X133709732Y-91722256D01*
X133709732Y-91722256D02*
X133757351Y-91674637D01*
X133757351Y-91674637D02*
X133709732Y-91627017D01*
X133709732Y-91627017D02*
X133709732Y-91722256D01*
X131709732Y-91627017D02*
X131662113Y-91674637D01*
X131662113Y-91674637D02*
X131709732Y-91722256D01*
X131709732Y-91722256D02*
X131757351Y-91674637D01*
X131757351Y-91674637D02*
X131709732Y-91627017D01*
X131709732Y-91627017D02*
X131709732Y-91722256D01*
X129900209Y-91627017D02*
X129947828Y-91674637D01*
X129947828Y-91674637D02*
X130090685Y-91722256D01*
X130090685Y-91722256D02*
X130185923Y-91722256D01*
X130185923Y-91722256D02*
X130328780Y-91674637D01*
X130328780Y-91674637D02*
X130424018Y-91579398D01*
X130424018Y-91579398D02*
X130471637Y-91484160D01*
X130471637Y-91484160D02*
X130519256Y-91293684D01*
X130519256Y-91293684D02*
X130519256Y-91150827D01*
X130519256Y-91150827D02*
X130471637Y-90960351D01*
X130471637Y-90960351D02*
X130424018Y-90865113D01*
X130424018Y-90865113D02*
X130328780Y-90769875D01*
X130328780Y-90769875D02*
X130185923Y-90722256D01*
X130185923Y-90722256D02*
X130090685Y-90722256D01*
X130090685Y-90722256D02*
X129947828Y-90769875D01*
X129947828Y-90769875D02*
X129900209Y-90817494D01*
X129566875Y-90722256D02*
X128900209Y-90722256D01*
X128900209Y-90722256D02*
X129328780Y-91722256D01*
X127757351Y-91627017D02*
X127709732Y-91674637D01*
X127709732Y-91674637D02*
X127757351Y-91722256D01*
X127757351Y-91722256D02*
X127804970Y-91674637D01*
X127804970Y-91674637D02*
X127757351Y-91627017D01*
X127757351Y-91627017D02*
X127757351Y-91722256D01*
X126519256Y-91627017D02*
X126471637Y-91674637D01*
X126471637Y-91674637D02*
X126519256Y-91722256D01*
X126519256Y-91722256D02*
X126566875Y-91674637D01*
X126566875Y-91674637D02*
X126519256Y-91627017D01*
X126519256Y-91627017D02*
X126519256Y-91722256D01*
X125281161Y-91627017D02*
X125233542Y-91674637D01*
X125233542Y-91674637D02*
X125281161Y-91722256D01*
X125281161Y-91722256D02*
X125328780Y-91674637D01*
X125328780Y-91674637D02*
X125281161Y-91627017D01*
X125281161Y-91627017D02*
X125281161Y-91722256D01*
X124043066Y-91627017D02*
X123995447Y-91674637D01*
X123995447Y-91674637D02*
X124043066Y-91722256D01*
X124043066Y-91722256D02*
X124090685Y-91674637D01*
X124090685Y-91674637D02*
X124043066Y-91627017D01*
X124043066Y-91627017D02*
X124043066Y-91722256D01*
X122804971Y-91627017D02*
X122757352Y-91674637D01*
X122757352Y-91674637D02*
X122804971Y-91722256D01*
X122804971Y-91722256D02*
X122852590Y-91674637D01*
X122852590Y-91674637D02*
X122804971Y-91627017D01*
X122804971Y-91627017D02*
X122804971Y-91722256D01*
X121566876Y-91627017D02*
X121519257Y-91674637D01*
X121519257Y-91674637D02*
X121566876Y-91722256D01*
X121566876Y-91722256D02*
X121614495Y-91674637D01*
X121614495Y-91674637D02*
X121566876Y-91627017D01*
X121566876Y-91627017D02*
X121566876Y-91722256D01*
D10*
X139988523Y-66308946D02*
X140083761Y-66261327D01*
X140083761Y-66261327D02*
X140178999Y-66166089D01*
X140178999Y-66166089D02*
X140321856Y-66023231D01*
X140321856Y-66023231D02*
X140417094Y-65975612D01*
X140417094Y-65975612D02*
X140512332Y-65975612D01*
X140464713Y-66213708D02*
X140559951Y-66166089D01*
X140559951Y-66166089D02*
X140655189Y-66070850D01*
X140655189Y-66070850D02*
X140702808Y-65880374D01*
X140702808Y-65880374D02*
X140702808Y-65547041D01*
X140702808Y-65547041D02*
X140655189Y-65356565D01*
X140655189Y-65356565D02*
X140559951Y-65261327D01*
X140559951Y-65261327D02*
X140464713Y-65213708D01*
X140464713Y-65213708D02*
X140274237Y-65213708D01*
X140274237Y-65213708D02*
X140178999Y-65261327D01*
X140178999Y-65261327D02*
X140083761Y-65356565D01*
X140083761Y-65356565D02*
X140036142Y-65547041D01*
X140036142Y-65547041D02*
X140036142Y-65880374D01*
X140036142Y-65880374D02*
X140083761Y-66070850D01*
X140083761Y-66070850D02*
X140178999Y-66166089D01*
X140178999Y-66166089D02*
X140274237Y-66213708D01*
X140274237Y-66213708D02*
X140464713Y-66213708D01*
X139083761Y-66213708D02*
X139655189Y-66213708D01*
X139369475Y-66213708D02*
X139369475Y-65213708D01*
X139369475Y-65213708D02*
X139464713Y-65356565D01*
X139464713Y-65356565D02*
X139559951Y-65451803D01*
X139559951Y-65451803D02*
X139655189Y-65499422D01*
X138131380Y-66213708D02*
X138702808Y-66213708D01*
X138417094Y-66213708D02*
X138417094Y-65213708D01*
X138417094Y-65213708D02*
X138512332Y-65356565D01*
X138512332Y-65356565D02*
X138607570Y-65451803D01*
X138607570Y-65451803D02*
X138702808Y-65499422D01*
X137178999Y-66213708D02*
X137750427Y-66213708D01*
X137464713Y-66213708D02*
X137464713Y-65213708D01*
X137464713Y-65213708D02*
X137559951Y-65356565D01*
X137559951Y-65356565D02*
X137655189Y-65451803D01*
X137655189Y-65451803D02*
X137750427Y-65499422D01*
X191643795Y-88895894D02*
X191643795Y-88210180D01*
X191643795Y-87095894D02*
X191643795Y-86410180D01*
X191643795Y-85295894D02*
X191643795Y-84610180D01*
X191643795Y-83495894D02*
X191643795Y-82810180D01*
X191643795Y-81695894D02*
X191643795Y-81010180D01*
X191643795Y-79895894D02*
X191643795Y-79210180D01*
X191643795Y-78095894D02*
X191643795Y-77410180D01*
X191643795Y-76295894D02*
X191643795Y-75610180D01*
X192151795Y-121109894D02*
X192151795Y-120424180D01*
X192151795Y-119309894D02*
X192151795Y-118624180D01*
X192151795Y-117509894D02*
X192151795Y-116824180D01*
X192151795Y-115709894D02*
X192151795Y-115024180D01*
X121512253Y-122548939D02*
X121512253Y-123234654D01*
X121512253Y-124348939D02*
X121512253Y-125034654D01*
X121512253Y-126148939D02*
X121512253Y-126834654D01*
X121512253Y-127948939D02*
X121512253Y-128634654D01*
D11*
X148705755Y-104216750D02*
X148491470Y-104288178D01*
X148491470Y-104288178D02*
X148134327Y-104288178D01*
X148134327Y-104288178D02*
X147991470Y-104216750D01*
X147991470Y-104216750D02*
X147920041Y-104145321D01*
X147920041Y-104145321D02*
X147848612Y-104002464D01*
X147848612Y-104002464D02*
X147848612Y-103859607D01*
X147848612Y-103859607D02*
X147920041Y-103716750D01*
X147920041Y-103716750D02*
X147991470Y-103645321D01*
X147991470Y-103645321D02*
X148134327Y-103573892D01*
X148134327Y-103573892D02*
X148420041Y-103502464D01*
X148420041Y-103502464D02*
X148562898Y-103431035D01*
X148562898Y-103431035D02*
X148634327Y-103359607D01*
X148634327Y-103359607D02*
X148705755Y-103216750D01*
X148705755Y-103216750D02*
X148705755Y-103073892D01*
X148705755Y-103073892D02*
X148634327Y-102931035D01*
X148634327Y-102931035D02*
X148562898Y-102859607D01*
X148562898Y-102859607D02*
X148420041Y-102788178D01*
X148420041Y-102788178D02*
X148062898Y-102788178D01*
X148062898Y-102788178D02*
X147848612Y-102859607D01*
X147205756Y-104288178D02*
X147205756Y-102788178D01*
X147205756Y-102788178D02*
X146634327Y-102788178D01*
X146634327Y-102788178D02*
X146491470Y-102859607D01*
X146491470Y-102859607D02*
X146420041Y-102931035D01*
X146420041Y-102931035D02*
X146348613Y-103073892D01*
X146348613Y-103073892D02*
X146348613Y-103288178D01*
X146348613Y-103288178D02*
X146420041Y-103431035D01*
X146420041Y-103431035D02*
X146491470Y-103502464D01*
X146491470Y-103502464D02*
X146634327Y-103573892D01*
X146634327Y-103573892D02*
X147205756Y-103573892D01*
X145705756Y-104288178D02*
X145705756Y-102788178D01*
X144848613Y-104288178D02*
X145491470Y-103431035D01*
X144848613Y-102788178D02*
X145705756Y-103645321D01*
X144205756Y-103716750D02*
X143062899Y-103716750D01*
X143634327Y-104288178D02*
X143634327Y-103145321D01*
D10*
X145822909Y-68537132D02*
X146632432Y-68537132D01*
X146632432Y-68537132D02*
X146727670Y-68584751D01*
X146727670Y-68584751D02*
X146775290Y-68632370D01*
X146775290Y-68632370D02*
X146822909Y-68727608D01*
X146822909Y-68727608D02*
X146822909Y-68918084D01*
X146822909Y-68918084D02*
X146775290Y-69013322D01*
X146775290Y-69013322D02*
X146727670Y-69060941D01*
X146727670Y-69060941D02*
X146632432Y-69108560D01*
X146632432Y-69108560D02*
X145822909Y-69108560D01*
X145918147Y-69537132D02*
X145870528Y-69584751D01*
X145870528Y-69584751D02*
X145822909Y-69679989D01*
X145822909Y-69679989D02*
X145822909Y-69918084D01*
X145822909Y-69918084D02*
X145870528Y-70013322D01*
X145870528Y-70013322D02*
X145918147Y-70060941D01*
X145918147Y-70060941D02*
X146013385Y-70108560D01*
X146013385Y-70108560D02*
X146108623Y-70108560D01*
X146108623Y-70108560D02*
X146251480Y-70060941D01*
X146251480Y-70060941D02*
X146822909Y-69489513D01*
X146822909Y-69489513D02*
X146822909Y-70108560D01*
D12*
X149998256Y-65227331D02*
X149903018Y-65417807D01*
X149903018Y-65417807D02*
X149712542Y-65513045D01*
X149712542Y-65513045D02*
X149522066Y-65417807D01*
X149522066Y-65417807D02*
X149426828Y-65227331D01*
X149426828Y-65227331D02*
X149522066Y-65036855D01*
X149522066Y-65036855D02*
X149712542Y-64941616D01*
X149712542Y-64941616D02*
X149903018Y-65036855D01*
X149903018Y-65036855D02*
X149998256Y-65227331D01*
D10*
X109709552Y-73791703D02*
X109661933Y-73696465D01*
X109661933Y-73696465D02*
X109566695Y-73601227D01*
X109566695Y-73601227D02*
X109423837Y-73458370D01*
X109423837Y-73458370D02*
X109376218Y-73363132D01*
X109376218Y-73363132D02*
X109376218Y-73267894D01*
X109614314Y-73315513D02*
X109566695Y-73220275D01*
X109566695Y-73220275D02*
X109471456Y-73125037D01*
X109471456Y-73125037D02*
X109280980Y-73077418D01*
X109280980Y-73077418D02*
X108947647Y-73077418D01*
X108947647Y-73077418D02*
X108757171Y-73125037D01*
X108757171Y-73125037D02*
X108661933Y-73220275D01*
X108661933Y-73220275D02*
X108614314Y-73315513D01*
X108614314Y-73315513D02*
X108614314Y-73505989D01*
X108614314Y-73505989D02*
X108661933Y-73601227D01*
X108661933Y-73601227D02*
X108757171Y-73696465D01*
X108757171Y-73696465D02*
X108947647Y-73744084D01*
X108947647Y-73744084D02*
X109280980Y-73744084D01*
X109280980Y-73744084D02*
X109471456Y-73696465D01*
X109471456Y-73696465D02*
X109566695Y-73601227D01*
X109566695Y-73601227D02*
X109614314Y-73505989D01*
X109614314Y-73505989D02*
X109614314Y-73315513D01*
X108614314Y-74077418D02*
X108614314Y-74744084D01*
X108614314Y-74744084D02*
X109614314Y-74315513D01*
X108614314Y-75172656D02*
X108804790Y-75077418D01*
X111408314Y-89797726D02*
X112217837Y-89797726D01*
X112217837Y-89797726D02*
X112313075Y-89845345D01*
X112313075Y-89845345D02*
X112360695Y-89892964D01*
X112360695Y-89892964D02*
X112408314Y-89988202D01*
X112408314Y-89988202D02*
X112408314Y-90178678D01*
X112408314Y-90178678D02*
X112360695Y-90273916D01*
X112360695Y-90273916D02*
X112313075Y-90321535D01*
X112313075Y-90321535D02*
X112217837Y-90369154D01*
X112217837Y-90369154D02*
X111408314Y-90369154D01*
X112408314Y-91369154D02*
X112408314Y-90797726D01*
X112408314Y-91083440D02*
X111408314Y-91083440D01*
X111408314Y-91083440D02*
X111551171Y-90988202D01*
X111551171Y-90988202D02*
X111646409Y-90892964D01*
X111646409Y-90892964D02*
X111694028Y-90797726D01*
D14*
%TO.C,U2*%
X145490495Y-67750037D02*
X147250495Y-67750037D01*
X147920495Y-64680037D02*
X145490495Y-64680037D01*
%TO.C,Q7'*%
X112069495Y-72515037D02*
X114519495Y-72515037D01*
X113869495Y-75735037D02*
X112069495Y-75735037D01*
%TO.C,U1*%
X106142921Y-87990134D02*
X104192921Y-87990134D01*
X106142921Y-87990134D02*
X109592921Y-87990134D01*
X106142921Y-93110134D02*
X104192921Y-93110134D01*
X106142921Y-93110134D02*
X108092921Y-93110134D01*
%TD*%
M02*
