%TF.GenerationSoftware,KiCad,Pcbnew,8.0.3*%
%TF.CreationDate,2024-07-01T09:31:08+02:00*%
%TF.ProjectId,Q17-Mini,5131372d-4d69-46e6-992e-6b696361645f,3.0.1*%
%TF.SameCoordinates,Original*%
%TF.FileFunction,Copper,L1,Top*%
%TF.FilePolarity,Positive*%
%FSLAX46Y46*%
G04 Gerber Fmt 4.6, Leading zero omitted, Abs format (unit mm)*
G04 Created by KiCad (PCBNEW 8.0.3) date 2024-07-01 09:31:08*
%MOMM*%
%LPD*%
G01*
G04 APERTURE LIST*
G04 Aperture macros list*
%AMRoundRect*
0 Rectangle with rounded corners*
0 $1 Rounding radius*
0 $2 $3 $4 $5 $6 $7 $8 $9 X,Y pos of 4 corners*
0 Add a 4 corners polygon primitive as box body*
4,1,4,$2,$3,$4,$5,$6,$7,$8,$9,$2,$3,0*
0 Add four circle primitives for the rounded corners*
1,1,$1+$1,$2,$3*
1,1,$1+$1,$4,$5*
1,1,$1+$1,$6,$7*
1,1,$1+$1,$8,$9*
0 Add four rect primitives between the rounded corners*
20,1,$1+$1,$2,$3,$4,$5,0*
20,1,$1+$1,$4,$5,$6,$7,0*
20,1,$1+$1,$6,$7,$8,$9,0*
20,1,$1+$1,$8,$9,$2,$3,0*%
G04 Aperture macros list end*
%TA.AperFunction,ComponentPad*%
%ADD10R,2.000000X1.905000*%
%TD*%
%TA.AperFunction,ComponentPad*%
%ADD11O,2.000000X1.905000*%
%TD*%
%TA.AperFunction,ComponentPad*%
%ADD12C,2.500000*%
%TD*%
%TA.AperFunction,ComponentPad*%
%ADD13C,1.600000*%
%TD*%
%TA.AperFunction,ComponentPad*%
%ADD14O,1.600000X1.600000*%
%TD*%
%TA.AperFunction,ComponentPad*%
%ADD15R,1.800000X1.800000*%
%TD*%
%TA.AperFunction,ComponentPad*%
%ADD16C,1.800000*%
%TD*%
%TA.AperFunction,ComponentPad*%
%ADD17R,2.400000X2.400000*%
%TD*%
%TA.AperFunction,ComponentPad*%
%ADD18C,2.400000*%
%TD*%
%TA.AperFunction,ComponentPad*%
%ADD19C,2.000000*%
%TD*%
%TA.AperFunction,SMDPad,CuDef*%
%ADD20RoundRect,0.225000X-0.375000X0.225000X-0.375000X-0.225000X0.375000X-0.225000X0.375000X0.225000X0*%
%TD*%
%TA.AperFunction,ComponentPad*%
%ADD21C,3.600000*%
%TD*%
%TA.AperFunction,ConnectorPad*%
%ADD22C,5.600000*%
%TD*%
%TA.AperFunction,ComponentPad*%
%ADD23R,2.000000X2.000000*%
%TD*%
%TA.AperFunction,ComponentPad*%
%ADD24R,1.600000X1.600000*%
%TD*%
%TA.AperFunction,ComponentPad*%
%ADD25R,1.300000X1.050000*%
%TD*%
%TA.AperFunction,ComponentPad*%
%ADD26O,1.300000X1.050000*%
%TD*%
%TA.AperFunction,ComponentPad*%
%ADD27O,2.400000X2.400000*%
%TD*%
%TA.AperFunction,ComponentPad*%
%ADD28R,1.500000X1.500000*%
%TD*%
%TA.AperFunction,ComponentPad*%
%ADD29C,1.500000*%
%TD*%
%TA.AperFunction,ComponentPad*%
%ADD30R,4.500000X2.500000*%
%TD*%
%TA.AperFunction,ComponentPad*%
%ADD31O,4.500000X2.500000*%
%TD*%
%TA.AperFunction,ComponentPad*%
%ADD32R,1.050000X1.300000*%
%TD*%
%TA.AperFunction,ComponentPad*%
%ADD33O,1.050000X1.300000*%
%TD*%
%TA.AperFunction,ComponentPad*%
%ADD34C,3.000000*%
%TD*%
%TA.AperFunction,ComponentPad*%
%ADD35R,1.000000X1.000000*%
%TD*%
%TA.AperFunction,ComponentPad*%
%ADD36R,2.600000X2.600000*%
%TD*%
%TA.AperFunction,ComponentPad*%
%ADD37RoundRect,0.375000X-0.625000X0.375000X-0.625000X-0.375000X0.625000X-0.375000X0.625000X0.375000X0*%
%TD*%
%TA.AperFunction,ComponentPad*%
%ADD38O,2.000000X1.500000*%
%TD*%
%TA.AperFunction,ComponentPad*%
%ADD39C,2.600000*%
%TD*%
%TA.AperFunction,ViaPad*%
%ADD40C,0.800000*%
%TD*%
%TA.AperFunction,Conductor*%
%ADD41C,1.000000*%
%TD*%
%TA.AperFunction,Conductor*%
%ADD42C,0.600000*%
%TD*%
%TA.AperFunction,Conductor*%
%ADD43C,0.500000*%
%TD*%
%TA.AperFunction,Conductor*%
%ADD44C,0.400000*%
%TD*%
G04 APERTURE END LIST*
D10*
%TO.P,Q13,1,G*%
%TO.N,Net-(D6-K)*%
X177104495Y-67140037D03*
D11*
%TO.P,Q13,2,D*%
%TO.N,Net-(J3-1-Pin_1)*%
X177104495Y-64600037D03*
%TO.P,Q13,3,S*%
%TO.N,Net-(D1-A)*%
X177104495Y-62060037D03*
%TD*%
D12*
%TO.P,J3-3,1,Pin_1*%
%TO.N,Net-(J3-3-Pin_1)*%
X159384495Y-113241037D03*
X154304495Y-113241037D03*
%TD*%
D13*
%TO.P,R19,1*%
%TO.N,Net-(D1-A)*%
X108077745Y-58250037D03*
D14*
%TO.P,R19,2*%
%TO.N,Net-(Q2-E)*%
X118237745Y-58250037D03*
%TD*%
D15*
%TO.P,D4,1,K*%
%TO.N,Net-(D4-K)*%
X130114495Y-122385037D03*
D16*
%TO.P,D4,2,A*%
%TO.N,Net-(D4-A)*%
X127574495Y-122385037D03*
%TD*%
D17*
%TO.P,C16,1*%
%TO.N,GND*%
X164905495Y-102700037D03*
D18*
%TO.P,C16,2*%
%TO.N,Net-(J3-3-Pin_1)*%
X172405495Y-102700037D03*
%TD*%
D19*
%TO.P,R12,1*%
%TO.N,Net-(C10-Pad1)*%
X180279495Y-96985037D03*
%TO.P,R12,2*%
%TO.N,Net-(D8-A)*%
X180279495Y-109685037D03*
%TD*%
D10*
%TO.P,Q14,1,G*%
%TO.N,Net-(D5-A)*%
X175834495Y-118575037D03*
D11*
%TO.P,Q14,2,D*%
%TO.N,Net-(J3-3-Pin_1)*%
X175834495Y-121115037D03*
%TO.P,Q14,3,S*%
%TO.N,Net-(D4-K)*%
X175834495Y-123655037D03*
%TD*%
D13*
%TO.P,C12,1*%
%TO.N,GND*%
X154879495Y-119925037D03*
%TO.P,C12,2*%
%TO.N,Net-(D4-K)*%
X154879495Y-124925037D03*
%TD*%
%TO.P,R6,1*%
%TO.N,Net-(Q7-S)*%
X125669495Y-83127712D03*
D14*
%TO.P,R6,2*%
%TO.N,GND*%
X135829495Y-83127712D03*
%TD*%
D20*
%TO.P,D7,1,K*%
%TO.N,Net-(D7-K)*%
X193187267Y-73490037D03*
%TO.P,D7,2,A*%
%TO.N,Net-(D7-A)*%
X193187267Y-76790037D03*
%TD*%
D21*
%TO.P,H3,1*%
%TO.N,N/C*%
X191188820Y-126440889D03*
D22*
X191188820Y-126440889D03*
%TD*%
D13*
%TO.P,R23,1*%
%TO.N,Net-(C2-Pad1)*%
X130114495Y-102700037D03*
D14*
%TO.P,R23,2*%
%TO.N,Net-(J2-1-Pin_1)*%
X140274495Y-102700037D03*
%TD*%
D13*
%TO.P,R21,1*%
%TO.N,Net-(D4-A)*%
X123764495Y-128735037D03*
D14*
%TO.P,R21,2*%
%TO.N,GND*%
X123764495Y-118575037D03*
%TD*%
D13*
%TO.P,R40,1*%
%TO.N,Net-(Q1-G)*%
X108524495Y-71585037D03*
D14*
%TO.P,R40,2*%
%TO.N,Net-(D2-K)*%
X108524495Y-61425037D03*
%TD*%
D13*
%TO.P,R8,1*%
%TO.N,Net-(Q12-C)*%
X185994495Y-123190000D03*
D14*
%TO.P,R8,2*%
%TO.N,Net-(Q6-G)*%
X185994495Y-113030000D03*
%TD*%
D13*
%TO.P,C11,1*%
%TO.N,GND*%
X155514495Y-62020037D03*
%TO.P,C11,2*%
%TO.N,Net-(D1-A)*%
X155514495Y-57020037D03*
%TD*%
D23*
%TO.P,C6,1*%
%TO.N,GND*%
X117877172Y-113495037D03*
D19*
%TO.P,C6,2*%
%TO.N,Net-(Q4-S)*%
X112877172Y-113495037D03*
%TD*%
D24*
%TO.P,D2,1,K*%
%TO.N,Net-(D2-K)*%
X112969495Y-62735037D03*
D14*
%TO.P,D2,2,A*%
%TO.N,GND*%
X112969495Y-70355037D03*
%TD*%
D20*
%TO.P,D8,1,K*%
%TO.N,Net-(D7-A)*%
X193187267Y-106485188D03*
%TO.P,D8,2,A*%
%TO.N,Net-(D8-A)*%
X193187267Y-109785188D03*
%TD*%
D15*
%TO.P,D1,1,K*%
%TO.N,Net-(D1-K)*%
X128209495Y-61425037D03*
D16*
%TO.P,D1,2,A*%
%TO.N,Net-(D1-A)*%
X128209495Y-58885037D03*
%TD*%
D18*
%TO.P,C17,1*%
%TO.N,Net-(C17-Pad1)*%
X135899790Y-106497272D03*
%TO.P,C17,2*%
%TO.N,GND*%
X135899790Y-121497272D03*
%TD*%
D19*
%TO.P,C1,1*%
%TO.N,Net-(Q7-G)*%
X133632943Y-77928513D03*
%TO.P,C1,2*%
%TO.N,GND*%
X139004495Y-77928513D03*
%TD*%
D24*
%TO.P,D3,1,K*%
%TO.N,GND*%
X111699495Y-120480037D03*
D14*
%TO.P,D3,2,A*%
%TO.N,Net-(D3-A)*%
X111699495Y-128100037D03*
%TD*%
D13*
%TO.P,R2,1*%
%TO.N,Net-(D1-K)*%
X130114495Y-65870037D03*
D14*
%TO.P,R2,2*%
%TO.N,GND*%
X119954495Y-65870037D03*
%TD*%
D21*
%TO.P,H1,1*%
%TO.N,N/C*%
X103463294Y-58647028D03*
D22*
X103463294Y-58647028D03*
%TD*%
D17*
%TO.P,C14,1*%
%TO.N,GND*%
X161309495Y-122385037D03*
D18*
%TO.P,C14,2*%
%TO.N,Net-(D5-A)*%
X166309495Y-122385037D03*
%TD*%
D24*
%TO.P,D6,1,K*%
%TO.N,Net-(D6-K)*%
X172024495Y-64600037D03*
D14*
%TO.P,D6,2,A*%
%TO.N,Net-(D1-A)*%
X172024495Y-56980037D03*
%TD*%
D23*
%TO.P,C3,1*%
%TO.N,Net-(Q1-S)*%
X108604495Y-77935037D03*
D19*
%TO.P,C3,2*%
%TO.N,GND*%
X113604495Y-77935037D03*
%TD*%
D12*
%TO.P,J3-2,1,Pin_1*%
%TO.N,GND*%
X149164495Y-116670037D03*
X149164495Y-111590037D03*
%TD*%
%TO.P,J2-1,1,Pin_1*%
%TO.N,Net-(J2-1-Pin_1)*%
X148529495Y-106510037D03*
X143449495Y-106510037D03*
%TD*%
D13*
%TO.P,R30,1*%
%TO.N,Net-(D5-A)*%
X177104495Y-114130037D03*
D14*
%TO.P,R30,2*%
%TO.N,Net-(J3-3-Pin_1)*%
X166944495Y-114130037D03*
%TD*%
D10*
%TO.P,Q4,1,G*%
%TO.N,Net-(Q4-G)*%
X104079495Y-119845037D03*
D11*
%TO.P,Q4,2,D*%
%TO.N,Net-(D4-K)*%
X104079495Y-117305037D03*
%TO.P,Q4,3,S*%
%TO.N,Net-(Q4-S)*%
X104079495Y-114765037D03*
%TD*%
D25*
%TO.P,Q9,1,S*%
%TO.N,Net-(Q9-S)*%
X137099495Y-72855037D03*
D26*
%TO.P,Q9,2,G*%
%TO.N,Net-(Q9-G)*%
X137099495Y-70315037D03*
%TO.P,Q9,3,D*%
%TO.N,Net-(Q8-D)*%
X137099495Y-67775037D03*
%TD*%
D18*
%TO.P,R27,1*%
%TO.N,Net-(Q7-S)*%
X139244311Y-83127712D03*
D27*
%TO.P,R27,2*%
%TO.N,Net-(D7-A)*%
X151944311Y-83127712D03*
%TD*%
D28*
%TO.P,Q7,1,D*%
%TO.N,Net-(Q7-D)*%
X122494360Y-77300037D03*
D29*
%TO.P,Q7,2,G*%
%TO.N,Net-(Q7-G)*%
X122494360Y-79840037D03*
%TO.P,Q7,3,S*%
%TO.N,Net-(Q7-S)*%
X122494360Y-82380037D03*
%TD*%
D13*
%TO.P,R18,1*%
%TO.N,Net-(U1--)*%
X114239495Y-95715037D03*
D14*
%TO.P,R18,2*%
%TO.N,Net-(C7-Pad1)*%
X114239495Y-85555037D03*
%TD*%
D19*
%TO.P,C10,1*%
%TO.N,Net-(C10-Pad1)*%
X151244923Y-77935037D03*
%TO.P,C10,2*%
%TO.N,Net-(Q7-S)*%
X145873371Y-77935037D03*
%TD*%
D13*
%TO.P,R29,1*%
%TO.N,Net-(J3-1-Pin_1)*%
X175834495Y-71585037D03*
D14*
%TO.P,R29,2*%
%TO.N,Net-(D6-K)*%
X165674495Y-71585037D03*
%TD*%
D30*
%TO.P,Q15,1,G*%
%TO.N,Net-(Q15-G)*%
X188595000Y-76835000D03*
D31*
%TO.P,Q15,2,D*%
%TO.N,Net-(J3-1-Pin_1)*%
X188595000Y-82285000D03*
%TO.P,Q15,3,S*%
%TO.N,Net-(D7-A)*%
X188595000Y-87735000D03*
%TD*%
D28*
%TO.P,Q3,1,E*%
%TO.N,Net-(Q3-E)*%
X119954495Y-128100037D03*
D29*
%TO.P,Q3,2,C*%
%TO.N,Net-(D3-A)*%
X119954495Y-125560037D03*
%TO.P,Q3,3,B*%
%TO.N,Net-(D4-A)*%
X119954495Y-123020037D03*
%TD*%
D30*
%TO.P,Q16,1,G*%
%TO.N,Net-(Q16-G)*%
X188595000Y-97752220D03*
D31*
%TO.P,Q16,2,D*%
%TO.N,Net-(J3-3-Pin_1)*%
X188595000Y-103202220D03*
%TO.P,Q16,3,S*%
%TO.N,Net-(D7-A)*%
X188595000Y-108652220D03*
%TD*%
D18*
%TO.P,R28,1*%
%TO.N,Net-(R26-Pad2)*%
X157673495Y-96350037D03*
D27*
%TO.P,R28,2*%
%TO.N,Net-(J2-1-Pin_1)*%
X157673495Y-109050037D03*
%TD*%
D18*
%TO.P,C7,1*%
%TO.N,Net-(C7-Pad1)*%
X118864495Y-91270037D03*
%TO.P,C7,2*%
%TO.N,Net-(C7-Pad2)*%
X141364495Y-91270037D03*
%TD*%
D13*
%TO.P,C8,1*%
%TO.N,GND*%
X114874495Y-122779843D03*
%TO.P,C8,2*%
%TO.N,Net-(D3-A)*%
X114874495Y-127779843D03*
%TD*%
%TO.P,R16,1*%
%TO.N,GND*%
X123129495Y-99271037D03*
D14*
%TO.P,R16,2*%
%TO.N,Net-(J1-Pin_2)*%
X112969495Y-99271037D03*
%TD*%
D13*
%TO.P,C5,1*%
%TO.N,GND*%
X104079495Y-98255037D03*
%TO.P,C5,2*%
%TO.N,Net-(Q4-S)*%
X109079495Y-98255037D03*
%TD*%
D32*
%TO.P,Q111,1,S*%
%TO.N,Net-(Q10-B)*%
X141544495Y-63330037D03*
D33*
%TO.P,Q111,2,G*%
%TO.N,Net-(Q9-S)*%
X139004495Y-63330037D03*
%TO.P,Q111,3,D*%
%TO.N,Net-(Q9-G)*%
X136464495Y-63330037D03*
%TD*%
D13*
%TO.P,R24,1*%
%TO.N,Net-(Q9-G)*%
X139639495Y-70315037D03*
D14*
%TO.P,R24,2*%
%TO.N,Net-(R24-Pad2)*%
X149799495Y-70315037D03*
%TD*%
D17*
%TO.P,C13,1*%
%TO.N,Net-(D6-K)*%
X166309495Y-62060037D03*
D18*
%TO.P,C13,2*%
%TO.N,GND*%
X161309495Y-62060037D03*
%TD*%
D28*
%TO.P,Q2,1,E*%
%TO.N,Net-(Q2-E)*%
X121859495Y-57610037D03*
D29*
%TO.P,Q2,2,C*%
%TO.N,Net-(D2-K)*%
X121859495Y-60150037D03*
%TO.P,Q2,3,B*%
%TO.N,Net-(D1-K)*%
X121859495Y-62690037D03*
%TD*%
D13*
%TO.P,C4,1*%
%TO.N,GND*%
X103444495Y-77935037D03*
%TO.P,C4,2*%
%TO.N,Net-(Q1-S)*%
X103444495Y-82935037D03*
%TD*%
D21*
%TO.P,H2,1*%
%TO.N,N/C*%
X191175082Y-58697768D03*
D22*
X191175082Y-58697768D03*
%TD*%
D13*
%TO.P,R4,1*%
%TO.N,Net-(Q8-G)*%
X128209495Y-69680037D03*
D14*
%TO.P,R4,2*%
%TO.N,Net-(Q7-S)*%
X128209495Y-79840037D03*
%TD*%
D13*
%TO.P,R9,1*%
%TO.N,Net-(Q12-B)*%
X174564495Y-128100037D03*
D14*
%TO.P,R9,2*%
%TO.N,Net-(Q6-S)*%
X184724495Y-128100037D03*
%TD*%
D18*
%TO.P,R31,1*%
%TO.N,Net-(J2-1-Pin_1)*%
X142164495Y-98994079D03*
D27*
%TO.P,R31,2*%
%TO.N,Net-(C17-Pad1)*%
X126924495Y-98994079D03*
%TD*%
D13*
%TO.P,C9,1*%
%TO.N,GND*%
X116144495Y-67735037D03*
%TO.P,C9,2*%
%TO.N,Net-(D2-K)*%
X116144495Y-62735037D03*
%TD*%
%TO.P,R1,1*%
%TO.N,Net-(C7-Pad2)*%
X118049495Y-83650037D03*
D14*
%TO.P,R1,2*%
%TO.N,Net-(Q7-G)*%
X118049495Y-73490037D03*
%TD*%
D10*
%TO.P,Q6,1,G*%
%TO.N,Net-(Q6-G)*%
X190698000Y-115570000D03*
D11*
%TO.P,Q6,2,D*%
%TO.N,Net-(D8-A)*%
X190698000Y-118110000D03*
%TO.P,Q6,3,S*%
%TO.N,Net-(Q6-S)*%
X190698000Y-120650000D03*
%TD*%
D34*
%TO.P,L1,1,1*%
%TO.N,Net-(D7-A)*%
X150415807Y-87457846D03*
%TO.P,L1,2,2*%
%TO.N,Net-(J2-1-Pin_1)*%
X150415807Y-101457846D03*
%TD*%
D12*
%TO.P,J2-2,1,Pin_1*%
%TO.N,GND*%
X142814495Y-116670037D03*
X142814495Y-111590037D03*
%TD*%
D18*
%TO.P,R26,1*%
%TO.N,Net-(C10-Pad1)*%
X157673495Y-76030037D03*
D27*
%TO.P,R26,2*%
%TO.N,Net-(R26-Pad2)*%
X157673495Y-88730037D03*
%TD*%
D13*
%TO.P,R20,1*%
%TO.N,Net-(D4-K)*%
X138369495Y-128100037D03*
D14*
%TO.P,R20,2*%
%TO.N,Net-(Q3-E)*%
X128209495Y-128100037D03*
%TD*%
D13*
%TO.P,R14,1*%
%TO.N,Net-(D7-K)*%
X184089495Y-66672737D03*
D14*
%TO.P,R14,2*%
%TO.N,Net-(Q15-G)*%
X184089495Y-76832737D03*
%TD*%
D13*
%TO.P,R15,1*%
%TO.N,Net-(D8-A)*%
X184277000Y-106299000D03*
D14*
%TO.P,R15,2*%
%TO.N,Net-(Q16-G)*%
X184277000Y-96139000D03*
%TD*%
D13*
%TO.P,R41,1*%
%TO.N,Net-(Q4-G)*%
X108524495Y-117940037D03*
D14*
%TO.P,R41,2*%
%TO.N,Net-(D3-A)*%
X108524495Y-128100037D03*
%TD*%
D10*
%TO.P,Q5,1,G*%
%TO.N,Net-(Q5-G)*%
X190698000Y-64516000D03*
D11*
%TO.P,Q5,2,D*%
%TO.N,Net-(D7-K)*%
X190698000Y-67056000D03*
%TO.P,Q5,3,S*%
%TO.N,Net-(Q5-S)*%
X190698000Y-69596000D03*
%TD*%
D13*
%TO.P,R7,1*%
%TO.N,Net-(Q8-D)*%
X180914495Y-60155037D03*
D14*
%TO.P,R7,2*%
%TO.N,Net-(Q5-G)*%
X180914495Y-70315037D03*
%TD*%
D28*
%TO.P,Q10,1,E*%
%TO.N,Net-(D1-A)*%
X146497495Y-57615037D03*
D29*
%TO.P,Q10,2,C*%
%TO.N,Net-(Q10-B)*%
X146497495Y-60155037D03*
%TO.P,Q10,3,B*%
X146497495Y-62695037D03*
%TD*%
D13*
%TO.P,R13,1*%
%TO.N,Net-(Q6-S)*%
X182184495Y-112225037D03*
D14*
%TO.P,R13,2*%
%TO.N,Net-(D4-K)*%
X182184495Y-122385037D03*
%TD*%
D28*
%TO.P,Q12,1,E*%
%TO.N,Net-(D4-K)*%
X146899495Y-123020037D03*
D29*
%TO.P,Q12,2,C*%
%TO.N,Net-(Q12-C)*%
X146899495Y-125560037D03*
%TO.P,Q12,3,B*%
%TO.N,Net-(Q12-B)*%
X146899495Y-128100037D03*
%TD*%
D13*
%TO.P,R25,1*%
%TO.N,Net-(R24-Pad2)*%
X133289495Y-124925037D03*
D14*
%TO.P,R25,2*%
%TO.N,Net-(Q12-C)*%
X143449495Y-124925037D03*
%TD*%
D17*
%TO.P,C15,1*%
%TO.N,Net-(J3-1-Pin_1)*%
X172405495Y-83015037D03*
D18*
%TO.P,C15,2*%
%TO.N,GND*%
X164905495Y-83015037D03*
%TD*%
D13*
%TO.P,R10,1*%
%TO.N,Net-(D1-A)*%
X176469495Y-56980037D03*
D14*
%TO.P,R10,2*%
%TO.N,Net-(Q5-S)*%
X186629495Y-56980037D03*
%TD*%
D21*
%TO.P,H4,1*%
%TO.N,N/C*%
X103475185Y-126428054D03*
D22*
X103475185Y-126428054D03*
%TD*%
D32*
%TO.P,Q11,1,S*%
%TO.N,Net-(U2-S1)*%
X136394495Y-61044037D03*
D33*
%TO.P,Q11,2,G*%
%TO.N,Net-(Q9-S)*%
X138934495Y-61044037D03*
%TO.P,Q11,3,D*%
X141474495Y-61044037D03*
%TD*%
D28*
%TO.P,Q8,1,S*%
%TO.N,Net-(Q7-D)*%
X122494495Y-74125037D03*
D29*
%TO.P,Q8,2,G*%
%TO.N,Net-(Q8-G)*%
X122494495Y-71585037D03*
%TO.P,Q8,3,D*%
%TO.N,Net-(Q8-D)*%
X122494495Y-69045037D03*
%TD*%
D10*
%TO.P,Q1,1,G*%
%TO.N,Net-(Q1-G)*%
X104079495Y-70315037D03*
D11*
%TO.P,Q1,2,D*%
%TO.N,Net-(D1-A)*%
X104079495Y-67775037D03*
%TO.P,Q1,3,S*%
%TO.N,Net-(Q1-S)*%
X104079495Y-65235037D03*
%TD*%
D13*
%TO.P,R3,1*%
%TO.N,Net-(D1-A)*%
X133289495Y-56980037D03*
D14*
%TO.P,R3,2*%
%TO.N,Net-(U2-S1)*%
X133289495Y-67140037D03*
%TD*%
D19*
%TO.P,R11,1*%
%TO.N,Net-(D7-K)*%
X180279495Y-76030037D03*
%TO.P,R11,2*%
%TO.N,Net-(C10-Pad1)*%
X180279495Y-88730037D03*
%TD*%
D35*
%TO.P,J4,1*%
%TO.N,GND*%
X145989495Y-109939037D03*
%TD*%
D36*
%TO.P,J1,1,Pin_1*%
%TO.N,GND*%
X105984495Y-103335037D03*
D37*
X107596495Y-104585037D03*
D38*
%TO.P,J1,2,Pin_2*%
%TO.N,Net-(J1-Pin_2)*%
X107596495Y-107085037D03*
D39*
X105984495Y-108335037D03*
%TD*%
D23*
%TO.P,C2,1*%
%TO.N,Net-(C2-Pad1)*%
X126324538Y-109711651D03*
D19*
%TO.P,C2,2*%
%TO.N,GND*%
X126324538Y-114711651D03*
%TD*%
D24*
%TO.P,U1',1,NC*%
%TO.N,N/C*%
X102657426Y-94445037D03*
D14*
%TO.P,U1',2,-*%
%TO.N,Net-(U1--)*%
X105197426Y-94445037D03*
%TO.P,U1',3,+*%
%TO.N,Net-(J1-Pin_2)*%
X107737426Y-94445037D03*
%TO.P,U1',4,V-*%
%TO.N,Net-(Q4-S)*%
X110277426Y-94445037D03*
%TO.P,U1',5,NC*%
%TO.N,N/C*%
X110277426Y-86825037D03*
%TO.P,U1',6*%
%TO.N,Net-(C7-Pad2)*%
X107737426Y-86825037D03*
%TO.P,U1',7,V+*%
%TO.N,Net-(Q1-S)*%
X105197426Y-86825037D03*
%TO.P,U1',8,NC*%
%TO.N,N/C*%
X102657426Y-86825037D03*
%TD*%
D24*
%TO.P,D5,1,K*%
%TO.N,Net-(D4-K)*%
X172690981Y-124535037D03*
D14*
%TO.P,D5,2,A*%
%TO.N,Net-(D5-A)*%
X172690981Y-116915037D03*
%TD*%
D12*
%TO.P,J3-1,1,Pin_1*%
%TO.N,Net-(J3-1-Pin_1)*%
X159451495Y-71839037D03*
X154371495Y-71839037D03*
%TD*%
D13*
%TO.P,R17,1*%
%TO.N,Net-(C2-Pad1)*%
X123129495Y-103970037D03*
D14*
%TO.P,R17,2*%
%TO.N,Net-(U1--)*%
X112969495Y-103970037D03*
%TD*%
D40*
%TO.N,Net-(Q9-G)*%
X144084495Y-70315037D03*
%TO.N,Net-(U2-S1)*%
X142814495Y-66190037D03*
%TD*%
D41*
%TO.N,Net-(C10-Pad1)*%
X180279495Y-96985037D02*
X180279495Y-88730037D01*
%TO.N,Net-(D1-A)*%
X108077745Y-58250037D02*
X109212282Y-58250037D01*
X110136602Y-62352930D02*
X105007388Y-67482144D01*
X109919389Y-58542930D02*
X110136602Y-58760143D01*
X110429495Y-59467250D02*
X110429495Y-61645823D01*
X110429495Y-61645823D02*
G75*
G02*
X110136589Y-62352917I-999995J23D01*
G01*
X104300281Y-67775037D02*
G75*
G03*
X105007405Y-67482161I19J1000037D01*
G01*
X109919389Y-58542930D02*
G75*
G03*
X109212282Y-58250039I-707089J-707070D01*
G01*
X110429495Y-59467250D02*
G75*
G03*
X110136626Y-58760119I-999995J50D01*
G01*
D42*
%TO.N,Net-(D7-A)*%
X193040820Y-107083712D02*
X191618758Y-108505774D01*
X191265205Y-108652220D02*
X188595000Y-108652220D01*
X193187267Y-106485188D02*
X193187267Y-76790037D01*
D43*
X193187267Y-106485188D02*
X193187267Y-106730158D01*
D42*
X191618758Y-108505774D02*
G75*
G02*
X191265205Y-108652218I-353558J353574D01*
G01*
X193040820Y-107083712D02*
G75*
G03*
X193187247Y-106730158I-353520J353512D01*
G01*
D41*
%TO.N,Net-(Q3-E)*%
X120081495Y-128227037D02*
X121191281Y-128227037D01*
X123543709Y-126703037D02*
X126398281Y-126703037D01*
X127105388Y-126995930D02*
X128209495Y-128100037D01*
X121898388Y-127934144D02*
X122836602Y-126995930D01*
X126398281Y-126703037D02*
G75*
G02*
X127105390Y-126995928I19J-999963D01*
G01*
X123543709Y-126703037D02*
G75*
G03*
X122836605Y-126995933I-9J-999963D01*
G01*
X121191281Y-128227037D02*
G75*
G03*
X121898405Y-127934161I19J1000037D01*
G01*
D42*
%TO.N,Net-(D7-K)*%
X193187267Y-73490037D02*
X193187267Y-68189916D01*
X193040820Y-67836362D02*
X192406904Y-67202446D01*
X192053351Y-67056000D02*
X190698000Y-67056000D01*
X192406904Y-67202446D02*
G75*
G03*
X192053351Y-67056034I-353504J-353554D01*
G01*
X193040820Y-67836362D02*
G75*
G02*
X193187266Y-68189916I-353520J-353538D01*
G01*
D41*
%TO.N,Net-(Q5-S)*%
X186629495Y-67360823D02*
X186629495Y-56980037D01*
X188157565Y-69303107D02*
X186922388Y-68067930D01*
X190698000Y-69596000D02*
X188864672Y-69596000D01*
X188157565Y-69303107D02*
G75*
G03*
X188864672Y-69596020I707135J707107D01*
G01*
X186629495Y-67360823D02*
G75*
G03*
X186922399Y-68067919I1000005J23D01*
G01*
%TO.N,Net-(R26-Pad2)*%
X157673495Y-88730037D02*
X157673495Y-96350037D01*
D42*
%TO.N,Net-(D8-A)*%
X193040820Y-117243712D02*
X192320978Y-117963554D01*
X193187267Y-109785188D02*
X193187267Y-116890158D01*
X191967425Y-118110000D02*
X190825000Y-118110000D01*
X193187267Y-116890158D02*
G75*
G02*
X193040834Y-117243726I-499967J-42D01*
G01*
X191967425Y-118110000D02*
G75*
G03*
X192320965Y-117963541I-25J500000D01*
G01*
D41*
%TO.N,Net-(Q6-S)*%
X185790605Y-120942893D02*
X184382388Y-122351110D01*
X184382388Y-127757930D02*
X184724495Y-128100037D01*
X190698000Y-120650000D02*
X186497712Y-120650000D01*
X184089495Y-123058217D02*
X184089495Y-127050823D01*
X184382388Y-122351110D02*
G75*
G03*
X184089508Y-123058217I707112J-707090D01*
G01*
X186497712Y-120650000D02*
G75*
G03*
X185790599Y-120942887I-12J-1000000D01*
G01*
X184382388Y-127757930D02*
G75*
G02*
X184089480Y-127050823I707112J707130D01*
G01*
%TO.N,Net-(Q8-D)*%
X152046602Y-59177930D02*
X150727388Y-60497144D01*
X146210281Y-67775037D02*
X137099495Y-67775037D01*
X179230281Y-58885037D02*
X152753709Y-58885037D01*
X150141602Y-64257930D02*
X146917388Y-67482144D01*
X180914495Y-60155037D02*
X179937388Y-59177930D01*
X150434495Y-61204251D02*
X150434495Y-63550823D01*
X150434495Y-61204251D02*
G75*
G02*
X150727412Y-60497168I1000005J-49D01*
G01*
X150434495Y-63550823D02*
G75*
G02*
X150141589Y-64257917I-999995J23D01*
G01*
X179937388Y-59177930D02*
G75*
G03*
X179230281Y-58885039I-707088J-707070D01*
G01*
X152753709Y-58885037D02*
G75*
G03*
X152046605Y-59177933I-9J-999963D01*
G01*
X146917388Y-67482144D02*
G75*
G02*
X146210281Y-67775013I-707088J707144D01*
G01*
D43*
%TO.N,Net-(Q9-G)*%
X139639495Y-70315037D02*
X144084495Y-70315037D01*
D41*
%TO.N,Net-(Q12-B)*%
X174564495Y-128100037D02*
X146899495Y-128100037D01*
D44*
%TO.N,Net-(U2-S1)*%
X142668048Y-60008590D02*
X142325941Y-59666483D01*
X142814495Y-66190037D02*
X142814495Y-60362144D01*
X136394495Y-60432144D02*
X136394495Y-61044037D01*
X136953048Y-59666484D02*
X136540941Y-60078591D01*
X141972388Y-59520037D02*
X137306602Y-59520037D01*
X141972388Y-59520037D02*
G75*
G02*
X142325939Y-59666485I12J-499963D01*
G01*
X142814495Y-60362144D02*
G75*
G03*
X142668069Y-60008569I-499995J44D01*
G01*
X137306602Y-59520037D02*
G75*
G03*
X136953055Y-59666491I-2J-499963D01*
G01*
X136540941Y-60078591D02*
G75*
G03*
X136394527Y-60432144I353559J-353509D01*
G01*
%TD*%
%TA.AperFunction,Conductor*%
%TO.N,GND*%
G36*
X105927534Y-96369722D02*
G01*
X105973289Y-96422526D01*
X105984495Y-96474037D01*
X105984495Y-100036037D01*
X105964810Y-100103076D01*
X105912006Y-100148831D01*
X105860495Y-100160037D01*
X102809495Y-100160037D01*
X102809495Y-110320037D01*
X120465495Y-110320037D01*
X120532534Y-110339722D01*
X120578289Y-110392526D01*
X120589495Y-110444037D01*
X120589495Y-112225037D01*
X113691811Y-112225037D01*
X113564134Y-112146796D01*
X113564131Y-112146794D01*
X113344768Y-112055932D01*
X113113886Y-112000502D01*
X112877172Y-111981872D01*
X112640457Y-112000502D01*
X112409576Y-112055932D01*
X112409574Y-112055932D01*
X112190212Y-112146794D01*
X112190209Y-112146796D01*
X112062532Y-112225037D01*
X101028495Y-112225037D01*
X100961456Y-112205352D01*
X100915701Y-112152548D01*
X100904495Y-112101037D01*
X100904495Y-96474037D01*
X100924180Y-96406998D01*
X100976984Y-96361243D01*
X101028495Y-96350037D01*
X105860495Y-96350037D01*
X105927534Y-96369722D01*
G37*
%TD.AperFunction*%
%TD*%
%TA.AperFunction,Conductor*%
%TO.N,GND*%
G36*
X163966534Y-60047722D02*
G01*
X164012289Y-60100526D01*
X164023495Y-60152037D01*
X164023495Y-64600037D01*
X168090495Y-64600037D01*
X168157534Y-64619722D01*
X168203289Y-64672526D01*
X168214495Y-64724037D01*
X168214495Y-110142900D01*
X168194810Y-110209939D01*
X168179650Y-110229083D01*
X164531495Y-114003037D01*
X164531495Y-123531037D01*
X164511810Y-123598076D01*
X164459006Y-123643831D01*
X164407495Y-123655037D01*
X155211771Y-123655037D01*
X155179678Y-123650812D01*
X155107587Y-123631495D01*
X155107583Y-123631494D01*
X155107582Y-123631494D01*
X155107581Y-123631493D01*
X155107576Y-123631493D01*
X154879497Y-123611539D01*
X154879493Y-123611539D01*
X154651413Y-123631493D01*
X154651402Y-123631495D01*
X154579312Y-123650812D01*
X154547219Y-123655037D01*
X152974495Y-123655037D01*
X152974495Y-114393684D01*
X153011809Y-114440475D01*
X153011810Y-114440477D01*
X153119256Y-114540172D01*
X153205014Y-114619743D01*
X153422780Y-114768213D01*
X153660241Y-114882569D01*
X153912095Y-114960255D01*
X153912096Y-114960255D01*
X153912099Y-114960256D01*
X154172706Y-114999536D01*
X154172711Y-114999536D01*
X154172714Y-114999537D01*
X154172715Y-114999537D01*
X154436275Y-114999537D01*
X154436276Y-114999537D01*
X154436283Y-114999536D01*
X154696890Y-114960256D01*
X154696891Y-114960255D01*
X154696895Y-114960255D01*
X154948749Y-114882569D01*
X155186211Y-114768213D01*
X155403976Y-114619743D01*
X155597181Y-114440475D01*
X155761510Y-114234413D01*
X155893291Y-114006161D01*
X155989582Y-113760817D01*
X156048230Y-113503863D01*
X156067926Y-113241037D01*
X156067926Y-113241032D01*
X157621064Y-113241032D01*
X157621064Y-113241041D01*
X157640759Y-113503860D01*
X157640760Y-113503863D01*
X157699408Y-113760817D01*
X157795699Y-114006161D01*
X157927480Y-114234413D01*
X158026136Y-114358124D01*
X158091812Y-114440479D01*
X158205228Y-114545713D01*
X158285014Y-114619743D01*
X158502780Y-114768213D01*
X158740241Y-114882569D01*
X158992095Y-114960255D01*
X158992096Y-114960255D01*
X158992099Y-114960256D01*
X159252706Y-114999536D01*
X159252711Y-114999536D01*
X159252714Y-114999537D01*
X159252715Y-114999537D01*
X159516275Y-114999537D01*
X159516276Y-114999537D01*
X159516283Y-114999536D01*
X159776890Y-114960256D01*
X159776891Y-114960255D01*
X159776895Y-114960255D01*
X160028749Y-114882569D01*
X160266211Y-114768213D01*
X160483976Y-114619743D01*
X160677181Y-114440475D01*
X160841510Y-114234413D01*
X160973291Y-114006161D01*
X161069582Y-113760817D01*
X161128230Y-113503863D01*
X161147926Y-113241037D01*
X161128230Y-112978211D01*
X161069582Y-112721257D01*
X160973291Y-112475913D01*
X160841510Y-112247661D01*
X160677181Y-112041599D01*
X160677180Y-112041598D01*
X160677177Y-112041594D01*
X160483976Y-111862331D01*
X160483973Y-111862329D01*
X160266211Y-111713861D01*
X160266207Y-111713859D01*
X160266206Y-111713858D01*
X160135253Y-111650794D01*
X160028749Y-111599505D01*
X160028743Y-111599503D01*
X160028735Y-111599500D01*
X159776900Y-111521820D01*
X159776890Y-111521817D01*
X159516283Y-111482537D01*
X159516276Y-111482537D01*
X159252714Y-111482537D01*
X159252706Y-111482537D01*
X158992099Y-111521817D01*
X158992093Y-111521819D01*
X158740240Y-111599505D01*
X158502783Y-111713859D01*
X158502779Y-111713861D01*
X158285016Y-111862329D01*
X158091812Y-112041594D01*
X157927480Y-112247661D01*
X157795699Y-112475912D01*
X157699410Y-112721251D01*
X157699405Y-112721268D01*
X157640759Y-112978213D01*
X157621064Y-113241032D01*
X156067926Y-113241032D01*
X156048230Y-112978211D01*
X155989582Y-112721257D01*
X155893291Y-112475913D01*
X155761510Y-112247661D01*
X155597181Y-112041599D01*
X155597180Y-112041598D01*
X155597177Y-112041594D01*
X155403976Y-111862331D01*
X155403973Y-111862329D01*
X155186211Y-111713861D01*
X155186207Y-111713859D01*
X155186206Y-111713858D01*
X155055253Y-111650794D01*
X154948749Y-111599505D01*
X154948743Y-111599503D01*
X154948735Y-111599500D01*
X154696900Y-111521820D01*
X154696890Y-111521817D01*
X154436283Y-111482537D01*
X154436276Y-111482537D01*
X154172714Y-111482537D01*
X154172706Y-111482537D01*
X153912099Y-111521817D01*
X153912093Y-111521819D01*
X153660240Y-111599505D01*
X153422783Y-111713859D01*
X153422779Y-111713861D01*
X153205016Y-111862329D01*
X153011812Y-112041594D01*
X152974495Y-112088388D01*
X152974495Y-109050032D01*
X155960204Y-109050032D01*
X155960204Y-109050037D01*
X155979338Y-109305380D01*
X155979339Y-109305385D01*
X156036317Y-109555024D01*
X156036319Y-109555033D01*
X156036321Y-109555038D01*
X156129873Y-109793406D01*
X156257908Y-110015168D01*
X156359771Y-110142900D01*
X156417567Y-110215375D01*
X156594766Y-110379790D01*
X156605276Y-110389542D01*
X156816850Y-110533791D01*
X156816855Y-110533793D01*
X156816856Y-110533794D01*
X156816857Y-110533795D01*
X156939385Y-110592801D01*
X157047556Y-110644893D01*
X157047557Y-110644893D01*
X157047560Y-110644895D01*
X157292252Y-110720372D01*
X157292253Y-110720372D01*
X157292256Y-110720373D01*
X157545453Y-110758536D01*
X157545458Y-110758536D01*
X157545461Y-110758537D01*
X157545462Y-110758537D01*
X157801528Y-110758537D01*
X157801529Y-110758537D01*
X157801536Y-110758536D01*
X158054733Y-110720373D01*
X158054734Y-110720372D01*
X158054738Y-110720372D01*
X158299430Y-110644895D01*
X158530141Y-110533791D01*
X158741714Y-110389542D01*
X158929426Y-110215371D01*
X159089082Y-110015168D01*
X159217117Y-109793406D01*
X159310669Y-109555038D01*
X159367650Y-109305390D01*
X159386786Y-109050037D01*
X159367650Y-108794684D01*
X159310669Y-108545036D01*
X159217117Y-108306668D01*
X159089082Y-108084906D01*
X158929426Y-107884703D01*
X158929425Y-107884702D01*
X158929422Y-107884698D01*
X158808484Y-107772485D01*
X158741714Y-107710532D01*
X158530141Y-107566283D01*
X158530140Y-107566282D01*
X158530133Y-107566278D01*
X158299435Y-107455181D01*
X158299416Y-107455174D01*
X158054743Y-107379703D01*
X158054733Y-107379700D01*
X157801536Y-107341537D01*
X157801529Y-107341537D01*
X157545461Y-107341537D01*
X157545453Y-107341537D01*
X157292256Y-107379700D01*
X157292250Y-107379702D01*
X157047556Y-107455180D01*
X156816857Y-107566278D01*
X156816856Y-107566279D01*
X156605275Y-107710532D01*
X156417567Y-107884698D01*
X156257908Y-108084906D01*
X156129873Y-108306667D01*
X156036323Y-108545030D01*
X156036317Y-108545049D01*
X155979339Y-108794688D01*
X155979338Y-108794693D01*
X155960204Y-109050032D01*
X152974495Y-109050032D01*
X152974495Y-88730032D01*
X155960204Y-88730032D01*
X155960204Y-88730041D01*
X155979338Y-88985380D01*
X155979339Y-88985385D01*
X156036317Y-89235024D01*
X156036319Y-89235033D01*
X156036321Y-89235038D01*
X156129873Y-89473406D01*
X156257908Y-89695168D01*
X156386862Y-89856872D01*
X156417567Y-89895375D01*
X156605276Y-90069542D01*
X156610843Y-90073338D01*
X156655147Y-90127364D01*
X156664995Y-90175793D01*
X156664995Y-94904280D01*
X156645310Y-94971319D01*
X156610850Y-95006731D01*
X156605280Y-95010528D01*
X156417567Y-95184698D01*
X156257908Y-95384906D01*
X156129873Y-95606667D01*
X156036323Y-95845030D01*
X156036317Y-95845049D01*
X155979339Y-96094688D01*
X155979338Y-96094693D01*
X155960204Y-96350032D01*
X155960204Y-96350041D01*
X155979338Y-96605380D01*
X155979339Y-96605385D01*
X156036317Y-96855024D01*
X156036319Y-96855033D01*
X156036321Y-96855038D01*
X156129873Y-97093406D01*
X156257908Y-97315168D01*
X156386862Y-97476872D01*
X156417567Y-97515375D01*
X156594766Y-97679790D01*
X156605276Y-97689542D01*
X156816850Y-97833791D01*
X156816855Y-97833793D01*
X156816856Y-97833794D01*
X156816857Y-97833795D01*
X156939385Y-97892801D01*
X157047556Y-97944893D01*
X157047557Y-97944893D01*
X157047560Y-97944895D01*
X157292252Y-98020372D01*
X157292253Y-98020372D01*
X157292256Y-98020373D01*
X157545453Y-98058536D01*
X157545458Y-98058536D01*
X157545461Y-98058537D01*
X157545462Y-98058537D01*
X157801528Y-98058537D01*
X157801529Y-98058537D01*
X157801536Y-98058536D01*
X158054733Y-98020373D01*
X158054734Y-98020372D01*
X158054738Y-98020372D01*
X158299430Y-97944895D01*
X158530141Y-97833791D01*
X158741714Y-97689542D01*
X158929426Y-97515371D01*
X159089082Y-97315168D01*
X159217117Y-97093406D01*
X159310669Y-96855038D01*
X159367650Y-96605390D01*
X159386786Y-96350037D01*
X159367650Y-96094684D01*
X159310669Y-95845036D01*
X159217117Y-95606668D01*
X159089082Y-95384906D01*
X158929426Y-95184703D01*
X158929425Y-95184702D01*
X158929422Y-95184698D01*
X158803958Y-95068285D01*
X158741714Y-95010532D01*
X158741711Y-95010530D01*
X158741709Y-95010528D01*
X158736140Y-95006731D01*
X158691840Y-94952701D01*
X158681995Y-94904280D01*
X158681995Y-90175793D01*
X158701680Y-90108754D01*
X158736145Y-90073338D01*
X158741714Y-90069542D01*
X158929426Y-89895371D01*
X159089082Y-89695168D01*
X159217117Y-89473406D01*
X159310669Y-89235038D01*
X159367650Y-88985390D01*
X159386786Y-88730037D01*
X159367650Y-88474684D01*
X159310669Y-88225036D01*
X159217117Y-87986668D01*
X159089082Y-87764906D01*
X158929426Y-87564703D01*
X158929425Y-87564702D01*
X158929422Y-87564698D01*
X158808484Y-87452485D01*
X158741714Y-87390532D01*
X158530141Y-87246283D01*
X158530140Y-87246282D01*
X158530133Y-87246278D01*
X158299435Y-87135181D01*
X158299416Y-87135174D01*
X158054743Y-87059703D01*
X158054733Y-87059700D01*
X157801536Y-87021537D01*
X157801529Y-87021537D01*
X157545461Y-87021537D01*
X157545453Y-87021537D01*
X157292256Y-87059700D01*
X157292250Y-87059702D01*
X157047556Y-87135180D01*
X156816857Y-87246278D01*
X156816856Y-87246279D01*
X156605275Y-87390532D01*
X156417567Y-87564698D01*
X156257908Y-87764906D01*
X156129873Y-87986667D01*
X156036323Y-88225030D01*
X156036317Y-88225049D01*
X155979339Y-88474688D01*
X155979338Y-88474693D01*
X155960204Y-88730032D01*
X152974495Y-88730032D01*
X152974495Y-84556609D01*
X152994180Y-84489570D01*
X153014154Y-84465710D01*
X153200238Y-84293050D01*
X153200238Y-84293048D01*
X153200242Y-84293046D01*
X153359898Y-84092843D01*
X153487933Y-83871081D01*
X153581485Y-83632713D01*
X153638466Y-83383065D01*
X153657602Y-83127712D01*
X153638466Y-82872359D01*
X153581485Y-82622711D01*
X153487933Y-82384343D01*
X153359898Y-82162581D01*
X153200242Y-81962378D01*
X153200241Y-81962377D01*
X153200238Y-81962373D01*
X153014154Y-81789714D01*
X152978399Y-81729686D01*
X152974495Y-81698815D01*
X152974495Y-76030032D01*
X155960204Y-76030032D01*
X155960204Y-76030041D01*
X155979338Y-76285380D01*
X155979339Y-76285385D01*
X156036317Y-76535024D01*
X156036319Y-76535033D01*
X156036321Y-76535038D01*
X156129873Y-76773406D01*
X156257908Y-76995168D01*
X156386862Y-77156872D01*
X156417567Y-77195375D01*
X156594766Y-77359790D01*
X156605276Y-77369542D01*
X156816850Y-77513791D01*
X156816855Y-77513793D01*
X156816856Y-77513794D01*
X156816857Y-77513795D01*
X156939385Y-77572801D01*
X157047556Y-77624893D01*
X157047557Y-77624893D01*
X157047560Y-77624895D01*
X157292252Y-77700372D01*
X157292253Y-77700372D01*
X157292256Y-77700373D01*
X157545453Y-77738536D01*
X157545458Y-77738536D01*
X157545461Y-77738537D01*
X157545462Y-77738537D01*
X157801528Y-77738537D01*
X157801529Y-77738537D01*
X157801536Y-77738536D01*
X158054733Y-77700373D01*
X158054734Y-77700372D01*
X158054738Y-77700372D01*
X158299430Y-77624895D01*
X158530141Y-77513791D01*
X158741714Y-77369542D01*
X158929426Y-77195371D01*
X159089082Y-76995168D01*
X159217117Y-76773406D01*
X159310669Y-76535038D01*
X159367650Y-76285390D01*
X159386786Y-76030037D01*
X159386232Y-76022647D01*
X159367651Y-75774693D01*
X159367650Y-75774688D01*
X159367650Y-75774684D01*
X159310669Y-75525036D01*
X159217117Y-75286668D01*
X159089082Y-75064906D01*
X158929426Y-74864703D01*
X158929425Y-74864702D01*
X158929422Y-74864698D01*
X158808484Y-74752485D01*
X158741714Y-74690532D01*
X158530141Y-74546283D01*
X158530140Y-74546282D01*
X158530133Y-74546278D01*
X158299435Y-74435181D01*
X158299416Y-74435174D01*
X158054743Y-74359703D01*
X158054733Y-74359700D01*
X157801536Y-74321537D01*
X157801529Y-74321537D01*
X157545461Y-74321537D01*
X157545453Y-74321537D01*
X157292256Y-74359700D01*
X157292250Y-74359702D01*
X157047556Y-74435180D01*
X156816857Y-74546278D01*
X156816856Y-74546279D01*
X156605275Y-74690532D01*
X156417567Y-74864698D01*
X156257908Y-75064906D01*
X156129873Y-75286667D01*
X156036323Y-75525030D01*
X156036317Y-75525049D01*
X155979339Y-75774688D01*
X155979338Y-75774693D01*
X155960204Y-76030032D01*
X152974495Y-76030032D01*
X152974495Y-76022647D01*
X153086203Y-76022647D01*
X153086203Y-74117647D01*
X152974495Y-74117647D01*
X152974495Y-73225896D01*
X152994180Y-73158857D01*
X153046984Y-73113102D01*
X153116142Y-73103158D01*
X153179698Y-73132183D01*
X153182809Y-73134973D01*
X153272014Y-73217743D01*
X153489780Y-73366213D01*
X153727241Y-73480569D01*
X153979095Y-73558255D01*
X153979096Y-73558255D01*
X153979099Y-73558256D01*
X154239706Y-73597536D01*
X154239711Y-73597536D01*
X154239714Y-73597537D01*
X154239715Y-73597537D01*
X154503275Y-73597537D01*
X154503276Y-73597537D01*
X154503283Y-73597536D01*
X154763890Y-73558256D01*
X154763891Y-73558255D01*
X154763895Y-73558255D01*
X155015749Y-73480569D01*
X155253211Y-73366213D01*
X155470976Y-73217743D01*
X155664181Y-73038475D01*
X155828510Y-72832413D01*
X155960291Y-72604161D01*
X156056582Y-72358817D01*
X156115230Y-72101863D01*
X156134926Y-71839037D01*
X156134926Y-71839032D01*
X157688064Y-71839032D01*
X157688064Y-71839041D01*
X157707759Y-72101860D01*
X157739696Y-72241784D01*
X157766408Y-72358817D01*
X157862699Y-72604161D01*
X157994480Y-72832413D01*
X158047211Y-72898535D01*
X158158812Y-73038479D01*
X158259802Y-73132183D01*
X158352014Y-73217743D01*
X158569780Y-73366213D01*
X158807241Y-73480569D01*
X159059095Y-73558255D01*
X159059096Y-73558255D01*
X159059099Y-73558256D01*
X159319706Y-73597536D01*
X159319711Y-73597536D01*
X159319714Y-73597537D01*
X159319715Y-73597537D01*
X159583275Y-73597537D01*
X159583276Y-73597537D01*
X159583283Y-73597536D01*
X159843890Y-73558256D01*
X159843891Y-73558255D01*
X159843895Y-73558255D01*
X160095749Y-73480569D01*
X160333211Y-73366213D01*
X160550976Y-73217743D01*
X160744181Y-73038475D01*
X160908510Y-72832413D01*
X161040291Y-72604161D01*
X161136582Y-72358817D01*
X161195230Y-72101863D01*
X161214926Y-71839037D01*
X161212984Y-71813126D01*
X161195891Y-71585035D01*
X164360997Y-71585035D01*
X164360997Y-71585038D01*
X164380951Y-71813118D01*
X164380952Y-71813126D01*
X164440209Y-72034275D01*
X164440213Y-72034286D01*
X164471725Y-72101863D01*
X164536972Y-72241786D01*
X164668297Y-72429337D01*
X164830195Y-72591235D01*
X165017746Y-72722560D01*
X165142586Y-72780773D01*
X165225245Y-72819318D01*
X165225247Y-72819318D01*
X165225252Y-72819321D01*
X165446408Y-72878580D01*
X165609327Y-72892833D01*
X165674493Y-72898535D01*
X165674495Y-72898535D01*
X165674497Y-72898535D01*
X165731516Y-72893546D01*
X165902582Y-72878580D01*
X166123738Y-72819321D01*
X166331244Y-72722560D01*
X166518795Y-72591235D01*
X166680693Y-72429337D01*
X166812018Y-72241786D01*
X166908779Y-72034280D01*
X166968038Y-71813124D01*
X166987993Y-71585037D01*
X166968038Y-71356950D01*
X166908779Y-71135794D01*
X166812018Y-70928288D01*
X166680693Y-70740737D01*
X166518795Y-70578839D01*
X166331244Y-70447514D01*
X166331240Y-70447512D01*
X166123744Y-70350755D01*
X166123733Y-70350751D01*
X165902584Y-70291494D01*
X165902576Y-70291493D01*
X165674497Y-70271539D01*
X165674493Y-70271539D01*
X165446413Y-70291493D01*
X165446405Y-70291494D01*
X165225256Y-70350751D01*
X165225245Y-70350755D01*
X165017749Y-70447512D01*
X165017747Y-70447513D01*
X165005067Y-70456392D01*
X164830195Y-70578839D01*
X164830193Y-70578840D01*
X164830190Y-70578843D01*
X164668301Y-70740732D01*
X164536971Y-70928289D01*
X164536970Y-70928291D01*
X164440213Y-71135787D01*
X164440209Y-71135798D01*
X164380952Y-71356947D01*
X164380951Y-71356955D01*
X164360997Y-71585035D01*
X161195891Y-71585035D01*
X161195230Y-71576213D01*
X161145184Y-71356947D01*
X161136582Y-71319257D01*
X161040291Y-71073913D01*
X160908510Y-70845661D01*
X160744181Y-70639599D01*
X160744180Y-70639598D01*
X160744177Y-70639594D01*
X160550976Y-70460331D01*
X160532174Y-70447512D01*
X160333211Y-70311861D01*
X160333207Y-70311859D01*
X160333206Y-70311858D01*
X160202253Y-70248794D01*
X160095749Y-70197505D01*
X160095743Y-70197503D01*
X160095735Y-70197500D01*
X159843900Y-70119820D01*
X159843890Y-70119817D01*
X159583283Y-70080537D01*
X159583276Y-70080537D01*
X159319714Y-70080537D01*
X159319706Y-70080537D01*
X159059099Y-70119817D01*
X159059093Y-70119819D01*
X158807240Y-70197505D01*
X158569783Y-70311859D01*
X158569779Y-70311861D01*
X158352016Y-70460329D01*
X158158812Y-70639594D01*
X157994480Y-70845661D01*
X157862699Y-71073912D01*
X157766410Y-71319251D01*
X157766405Y-71319268D01*
X157707759Y-71576213D01*
X157688064Y-71839032D01*
X156134926Y-71839032D01*
X156132984Y-71813126D01*
X156115230Y-71576213D01*
X156065184Y-71356947D01*
X156056582Y-71319257D01*
X155960291Y-71073913D01*
X155828510Y-70845661D01*
X155664181Y-70639599D01*
X155664180Y-70639598D01*
X155664177Y-70639594D01*
X155470976Y-70460331D01*
X155452174Y-70447512D01*
X155253211Y-70311861D01*
X155253207Y-70311859D01*
X155253206Y-70311858D01*
X155122253Y-70248794D01*
X155015749Y-70197505D01*
X155015743Y-70197503D01*
X155015735Y-70197500D01*
X154763900Y-70119820D01*
X154763890Y-70119817D01*
X154503283Y-70080537D01*
X154503276Y-70080537D01*
X154239714Y-70080537D01*
X154239706Y-70080537D01*
X153979099Y-70119817D01*
X153979093Y-70119819D01*
X153727240Y-70197505D01*
X153489783Y-70311859D01*
X153489779Y-70311861D01*
X153272016Y-70460329D01*
X153182836Y-70543076D01*
X153120304Y-70574244D01*
X153050847Y-70566657D01*
X152996518Y-70522723D01*
X152974567Y-70456392D01*
X152974495Y-70452177D01*
X152974495Y-60152037D01*
X152994180Y-60084998D01*
X153046984Y-60039243D01*
X153098495Y-60028037D01*
X163899495Y-60028037D01*
X163966534Y-60047722D01*
G37*
%TD.AperFunction*%
%TD*%
%TA.AperFunction,Conductor*%
%TO.N,GND*%
G36*
X121224495Y-76030037D02*
G01*
X120589495Y-76030037D01*
X120589495Y-80351037D01*
X120569810Y-80418076D01*
X120517006Y-80463831D01*
X120465495Y-80475037D01*
X101663495Y-80475037D01*
X101596456Y-80455352D01*
X101550701Y-80402548D01*
X101539495Y-80351037D01*
X101539495Y-76886382D01*
X107095995Y-76886382D01*
X107095995Y-78983691D01*
X107102506Y-79044239D01*
X107102506Y-79044241D01*
X107153606Y-79181241D01*
X107241234Y-79298298D01*
X107358291Y-79385926D01*
X107495294Y-79437026D01*
X107522545Y-79439955D01*
X107555840Y-79443536D01*
X107555857Y-79443537D01*
X109653133Y-79443537D01*
X109653149Y-79443536D01*
X109680187Y-79440628D01*
X109713696Y-79437026D01*
X109850699Y-79385926D01*
X109967756Y-79298298D01*
X110055384Y-79181241D01*
X110106484Y-79044238D01*
X110110086Y-79010729D01*
X110112994Y-78983691D01*
X110112995Y-78983674D01*
X110112995Y-76886399D01*
X110112994Y-76886382D01*
X110109652Y-76855307D01*
X110106484Y-76825836D01*
X110055384Y-76688833D01*
X109967756Y-76571776D01*
X109850699Y-76484148D01*
X109713698Y-76433048D01*
X109653149Y-76426537D01*
X109653133Y-76426537D01*
X107555857Y-76426537D01*
X107555840Y-76426537D01*
X107495292Y-76433048D01*
X107495290Y-76433048D01*
X107358290Y-76484148D01*
X107241234Y-76571776D01*
X107153606Y-76688832D01*
X107102506Y-76825832D01*
X107102506Y-76825834D01*
X107095995Y-76886382D01*
X101539495Y-76886382D01*
X101539495Y-73614037D01*
X101559180Y-73546998D01*
X101611984Y-73501243D01*
X101663495Y-73490037D01*
X110429495Y-73490037D01*
X110429495Y-73490035D01*
X116735997Y-73490035D01*
X116735997Y-73490037D01*
X116755951Y-73718118D01*
X116755952Y-73718126D01*
X116815209Y-73939275D01*
X116815213Y-73939286D01*
X116911970Y-74146782D01*
X116911972Y-74146786D01*
X117043297Y-74334337D01*
X117205195Y-74496235D01*
X117392746Y-74627560D01*
X117517586Y-74685773D01*
X117600245Y-74724318D01*
X117600247Y-74724318D01*
X117600252Y-74724321D01*
X117821408Y-74783580D01*
X117984327Y-74797833D01*
X118049493Y-74803535D01*
X118049495Y-74803535D01*
X118049497Y-74803535D01*
X118106516Y-74798546D01*
X118277582Y-74783580D01*
X118498738Y-74724321D01*
X118706244Y-74627560D01*
X118893795Y-74496235D01*
X119055693Y-74334337D01*
X119187018Y-74146786D01*
X119283779Y-73939280D01*
X119343038Y-73718124D01*
X119362993Y-73490037D01*
X119343038Y-73261950D01*
X119283779Y-73040794D01*
X119187018Y-72833288D01*
X119055693Y-72645737D01*
X118893795Y-72483839D01*
X118706244Y-72352514D01*
X118706240Y-72352512D01*
X118498744Y-72255755D01*
X118498733Y-72255751D01*
X118277584Y-72196494D01*
X118277576Y-72196493D01*
X118049497Y-72176539D01*
X118049493Y-72176539D01*
X117821413Y-72196493D01*
X117821405Y-72196494D01*
X117600256Y-72255751D01*
X117600245Y-72255755D01*
X117392749Y-72352512D01*
X117392747Y-72352513D01*
X117392746Y-72352514D01*
X117205195Y-72483839D01*
X117205193Y-72483840D01*
X117205190Y-72483843D01*
X117043301Y-72645732D01*
X116911971Y-72833289D01*
X116911970Y-72833291D01*
X116815213Y-73040787D01*
X116815209Y-73040798D01*
X116755952Y-73261947D01*
X116755951Y-73261955D01*
X116735997Y-73490035D01*
X110429495Y-73490035D01*
X110429495Y-64724037D01*
X110449180Y-64656998D01*
X110501984Y-64611243D01*
X110553495Y-64600037D01*
X121224495Y-64600037D01*
X121224495Y-76030037D01*
G37*
%TD.AperFunction*%
%TD*%
%TA.AperFunction,Conductor*%
%TO.N,GND*%
G36*
X139893495Y-116035037D02*
G01*
X124777171Y-116035037D01*
X124710132Y-116015352D01*
X124664377Y-115962548D01*
X124653171Y-115911362D01*
X124646738Y-113455140D01*
X124666247Y-113388049D01*
X124718931Y-113342156D01*
X124770738Y-113330815D01*
X139639495Y-113330815D01*
X139886412Y-113330815D01*
X139893495Y-116035037D01*
G37*
%TD.AperFunction*%
%TD*%
%TA.AperFunction,Conductor*%
%TO.N,GND*%
G36*
X132089534Y-104370722D02*
G01*
X132135289Y-104423526D01*
X132146495Y-104475037D01*
X132146495Y-109050037D01*
X139639495Y-109050037D01*
X139639495Y-110955037D01*
X130238495Y-110955037D01*
X130171456Y-110935352D01*
X130125701Y-110882548D01*
X130114495Y-110831037D01*
X130114495Y-106383037D01*
X124523143Y-106383037D01*
X124272495Y-106383037D01*
X124272495Y-104615040D01*
X124362216Y-104422632D01*
X124408388Y-104370193D01*
X124474598Y-104351037D01*
X132022495Y-104351037D01*
X132089534Y-104370722D01*
G37*
%TD.AperFunction*%
%TD*%
%TA.AperFunction,Conductor*%
%TO.N,GND*%
G36*
X153086203Y-76022647D02*
G01*
X126939495Y-76022647D01*
X126939495Y-74117647D01*
X153086203Y-74117647D01*
X153086203Y-76022647D01*
G37*
%TD.AperFunction*%
%TD*%
%TA.AperFunction,Conductor*%
%TO.N,GND*%
G36*
X140852534Y-76684722D02*
G01*
X140898289Y-76737526D01*
X140909495Y-76789037D01*
X140909495Y-81060317D01*
X140889810Y-81127356D01*
X140875146Y-81145984D01*
X140354243Y-81691113D01*
X140293696Y-81725982D01*
X140223909Y-81722582D01*
X140194742Y-81707900D01*
X140145449Y-81674292D01*
X140100959Y-81643959D01*
X140100949Y-81643953D01*
X139870251Y-81532856D01*
X139870232Y-81532849D01*
X139625559Y-81457378D01*
X139625549Y-81457375D01*
X139372352Y-81419212D01*
X139372345Y-81419212D01*
X139116277Y-81419212D01*
X139116269Y-81419212D01*
X138863072Y-81457375D01*
X138863066Y-81457377D01*
X138618372Y-81532855D01*
X138387673Y-81643953D01*
X138387672Y-81643954D01*
X138176091Y-81788207D01*
X137988383Y-81962373D01*
X137828724Y-82162581D01*
X137700689Y-82384342D01*
X137607139Y-82622705D01*
X137607133Y-82622724D01*
X137550155Y-82872363D01*
X137550154Y-82872368D01*
X137531020Y-83127707D01*
X137531020Y-83127716D01*
X137550154Y-83383055D01*
X137550155Y-83383060D01*
X137607133Y-83632699D01*
X137607135Y-83632708D01*
X137607137Y-83632713D01*
X137700689Y-83871081D01*
X137828724Y-84092843D01*
X137861474Y-84133910D01*
X137866069Y-84139672D01*
X137892478Y-84204359D01*
X137879721Y-84273054D01*
X137858773Y-84302651D01*
X124526495Y-98255036D01*
X124526495Y-98255037D01*
X124524672Y-102676494D01*
X124524412Y-103305995D01*
X124504700Y-103373026D01*
X124451877Y-103418760D01*
X124382714Y-103428675D01*
X124319171Y-103399623D01*
X124288030Y-103358349D01*
X124267018Y-103313288D01*
X124261911Y-103305995D01*
X124135693Y-103125737D01*
X123973795Y-102963839D01*
X123786244Y-102832514D01*
X123786240Y-102832512D01*
X123578744Y-102735755D01*
X123578733Y-102735751D01*
X123357584Y-102676494D01*
X123357576Y-102676493D01*
X123129497Y-102656539D01*
X123129493Y-102656539D01*
X122901413Y-102676493D01*
X122901405Y-102676494D01*
X122680256Y-102735751D01*
X122680245Y-102735755D01*
X122472749Y-102832512D01*
X122472747Y-102832513D01*
X122472746Y-102832514D01*
X122285195Y-102963839D01*
X122285193Y-102963840D01*
X122285190Y-102963843D01*
X122123301Y-103125732D01*
X121991971Y-103313289D01*
X121991970Y-103313291D01*
X121895213Y-103520787D01*
X121895209Y-103520798D01*
X121835952Y-103741947D01*
X121835951Y-103741955D01*
X121815997Y-103970035D01*
X121815997Y-103970038D01*
X121835951Y-104198118D01*
X121835952Y-104198126D01*
X121895209Y-104419275D01*
X121895213Y-104419286D01*
X121991970Y-104626782D01*
X121991972Y-104626786D01*
X122123297Y-104814337D01*
X122285195Y-104976235D01*
X122472746Y-105107560D01*
X122580416Y-105157767D01*
X122680245Y-105204318D01*
X122680247Y-105204318D01*
X122680252Y-105204321D01*
X122901408Y-105263580D01*
X123064327Y-105277833D01*
X123129493Y-105283535D01*
X123129495Y-105283535D01*
X123129497Y-105283535D01*
X123186516Y-105278546D01*
X123357582Y-105263580D01*
X123578738Y-105204321D01*
X123786244Y-105107560D01*
X123973795Y-104976235D01*
X124135693Y-104814337D01*
X124267018Y-104626786D01*
X124272495Y-104615040D01*
X124272495Y-106383037D01*
X124496374Y-106383037D01*
X124493977Y-106384345D01*
X124467616Y-106387169D01*
X113728448Y-106383084D01*
X113661416Y-106363374D01*
X113615681Y-106310553D01*
X113604495Y-106259084D01*
X113604495Y-105746718D01*
X104192241Y-105746718D01*
X104125202Y-105727033D01*
X104079447Y-105674229D01*
X104068241Y-105622385D01*
X104072677Y-103970035D01*
X111655997Y-103970035D01*
X111655997Y-103970038D01*
X111675951Y-104198118D01*
X111675952Y-104198126D01*
X111735209Y-104419275D01*
X111735213Y-104419286D01*
X111831970Y-104626782D01*
X111831972Y-104626786D01*
X111963297Y-104814337D01*
X112125195Y-104976235D01*
X112312746Y-105107560D01*
X112420416Y-105157767D01*
X112520245Y-105204318D01*
X112520247Y-105204318D01*
X112520252Y-105204321D01*
X112741408Y-105263580D01*
X112904327Y-105277833D01*
X112969493Y-105283535D01*
X112969495Y-105283535D01*
X112969497Y-105283535D01*
X113026516Y-105278546D01*
X113197582Y-105263580D01*
X113418738Y-105204321D01*
X113626244Y-105107560D01*
X113813795Y-104976235D01*
X113975693Y-104814337D01*
X114107018Y-104626786D01*
X114203779Y-104419280D01*
X114263038Y-104198124D01*
X114282993Y-103970037D01*
X114263038Y-103741950D01*
X114203779Y-103520794D01*
X114107018Y-103313288D01*
X113975693Y-103125737D01*
X113813795Y-102963839D01*
X113626244Y-102832514D01*
X113626240Y-102832512D01*
X113418744Y-102735755D01*
X113418733Y-102735751D01*
X113197584Y-102676494D01*
X113197576Y-102676493D01*
X112969497Y-102656539D01*
X112969493Y-102656539D01*
X112741413Y-102676493D01*
X112741405Y-102676494D01*
X112520256Y-102735751D01*
X112520245Y-102735755D01*
X112312749Y-102832512D01*
X112312747Y-102832513D01*
X112312746Y-102832514D01*
X112125195Y-102963839D01*
X112125193Y-102963840D01*
X112125190Y-102963843D01*
X111963301Y-103125732D01*
X111831971Y-103313289D01*
X111831970Y-103313291D01*
X111735213Y-103520787D01*
X111735209Y-103520798D01*
X111675952Y-103741947D01*
X111675951Y-103741955D01*
X111655997Y-103970035D01*
X104072677Y-103970035D01*
X104079163Y-101553704D01*
X104099028Y-101486718D01*
X104151955Y-101441105D01*
X104203163Y-101430037D01*
X111064494Y-101430037D01*
X111064495Y-101430037D01*
X111064495Y-99271035D01*
X111655997Y-99271035D01*
X111655997Y-99271038D01*
X111675951Y-99499118D01*
X111675952Y-99499126D01*
X111735209Y-99720275D01*
X111735213Y-99720286D01*
X111831970Y-99927782D01*
X111831972Y-99927786D01*
X111963297Y-100115337D01*
X112125195Y-100277235D01*
X112312746Y-100408560D01*
X112437586Y-100466773D01*
X112520245Y-100505318D01*
X112520247Y-100505318D01*
X112520252Y-100505321D01*
X112741408Y-100564580D01*
X112904327Y-100578833D01*
X112969493Y-100584535D01*
X112969495Y-100584535D01*
X112969497Y-100584535D01*
X113026516Y-100579546D01*
X113197582Y-100564580D01*
X113418738Y-100505321D01*
X113626244Y-100408560D01*
X113813795Y-100277235D01*
X113975693Y-100115337D01*
X114107018Y-99927786D01*
X114203779Y-99720280D01*
X114263038Y-99499124D01*
X114282993Y-99271037D01*
X114282135Y-99261235D01*
X114263038Y-99042955D01*
X114263038Y-99042950D01*
X114203779Y-98821794D01*
X114107018Y-98614288D01*
X113975693Y-98426737D01*
X113813795Y-98264839D01*
X113626244Y-98133514D01*
X113626240Y-98133512D01*
X113418744Y-98036755D01*
X113418733Y-98036751D01*
X113197584Y-97977494D01*
X113197576Y-97977493D01*
X112969497Y-97957539D01*
X112969493Y-97957539D01*
X112741413Y-97977493D01*
X112741405Y-97977494D01*
X112520256Y-98036751D01*
X112520245Y-98036755D01*
X112312749Y-98133512D01*
X112312747Y-98133513D01*
X112312746Y-98133514D01*
X112125195Y-98264839D01*
X112125193Y-98264840D01*
X112125190Y-98264843D01*
X111963301Y-98426732D01*
X111963298Y-98426735D01*
X111963297Y-98426737D01*
X111919645Y-98489078D01*
X111831971Y-98614289D01*
X111831970Y-98614291D01*
X111735213Y-98821787D01*
X111735209Y-98821798D01*
X111675952Y-99042947D01*
X111675951Y-99042955D01*
X111655997Y-99271035D01*
X111064495Y-99271035D01*
X111064496Y-97109037D01*
X111084181Y-97041998D01*
X111136985Y-96996243D01*
X111188496Y-96985037D01*
X113907219Y-96985037D01*
X113939312Y-96989262D01*
X113964025Y-96995883D01*
X114011408Y-97008580D01*
X114174327Y-97022833D01*
X114239493Y-97028535D01*
X114239495Y-97028535D01*
X114239497Y-97028535D01*
X114296516Y-97023546D01*
X114467582Y-97008580D01*
X114522620Y-96993832D01*
X114539678Y-96989262D01*
X114571771Y-96985037D01*
X118684494Y-96985037D01*
X118684495Y-96985037D01*
X138332953Y-76702758D01*
X138393737Y-76668304D01*
X138422015Y-76665037D01*
X140785495Y-76665037D01*
X140852534Y-76684722D01*
G37*
%TD.AperFunction*%
%TD*%
%TA.AperFunction,Conductor*%
%TO.N,GND*%
G36*
X126882534Y-64619722D02*
G01*
X126928289Y-64672526D01*
X126939495Y-64724037D01*
X126939495Y-69347761D01*
X126935270Y-69379854D01*
X126915953Y-69451944D01*
X126915951Y-69451955D01*
X126895997Y-69680035D01*
X126895997Y-69680038D01*
X126915951Y-69908118D01*
X126915952Y-69908125D01*
X126935270Y-69980218D01*
X126939495Y-70012312D01*
X126939495Y-76022647D01*
X126915445Y-76022647D01*
X126907101Y-76027203D01*
X126880743Y-76030037D01*
X121224495Y-76030037D01*
X121224495Y-69045034D01*
X121231188Y-69045034D01*
X121231188Y-69045037D01*
X121250380Y-69264408D01*
X121307375Y-69477113D01*
X121400439Y-69676691D01*
X121526746Y-69857075D01*
X121682457Y-70012786D01*
X121862841Y-70139093D01*
X121985067Y-70196087D01*
X121999151Y-70202655D01*
X122051590Y-70248827D01*
X122070742Y-70316021D01*
X122050526Y-70382902D01*
X121999151Y-70427419D01*
X121862841Y-70490981D01*
X121862837Y-70490983D01*
X121682462Y-70617284D01*
X121682455Y-70617289D01*
X121526747Y-70772997D01*
X121526742Y-70773004D01*
X121400441Y-70953379D01*
X121400439Y-70953383D01*
X121307376Y-71152957D01*
X121250380Y-71365664D01*
X121250379Y-71365671D01*
X121231188Y-71585034D01*
X121231188Y-71585037D01*
X121250380Y-71804408D01*
X121307375Y-72017113D01*
X121307376Y-72017116D01*
X121307377Y-72017118D01*
X121400437Y-72216687D01*
X121400438Y-72216689D01*
X121526746Y-72397075D01*
X121682456Y-72552785D01*
X121808385Y-72640962D01*
X121852010Y-72695540D01*
X121859202Y-72765038D01*
X121827680Y-72827393D01*
X121767450Y-72862806D01*
X121737261Y-72866537D01*
X121695840Y-72866537D01*
X121635292Y-72873048D01*
X121635290Y-72873048D01*
X121498290Y-72924148D01*
X121381234Y-73011776D01*
X121293606Y-73128832D01*
X121242506Y-73265832D01*
X121242506Y-73265834D01*
X121235995Y-73326382D01*
X121235995Y-74923691D01*
X121242506Y-74984239D01*
X121242506Y-74984241D01*
X121293606Y-75121241D01*
X121381234Y-75238298D01*
X121498291Y-75325926D01*
X121635294Y-75377026D01*
X121662545Y-75379955D01*
X121695840Y-75383536D01*
X121695857Y-75383537D01*
X123293133Y-75383537D01*
X123293149Y-75383536D01*
X123320187Y-75380628D01*
X123353696Y-75377026D01*
X123490699Y-75325926D01*
X123607756Y-75238298D01*
X123695384Y-75121241D01*
X123746484Y-74984238D01*
X123750086Y-74950729D01*
X123752994Y-74923691D01*
X123752995Y-74923674D01*
X123752995Y-73326399D01*
X123752994Y-73326382D01*
X123749652Y-73295307D01*
X123746484Y-73265836D01*
X123695384Y-73128833D01*
X123607756Y-73011776D01*
X123490699Y-72924148D01*
X123353698Y-72873048D01*
X123293149Y-72866537D01*
X123293133Y-72866537D01*
X123251729Y-72866537D01*
X123184690Y-72846852D01*
X123138935Y-72794048D01*
X123128991Y-72724890D01*
X123158016Y-72661334D01*
X123180605Y-72640962D01*
X123306533Y-72552786D01*
X123462244Y-72397075D01*
X123588551Y-72216691D01*
X123681615Y-72017113D01*
X123738610Y-71804408D01*
X123757802Y-71585037D01*
X123738610Y-71365666D01*
X123681615Y-71152961D01*
X123588551Y-70953384D01*
X123588549Y-70953381D01*
X123588548Y-70953379D01*
X123493446Y-70817560D01*
X123462244Y-70772999D01*
X123306533Y-70617288D01*
X123126149Y-70490981D01*
X122989839Y-70427419D01*
X122937399Y-70381247D01*
X122918247Y-70314054D01*
X122938462Y-70247172D01*
X122989839Y-70202655D01*
X123005857Y-70195185D01*
X123126149Y-70139093D01*
X123306533Y-70012786D01*
X123462244Y-69857075D01*
X123588551Y-69676691D01*
X123681615Y-69477113D01*
X123738610Y-69264408D01*
X123757802Y-69045037D01*
X123738610Y-68825666D01*
X123681615Y-68612961D01*
X123588551Y-68413384D01*
X123588549Y-68413381D01*
X123588548Y-68413379D01*
X123525397Y-68323191D01*
X123462244Y-68232999D01*
X123306533Y-68077288D01*
X123126149Y-67950981D01*
X123126145Y-67950979D01*
X122926576Y-67857919D01*
X122926574Y-67857918D01*
X122926571Y-67857917D01*
X122775272Y-67817376D01*
X122713867Y-67800922D01*
X122713860Y-67800921D01*
X122494497Y-67781730D01*
X122494493Y-67781730D01*
X122275129Y-67800921D01*
X122275122Y-67800922D01*
X122062415Y-67857918D01*
X121862841Y-67950981D01*
X121862837Y-67950983D01*
X121682462Y-68077284D01*
X121682455Y-68077289D01*
X121526747Y-68232997D01*
X121526742Y-68233004D01*
X121400441Y-68413379D01*
X121400439Y-68413383D01*
X121307376Y-68612957D01*
X121250380Y-68825664D01*
X121250379Y-68825671D01*
X121231188Y-69045034D01*
X121224495Y-69045034D01*
X121224495Y-66153147D01*
X121233367Y-66120037D01*
X121224495Y-66120037D01*
X121224495Y-65620037D01*
X121233367Y-65620037D01*
X121233367Y-65620036D01*
X121224495Y-65586925D01*
X121224495Y-64600037D01*
X126815495Y-64600037D01*
X126882534Y-64619722D01*
G37*
%TD.AperFunction*%
%TD*%
%TA.AperFunction,Conductor*%
%TO.N,GND*%
G36*
X152974495Y-112088388D02*
G01*
X152847480Y-112247661D01*
X152715699Y-112475912D01*
X152619410Y-112721251D01*
X152619405Y-112721268D01*
X152560759Y-112978213D01*
X152541064Y-113241032D01*
X152541064Y-113241041D01*
X152560759Y-113503860D01*
X152560760Y-113503863D01*
X152619408Y-113760817D01*
X152715699Y-114006161D01*
X152847480Y-114234413D01*
X152974495Y-114393684D01*
X152974495Y-123655037D01*
X148281995Y-123655037D01*
X148214956Y-123635352D01*
X148169201Y-123582548D01*
X148157995Y-123531037D01*
X148157995Y-122221399D01*
X148157994Y-122221382D01*
X148154652Y-122190307D01*
X148151484Y-122160836D01*
X148100384Y-122023833D01*
X148012756Y-121906776D01*
X147895699Y-121819148D01*
X147758698Y-121768048D01*
X147698149Y-121761537D01*
X147698133Y-121761537D01*
X146100857Y-121761537D01*
X146100840Y-121761537D01*
X146040292Y-121768048D01*
X146040290Y-121768048D01*
X145903290Y-121819148D01*
X145786234Y-121906776D01*
X145698606Y-122023832D01*
X145647506Y-122160832D01*
X145647506Y-122160834D01*
X145640995Y-122221382D01*
X145640995Y-123531037D01*
X145621310Y-123598076D01*
X145568506Y-123643831D01*
X145516995Y-123655037D01*
X143781771Y-123655037D01*
X143749678Y-123650812D01*
X143677587Y-123631495D01*
X143677583Y-123631494D01*
X143677582Y-123631494D01*
X143677581Y-123631493D01*
X143677576Y-123631493D01*
X143449497Y-123611539D01*
X143449493Y-123611539D01*
X143221413Y-123631493D01*
X143221402Y-123631495D01*
X143149312Y-123650812D01*
X143117219Y-123655037D01*
X139763495Y-123655037D01*
X139696456Y-123635352D01*
X139650701Y-123582548D01*
X139639495Y-123531037D01*
X139639495Y-119845037D01*
X139640150Y-117378358D01*
X139639495Y-117378358D01*
X139639495Y-116035037D01*
X139893495Y-116035037D01*
X139886412Y-113330815D01*
X139639495Y-113330815D01*
X139639495Y-109050037D01*
X152974495Y-109050037D01*
X152974495Y-112088388D01*
G37*
%TD.AperFunction*%
%TD*%
%TA.AperFunction,Conductor*%
%TO.N,GND*%
G36*
X111987761Y-112270857D02*
G01*
X111987758Y-112270858D01*
X111807203Y-112425068D01*
X111652993Y-112605623D01*
X111652992Y-112605626D01*
X111528931Y-112808074D01*
X111528929Y-112808077D01*
X111438067Y-113027439D01*
X111438067Y-113027441D01*
X111382637Y-113258322D01*
X111364007Y-113495037D01*
X111382637Y-113731751D01*
X111438067Y-113962632D01*
X111438067Y-113962634D01*
X111528929Y-114181996D01*
X111528931Y-114181999D01*
X111652992Y-114384447D01*
X111652993Y-114384450D01*
X111652996Y-114384453D01*
X111807203Y-114565006D01*
X111946969Y-114684377D01*
X111987758Y-114719215D01*
X111987761Y-114719216D01*
X112190209Y-114843277D01*
X112190212Y-114843279D01*
X112409575Y-114934141D01*
X112409576Y-114934141D01*
X112409578Y-114934142D01*
X112640461Y-114989572D01*
X112877172Y-115008202D01*
X113113883Y-114989572D01*
X113344766Y-114934142D01*
X113344768Y-114934141D01*
X113344769Y-114934141D01*
X113564131Y-114843279D01*
X113564132Y-114843278D01*
X113564135Y-114843277D01*
X113766588Y-114719213D01*
X113947141Y-114565006D01*
X114101348Y-114384453D01*
X114225412Y-114182000D01*
X114316277Y-113962631D01*
X114371707Y-113731748D01*
X114390337Y-113495037D01*
X114371707Y-113258326D01*
X114316277Y-113027443D01*
X114316276Y-113027440D01*
X114316276Y-113027439D01*
X114225414Y-112808077D01*
X114225412Y-112808074D01*
X114101351Y-112605626D01*
X114101350Y-112605623D01*
X114066512Y-112564834D01*
X113947141Y-112425068D01*
X113827768Y-112323113D01*
X113766585Y-112270858D01*
X113766582Y-112270857D01*
X113691811Y-112225037D01*
X120589495Y-112225037D01*
X120590150Y-117378358D01*
X139640150Y-117378358D01*
X139639495Y-119845037D01*
X117668495Y-119845037D01*
X117668495Y-123912037D01*
X117648810Y-123979076D01*
X117596006Y-124024831D01*
X117544495Y-124036037D01*
X109918495Y-124036037D01*
X109851456Y-124016352D01*
X109805701Y-123963548D01*
X109794495Y-123912037D01*
X109794495Y-118272312D01*
X109798720Y-118240218D01*
X109818038Y-118168124D01*
X109837993Y-117940037D01*
X109818038Y-117711950D01*
X109798720Y-117639854D01*
X109794495Y-117607761D01*
X109794495Y-112225037D01*
X112062532Y-112225037D01*
X111987761Y-112270857D01*
G37*
%TD.AperFunction*%
%TD*%
M02*
